<svg xmlns="http://www.w3.org/2000/svg" viewBox="0 0 85.2 70.07"><defs><style>.cls-1{fill:#e52c61;}</style></defs><g id="snooze"><path class="cls-1" d="M29.4,70.07c-4.15,0-9.07-.84-12.41-4.4-2.34-2.5-3.75-6.26-4.2-10.85-6.37-.22-11.32-1.68-12.52-5h0c-2.08-5.68,8.16-14,17-19.29,5.05-12.17,14.59-25.15,28-28.25a32.4,32.4,0,0,1,12.88-.18A39.35,39.35,0,0,1,68.36.05c5.25-.3,9.46.87,12.18,3.39,5.35,5,6.16,16.94,2.06,30.48C78.63,47,69.32,63.1,56.15,65.24a22.69,22.69,0,0,1-7.73-.19,36.12,36.12,0,0,1-12.71,4.48A42,42,0,0,1,29.4,70.07ZM15.27,54.85c.42,3.91,1.6,7.09,3.52,9.14,4.55,4.85,13.28,3.58,16.56,3.11a33.2,33.2,0,0,0,9.54-3,27.87,27.87,0,0,1-8.17-4.25c-4.28.91-8.58.81-11.52-1.74a9.4,9.4,0,0,1-2.59-3.8A72.81,72.81,0,0,1,15.27,54.85ZM51.68,63a18.2,18.2,0,0,0,4.07-.17C67,61,76.18,46.62,80.25,33.21c3.77-12.45,3.21-23.69-1.39-28-2.21-2.05-5.79-3-10.36-2.74a34.4,34.4,0,0,0-5.75.87c4.49,1.6,8.19,4.28,9.82,8a12.27,12.27,0,0,1,.62,7.54c.17.15.32.31.47.47C76,22.11,75.89,27.79,73.23,35,70.05,43.55,62.44,55.52,51.68,63ZM39.83,59.06A26,26,0,0,0,48,62.44C59.5,55.56,67.65,43,70.92,34.11c2-5.36,2.49-9.88,1.43-12.25a33.4,33.4,0,0,1-3.89,7.3,12.58,12.58,0,0,1-.71,5.37C65.17,42.34,56.61,51.35,47.4,55.94A52.07,52.07,0,0,1,39.83,59.06ZM25.15,54a6.81,6.81,0,0,0,1.66,2.27c1.63,1.41,4.24,1.89,7.52,1.48A16.91,16.91,0,0,1,31,53C29.08,53.38,27.12,53.73,25.15,54Zm8.31-1.61a15.45,15.45,0,0,0,3.85,4.79,44,44,0,0,0,9-3.46c8.54-4.26,16.76-12.85,19.12-20,.1-.33.2-.66.28-1A63,63,0,0,1,52.83,44.46,51.61,51.61,0,0,1,40,50.52C38,51.21,35.78,51.85,33.46,52.41ZM19.2,32.24c-.69,1.71-1.28,3.41-1.78,5a48.68,48.68,0,0,0-2.3,15.11,67,67,0,0,0,6.82-.4c-1.26-6.41,1-15.49,5.15-23.64-1.09.44-2.16.92-3.22,1.42Q21.49,30.92,19.2,32.24Zm-3.4,2.08C7.55,39.71,1.51,46.08,2.58,49h0c.71,1.92,4.57,3.08,10.06,3.32a51.08,51.08,0,0,1,2.43-15.78C15.29,35.83,15.53,35.08,15.8,34.32ZM30.62,27c-5,8.63-7.48,18.51-6.21,24.67,1.89-.26,3.83-.6,5.79-1q-.09-.35-.15-.69c-1.53-7.93,5.09-14.88,8.65-18.61a49.16,49.16,0,0,1,10.53-8.21A70,70,0,0,0,30.62,27Zm23.8-3.89a48.31,48.31,0,0,0-13.94,9.94c-3.25,3.41-9.3,9.76-8,16.45,0,.2.09.4.14.6,2.22-.54,4.44-1.18,6.64-1.93a49.1,49.1,0,0,0,12.22-5.78A59.66,59.66,0,0,0,65.85,28.63a5,5,0,0,0-.36-1C64.11,24.93,60,23.44,54.42,23.13ZM52.05,4.05a27.48,27.48,0,0,0-6.23.68c-11.49,2.65-20,13.19-25,23.84.7-.37,1.37-.71,2-1,2-.93,4-1.79,6.14-2.55a50.67,50.67,0,0,1,4.77-6.67A56.78,56.78,0,0,1,53.23,4.07ZM59,21.24c4,.8,7,2.41,8.51,5a26.82,26.82,0,0,0,2.9-6.15,8.3,8.3,0,0,0-2.81-.48A26,26,0,0,0,59,21.24ZM58.3,4.68A54.87,54.87,0,0,0,35.59,19.93c-1,1.22-2,2.51-2.93,3.84A66.88,66.88,0,0,1,54,20.67c4.9-2.29,9.82-3.64,13.69-3.56a11.19,11.19,0,0,1,3.3.52,9.59,9.59,0,0,0-.62-5.27C68.58,8.41,63.78,5.8,58.3,4.68Z"/></g></svg>