<svg xmlns="http://www.w3.org/2000/svg" xmlns:xlink="http://www.w3.org/1999/xlink" viewBox="0 0 245.01 153.36"><defs><style>.cls-1{fill:#fce7e6;}.cls-2,.cls-3,.cls-4{opacity:0.7;}.cls-2{fill:url(#Gradient_bez_nazwy_101);}.cls-3{fill:url(#Gradient_bez_nazwy_101-2);}.cls-4{fill:url(#Gradient_bez_nazwy_101-3);}</style><linearGradient id="Gradient_bez_nazwy_101" x1="182.91" y1="132.38" x2="145.36" y2="67.34" gradientUnits="userSpaceOnUse"><stop offset="0" stop-color="#c72f5e" stop-opacity="0.8"/><stop offset="0.08" stop-color="#cd426c" stop-opacity="0.72"/><stop offset="0.4" stop-color="#e188a0" stop-opacity="0.41"/><stop offset="0.67" stop-color="#f0bcc6" stop-opacity="0.19"/><stop offset="0.88" stop-color="#f9dbdd" stop-opacity="0.05"/><stop offset="1" stop-color="#fce7e6" stop-opacity="0"/></linearGradient><linearGradient id="Gradient_bez_nazwy_101-2" x1="48.91" y1="144.12" x2="40.08" y2="128.82" xlink:href="#Gradient_bez_nazwy_101"/><linearGradient id="Gradient_bez_nazwy_101-3" x1="12.48" y1="152.81" x2="7.67" y2="144.46" xlink:href="#Gradient_bez_nazwy_101"/></defs><g id="snooze"><ellipse class="cls-1" cx="137.88" cy="66.92" rx="106.99" ry="66.93"/><ellipse class="cls-1" cx="41.12" cy="130.64" rx="17.95" ry="14.64"/><ellipse class="cls-1" cx="8.66" cy="146.17" rx="8.8" ry="7.18"/><path class="cls-2" d="M245.14,67.12c-.14,11.3-4.88,19.57-7.88,24.45-15.75,25.65-46.1,33.83-61,37.84a171.27,171.27,0,0,1-60.53,3.26,150.46,150.46,0,0,1-24.51-5.36,140.23,140.23,0,0,1-23.74-10c75,13,136.49-10.11,151.91-49.54,3.14-8,6.57-22.37.78-43.67C223.41,26.43,245.45,42.52,245.14,67.12Z"/><path class="cls-3" d="M59.07,130.64a12.57,12.57,0,0,1-1.68,6.18c-3.33,6.07-10.29,7.7-11.74,8.05-1,.23-9.4,2.06-16.41-3.23a18.14,18.14,0,0,1-4-4.23c8.55,3.47,17.9,2.41,24.22-2.95a21.7,21.7,0,0,0,6.9-11.59A12.8,12.8,0,0,1,59.07,130.64Z"/><path class="cls-4" d="M17.44,146.17a6.25,6.25,0,0,1-1,3.43,8.56,8.56,0,0,1-5.6,3.54,10.07,10.07,0,0,1-8.23-1.79,8.75,8.75,0,0,1-2.18-2.68c5.66,2.25,11.27,1.22,13.75-2.14a8,8,0,0,0,1.45-4.77A6.54,6.54,0,0,1,17.44,146.17Z"/></g></svg>