<svg xmlns="http://www.w3.org/2000/svg" xmlns:xlink="http://www.w3.org/1999/xlink" viewBox="0 0 245.01 153.36"><defs><style>.cls-1{fill:#fce7e6;}.cls-2,.cls-3,.cls-4{opacity:0.7;}.cls-2{fill:url(#Gradient_bez_nazwy_101);}.cls-3{fill:url(#Gradient_bez_nazwy_101-2);}.cls-4{fill:url(#Gradient_bez_nazwy_101-3);}.cls-5{fill:#e52c61;}</style><linearGradient id="Gradient_bez_nazwy_101" x1="182.91" y1="132.38" x2="145.36" y2="67.34" gradientUnits="userSpaceOnUse"><stop offset="0" stop-color="#c72f5e" stop-opacity="0.8"/><stop offset="0.08" stop-color="#cd426c" stop-opacity="0.72"/><stop offset="0.4" stop-color="#e188a0" stop-opacity="0.41"/><stop offset="0.67" stop-color="#f0bcc6" stop-opacity="0.19"/><stop offset="0.88" stop-color="#f9dbdd" stop-opacity="0.05"/><stop offset="1" stop-color="#fce7e6" stop-opacity="0"/></linearGradient><linearGradient id="Gradient_bez_nazwy_101-2" x1="48.91" y1="144.12" x2="40.08" y2="128.82" xlink:href="#Gradient_bez_nazwy_101"/><linearGradient id="Gradient_bez_nazwy_101-3" x1="12.48" y1="152.81" x2="7.67" y2="144.46" xlink:href="#Gradient_bez_nazwy_101"/></defs><g id="snooze"><ellipse class="cls-1" cx="137.88" cy="66.92" rx="106.99" ry="66.93"/><ellipse class="cls-1" cx="41.12" cy="130.64" rx="17.95" ry="14.64"/><ellipse class="cls-1" cx="8.66" cy="146.17" rx="8.8" ry="7.18"/><path class="cls-2" d="M245.14,67.12c-.14,11.3-4.88,19.57-7.88,24.45-15.75,25.65-46.1,33.83-61,37.84a171.27,171.27,0,0,1-60.53,3.26,150.46,150.46,0,0,1-24.51-5.36,140.23,140.23,0,0,1-23.74-10c75,13,136.49-10.11,151.91-49.54,3.14-8,6.57-22.37.78-43.67C223.41,26.43,245.45,42.52,245.14,67.12Z"/><path class="cls-3" d="M59.07,130.64a12.57,12.57,0,0,1-1.68,6.18c-3.33,6.07-10.29,7.7-11.74,8.05-1,.23-9.4,2.06-16.41-3.23a18.14,18.14,0,0,1-4-4.23c8.55,3.47,17.9,2.41,24.22-2.95a21.7,21.7,0,0,0,6.9-11.59A12.8,12.8,0,0,1,59.07,130.64Z"/><path class="cls-4" d="M17.44,146.17a6.25,6.25,0,0,1-1,3.43,8.56,8.56,0,0,1-5.6,3.54,10.07,10.07,0,0,1-8.23-1.79,8.75,8.75,0,0,1-2.18-2.68c5.66,2.25,11.27,1.22,13.75-2.14a8,8,0,0,0,1.45-4.77A6.54,6.54,0,0,1,17.44,146.17Z"/><path class="cls-5" d="M122.19,98.63c-4.15,0-9.08-.85-12.41-4.4-2.35-2.5-3.76-6.27-4.2-10.85-6.37-.22-11.32-1.68-12.52-4.95h0c-2.08-5.69,8.15-14.05,17-19.3,5-12.16,14.59-25.14,28-28.24a32.4,32.4,0,0,1,12.88-.19,39.61,39.61,0,0,1,10.21-2.1c5.26-.3,9.47.87,12.19,3.4,5.35,5,6.16,16.94,2.06,30.48-4,13.11-13.28,29.18-26.46,31.32a22.71,22.71,0,0,1-7.73-.2,35.87,35.87,0,0,1-12.71,4.49A43.36,43.36,0,0,1,122.19,98.63ZM108.06,83.4c.42,3.92,1.59,7.1,3.51,9.14,4.55,4.85,13.28,3.59,16.57,3.11a32.53,32.53,0,0,0,9.53-3,27.64,27.64,0,0,1-8.17-4.25c-4.27.91-8.57.82-11.51-1.73a9.47,9.47,0,0,1-2.59-3.8A72.92,72.92,0,0,1,108.06,83.4Zm36.41,8.14a18.2,18.2,0,0,0,4.07-.17C159.82,89.54,169,75.18,173,61.76c3.78-12.45,3.22-23.68-1.38-28-2.21-2.06-5.8-3-10.36-2.74a33.66,33.66,0,0,0-5.76.87c4.49,1.6,8.19,4.28,9.83,8a12.42,12.42,0,0,1,.62,7.54,5.1,5.1,0,0,1,.46.47c2.39,2.73,2.23,8.41-.42,15.59C162.84,72.1,155.23,84.08,144.47,91.54Zm-11.86-3.92a26.43,26.43,0,0,0,8.2,3.38c11.47-6.89,19.62-19.49,22.9-28.34,2-5.36,2.49-9.88,1.42-12.24a32.78,32.78,0,0,1-3.89,7.3,12.58,12.58,0,0,1-.7,5.37C158,70.89,149.4,79.9,140.19,84.5A54.07,54.07,0,0,1,132.61,87.62Zm-14.67-5.05a6.5,6.5,0,0,0,1.66,2.28c1.63,1.41,4.23,1.89,7.52,1.48a17,17,0,0,1-3.33-4.8C121.87,81.93,119.9,82.29,117.94,82.57Zm8.3-1.6a15.75,15.75,0,0,0,3.86,4.79,45.43,45.43,0,0,0,9-3.46c8.54-4.27,16.75-12.86,19.11-20,.11-.33.21-.65.29-1A62.69,62.69,0,0,1,145.61,73a51.16,51.16,0,0,1-12.79,6.07C130.79,79.77,128.57,80.41,126.24,81ZM112,60.79c-.69,1.72-1.28,3.41-1.78,5.05A48.8,48.8,0,0,0,107.9,81a67,67,0,0,0,6.83-.4c-1.27-6.4,1-15.48,5.15-23.64-1.09.45-2.17.93-3.22,1.43C115.07,59.09,113.5,59.92,112,60.79Zm-3.41,2.09c-8.25,5.38-14.29,11.76-13.21,14.7h0c.7,1.92,4.56,3.09,10.06,3.33a51,51,0,0,1,2.42-15.78C108.08,64.39,108.32,63.64,108.58,62.88Zm14.82-7.31c-5,8.64-7.48,18.52-6.2,24.68,1.88-.26,3.83-.6,5.79-1-.06-.23-.11-.46-.16-.69-1.52-7.93,5.1-14.88,8.65-18.61A49.57,49.57,0,0,1,142,51.71,70.9,70.9,0,0,0,123.4,55.57Zm23.81-3.88a48.11,48.11,0,0,0-14,9.94c-3.25,3.41-9.3,9.76-8,16.44a6,6,0,0,0,.14.61c2.21-.54,4.44-1.18,6.63-1.93A49.5,49.5,0,0,0,144.25,71a59.85,59.85,0,0,0,14.39-13.78,4.69,4.69,0,0,0-.37-1C156.9,53.48,152.75,52,147.21,51.69Zm-2.37-19.08a28.22,28.22,0,0,0-6.24.67c-11.49,2.65-20,13.2-25,23.84.69-.36,1.37-.7,2-1,2-.94,4-1.79,6.14-2.56a50.41,50.41,0,0,1,4.77-6.67A56.88,56.88,0,0,1,146,32.63Zm6.94,17.19c4,.8,7,2.4,8.51,5a26.29,26.29,0,0,0,2.89-6.14,8,8,0,0,0-2.8-.48A25.67,25.67,0,0,0,151.78,49.8Zm-.7-16.56a54.71,54.71,0,0,0-22.7,15.25,44.18,44.18,0,0,0-2.93,3.84,66.85,66.85,0,0,1,21.28-3.11c4.91-2.28,9.82-3.63,13.7-3.56a11.53,11.53,0,0,1,3.3.52,9.79,9.79,0,0,0-.62-5.27C161.37,37,156.57,34.36,151.08,33.24Z"/></g></svg>