<svg xmlns="http://www.w3.org/2000/svg" xmlns:xlink="http://www.w3.org/1999/xlink" viewBox="0 0 537.56 613.24"><defs><style>.cls-1{fill:#fce7e6;}.cls-2{fill:url(#Gradient_bez_nazwy_86);}.cls-3{fill:url(#Gradient_bez_nazwy_84);}.cls-4{fill:url(#Gradient_bez_nazwy_83);}.cls-5{fill:url(#Gradient_bez_nazwy_83-2);}.cls-6{fill:url(#Gradient_bez_nazwy_85);}.cls-7{fill:url(#Gradient_bez_nazwy_83-3);}.cls-8{fill:#f7f6e8;}.cls-9{fill:url(#Gradient_bez_nazwy_82);}.cls-10{fill:#0c0606;}.cls-11{fill:#042033;}.cls-12{fill:#010b11;}.cls-13{fill:#d1cfb8;}.cls-14,.cls-27{fill:#141414;}.cls-15{fill:url(#Gradient_bez_nazwy_45);}.cls-16{fill:url(#Gradient_bez_nazwy_46);}.cls-17{fill:#051828;}.cls-18{fill:url(#Gradient_bez_nazwy_35);}.cls-19{fill:#1e1e1e;}.cls-20{fill:#191919;}.cls-21{fill:url(#Gradient_bez_nazwy_68);}.cls-22{fill:url(#Gradient_bez_nazwy_47);}.cls-23{fill:#dbb6b6;}.cls-24{fill:url(#Gradient_bez_nazwy_32);}.cls-25{fill:url(#Gradient_bez_nazwy_30);}.cls-26{fill:url(#Gradient_bez_nazwy_34);}.cls-27{opacity:0.3;}.cls-28{fill:url(#Gradient_bez_nazwy_61);}.cls-29{fill:url(#Gradient_bez_nazwy_60);}.cls-30{fill:url(#Gradient_bez_nazwy_66);}.cls-31{fill:url(#Gradient_bez_nazwy_78);}.cls-32{fill:url(#Gradient_bez_nazwy_62);}.cls-33{fill:url(#Gradient_bez_nazwy_88);}.cls-34{fill:url(#Gradient_bez_nazwy_104);}.cls-35{fill:#fff;}.cls-36{fill:url(#Gradient_bez_nazwy_104-2);}.cls-37{fill:url(#Gradient_bez_nazwy_104-3);}.cls-38{fill:url(#Gradient_bez_nazwy_104-4);}.cls-39{fill:#000015;opacity:0.51;}</style><linearGradient id="Gradient_bez_nazwy_86" x1="300.35" y1="238.29" x2="280.04" y2="224.91" gradientUnits="userSpaceOnUse"><stop offset="0.08" stop-color="#dbb6b6"/><stop offset="0.58" stop-color="#f0d5d5" stop-opacity="0.36"/><stop offset="0.85" stop-color="#fce7e6" stop-opacity="0"/></linearGradient><linearGradient id="Gradient_bez_nazwy_84" x1="320.06" y1="197.17" x2="309.96" y2="190.23" gradientUnits="userSpaceOnUse"><stop offset="0" stop-color="#dbb6b6"/><stop offset="0.06" stop-color="#e1bfbf" stop-opacity="0.81"/><stop offset="0.14" stop-color="#e9cbcb" stop-opacity="0.57"/><stop offset="0.22" stop-color="#f0d5d5" stop-opacity="0.36"/><stop offset="0.3" stop-color="#f5dddc" stop-opacity="0.21"/><stop offset="0.37" stop-color="#f9e2e2" stop-opacity="0.09"/><stop offset="0.44" stop-color="#fbe6e5" stop-opacity="0.02"/><stop offset="0.5" stop-color="#fce7e6" stop-opacity="0"/></linearGradient><linearGradient id="Gradient_bez_nazwy_83" x1="328.55" y1="200.46" x2="315.76" y2="193.09" gradientUnits="userSpaceOnUse"><stop offset="0" stop-color="#dbb6b6"/><stop offset="0.08" stop-color="#e1bfbf" stop-opacity="0.81"/><stop offset="0.19" stop-color="#e9cbcb" stop-opacity="0.57"/><stop offset="0.31" stop-color="#f0d5d5" stop-opacity="0.36"/><stop offset="0.41" stop-color="#f5dddc" stop-opacity="0.21"/><stop offset="0.51" stop-color="#f9e2e2" stop-opacity="0.09"/><stop offset="0.61" stop-color="#fbe6e5" stop-opacity="0.02"/><stop offset="0.68" stop-color="#fce7e6" stop-opacity="0"/></linearGradient><linearGradient id="Gradient_bez_nazwy_83-2" x1="335.11" y1="206.66" x2="323.07" y2="199.64" xlink:href="#Gradient_bez_nazwy_83"/><linearGradient id="Gradient_bez_nazwy_85" x1="298.91" y1="206.77" x2="288.75" y2="206.47" gradientUnits="userSpaceOnUse"><stop offset="0" stop-color="#dbb6b6"/><stop offset="0.1" stop-color="#e1bfbf" stop-opacity="0.81"/><stop offset="0.24" stop-color="#e9cbcb" stop-opacity="0.57"/><stop offset="0.38" stop-color="#f0d5d5" stop-opacity="0.36"/><stop offset="0.52" stop-color="#f5dddc" stop-opacity="0.21"/><stop offset="0.64" stop-color="#f9e2e2" stop-opacity="0.09"/><stop offset="0.76" stop-color="#fbe6e5" stop-opacity="0.02"/><stop offset="0.85" stop-color="#fce7e6" stop-opacity="0"/></linearGradient><linearGradient id="Gradient_bez_nazwy_83-3" x1="329.37" y1="226.72" x2="313.89" y2="213.55" xlink:href="#Gradient_bez_nazwy_83"/><linearGradient id="Gradient_bez_nazwy_82" x1="295.23" y1="246.42" x2="299.71" y2="219.22" gradientUnits="userSpaceOnUse"><stop offset="0.02" stop-color="#d1cfb8"/><stop offset="0.04" stop-color="#d7d3bf" stop-opacity="0.85"/><stop offset="0.09" stop-color="#e2d9cb" stop-opacity="0.59"/><stop offset="0.14" stop-color="#ecded4" stop-opacity="0.38"/><stop offset="0.19" stop-color="#f3e2dc" stop-opacity="0.22"/><stop offset="0.23" stop-color="#f8e5e2" stop-opacity="0.1"/><stop offset="0.27" stop-color="#fbe6e5" stop-opacity="0.02"/><stop offset="0.3" stop-color="#fce7e6" stop-opacity="0"/></linearGradient><linearGradient id="Gradient_bez_nazwy_45" x1="265.87" y1="123.32" x2="216.36" y2="123.81" gradientUnits="userSpaceOnUse"><stop offset="0" stop-color="#dbb6b6"/><stop offset="0.09" stop-color="#e1bfbf" stop-opacity="0.81"/><stop offset="0.23" stop-color="#e9cbcb" stop-opacity="0.57"/><stop offset="0.36" stop-color="#f0d5d5" stop-opacity="0.36"/><stop offset="0.49" stop-color="#f5dddc" stop-opacity="0.21"/><stop offset="0.61" stop-color="#f9e2e2" stop-opacity="0.09"/><stop offset="0.72" stop-color="#fbe6e5" stop-opacity="0.02"/><stop offset="0.81" stop-color="#fce7e6" stop-opacity="0"/></linearGradient><linearGradient id="Gradient_bez_nazwy_46" x1="204.47" y1="157.28" x2="237.14" y2="145.83" gradientUnits="userSpaceOnUse"><stop offset="0.04" stop-color="#dbb6b6"/><stop offset="0.07" stop-color="#ddb9b9" stop-opacity="0.94"/><stop offset="0.27" stop-color="#e8c9c9" stop-opacity="0.61"/><stop offset="0.45" stop-color="#f0d6d5" stop-opacity="0.35"/><stop offset="0.61" stop-color="#f7dfde" stop-opacity="0.16"/><stop offset="0.73" stop-color="#fbe5e4" stop-opacity="0.04"/><stop offset="0.81" stop-color="#fce7e6" stop-opacity="0"/></linearGradient><linearGradient id="Gradient_bez_nazwy_35" x1="218.44" y1="326.63" x2="236.59" y2="325.78" gradientUnits="userSpaceOnUse"><stop offset="0.1" stop-color="#659bff" stop-opacity="0.7"/><stop offset="0.51" stop-color="#2a4069" stop-opacity="0.29"/><stop offset="0.81" stop-opacity="0"/></linearGradient><linearGradient id="Gradient_bez_nazwy_68" x1="77.17" y1="214.44" x2="125.54" y2="189.73" gradientUnits="userSpaceOnUse"><stop offset="0.02" stop-color="#659bff" stop-opacity="0.8"/><stop offset="0.04" stop-color="#5481d4" stop-opacity="0.66"/><stop offset="0.06" stop-color="#4063a2" stop-opacity="0.51"/><stop offset="0.09" stop-color="#2f4876" stop-opacity="0.37"/><stop offset="0.12" stop-color="#203252" stop-opacity="0.26"/><stop offset="0.16" stop-color="#141f33" stop-opacity="0.16"/><stop offset="0.2" stop-color="#0b111c" stop-opacity="0.09"/><stop offset="0.25" stop-color="#05070c" stop-opacity="0.04"/><stop offset="0.31" stop-color="#010203" stop-opacity="0.01"/><stop offset="0.44" stop-opacity="0"/></linearGradient><linearGradient id="Gradient_bez_nazwy_47" x1="176.37" y1="189.47" x2="211.28" y2="225.04" gradientUnits="userSpaceOnUse"><stop offset="0.09" stop-color="#dbb6b6"/><stop offset="0.17" stop-color="#e1bfbf" stop-opacity="0.81"/><stop offset="0.29" stop-color="#e9cbcb" stop-opacity="0.57"/><stop offset="0.41" stop-color="#f0d5d5" stop-opacity="0.36"/><stop offset="0.52" stop-color="#f5dddc" stop-opacity="0.21"/><stop offset="0.63" stop-color="#f9e2e2" stop-opacity="0.09"/><stop offset="0.73" stop-color="#fbe6e5" stop-opacity="0.02"/><stop offset="0.81" stop-color="#fce7e6" stop-opacity="0"/></linearGradient><linearGradient id="Gradient_bez_nazwy_32" x1="85.21" y1="298.3" x2="117.18" y2="305.51" gradientUnits="userSpaceOnUse"><stop offset="0.21" stop-color="#659bff" stop-opacity="0.8"/><stop offset="0.64" stop-color="#1d2c49" stop-opacity="0.23"/><stop offset="0.81" stop-opacity="0"/></linearGradient><linearGradient id="Gradient_bez_nazwy_30" x1="115.2" y1="381.56" x2="161.31" y2="384.19" gradientUnits="userSpaceOnUse"><stop offset="0.1" stop-color="#659bff" stop-opacity="0.7"/><stop offset="0.15" stop-color="#5c8ee9" stop-opacity="0.64"/><stop offset="0.38" stop-color="#355186" stop-opacity="0.37"/><stop offset="0.58" stop-color="#18253e" stop-opacity="0.17"/><stop offset="0.72" stop-color="#070a11" stop-opacity="0.05"/><stop offset="0.81" stop-opacity="0"/></linearGradient><linearGradient id="Gradient_bez_nazwy_34" x1="154.42" y1="459.41" x2="191.16" y2="454.26" gradientUnits="userSpaceOnUse"><stop offset="0.07" stop-color="#659bff" stop-opacity="0.7"/><stop offset="0.15" stop-color="#4e77c4" stop-opacity="0.54"/><stop offset="0.26" stop-color="#365389" stop-opacity="0.37"/><stop offset="0.36" stop-color="#233557" stop-opacity="0.24"/><stop offset="0.47" stop-color="#131e31" stop-opacity="0.13"/><stop offset="0.58" stop-color="#090d16" stop-opacity="0.06"/><stop offset="0.69" stop-color="#020305" stop-opacity="0.01"/><stop offset="0.81" stop-opacity="0"/></linearGradient><radialGradient id="Gradient_bez_nazwy_61" cx="150.82" cy="518.27" fx="142.11692998905883" r="13.86" gradientTransform="translate(-16.65 156.46) rotate(-2.61) scale(1 0.71)" gradientUnits="userSpaceOnUse"><stop offset="0" stop-color="#9e8465" stop-opacity="0.7"/><stop offset="0.12" stop-color="#947c5f" stop-opacity="0.66"/><stop offset="0.31" stop-color="#78644d" stop-opacity="0.53"/><stop offset="0.53" stop-color="#4a3e2f" stop-opacity="0.33"/><stop offset="0.77" stop-color="#0b0907" stop-opacity="0.05"/><stop offset="0.81" stop-opacity="0"/></radialGradient><radialGradient id="Gradient_bez_nazwy_60" cx="214.88" cy="517.4" r="13.35" gradientTransform="translate(22.24 150.67) rotate(3.53) scale(1 0.68)" gradientUnits="userSpaceOnUse"><stop offset="0" stop-color="#9e8465" stop-opacity="0.7"/><stop offset="0.14" stop-color="#977e60" stop-opacity="0.67"/><stop offset="0.3" stop-color="#826d53" stop-opacity="0.58"/><stop offset="0.47" stop-color="#60503d" stop-opacity="0.43"/><stop offset="0.65" stop-color="#31291f" stop-opacity="0.22"/><stop offset="0.81" stop-opacity="0"/></radialGradient><radialGradient id="Gradient_bez_nazwy_66" cx="14.23" cy="219.18" fx="4.892768048614883" r="16.79" gradientTransform="translate(0 -855.52) scale(1 4.9)" gradientUnits="userSpaceOnUse"><stop offset="0" stop-color="#659bff" stop-opacity="0.8"/><stop offset="0.06" stop-color="#537fd2" stop-opacity="0.66"/><stop offset="0.15" stop-color="#3d5e9a" stop-opacity="0.48"/><stop offset="0.25" stop-color="#2a416b" stop-opacity="0.33"/><stop offset="0.34" stop-color="#1b2944" stop-opacity="0.21"/><stop offset="0.44" stop-color="#0f1726" stop-opacity="0.12"/><stop offset="0.55" stop-color="#070a11" stop-opacity="0.05"/><stop offset="0.66" stop-color="#020204" stop-opacity="0.01"/><stop offset="0.81" stop-opacity="0"/></radialGradient><linearGradient id="Gradient_bez_nazwy_78" x1="94.79" y1="96.1" x2="445.82" y2="317.5" gradientUnits="userSpaceOnUse"><stop offset="0" stop-color="#dbb6b6"/><stop offset="0.05" stop-color="#e1bfbf" stop-opacity="0.81"/><stop offset="0.11" stop-color="#e9cbcb" stop-opacity="0.57"/><stop offset="0.18" stop-color="#f0d5d5" stop-opacity="0.36"/><stop offset="0.24" stop-color="#f5dddc" stop-opacity="0.21"/><stop offset="0.3" stop-color="#f9e2e2" stop-opacity="0.09"/><stop offset="0.35" stop-color="#fbe6e5" stop-opacity="0.02"/><stop offset="0.4" stop-color="#fce7e6" stop-opacity="0"/></linearGradient><linearGradient id="Gradient_bez_nazwy_62" x1="47.66" y1="70.93" x2="218.25" y2="165.57" gradientUnits="userSpaceOnUse"><stop offset="0.02" stop-color="#659bff" stop-opacity="0.8"/><stop offset="0.02" stop-color="#6296f7" stop-opacity="0.78"/><stop offset="0.05" stop-color="#4e77c4" stop-opacity="0.61"/><stop offset="0.09" stop-color="#3b5a95" stop-opacity="0.47"/><stop offset="0.12" stop-color="#2b426c" stop-opacity="0.34"/><stop offset="0.16" stop-color="#1d2d4a" stop-opacity="0.23"/><stop offset="0.21" stop-color="#131c2f" stop-opacity="0.15"/><stop offset="0.27" stop-color="#0a101a" stop-opacity="0.08"/><stop offset="0.33" stop-color="#04070b" stop-opacity="0.03"/><stop offset="0.43" stop-color="#010102" stop-opacity="0.01"/><stop offset="0.69" stop-opacity="0"/></linearGradient><linearGradient id="Gradient_bez_nazwy_88" x1="51.15" y1="163.43" x2="64.32" y2="177.87" gradientUnits="userSpaceOnUse"><stop offset="0.08" stop-color="#dbb6b6"/><stop offset="0.29" stop-color="#e4c4c3" stop-opacity="0.72"/><stop offset="0.54" stop-color="#eed3d2" stop-opacity="0.42"/><stop offset="0.75" stop-color="#f6dedd" stop-opacity="0.19"/><stop offset="0.91" stop-color="#fae4e4" stop-opacity="0.05"/><stop offset="1" stop-color="#fce7e6" stop-opacity="0"/></linearGradient><radialGradient id="Gradient_bez_nazwy_104" cx="131.2" cy="163.26" r="5.02" gradientTransform="translate(-6.56 12.05) rotate(-6.72)" gradientUnits="userSpaceOnUse"><stop offset="0" stop-color="#fff"/><stop offset="0.09" stop-color="#fff" stop-opacity="0.97"/><stop offset="0.22" stop-color="#fff" stop-opacity="0.9"/><stop offset="0.36" stop-color="#fff" stop-opacity="0.78"/><stop offset="0.53" stop-color="#fff" stop-opacity="0.62"/><stop offset="0.71" stop-color="#fff" stop-opacity="0.41"/><stop offset="0.89" stop-color="#fff" stop-opacity="0.16"/><stop offset="1" stop-color="#fff" stop-opacity="0"/></radialGradient><radialGradient id="Gradient_bez_nazwy_104-2" cx="140.88" cy="168.58" r="2.42" xlink:href="#Gradient_bez_nazwy_104"/><radialGradient id="Gradient_bez_nazwy_104-3" cx="253.71" cy="134.92" r="4.01" gradientTransform="translate(12.28 -38.04) rotate(11.28)" xlink:href="#Gradient_bez_nazwy_104"/><radialGradient id="Gradient_bez_nazwy_104-4" cx="261.44" cy="139.16" r="1.93" gradientTransform="translate(12.28 -38.04) rotate(11.28)" xlink:href="#Gradient_bez_nazwy_104"/></defs><g id="angry"><path class="cls-1" d="M284.7,238.42q1.91-7.17,3.82-14.34.47-3.63.86-7.4c.57-5.48,1-10.8,1.26-15.94a3.61,3.61,0,0,1,1.72-2.72,3.24,3.24,0,0,1,2.33,0c3.4,1.25,3.33,13.77,3.31,15.41a168.18,168.18,0,0,1,10.54-16.29c2.75-3.77,5.52-7.22,8.22-10.36,2.06-3.14,5.58-3.66,7-2.51s1.49,4.12-.52,6.69l-9.93,16.34,12.1-17.87a8,8,0,0,1,3.29-3.41c.46-.25,3-1.59,4.26-.71s1.21,4.06-.69,7.65l-11.87,18.36,13.1-16.63a3.79,3.79,0,0,1,5-.75,3.75,3.75,0,0,1-.08,5.62L327.06,215.3,337.2,205a3.37,3.37,0,0,1,3.51-.93c1.3.66,2,3.14.4,5.32l-10,12.25c-4,5.08-19.11,23.8-27.12,20.37a5,5,0,0,1-1-.54l-8.75,6.22Z"/><path class="cls-2" d="M306.89,239.56a5.28,5.28,0,0,0-.77-6.59,5.22,5.22,0,0,0-5.61-.88,5.14,5.14,0,0,0-1.76-5.28,5.19,5.19,0,0,0-6.6.44,4.93,4.93,0,0,0-.77-2.43,5.07,5.07,0,0,0-2.69-2.08q-1.2,6.84-2.39,13.66,5.13,4.92,10.27,9.83l7.69-5.47a4.16,4.16,0,0,0,1.42,1c2.31,1,4.67-.56,4.94-.74A5.11,5.11,0,0,0,306.89,239.56Z"/><path class="cls-3" d="M312.46,206.65l.83.7L323.22,191a6,6,0,0,0,1.23-5.64c-1.55,2.91-3.14,5.84-4.8,8.82Q316.07,200.61,312.46,206.65Z"/><path class="cls-4" d="M319.1,211.57h0a.21.21,0,0,0,0,.06l1.7-.85L332.25,193a10.51,10.51,0,0,0,1.49-6.2c-1.44,2.33-2.59,4.26-3.39,5.62Z"/><path class="cls-5" d="M325.81,215.59l.73.3.78-.86-.26.27,11.39-15.69a3.84,3.84,0,0,0,.69-5c-.9,1.59-1.81,3.19-2.78,4.8C332.89,205.29,329.34,210.66,325.81,215.59Z"/><path class="cls-6" d="M296.3,206.21c.29,2.29.64,5.43.88,9.24.3-.63.58-1.31.85-2l0,.06c0-1.64.09-14.16-3.31-15.41a4.25,4.25,0,0,0-.63-.17,22,22,0,0,1,1.21,3A28.58,28.58,0,0,1,296.3,206.21Z"/><path class="cls-7" d="M339.88,207.82A156.84,156.84,0,0,1,327.13,224c-5.35,6.1-8,9.16-10.85,11.44a55.17,55.17,0,0,1-8.11,5.4,4.51,4.51,0,0,1,1.21.89c8.12-3.13,18.51-16,21.71-20.09l10-12.25a4.29,4.29,0,0,0,.57-4.26C341.14,205.92,340.55,206.83,339.88,207.82Z"/><path class="cls-8" d="M283.65,235.72l.66-1.21c-3.46-4.06-3.72-8.65-1.76-10.56a4.86,4.86,0,0,1,4.84-.88,5.66,5.66,0,0,1,3.52,4.84,5.19,5.19,0,0,1,6.6-.44,5.14,5.14,0,0,1,1.76,5.28,5.22,5.22,0,0,1,5.61.88,5.29,5.29,0,0,1,.77,6.59,4.69,4.69,0,0,1,4.39,2.42,4,4,0,0,1-.22,3.63c-1.41,2.32-6,2.8-11.43,1l-1.76.88Z"/><path class="cls-9" d="M295.16,240.73c-2.42-1.37-4.16-2.57-7.22-4.68-2.14-1.48-3.88-2.76-5.09-3.67l1.46,2-.66,1.21,13,12.43,1.76-.88c5.41,1.81,10,1.33,11.44-1a3.94,3.94,0,0,0,.23-.46,27,27,0,0,1-3.75-.46A34.63,34.63,0,0,1,295.16,240.73Z"/><path class="cls-10" d="M161.59,432q-6.81,23.53-13.63,47.06L140,449.15,115,489.62a337.84,337.84,0,0,1,17.17-58.94,212.73,212.73,0,0,1,15-30.79A196.13,196.13,0,0,1,159,382.3Z"/><path class="cls-10" d="M206.9,486.54c-.29,3.37-.59,6.75-.88,10.12,2.18,1.11,5.89,3,10.56,5.28,10.92,5.35,14.09,6.57,15.83,10.11.85,1.74,1.92,5.19,0,11a27.94,27.94,0,0,1-29.47-.44L184,506.33l.63-22.44Z"/><path class="cls-10" d="M166.43,490.06a47.72,47.72,0,0,1-11,11c-6.34,4.51-10.31,4.92-13.64,9.23-2,2.65-4.11,7.12-3.52,15a30.27,30.27,0,0,0,8.36,4,27.13,27.13,0,0,0,18-.44,25.94,25.94,0,0,0,11.44-9.24l10.12-13.64V487.42Z"/><path class="cls-11" d="M228.33,359.84q-3.63,31-8.49,63.55-5.47,36.5-11.91,70.63a24.58,24.58,0,0,1-19.36,1.17A56.16,56.16,0,0,1,161.24,494l-12.78-136.5a202.64,202.64,0,0,0,79.87,2.37Z"/><path class="cls-12" d="M188.57,495.19l4.11-95.89a14.47,14.47,0,0,0,5.86-2.34,14.06,14.06,0,0,0,2.64-2.35q-5,50.68-9.89,101.37Z"/><path class="cls-12" d="M151.2,369.24c.06,1.57.16,4.41.29,8,.33,9.12.54,14.77.76,19.16.26,5.31.73,12.86,1.65,22.21a52.77,52.77,0,0,1,10.55-8.35,54.47,54.47,0,0,1,25.18-7.6q.23-8.46.35-17.12t.14-17.44Z"/><path class="cls-8" d="M172.15,364.92c8.89.1,18.37-.08,28.37-.66s19.52-1.5,28.37-2.64q-2.76-33.14-4.62-67.95-1.25-23.79-2-46.85l-54.76,2.64Z"/><path class="cls-13" d="M186.23,259.58c1.76,15,3.15,31,4,47.94.91,19,1,37,.44,53.66l-19.79.88-5.28-106Z"/><path class="cls-10" d="M190.5,357.11a267,267,0,0,1-38.8-1.42l1,9.2a220.64,220.64,0,0,0,37.46,2.73c.12-1.74.21-3.51.27-5.34S190.49,358.79,190.5,357.11Z"/><path class="cls-14" d="M232.19,362.94l-.66-10.55a264.24,264.24,0,0,1-28.37,3.95q-6.49.56-12.66.77c0,1.68,0,3.4-.1,5.17s-.15,3.6-.27,5.34c4.83-.07,9.84-.29,15-.72A216,216,0,0,0,232.19,362.94Z"/><path class="cls-10" d="M62.16,103.19c-6.86,5.17-4.37,10.43-15.17,43.54-5.24,16.07-7.37,19.56-8.58,29.69a90.27,90.27,0,0,0,1.32,29.69A88.92,88.92,0,0,0,50.29,232.5c3.18,5.5,6.89,11.92,13.85,18.48,4.72,4.43,14.85,14,29,15.17,4.84.41,8.88-.25,21.78-4.62,25-8.46,37.46-12.69,40.9-17.81,6.72-10-.58-21.1-15.17-60-20.2-53.89-19.43-67.86-36.29-77.85C92,98.47,73,95,62.16,103.19Z"/><path class="cls-1" d="M259.65,74.4c-4.2-9.36-18-36.79-49-51.05-17.5-8-32.88-8.38-41.07-8.48-5.61-.07-58.78.11-94.18,40.81C36.05,100.89,37.62,174.26,55.57,182.36c3.42,1.55,7.3.64,10.38-.6q5.35,12.51,10.73,25a135.08,135.08,0,0,0,87.49,52.69,69.29,69.29,0,0,0,48.92-3.16,118.71,118.71,0,0,0,19.84-17.5c38.62-42.71,34.94-102.66,33.76-121.76A213.83,213.83,0,0,0,259.65,74.4Z"/><path class="cls-15" d="M258.59,71.15A98.17,98.17,0,0,0,239.3,46.84c-7.15-6.54-15-11.76-15.54-11.15-.74.87,15.35,10.82,26.68,31.09h0c4.9,9.64,6.87,16.33,10.6,29.32.44,1.55,1.26,4.53-.27,6.39a4,4,0,0,1-1.77,1.2,4.18,4.18,0,0,1-.82,4.18c-.64.57-1.56,1.38-2.69,2.32a124,124,0,0,1-19.13,13.19,125,125,0,0,1-17.65,8.16c7.39-1.71,21.26-4.23,32.39-1.34a14.4,14.4,0,0,1,4.61,2c7.09,4.76,7.64,15.12,7.92,20.45.26,4.79-.56,9.59-2.19,19-1.81,10.4-2.72,15.6-5.07,22.59a102.94,102.94,0,0,1-7.69,17.37l4-1.38a173.45,173.45,0,0,0,11.91-40.33A192.73,192.73,0,0,0,267,142.28a242.49,242.49,0,0,0-2.2-42.07A225.49,225.49,0,0,0,258.59,71.15Z"/><path class="cls-16" d="M201.63,133.88a52.05,52.05,0,0,0,5.1,12.92c2.58,4.61,7.05,10.83,7.91,12,3.7,5.12,4.85,6.18,5,8.5.32,5.11-4.66,9.22-5.57,10-10.13,8.36-27.81.56-29,0"/><path class="cls-11" d="M224.93,244.62l29,23.75,30.35-33.86,14.08,12.75-35.47,49.37a11.5,11.5,0,0,1-15.56,1.65L224.49,282Z"/><path d="M223.17,269.4a120.9,120.9,0,0,1,15.54,12.46c.64.61,6.1,5.83,12.32,7.92a11.1,11.1,0,0,0,5,.59,11.32,11.32,0,0,0,5.57-2.5c9.34-7.35,17-20.52,17-20.52a126.6,126.6,0,0,1,17-22.66l2.85,2.57q-17.44,24.63-34.9,49.27a10,10,0,0,1-4.25,3.81c-5.12,2.35-10.23-1-10.6-1.24L222.88,281Q223,275.19,223.17,269.4Z"/><path class="cls-11" d="M140.48,243.52l-36.29,15.84c-3,10-5.89,20.59-8.57,31.67-3.52,14.5-6.33,28.4-8.58,41.56a12.81,12.81,0,0,0,2.64,7.92,12.36,12.36,0,0,0,4,3.3l47.5,25.73c7-49.52,12.18-86.05,15.18-102.26.67-3.67,2.42-12.65-2.64-18.48C150,244.54,144.11,243.68,140.48,243.52Z"/><path class="cls-12" d="M124.79,279.37a3.24,3.24,0,0,1,.88.52,3.44,3.44,0,0,1,1.09,1.75q-.33,27.75-.65,55.5a41.3,41.3,0,0,0-9.45-6.31,41.8,41.8,0,0,0-10.19-3.37,33.85,33.85,0,0,0,10.19-15.17C120.06,302.22,124.21,282.21,124.79,279.37Z"/><path class="cls-11" d="M181.26,252.57q1.67,21.69,2.71,44.36c1.59,35.27,1.79,69,.93,101.08-6.23.1-17.49,1.22-27.46,8.73a43.87,43.87,0,0,0-11.83,14c-13.6,23.72-27.46,61-30.75,70,2.35-30.74,3.31-55.57,3.76-71.82,1.26-46.2-.39-67.13,3.2-104.86,2.23-23.56,5.45-42.43,7.6-53.83,1.39-3.61,4.7-10.45,11.86-14.67C152.57,238.91,168.81,241.5,181.26,252.57Z"/><path class="cls-17" d="M218.33,250.78,223,394.61a67.61,67.61,0,0,1,6.6,5.94,66.19,66.19,0,0,1,6.6,7.92c.7-27,.42-56.13-1.32-87.09-1.55-27.62-4.1-53.63-7.26-77.86Z"/><path class="cls-18" d="M218.41,250.78,223,394.61a67.58,67.58,0,0,1,6.59,5.94,66.19,66.19,0,0,1,6.6,7.92c.7-27,.42-56.13-1.32-87.09-1.55-27.62-4.09-53.63-7.26-77.86Z"/><path class="cls-19" d="M174.29,128.8c1.58,2.55-.06,6.08-1.38,7.8-3.41,4.41-10.41,4.71-17.58,4.25-8.84-.58-23.53-2.53-43.35-9.66a7.11,7.11,0,0,1-3.35-2.53,7,7,0,0,1-1.08-2.4,180.19,180.19,0,0,0,20.1,1.63C154.56,128.59,170.73,123,174.29,128.8Z"/><path class="cls-20" d="M245.39,205.92a36.7,36.7,0,0,1-4.19,1.32,32.59,32.59,0,0,1-3.58.64,30.26,30.26,0,0,1-14.45,5.51c-6.47.59-10.52-1.46-18.91.44-6.62,1.51-6.66,3.36-12.76,5.28-11.79,3.72-23,.36-32.06-2.34-1.92-.58-4.22-1.35-6.76-2.35A35.17,35.17,0,0,1,113.43,202,54.43,54.43,0,0,1,94.3,194c-4.1-2.73-10-7.48-17.16-18.47C67,160,61.9,143.56,59.33,130l-6.6,9.24c3,11.36,6.49,23.27,10.56,35.63C67,186.3,71,197.08,74.94,207.24a143.11,143.11,0,0,0,27.71,26.83,152.41,152.41,0,0,0,28.59,16.27,167.88,167.88,0,0,0,36.95,11c14.39,2.58,24.9,4.53,38.27,1.32a70.57,70.57,0,0,0,17.15-6.6,154.71,154.71,0,0,0,25.73-38.27,151.48,151.48,0,0,0,7.4-18.77C256.37,199.31,250.32,204,245.39,205.92Z"/><path class="cls-21" d="M152.8,214.42A35.17,35.17,0,0,1,113.55,202,54.54,54.54,0,0,1,94.41,194c-4.09-2.73-10-7.48-17.15-18.47C67.12,160,62,143.56,59.45,130l-6.6,9.24c3,11.36,6.48,23.27,10.56,35.63,3.75,11.39,7.67,22.17,11.65,32.33a143.11,143.11,0,0,0,27.71,26.83,151.69,151.69,0,0,0,28.59,16.27,157.93,157.93,0,0,0,36.95,11Z"/><path class="cls-1" d="M199.2,219.11a15.4,15.4,0,0,0-7.92,6.6,15.23,15.23,0,0,0-2,7.26,30.71,30.71,0,0,1-24.41-13.86,52.06,52.06,0,0,1,14-23.9c4-3.76,10.21-9.74,19.94-10.85a30.14,30.14,0,0,1,9.68.59c11.21,2.81,20.13,15.12,23.68,30.86L219,227c-.48-1-3.65-6.92-10.55-8.58A15.82,15.82,0,0,0,199.2,219.11Z"/><path class="cls-22" d="M212.75,186.44a32.11,32.11,0,0,0-23.3,3.49c-7.13,4.17-10.55,10.1-13.19,14.67a54.69,54.69,0,0,0-6.79,20l-4.65-4.74-1.91-6.74a81.59,81.59,0,0,1,7.92-15.54c3.89-5.95,7-10.66,12.76-14.52,2.3-1.53,14.06-9.45,22.87-4.39A15.17,15.17,0,0,1,212.75,186.44Z"/><path class="cls-20" d="M199,184.36a30.15,30.15,0,0,1,9.68.59c10.14,2.54,18.41,12.88,22.52,26.49a35.16,35.16,0,0,0,6.59-3.56l-.16,0c-.18-1.21-4.38-26.17-24.56-33.51-10.16-3.69-19.49-1.13-22.58-.29-13.81,3.78-21.65,14.27-27.41,21.92a80.48,80.48,0,0,0-10.39,18.4,9.64,9.64,0,0,0,11.85,8.94c1-5.73,4.14-18.1,14.52-28.15C182.72,191.66,189.09,185.49,199,184.36Z"/><path class="cls-19" d="M204.82,125.09c-.46,2.4,1.73,5,3.44,6.07,4.15,2.68,10,.86,15.85-1.64,7.15-3.07,19-9.15,33.85-21.42a4.28,4.28,0,0,0,1.24-2.43,4.07,4.07,0,0,0-.2-2A100.33,100.33,0,0,1,237.94,114C220.17,120.24,205.87,119.54,204.82,125.09Z"/><path class="cls-1" d="M200.59,131a49.38,49.38,0,0,0,2.94,13.79A72.75,72.75,0,0,0,210.27,158c3.22,4.82,4.81,5.76,5,8.51.32,5.1-4.69,9.23-5.58,10-10.12,8.35-27.8.55-29,0"/><path class="cls-23" d="M210.88,29.36A20,20,0,0,1,210,36a22.27,22.27,0,0,1-4.9,8c-2.09,2.15-6.23,5.41-15.63,6.94-16.21,2.64-33.83-2.18-40.17-4.1Z"/><path class="cls-24" d="M104.19,259.36A21.26,21.26,0,0,1,115.63,273a116.65,116.65,0,0,1-2.2,13.42c-1.18,5.29-2.24,8.3-4.18,14.51-3.47,11.17-5.21,16.76-6.38,22-2.72,12.28-2.64,20.11-6.15,20.89-1.91.42-4.5-1.31-4.84-1.54a10.14,10.14,0,0,1-3.45-4.21A13.36,13.36,0,0,1,87,332.59c1.81-10.79,4-22.11,6.71-33.87C97,284.74,100.49,271.6,104.19,259.36Z"/><path class="cls-25" d="M126.31,278.29c-1.52,9.89-3.41,24-4.74,41.11-1,13-1.33,22.8-1.76,36.72-.7,22.45-.23,25-.88,49.05-.42,15.44-1,27.08-1.54,39.58-.84,18.15-1.75,33.75-2.53,46,3-9.29,6.57-19.18,10.89-29.5a369.35,369.35,0,0,1,17.87-36.92,163.39,163.39,0,0,0,2.58-26c.21-11.11-.85-15.3-1.1-26.39-.3-13.64,1-17.89,2.2-34.53,1.85-26,4-56.44-7.48-62.24-1.55-.78-7.68-3.3-11.21-.66A6.21,6.21,0,0,0,126.31,278.29Z"/><path class="cls-26" d="M154.78,425.84Q158,459.91,161.24,494a18.28,18.28,0,0,0,2.55.93,18.5,18.5,0,0,0,5.94.66,103,103,0,0,0,4.4-14.3s7.26-31.66-7-57.18c-.86-1.54-2.25-3.63-4.4-4C159,419.56,155.49,424.74,154.78,425.84Z"/><path class="cls-27" d="M199,253.2a70.24,70.24,0,0,1-18.25.44l1.68,13.77c9.25,1.37,17.44,1.75,27.13-.57a70.57,70.57,0,0,0,17.15-6.6c2.3-2.52,4.7-5.32,7.13-8.39l-9.25-8A70.79,70.79,0,0,1,199,253.2Z"/><path class="cls-28" d="M139.31,515a18.8,18.8,0,0,1,1.62-3.43,17.88,17.88,0,0,1,1.16-1.7,10.63,10.63,0,0,1,2.43-.92c8.66-2.15,19.93,6.85,18.91,11.92-.39,1.91-2.64,3.89-3.3,4.47a11.85,11.85,0,0,1-3.3,2.13c-.9.25-5.47,1.44-12.39-1.1a31.07,31.07,0,0,1-6.25-3.16,20.55,20.55,0,0,1,.39-5.57A20,20,0,0,1,139.31,515Z"/><path class="cls-29" d="M205.43,512.2a20,20,0,0,1,8.51-1.54c2.82.12,6.8.28,8.87,2.42a22.09,22.09,0,0,0,2.71,2.64c1,.81,1.25.84,1.61,1.32a4.77,4.77,0,0,1,.37,4.69c-1.17,2.24-4.73,2.32-8.87,2.42a25.75,25.75,0,0,1-12.24-2.42c-2.1-1-4.26-2.13-4.55-4.11s1.34-3.78,1.44-3.9A6.11,6.11,0,0,1,205.43,512.2Z"/><path class="cls-30" d="M23.41,236.93c.09-2.51-2-3.38-5.28-9.24-2.05-3.68-3.5-6.27-4-9.9a25.75,25.75,0,0,1,2-12.53c1.59-3.89,3.12-5.07,2.52-6.37-.39-.84-1.61-1.6-5-1.61l.09.06c-1.18,1.12-9.74,9.51-8.58,21.77,1,10,7.71,15.9,9.9,17.82a30,30,0,0,0,6.16,4.15A6.21,6.21,0,0,0,23.41,236.93Z"/><path class="cls-31" d="M120,13.87A128.75,128.75,0,0,0,98,27.62C71.74,48.13,58.74,76.85,55.09,85A153.46,153.46,0,0,0,49,100.88c.76,3.1,1.57,6.27,2.45,9.48.22.83,1.37,5,2.81,9.79,4,13.27,8.44,24.7,9.86,28.3,2.93,7.48,4.4,11.21,6.31,15.13,7.46,15.33,14.27,22.2,16.71,24.52a67.11,67.11,0,0,0,5.83,5,135,135,0,0,1-13.2-26.94c-2.78-7.83-4.16-14.19-1.71-20.4a19.47,19.47,0,0,1,2.26-4.12c6.13-9.15,3.49-19.52,5.77-33.48,3.2-19.67,14-33.62,18.52-38.72,1.7-1.93,3.09-3.33,3.91-4.16,5.27-5.33,16.57-15.14,35.63-20.46l1.24.39A86,86,0,0,0,120,13.87Z"/><path class="cls-20" d="M209.76,29.76A30.51,30.51,0,0,1,202.5,41c-10.07,9.69-24.68,9.11-38.27,8.58a111.74,111.74,0,0,1-29.69-5.28c-19,5.31-30.36,15.12-35.62,20.45-3.73,3.78-19.25,19.47-22.44,42.89-2,15,2,26.1-6.59,36.29-2.27,2.69-3.34,2.87-5.76,4.55A34.88,34.88,0,0,0,60,151.81c-11.45,10.46-11.88,25.08-11.88,25.08C47.7,190.94,56.33,200.22,58,202c-.74.72-7.33,7.36-5.94,15.83,1.42,8.63,10.56,15.75,21.77,15.18-.65,4.89-.83,12.26,3.3,18.47,8,11.94,25.56,10.24,25.52,13.13-.07,3.93-32.58,15.68-49.93-1.25-6.63-6.48-8.57-14.73-9.24-19.14-2.31.4-17,2.69-28.37-7.25-2.19-1.92-8.95-7.84-9.89-17.82-1.16-12.26,7.39-20.65,8.57-21.77A27.78,27.78,0,0,1,3.25,186.12c-5.2-10.47-1.41-21.11,0-25.07,4.21-11.83,12-17.15,18.47-23.75C36.78,122,34.13,109.84,45.47,84.52c3.66-8.17,16.66-36.89,42.89-57.4C116,5.53,160.7-9.1,193.92,8a64.48,64.48,0,0,1,12.59,8.51,130.93,130.93,0,0,1,17.1,10.63c21.26,15.57,29.71,31.57,33,38.92,1.88,4.22,2.77,7.18,2.2,7.5-1.7,1-12.37-23.58-36.51-37.85A76.17,76.17,0,0,0,209.76,29.76Z"/><path class="cls-32" d="M20.77,190.11c1.71-3.32-1.94-6.22-2-13.11,0-7.05,3.92-12.59,8.2-18.59,2.38-3.33,4.05-5,8.88-10,5.31-5.55,10.49-11.23,15.75-16.83,12.39-13.17,9.77-29,18.91-48.82,12.91-28,39.1-42,44.43-44.87C127.55,31.17,147.76,24,162,21.18a107.92,107.92,0,0,0,26.32-8.48c3.13-1.48,5.63-2.85,7.25-3.78-.56-.31-1.14-.63-1.74-.94C160.64-9.1,115.9,5.53,88.29,27.12,62.06,47.63,49.07,76.35,45.41,84.52,34.07,109.84,36.71,122,21.66,137.3c-6.48,6.6-14.27,11.92-18.48,23.75-1.41,4-5.2,14.6,0,25.07a26.1,26.1,0,0,0,5.24,7.12C16.86,193.71,19.8,192,20.77,190.11Z"/><path class="cls-33" d="M57.2,154.75q1.45,5.08,2.89,10.18a15.94,15.94,0,0,0-3.77,3,17.81,17.81,0,0,0-4.38,11.68A28.57,28.57,0,0,1,50,177a25.36,25.36,0,0,1-1.62-2.84A55.62,55.62,0,0,1,51,164.72a29.93,29.93,0,0,1,3.23-6.45A25.34,25.34,0,0,1,57.2,154.75Z"/><path class="cls-10" d="M198.69,198.3a26.82,26.82,0,0,0-14.33,12.18,2.47,2.47,0,1,0,4.27,2.49c4.57-7.85,12.45-12.14,18.72-10.21a12.66,12.66,0,0,1,6.53,5.29,2.47,2.47,0,1,0,4.12-2.72,17.47,17.47,0,0,0-9.19-7.29A16.77,16.77,0,0,0,198.69,198.3Z"/><path class="cls-10" d="M225.83,162.86a24.54,24.54,0,0,1,20.37-8.6,22.59,22.59,0,0,1,5.37,1.09c2.12-10.78-1.52-19.57-7.31-21.71-4.73-1.75-9.68,1.38-10.52,1.91C226.48,140.15,223.5,150.94,225.83,162.86Z"/><path class="cls-10" d="M132,178.13a56.81,56.81,0,0,1,32.15-5.78c1.52-9.29-2.52-18.12-9.42-21.73a16,16,0,0,0-15.38.46C131.83,155.55,128.34,166.78,132,178.13Z"/><circle class="cls-34" cx="142.83" cy="158.85" r="5.02"/><circle class="cls-35" cx="142.85" cy="158.94" r="3.73"/><circle class="cls-36" cx="153.06" cy="163" r="2.42"/><circle class="cls-35" cx="153.07" cy="163.04" r="1.8"/><circle class="cls-37" cx="234.69" cy="143.91" r="4.01"/><circle class="cls-35" cx="234.67" cy="143.99" r="2.98"/><circle class="cls-38" cx="241.43" cy="149.59" r="1.93"/><circle class="cls-35" cx="241.43" cy="149.62" r="1.43"/><path class="cls-39" d="M466.54,601.41a338.38,338.38,0,0,0-39.3-4.64l-.69-2.77h0q-1.41-7.08-2.76-13.9l46.38,1.65.21,0a11.25,11.25,0,0,0,8.48,4.56c1.56,0,3-.59,3.31-1.44a1.16,1.16,0,0,0,0-.64l.83.26,5.9,2c5.24,1.85,10.28,3.72,15.12,5.57a7.54,7.54,0,0,0,3.35.39,1.82,1.82,0,0,0,1-.59h0a1.05,1.05,0,0,0,.15-.3h0c.54-1.74-10.85-6.41-12.34-7,6.06.85,12.74,1.64,19.91,2.24,4.75.4,9.2.68,13.34.87,3.82.41,5.93-.67,5.52-1.61a1.75,1.75,0,0,0-.64-.64h0l-.19-.12-.36-.2-.25-.12-.46-.21-.25-.1-.8-.27-.16,0c-.25-.07-.5-.14-.77-.2l-.3-.06L530,584l-.3,0c-.36-.05-.72-.09-1.09-.12l-19.41-2.45,21.8,2.23a14.49,14.49,0,0,0,4.6.08c.43-.07,2.79-.48,2.57-1.26-.08-.24-.43-.52-1-.81h0a2.24,2.24,0,0,0-.27-.13l-.14-.07c-.23-.1-.48-.2-.76-.3l-.16-.06-.78-.25-.23-.07-1.08-.29-.11,0c-.35-.09-.72-.16-1.1-.24l-.3-.06-1.33-.23-21.24-2.41h0l-.72-.08,21,1.43c2.08.09,3.3-.64,3-1.48a1.44,1.44,0,0,0-.33-.45h0a4.08,4.08,0,0,0-1.2-.77l-.16-.08-.37-.14-.32-.12-.34-.1-.42-.1-.32-.07-.53-.07-.25,0-.81,0-19.16-1.68,13.86.21c1.41,0,2.42-.37,2.42-.86,0-.21-.19-.46-.51-.71h0l-.17-.12-.1-.07c-.14-.09-.29-.17-.46-.26l-.13,0a5.11,5.11,0,0,0-.47-.2l-.16-.06c-.08,0-.33-.12-.68-.22a6.33,6.33,0,0,0-.78-.17l-.2,0c-.27,0-.56-.09-.85-.12l-15.4-.93c-1-.07-2.37-.17-4-.26h-.21l-.72,0-.35,0-.61,0-.46,0-.55,0-1.08-.05-.37,0-.71,0h-.35l-.75,0h-.3l-.83,0h-.11l-3-.07h-1.13c-1.71,0-3.41,0-5,.08h0c-1.63.06-3.16.16-4.53.32h-.06a22.4,22.4,0,0,0-2.92.49h0a2.15,2.15,0,0,0-.5-.57,7.22,7.22,0,0,0-3.24-1.21,6.63,6.63,0,0,0-6.74,3.55l-61.31-5.71a19.94,19.94,0,0,0-5.69.09c-5,.91-5.26,3.89-5.28,4.11h0a2.57,2.57,0,0,0-.07.74q0,3,0,6.13c0,1,0,2.1,0,3.16-8.8-4.47-17.78-8.93-27-13.37-24.19-11.64-47-21.79-68.23-30.63l0,.05-.08,0a16.41,16.41,0,0,1,1.64,4.66,14.18,14.18,0,0,1,.17,3.56c-8-2.76-16-5.5-24.1-8.23q-30.88-10.39-59.7-19.41c-.56.06-1.18.14-1.83.24l-1.41-.54a26.83,26.83,0,0,0-11.29-12.87c-12.29-6.91-25.24-.44-26.34.13-6.82,10.63-12.34,13.56-16.21,14.17-4.73.75-9,3.15-13.67,4.34a2.52,2.52,0,0,0-1.26.76c-1.39,1.63-.45,5.49,1.36,6.3a17.3,17.3,0,0,0,2.47.67c.27.07.56.13.86.19,1,.21,1.92.36,2.81.47h.1l.12,0,.25,0c.62.07,1.23.13,1.79.17h.14c5.4.31,9-.7,17-1.09,3.91-.2,7.43-.17,10.47,0a6.87,6.87,0,0,0-.78.65l30.08,17.21-30-8,15.77,13.27-49.49-6-2.58-.58c9.66,4.19,22.06,9.64,36.54,16.16,10.13,4.56,19.67,8.85,32.25,14.74,15.55,7.41,27.49,13.38,39.6,19.15q-4.56,8.19-9.36,16.8c89.11-.65,174.8-2.33,255.45-4.92q-6.53-1.69-13.36-3.17C480.27,604.1,473.67,602.68,466.54,601.41Zm42.63-20Z"/></g></svg>