<svg xmlns="http://www.w3.org/2000/svg" xmlns:xlink="http://www.w3.org/1999/xlink" viewBox="0 0 1920 1080"><defs><style>.cls-1{fill:none;}.cls-2{clip-path:url(#clip-path);}.cls-3{fill:#010b11;}.cls-4{fill:#334a4f;}.cls-5{fill:url(#Gradient_bez_nazwy_122);}.cls-6{fill:url(#Gradient_bez_nazwy_276);}.cls-7{fill:#0c1619;}.cls-8{fill:url(#Gradient_bez_nazwy_293);}.cls-9{fill:#590f1a;}.cls-10{fill:url(#Gradient_bez_nazwy_139);}.cls-11{fill:url(#Gradient_bez_nazwy_139-2);}.cls-12{fill:url(#Gradient_bez_nazwy_139-3);}.cls-13{fill:url(#Gradient_bez_nazwy_139-4);}.cls-14,.cls-15,.cls-16,.cls-17,.cls-18,.cls-19,.cls-20,.cls-21,.cls-22,.cls-23,.cls-24,.cls-25,.cls-26{opacity:0.8;}.cls-14{fill:url(#Gradient_bez_nazwy_90);}.cls-15{fill:url(#Gradient_bez_nazwy_262);}.cls-16{fill:url(#Gradient_bez_nazwy_262-2);}.cls-17{fill:url(#Gradient_bez_nazwy_262-3);}.cls-18{fill:url(#Gradient_bez_nazwy_262-4);}.cls-19{fill:url(#Gradient_bez_nazwy_262-5);}.cls-20{fill:url(#Gradient_bez_nazwy_262-6);}.cls-21{fill:url(#Gradient_bez_nazwy_262-7);}.cls-22{fill:url(#Gradient_bez_nazwy_262-8);}.cls-23{fill:url(#Gradient_bez_nazwy_262-9);}.cls-24{fill:url(#Gradient_bez_nazwy_262-10);}.cls-25{fill:url(#Gradient_bez_nazwy_262-11);}.cls-26{fill:url(#Gradient_bez_nazwy_262-12);}.cls-27{fill:#160404;}.cls-28{fill:#331414;}.cls-29{fill:url(#Gradient_bez_nazwy_29);}.cls-30{fill:url(#Gradient_bez_nazwy_29-2);}.cls-31{fill:url(#Gradient_bez_nazwy_29-3);}.cls-32{fill:url(#Gradient_bez_nazwy_29-4);}.cls-33{fill:url(#Gradient_bez_nazwy_29-5);}.cls-34{fill:url(#Gradient_bez_nazwy_37);}.cls-35{fill:url(#Gradient_bez_nazwy_37-2);}.cls-36{fill:url(#Gradient_bez_nazwy_37-3);}.cls-37{fill:url(#Gradient_bez_nazwy_37-4);}.cls-38{fill:url(#Gradient_bez_nazwy_37-5);}.cls-39{fill:url(#Gradient_bez_nazwy_37-6);}.cls-40{fill:url(#Gradient_bez_nazwy_37-7);}.cls-41{fill:#230a0a;}.cls-42{fill:url(#Gradient_bez_nazwy_27);}.cls-43{fill:url(#Gradient_bez_nazwy_27-2);}.cls-44{fill:url(#Gradient_bez_nazwy_27-3);}.cls-45{fill:url(#Gradient_bez_nazwy_27-4);}.cls-46{fill:url(#Gradient_bez_nazwy_27-5);}.cls-47{fill:url(#Gradient_bez_nazwy_27-6);}.cls-48{fill:url(#Gradient_bez_nazwy_19);}.cls-49{fill:url(#Gradient_bez_nazwy_25);}.cls-50{fill:url(#Gradient_bez_nazwy_25-2);}.cls-51{fill:url(#Gradient_bez_nazwy_25-3);}.cls-52{fill:url(#Gradient_bez_nazwy_25-4);}.cls-53{fill:url(#Gradient_bez_nazwy_25-5);}.cls-54{fill:url(#Gradient_bez_nazwy_25-6);}.cls-55{fill:url(#Gradient_bez_nazwy_23);}.cls-56{fill:url(#Gradient_bez_nazwy_23-2);}.cls-57{fill:url(#Gradient_bez_nazwy_23-3);}.cls-58{fill:url(#Gradient_bez_nazwy_23-4);}.cls-59{fill:url(#Gradient_bez_nazwy_23-5);}.cls-60{fill:url(#Gradient_bez_nazwy_21);}.cls-61{fill:url(#Gradient_bez_nazwy_21-2);}.cls-62{fill:url(#Gradient_bez_nazwy_21-3);}.cls-63{fill:url(#Gradient_bez_nazwy_21-4);}.cls-64{fill:url(#Gradient_bez_nazwy_21-5);}.cls-65{fill:url(#Gradient_bez_nazwy_21-6);}</style><clipPath id="clip-path"><rect class="cls-1" width="1920" height="1080"/></clipPath><radialGradient id="Gradient_bez_nazwy_122" cx="944.5" cy="671.03" fx="839.1381864241208" fy="569.3881115630509" r="689.99" gradientTransform="translate(0 555.27) scale(1 0.17)" gradientUnits="userSpaceOnUse"><stop offset="0" stop-color="#659bff" stop-opacity="0.7"/><stop offset="0.13" stop-color="#5b8ce7" stop-opacity="0.63"/><stop offset="0.38" stop-color="#4266a7" stop-opacity="0.46"/><stop offset="0.72" stop-color="#1a2841" stop-opacity="0.18"/><stop offset="0.93" stop-opacity="0"/></radialGradient><radialGradient id="Gradient_bez_nazwy_276" cx="944.5" cy="666.37" fx="839.1381864241208" fy="564.7254484362245" r="689.99" gradientTransform="translate(0 553.23) scale(1 0.16)" gradientUnits="userSpaceOnUse"><stop offset="0" stop-color="#659bff" stop-opacity="0"/><stop offset="1"/></radialGradient><radialGradient id="Gradient_bez_nazwy_293" cx="958.8" cy="914.55" r="717.12" gradientUnits="userSpaceOnUse"><stop offset="0"/><stop offset="0.85" stop-opacity="0.09"/><stop offset="0.89" stop-opacity="0"/></radialGradient><linearGradient id="Gradient_bez_nazwy_139" x1="5.86" y1="546.89" x2="115.09" y2="546.89" gradientUnits="userSpaceOnUse"><stop offset="0" stop-color="#590f1a" stop-opacity="0"/><stop offset="0.49" stop-color="#330812"/><stop offset="0.69" stop-color="#400a15" stop-opacity="0.67"/><stop offset="1" stop-color="#590f1a" stop-opacity="0"/></linearGradient><linearGradient id="Gradient_bez_nazwy_139-2" x1="105.95" y1="546.89" x2="215.17" y2="546.89" xlink:href="#Gradient_bez_nazwy_139"/><linearGradient id="Gradient_bez_nazwy_139-3" x1="1697.1" y1="546.89" x2="1806.32" y2="546.89" xlink:href="#Gradient_bez_nazwy_139"/><linearGradient id="Gradient_bez_nazwy_139-4" x1="1797.18" y1="546.89" x2="1906.4" y2="546.89" xlink:href="#Gradient_bez_nazwy_139"/><radialGradient id="Gradient_bez_nazwy_90" cx="898.36" cy="307.25" fx="228.4063304093038" fy="701.7774236060059" r="778.92" gradientTransform="matrix(0.49, 0.83, -0.64, 0.3, 686.84, -507.22)" gradientUnits="userSpaceOnUse"><stop offset="0" stop-color="#659bff" stop-opacity="0.7"/><stop offset="0.13" stop-color="#5b8ce7" stop-opacity="0.63"/><stop offset="0.38" stop-color="#4266a7" stop-opacity="0.46"/><stop offset="0.73" stop-color="#1a2841" stop-opacity="0.18"/><stop offset="0.94" stop-opacity="0"/></radialGradient><radialGradient id="Gradient_bez_nazwy_262" cx="1192.11" cy="71.51" r="36.13" gradientUnits="userSpaceOnUse"><stop offset="0" stop-color="#ffffb7"/><stop offset="0.05" stop-color="#ffffbf" stop-opacity="0.89"/><stop offset="0.15" stop-color="#ffffce" stop-opacity="0.69"/><stop offset="0.26" stop-color="#ffffdb" stop-opacity="0.5"/><stop offset="0.37" stop-color="#ffffe6" stop-opacity="0.35"/><stop offset="0.48" stop-color="#ffffef" stop-opacity="0.22"/><stop offset="0.6" stop-color="#fffff6" stop-opacity="0.12"/><stop offset="0.72" stop-color="#fffffb" stop-opacity="0.05"/><stop offset="0.85" stop-color="#fffffe" stop-opacity="0.01"/><stop offset="1" stop-color="#fff" stop-opacity="0"/></radialGradient><radialGradient id="Gradient_bez_nazwy_262-2" cx="340.83" cy="266.21" r="36.13" xlink:href="#Gradient_bez_nazwy_262"/><radialGradient id="Gradient_bez_nazwy_262-3" cx="578.33" cy="324.25" r="26.42" xlink:href="#Gradient_bez_nazwy_262"/><radialGradient id="Gradient_bez_nazwy_262-4" cx="1569.48" cy="507.64" r="26.42" xlink:href="#Gradient_bez_nazwy_262"/><radialGradient id="Gradient_bez_nazwy_262-5" cx="345.46" cy="478.69" r="17.21" xlink:href="#Gradient_bez_nazwy_262"/><radialGradient id="Gradient_bez_nazwy_262-6" cx="1178.99" cy="468.49" r="18.79" xlink:href="#Gradient_bez_nazwy_262"/><radialGradient id="Gradient_bez_nazwy_262-7" cx="1237.96" cy="259.73" r="21.96" xlink:href="#Gradient_bez_nazwy_262"/><radialGradient id="Gradient_bez_nazwy_262-8" cx="832.05" cy="281.65" r="21.96" gradientTransform="translate(1407.54 228.46) rotate(135) scale(0.81)" xlink:href="#Gradient_bez_nazwy_262"/><radialGradient id="Gradient_bez_nazwy_262-9" cx="782.01" cy="172.8" r="21.96" xlink:href="#Gradient_bez_nazwy_262"/><radialGradient id="Gradient_bez_nazwy_262-10" cx="1440.06" cy="125.31" r="21.96" xlink:href="#Gradient_bez_nazwy_262"/><radialGradient id="Gradient_bez_nazwy_262-11" cx="1458.23" cy="287.97" r="14.37" xlink:href="#Gradient_bez_nazwy_262"/><radialGradient id="Gradient_bez_nazwy_262-12" cx="549.8" cy="93.27" r="14.37" xlink:href="#Gradient_bez_nazwy_262"/><linearGradient id="Gradient_bez_nazwy_29" x1="714.11" y1="876.63" x2="714.11" y2="751.17" gradientUnits="userSpaceOnUse"><stop offset="0"/><stop offset="0.92" stop-opacity="0"/></linearGradient><linearGradient id="Gradient_bez_nazwy_29-2" x1="1335.96" y1="829.84" x2="1335.96" y2="737.71" xlink:href="#Gradient_bez_nazwy_29"/><linearGradient id="Gradient_bez_nazwy_29-3" x1="1015.61" y1="902.29" x2="1015.61" y2="740.42" xlink:href="#Gradient_bez_nazwy_29"/><linearGradient id="Gradient_bez_nazwy_29-4" x1="404.46" y1="884.8" x2="404.46" y2="748.75" xlink:href="#Gradient_bez_nazwy_29"/><linearGradient id="Gradient_bez_nazwy_29-5" x1="1631.47" y1="878.29" x2="1631.47" y2="720.54" xlink:href="#Gradient_bez_nazwy_29"/><linearGradient id="Gradient_bez_nazwy_37" x1="402.02" y1="1101.72" x2="402.02" y2="780.79" gradientUnits="userSpaceOnUse"><stop offset="0"/><stop offset="1" stop-opacity="0"/></linearGradient><linearGradient id="Gradient_bez_nazwy_37-2" x1="94.34" y1="1101.72" x2="94.34" y2="780.79" xlink:href="#Gradient_bez_nazwy_37"/><linearGradient id="Gradient_bez_nazwy_37-3" x1="709.7" y1="1101.72" x2="709.7" y2="780.79" xlink:href="#Gradient_bez_nazwy_37"/><linearGradient id="Gradient_bez_nazwy_37-4" x1="1017.38" y1="1101.72" x2="1017.38" y2="780.79" xlink:href="#Gradient_bez_nazwy_37"/><linearGradient id="Gradient_bez_nazwy_37-5" x1="1945.61" y1="1101.72" x2="1945.61" y2="780.79" xlink:href="#Gradient_bez_nazwy_37"/><linearGradient id="Gradient_bez_nazwy_37-6" x1="1327.24" y1="1101.72" x2="1327.24" y2="780.79" xlink:href="#Gradient_bez_nazwy_37"/><linearGradient id="Gradient_bez_nazwy_37-7" x1="1636.43" y1="1101.72" x2="1636.43" y2="780.79" xlink:href="#Gradient_bez_nazwy_37"/><linearGradient id="Gradient_bez_nazwy_27" x1="-7.74" y1="923.68" x2="-7.74" y2="803.93" gradientUnits="userSpaceOnUse"><stop offset="0"/><stop offset="0.93" stop-opacity="0.15"/><stop offset="1" stop-opacity="0"/></linearGradient><linearGradient id="Gradient_bez_nazwy_27-2" x1="1350.91" y1="983.23" x2="1350.91" y2="802.36" xlink:href="#Gradient_bez_nazwy_27"/><linearGradient id="Gradient_bez_nazwy_27-3" x1="663.71" y1="977.81" x2="663.71" y2="807.93" xlink:href="#Gradient_bez_nazwy_27"/><linearGradient id="Gradient_bez_nazwy_27-4" x1="321.1" y1="961.89" x2="321.1" y2="784.05" xlink:href="#Gradient_bez_nazwy_27"/><linearGradient id="Gradient_bez_nazwy_27-5" x1="997.22" y1="984.44" x2="997.22" y2="803.03" xlink:href="#Gradient_bez_nazwy_27"/><linearGradient id="Gradient_bez_nazwy_27-6" x1="1693.18" y1="977.81" x2="1693.18" y2="807.93" xlink:href="#Gradient_bez_nazwy_27"/><linearGradient id="Gradient_bez_nazwy_19" x1="-41.08" y1="1206.41" x2="-41.08" y2="845.74" xlink:href="#Gradient_bez_nazwy_27"/><linearGradient id="Gradient_bez_nazwy_25" x1="2039.45" y1="1206.41" x2="2039.45" y2="845.74" xlink:href="#Gradient_bez_nazwy_27"/><linearGradient id="Gradient_bez_nazwy_25-2" x1="1344.49" y1="1206.41" x2="1344.49" y2="845.74" xlink:href="#Gradient_bez_nazwy_27"/><linearGradient id="Gradient_bez_nazwy_25-3" x1="650.49" y1="1206.41" x2="650.49" y2="845.74" xlink:href="#Gradient_bez_nazwy_27"/><linearGradient id="Gradient_bez_nazwy_25-4" x1="304.7" y1="1206.41" x2="304.7" y2="845.74" xlink:href="#Gradient_bez_nazwy_27"/><linearGradient id="Gradient_bez_nazwy_25-5" x1="996.27" y1="1206.41" x2="996.27" y2="845.74" xlink:href="#Gradient_bez_nazwy_27"/><linearGradient id="Gradient_bez_nazwy_25-6" x1="1689.47" y1="1206.41" x2="1689.47" y2="845.74" xlink:href="#Gradient_bez_nazwy_27"/><linearGradient id="Gradient_bez_nazwy_23" x1="103.68" y1="1072.2" x2="103.68" y2="865.9" xlink:href="#Gradient_bez_nazwy_29"/><linearGradient id="Gradient_bez_nazwy_23-2" x1="494.59" y1="1065.63" x2="494.59" y2="840.95" xlink:href="#Gradient_bez_nazwy_29"/><linearGradient id="Gradient_bez_nazwy_23-3" x1="1243.59" y1="1082.07" x2="1243.59" y2="857.03" xlink:href="#Gradient_bez_nazwy_29"/><linearGradient id="Gradient_bez_nazwy_23-4" x1="867.58" y1="989.81" x2="867.58" y2="870.07" xlink:href="#Gradient_bez_nazwy_29"/><linearGradient id="Gradient_bez_nazwy_23-5" x1="1651.5" y1="1039.3" x2="1651.5" y2="847.76" xlink:href="#Gradient_bez_nazwy_29"/><linearGradient id="Gradient_bez_nazwy_21" x1="2016.9" y1="1341.89" x2="2016.9" y2="930.93" xlink:href="#Gradient_bez_nazwy_29"/><linearGradient id="Gradient_bez_nazwy_21-2" x1="100.2" y1="1341.89" x2="100.2" y2="930.93" xlink:href="#Gradient_bez_nazwy_29"/><linearGradient id="Gradient_bez_nazwy_21-3" x1="484.81" y1="1341.89" x2="484.81" y2="930.93" xlink:href="#Gradient_bez_nazwy_29"/><linearGradient id="Gradient_bez_nazwy_21-4" x1="1250.99" y1="1341.89" x2="1250.99" y2="930.93" xlink:href="#Gradient_bez_nazwy_29"/><linearGradient id="Gradient_bez_nazwy_21-5" x1="861.23" y1="1340.85" x2="861.23" y2="929.89" xlink:href="#Gradient_bez_nazwy_29"/><linearGradient id="Gradient_bez_nazwy_21-6" x1="1628.16" y1="1340.85" x2="1628.16" y2="929.89" xlink:href="#Gradient_bez_nazwy_29"/></defs><g id="background"><g class="cls-2"><rect class="cls-3" y="-34.22" width="1920" height="829.28"/><rect x="1299.67" y="439.15" width="191.53" height="191.53"/><rect x="1397.97" y="223.9" width="142.53" height="415.25"/><polygon points="1689.66 649.32 1530.34 649.32 1530.34 412.76 1610.36 335.76 1689.66 412.76 1689.66 649.32"/><polygon points="1328.64 605.25 1040.51 605.25 1040.51 357.8 1183.67 250.3 1328.64 357.8 1328.64 605.25"/><polygon points="521 648.91 228.4 648.91 228.4 45.34 521 218.45 521 648.91"/><polygon points="680.32 593.77 582.31 593.77 582.31 327.45 630.8 261.95 680.32 327.45 680.32 593.77"/><path d="M789.88,79.66h0A122.48,122.48,0,0,1,912.36,202.14v380a0,0,0,0,1,0,0h-245a0,0,0,0,1,0,0v-380A122.48,122.48,0,0,1,789.88,79.66Z"/><rect x="461.26" y="401.77" width="534.64" height="242.55" rx="12"/><ellipse class="cls-4" cx="944.5" cy="668.42" rx="971.05" ry="96"/><ellipse class="cls-5" cx="944.5" cy="671.03" rx="971.05" ry="96"/><ellipse class="cls-6" cx="944.5" cy="657.13" rx="971.05" ry="86.76"/><path class="cls-7" d="M1944.15,1154.55H-26.55v-480a7694.88,7694.88,0,0,0,963.72,63.32,7696.14,7696.14,0,0,0,1007-63.32Z"/><path class="cls-8" d="M1944.15,1154.55H-26.55v-480a7694.88,7694.88,0,0,0,963.72,63.32,7696.14,7696.14,0,0,0,1007-63.32Z"/><rect class="cls-9" x="-14.57" y="-46.47" width="259.32" height="1186.72"/><rect class="cls-10" x="5.86" y="-73.02" width="109.22" height="1239.83"/><rect class="cls-11" x="105.95" y="-73.02" width="109.22" height="1239.83"/><rect class="cls-9" x="1676.66" y="-46.47" width="259.32" height="1186.72"/><rect class="cls-12" x="1697.1" y="-73.02" width="109.22" height="1239.83"/><rect class="cls-13" x="1797.18" y="-73.02" width="109.22" height="1239.83"/><path class="cls-14" d="M731.26-58.83l804.38,736.38c-33.77,8.49-82.22,19.49-141.2,28.76-8.13,1.28-16.88,2.59-26.84,3.9-142.49,18.61-339,13.36-339,13.36-366.33-11.14-355.45-6.8-423.36-14.91a2323.88,2323.88,0,0,1-252.77-44.43Q334.35,304.62,316.23-55Z"/><circle class="cls-15" cx="1192.11" cy="71.51" r="36.13"/><circle class="cls-16" cx="340.83" cy="266.21" r="36.13"/><circle class="cls-17" cx="578.33" cy="324.25" r="26.42"/><circle class="cls-18" cx="1569.48" cy="507.64" r="26.42"/><circle class="cls-19" cx="345.46" cy="478.69" r="17.21"/><circle class="cls-20" cx="1178.99" cy="468.49" r="18.79"/><circle class="cls-21" cx="1237.96" cy="259.73" r="21.96"/><circle class="cls-22" cx="769.19" cy="543.94" r="17.8"/><circle class="cls-23" cx="782.01" cy="172.8" r="21.96"/><circle class="cls-24" cx="1440.06" cy="125.31" r="21.96"/><circle class="cls-25" cx="1458.23" cy="287.97" r="14.37"/><circle class="cls-26" cx="549.8" cy="93.27" r="14.37"/><path class="cls-27" d="M1715.38,951.53c.48-9.61,1.44-28.92-11.25-45.76,8.32-3.36,14.41-9.17,16.5-16.79,4.46-16.33-11.11-34.8-34.77-41.27s-46.47,1.51-50.94,17.83a22.82,22.82,0,0,0,.43,13.06,67.71,67.71,0,0,0-26.11,7.09c-24.09,12.59-27.45,37.12-29.07,49-6,43.92,22.12,102.5,59.43,106.09C1676,1044.26,1713.23,994.55,1715.38,951.53Z"/><path class="cls-28" d="M730.2,759.34a33.38,33.38,0,0,0-6.6,1.91,50.84,50.84,0,0,0-37.82-8.41c-29.31,5.3-48.31,35.94-42.43,68.42s34.41,54.52,63.72,49.22a49.43,49.43,0,0,0,11.84-3.76C728.48,875,740,879.06,751.49,877c24.19-4.38,39-34.27,33.17-66.75S754.4,755,730.2,759.34Z"/><path class="cls-28" d="M1417.75,798.73a20.19,20.19,0,0,0-18.66-16.46,19.81,19.81,0,0,0-.29-5.19,20.19,20.19,0,0,0-19-16.49,37.51,37.51,0,0,0-57-14.2,28.73,28.73,0,0,0-36.38,18.54,20.21,20.21,0,0,0-17.62,26.1,20.2,20.2,0,1,0,25.16,15.79,21.52,21.52,0,0,0-.57-2.27,20.2,20.2,0,0,0,8.48-4.71,28.67,28.67,0,0,0,16.68,2.19,37.5,37.5,0,0,0,55.73-1.62,20,20,0,0,0,3.55.53,19.81,19.81,0,0,0,.29,5.19,20.2,20.2,0,1,0,39.71-7.4Z"/><path class="cls-28" d="M1068.87,811c-2.47-7.45-7.42-22.41-22-31.49,5.33-5,8.26-11.21,7.6-17.62-1.41-13.73-18.68-23.2-38.58-21.16S981,755.51,982.39,769.24a18.63,18.63,0,0,0,4.17,9.81,55,55,0,0,0-17.77,13.07c-14.62,16.66-10,36.29-7.71,45.79,8.35,35.17,47,71.44,76.4,63.2C1066.22,893.06,1079.88,844.31,1068.87,811Z"/><path class="cls-28" d="M451.71,803.51c2.22,36-19.14,81.3-44.56,82.16-26,.89-50.47-45-50.1-82.16.1-10,.31-30.81,15.83-43.79,16.46-13.78,43.38-13.11,60.2,0S451.12,793.9,451.71,803.51Z"/><path class="cls-28" d="M1662.75,879.17H1590.9a8.58,8.58,0,0,1-8.69-8.42q-3.15-47.41-6.28-94.83c-.87-4.83-4.29-26.47,8.83-37.68a24,24,0,0,1,4.1-2.83,77.83,77.83,0,0,1,27-9,79.7,79.7,0,0,1,40.46,5.13c3.76,3.7,9.06,3.79,11.28,1.69,2.44-2.3,2.28-8.24-2.58-11.83a26.35,26.35,0,0,1,16.63,7.88c8.59,9.16,6.18,21,5.91,22.23l-16.11,119.21A8.58,8.58,0,0,1,1662.75,879.17Z"/><path class="cls-29" d="M730.2,758.46a33.36,33.36,0,0,0-6.6,1.9A50.84,50.84,0,0,0,685.78,752c-29.31,5.31-48.31,35.94-42.43,68.43s34.41,54.51,63.72,49.21a49,49,0,0,0,11.84-3.76c9.57,8.29,21.09,12.34,32.58,10.26,24.19-4.38,39-34.26,33.17-66.75S754.4,754.08,730.2,758.46Z"/><path class="cls-30" d="M1417.75,797.85a20.19,20.19,0,0,0-18.66-16.47,19.81,19.81,0,0,0-.29-5.19,20.19,20.19,0,0,0-19-16.49,37.53,37.53,0,0,0-57-14.2,28.76,28.76,0,0,0-36.38,18.55,20.21,20.21,0,0,0-17.62,26.1,20.27,20.27,0,1,0,24.59,13.52,20.22,20.22,0,0,0,8.48-4.72,28.62,28.62,0,0,0,11.93,2.6,29.65,29.65,0,0,0,4.75-.4,37.51,37.51,0,0,0,55.73-1.63,20,20,0,0,0,3.55.53,19.81,19.81,0,0,0,.29,5.19,20.2,20.2,0,1,0,39.71-7.39Z"/><path class="cls-31" d="M1068.87,811c-2.47-7.45-7.42-22.41-22-31.49,5.33-5,8.26-11.21,7.6-17.62-1.41-13.73-18.68-23.2-38.58-21.16S981,755.51,982.39,769.24a18.63,18.63,0,0,0,4.17,9.81,55,55,0,0,0-17.77,13.07c-14.62,16.66-10,36.29-7.71,45.79,8.35,35.17,47,71.44,76.4,63.2C1066.22,893.06,1079.88,844.31,1068.87,811Z"/><path class="cls-32" d="M451.71,802.62c2.22,36-19.14,81.3-44.56,82.17-26,.88-50.47-45-50.1-82.17.1-10,.31-30.81,15.83-43.79,16.46-13.77,43.38-13.11,60.2,0S451.12,793,451.71,802.62Z"/><path class="cls-33" d="M1662.75,878.29H1590.9a8.59,8.59,0,0,1-8.69-8.43q-3.15-47.42-6.28-94.83c-.87-4.82-4.29-26.46,8.83-37.67a24.62,24.62,0,0,1,4.1-2.84,78.07,78.07,0,0,1,27-9,79.62,79.62,0,0,1,40.46,5.12c3.76,3.7,9.06,3.79,11.28,1.69,2.44-2.3,2.28-8.24-2.58-11.83a26.32,26.32,0,0,1,16.63,7.89c8.59,9.15,6.18,21,5.91,22.23l-16.11,119.2A8.59,8.59,0,0,1,1662.75,878.29Z"/><path class="cls-28" d="M402,780.18h0A143.92,143.92,0,0,1,545.94,924.1v168.15a8.85,8.85,0,0,1-8.85,8.85H266.95a8.85,8.85,0,0,1-8.85-8.85V924.1A143.92,143.92,0,0,1,402,780.18Z"/><path class="cls-28" d="M94.34,780.18h0A143.92,143.92,0,0,1,238.26,924.1v168.15a8.85,8.85,0,0,1-8.85,8.85H-40.73a8.85,8.85,0,0,1-8.85-8.85V924.1A143.92,143.92,0,0,1,94.34,780.18Z"/><path class="cls-28" d="M709.7,780.18h0A143.92,143.92,0,0,1,853.62,924.1v168.15a8.85,8.85,0,0,1-8.85,8.85H574.63a8.85,8.85,0,0,1-8.85-8.85V924.1A143.92,143.92,0,0,1,709.7,780.18Z"/><path class="cls-28" d="M1017.38,780.18h0A143.92,143.92,0,0,1,1161.3,924.1v168.15a8.85,8.85,0,0,1-8.85,8.85H882.31a8.85,8.85,0,0,1-8.85-8.85V924.1a143.92,143.92,0,0,1,143.92-143.92Z"/><path class="cls-28" d="M1945.61,780.18h0A143.92,143.92,0,0,1,2089.54,924.1v168.15a8.85,8.85,0,0,1-8.85,8.85H1810.55a8.85,8.85,0,0,1-8.85-8.85V924.1A143.92,143.92,0,0,1,1945.61,780.18Z"/><path class="cls-28" d="M1327.24,780.18h0A143.92,143.92,0,0,1,1471.16,924.1v168.15a8.85,8.85,0,0,1-8.85,8.85H1192.17a8.85,8.85,0,0,1-8.85-8.85V924.1a143.92,143.92,0,0,1,143.92-143.92Z"/><path class="cls-28" d="M1636.43,780.18h0A143.92,143.92,0,0,1,1780.35,924.1v168.15a8.85,8.85,0,0,1-8.85,8.85H1501.36a8.85,8.85,0,0,1-8.85-8.85V924.1A143.92,143.92,0,0,1,1636.43,780.18Z"/><path class="cls-34" d="M402,780.79h0A143.92,143.92,0,0,1,545.94,924.71v168.15a8.85,8.85,0,0,1-8.85,8.85H266.95a8.85,8.85,0,0,1-8.85-8.85V924.71A143.92,143.92,0,0,1,402,780.79Z"/><path class="cls-35" d="M94.34,780.79h0A143.92,143.92,0,0,1,238.26,924.71v168.15a8.85,8.85,0,0,1-8.85,8.85H-40.73a8.85,8.85,0,0,1-8.85-8.85V924.71A143.92,143.92,0,0,1,94.34,780.79Z"/><path class="cls-36" d="M709.7,780.79h0A143.92,143.92,0,0,1,853.62,924.71v168.15a8.85,8.85,0,0,1-8.85,8.85H574.63a8.85,8.85,0,0,1-8.85-8.85V924.71A143.92,143.92,0,0,1,709.7,780.79Z"/><path class="cls-37" d="M1017.38,780.79h0A143.92,143.92,0,0,1,1161.3,924.71v168.15a8.85,8.85,0,0,1-8.85,8.85H882.31a8.85,8.85,0,0,1-8.85-8.85V924.71a143.92,143.92,0,0,1,143.92-143.92Z"/><path class="cls-38" d="M1945.61,780.79h0a143.92,143.92,0,0,1,143.92,143.92v168.15a8.85,8.85,0,0,1-8.85,8.85H1810.55a8.85,8.85,0,0,1-8.85-8.85V924.71A143.92,143.92,0,0,1,1945.61,780.79Z"/><path class="cls-39" d="M1327.24,780.79h0a143.92,143.92,0,0,1,143.92,143.92v168.15a8.85,8.85,0,0,1-8.85,8.85H1192.17a8.85,8.85,0,0,1-8.85-8.85V924.71A143.92,143.92,0,0,1,1327.24,780.79Z"/><path class="cls-40" d="M1636.43,780.79h0a143.92,143.92,0,0,1,143.92,143.92v168.15a8.85,8.85,0,0,1-8.85,8.85H1501.36a8.85,8.85,0,0,1-8.85-8.85V924.71a143.92,143.92,0,0,1,143.92-143.92Z"/><path class="cls-41" d="M105.37,882.71C103,870.6,92.09,862,79.57,861.3a24.83,24.83,0,0,0-.4-6.74c-2.43-12.28-13.59-20.95-26.33-21.43C44.67,816.27,26.6,804.54,5.6,804.54A53.79,53.79,0,0,0-26,814.67a41.77,41.77,0,0,0-12.45-1.88c-17.73,0-32.74,10.91-37.86,26C-90.7,839.89-102,851.17-102,864.93a24.8,24.8,0,0,0,1.25,7.77c-13.91,3.53-22.83,16.58-20.14,30.13,2.82,14.26,17.41,23.66,32.57,21s25.18-16.36,22.35-30.62a24.12,24.12,0,0,0-.78-3A28.42,28.42,0,0,0-55,884.14a41.73,41.73,0,0,0,16.5,3.37,41.93,41.93,0,0,0,6.58-.52A53.35,53.35,0,0,0,5.6,902.09a53.16,53.16,0,0,0,39.55-17.21,29.36,29.36,0,0,0,4.9.69,24.9,24.9,0,0,0,.4,6.75c2.82,14.25,17.41,23.66,32.57,21S108.2,897,105.37,882.71Z"/><path class="cls-41" d="M1391.48,983.84h-84.54a10.09,10.09,0,0,1-10.21-9.91q-3.7-55.78-7.4-111.56c-1-5.68-5-31.14,10.4-44.33a29.14,29.14,0,0,1,4.82-3.33,89.09,89.09,0,0,1,31.75-10.54c10-1.16,56.19-6.49,72.19,20.4,2.48,4.17,6,12,5.11,24.52q-6,62.42-11.9,124.84A10.1,10.1,0,0,1,1391.48,983.84Z"/><path class="cls-41" d="M722.71,875.81c2.77,45-23.91,101.51-55.65,102.59-32.5,1.11-63-56.15-62.55-102.59.13-12.54.38-38.47,19.76-54.68,20.56-17.2,54.17-16.37,75.17,0S722,863.81,722.71,875.81Z"/><path class="cls-41" d="M370.64,817.56c22.51,22.6,44.93,66.75,24.84,104.29-22,41.21-82.63,50.84-117.58,30-53.41-31.83-48.93-135.91-5-160.94C301.61,774.59,345.8,792.62,370.64,817.56Z"/><path class="cls-41" d="M1065.68,876.06c1.63,42.28-20.06,105.37-59,108.84-35.29,3.14-68.22-44-75.86-83.22-6-30.52,0-73.79,26-89.62,14.09-8.56,30.64-8.42,30.64-8.42a58.77,58.77,0,0,1,28.34,7.66c6-.83,14.58-1,23,3.06C1063.77,826.44,1065.27,865.43,1065.68,876.06Z"/><path class="cls-41" d="M1760.09,875.81c3.15,45-27.11,101.51-63.11,102.59-36.86,1.11-71.46-56.15-70.94-102.59.15-12.54.44-38.47,22.42-54.68,23.31-17.2,61.43-16.37,85.25,0S1759.26,863.81,1760.09,875.81Z"/><path class="cls-42" d="M105.37,882.1C103,870,92.09,861.39,79.57,860.7a24.9,24.9,0,0,0-.4-6.75c-2.43-12.28-13.59-21-26.33-21.43C44.67,815.66,26.6,803.93,5.6,803.93A53.86,53.86,0,0,0-26,814.06a42.1,42.1,0,0,0-12.45-1.88c-17.73,0-32.74,10.92-37.86,26C-90.7,839.28-102,850.56-102,864.32a24.7,24.7,0,0,0,1.25,7.77c-13.91,3.54-22.83,16.59-20.14,30.14,2.82,14.25,17.41,23.66,32.57,21s25.18-16.36,22.35-30.61a23.81,23.81,0,0,0-.78-3A28.3,28.3,0,0,0-55,883.53a41.73,41.73,0,0,0,16.5,3.38,43.17,43.17,0,0,0,6.58-.52A53.39,53.39,0,0,0,5.6,901.49a53.19,53.19,0,0,0,39.55-17.21,29.35,29.35,0,0,0,4.9.68,24.9,24.9,0,0,0,.4,6.75c2.82,14.26,17.41,23.66,32.57,21S108.2,896.36,105.37,882.1Z"/><path class="cls-43" d="M1391.48,983.23h-84.54a10.09,10.09,0,0,1-10.21-9.91q-3.7-55.77-7.4-111.56c-1-5.68-5-31.13,10.4-44.32a28,28,0,0,1,4.82-3.33,89.17,89.17,0,0,1,31.75-10.55c10-1.16,56.19-6.48,72.19,20.41,2.48,4.16,6,12,5.11,24.51q-6,62.41-11.9,124.84A10.1,10.1,0,0,1,1391.48,983.23Z"/><path class="cls-44" d="M722.71,875.2c2.77,45-23.91,101.51-55.65,102.59-32.5,1.11-63-56.14-62.55-102.59.13-12.53.38-38.47,19.76-54.68,20.56-17.19,54.17-16.37,75.17,0S722,863.21,722.71,875.2Z"/><path class="cls-45" d="M370.64,817c22.51,22.61,44.93,66.75,24.84,104.3-22,41.21-82.63,50.84-117.58,30-53.41-31.84-48.93-135.92-5-161C301.61,774,345.8,792,370.64,817Z"/><path class="cls-46" d="M1065.68,875.46c1.63,42.27-20.06,105.36-59,108.83-35.29,3.15-68.22-44-75.86-83.22-6-30.51,0-73.78,26-89.61,14.09-8.57,30.64-8.43,30.64-8.43a58.88,58.88,0,0,1,28.34,7.66c6-.82,14.58-1,23,3.07C1063.77,825.83,1065.27,864.83,1065.68,875.46Z"/><path class="cls-47" d="M1760.09,875.2c3.15,45-27.11,101.51-63.11,102.59-36.86,1.11-71.46-56.14-70.94-102.59.15-12.53.44-38.47,22.42-54.68,23.31-17.19,61.43-16.37,85.25,0S1759.26,863.21,1760.09,875.2Z"/><path class="cls-41" d="M-41.08,845.46h0A161.74,161.74,0,0,1,120.66,1007.2v189a10,10,0,0,1-10,10H-192.87a10,10,0,0,1-10-10v-189A161.74,161.74,0,0,1-41.08,845.46Z"/><path class="cls-41" d="M2039.45,845.46h0a161.74,161.74,0,0,1,161.74,161.74v189a10,10,0,0,1-10,10H1887.65a10,10,0,0,1-10-10v-189a161.74,161.74,0,0,1,161.74-161.74Z"/><path class="cls-41" d="M1344.49,845.46h0a161.74,161.74,0,0,1,161.74,161.74v189a10,10,0,0,1-10,10H1192.7a10,10,0,0,1-10-10v-189A161.74,161.74,0,0,1,1344.49,845.46Z"/><path class="cls-41" d="M650.49,845.46h0A161.74,161.74,0,0,1,812.23,1007.2v189a10,10,0,0,1-10,10H498.69a10,10,0,0,1-10-10v-189A161.74,161.74,0,0,1,650.49,845.46Z"/><path class="cls-41" d="M304.7,845.46h0A161.74,161.74,0,0,1,466.45,1007.2v189a10,10,0,0,1-10,10H152.91a10,10,0,0,1-10-10v-189A161.74,161.74,0,0,1,304.7,845.46Z"/><path class="cls-41" d="M996.27,845.46h0A161.74,161.74,0,0,1,1158,1007.2v189a10,10,0,0,1-10,10H844.47a10,10,0,0,1-10-10v-189A161.74,161.74,0,0,1,996.27,845.46Z"/><path class="cls-41" d="M1689.47,845.46h0a161.74,161.74,0,0,1,161.74,161.74v189a10,10,0,0,1-10,10H1537.68a10,10,0,0,1-10-10v-189A161.74,161.74,0,0,1,1689.47,845.46Z"/><path class="cls-48" d="M-41.08,845.74h0a161.74,161.74,0,0,1,161.74,161.74v189a10,10,0,0,1-10,10H-192.87a10,10,0,0,1-10-10v-189A161.74,161.74,0,0,1-41.08,845.74Z"/><path class="cls-49" d="M2039.45,845.74h0a161.74,161.74,0,0,1,161.74,161.74v189a10,10,0,0,1-10,10H1887.65a10,10,0,0,1-10-10v-189a161.74,161.74,0,0,1,161.74-161.74Z"/><path class="cls-50" d="M1344.49,845.74h0a161.74,161.74,0,0,1,161.74,161.74v189a10,10,0,0,1-10,10H1192.7a10,10,0,0,1-10-10v-189A161.74,161.74,0,0,1,1344.49,845.74Z"/><path class="cls-51" d="M650.49,845.74h0a161.74,161.74,0,0,1,161.74,161.74v189a10,10,0,0,1-10,10H498.69a10,10,0,0,1-10-10v-189A161.74,161.74,0,0,1,650.49,845.74Z"/><path class="cls-52" d="M304.7,845.74h0a161.74,161.74,0,0,1,161.74,161.74v189a10,10,0,0,1-10,10H152.91a10,10,0,0,1-10-10v-189A161.74,161.74,0,0,1,304.7,845.74Z"/><path class="cls-53" d="M996.27,845.74h0A161.74,161.74,0,0,1,1158,1007.49v189a10,10,0,0,1-10,10H844.47a10,10,0,0,1-10-10v-189A161.74,161.74,0,0,1,996.27,845.74Z"/><path class="cls-54" d="M1689.47,845.74h0a161.74,161.74,0,0,1,161.74,161.74v189a10,10,0,0,1-10,10H1537.68a10,10,0,0,1-10-10v-189a161.74,161.74,0,0,1,161.74-161.74Z"/><path class="cls-27" d="M141.34,888.94a46,46,0,0,0-9.9,1.08c-13.79-14.38-31.92-23.13-51.79-23.13-43.17,0-78.18,41.25-78.18,92.12s35,92.13,78.18,92.13a67.14,67.14,0,0,0,17.87-2.45c11.51,15.2,26.9,24.5,43.82,24.5,35.65,0,64.55-41.25,64.55-92.12S177,888.94,141.34,888.94Z"/><path class="cls-27" d="M539.14,1066.62H436.8a12.23,12.23,0,0,1-12.38-12q-4.47-67.53-8.95-135.07c-1.23-6.87-6.1-37.7,12.59-53.66a34.66,34.66,0,0,1,5.84-4,110.82,110.82,0,0,1,38.43-12.76A113.38,113.38,0,0,1,530,856.38c5.36,5.27,12.91,5.4,16.08,2.41,3.47-3.28,3.24-11.74-3.69-16.85,3,.26,14.68,1.62,23.69,11.23,12.23,13,8.81,29.91,8.42,31.66l-23,169.79A12.22,12.22,0,0,1,539.14,1066.62Z"/><path class="cls-27" d="M1321.75,947.13c3.67,59.61-31.67,134.47-73.72,135.9-43,1.47-83.47-74.38-82.86-135.9.17-16.61.51-51,26.18-72.44,27.23-22.78,71.75-21.68,99.58,0S1320.77,931.24,1321.75,947.13Z"/><path class="cls-27" d="M973.9,949.22a26.27,26.27,0,0,0-24.26-21.4,26.25,26.25,0,0,0-25.12-28.18,48.75,48.75,0,0,0-74.14-18.46,37.36,37.36,0,0,0-47.29,24.11,26.26,26.26,0,0,0-22.89,33.92,26.25,26.25,0,1,0,32.69,20.53,28.43,28.43,0,0,0-.73-3,26.2,26.2,0,0,0,11-6.13A37.21,37.21,0,0,0,838.68,954a38.08,38.08,0,0,0,6.18-.52,48.73,48.73,0,0,0,72.43-2.11,27.13,27.13,0,0,0,4.61.69,26.25,26.25,0,0,0,31,27.75A26.26,26.26,0,0,0,973.9,949.22Z"/><path class="cls-27" d="M1710.89,962.37c2-9.49,6.07-28.55-3.85-47.34,8.81-2,15.81-6.82,19.11-14.07,7.06-15.53-5.47-36.42-28-46.65s-46.49-5.95-53.55,9.58A23,23,0,0,0,1643,877a68.31,68.31,0,0,0-27.13,2.87c-26,8.67-33.27,32.53-36.79,44.07-13,42.75,5.58,105.56,42.13,115.12C1656.86,1048.34,1701.85,1004.83,1710.89,962.37Z"/><path class="cls-55" d="M141.34,888a46,46,0,0,0-9.9,1.08c-13.79-14.39-31.92-23.14-51.79-23.14C36.48,865.9,1.47,907.15,1.47,958s35,92.12,78.18,92.12a66.74,66.74,0,0,0,17.87-2.45c11.51,15.2,26.9,24.5,43.82,24.5,35.65,0,64.55-41.24,64.55-92.12S177,888,141.34,888Z"/><path class="cls-56" d="M539.14,1065.63H436.8a12.23,12.23,0,0,1-12.38-12Q420,986.1,415.47,918.57c-1.23-6.88-6.1-37.7,12.59-53.67a35.87,35.87,0,0,1,5.84-4,111.24,111.24,0,0,1,38.43-12.76A113.5,113.5,0,0,1,530,855.39c5.36,5.28,12.91,5.4,16.08,2.41,3.47-3.27,3.24-11.74-3.69-16.85,3,.26,14.68,1.63,23.69,11.23,12.23,13.05,8.81,29.92,8.42,31.66l-23,169.79A12.22,12.22,0,0,1,539.14,1065.63Z"/><path class="cls-57" d="M1321.75,946.14c3.67,59.61-31.67,134.47-73.72,135.9-43,1.47-83.47-74.37-82.86-135.9.17-16.61.51-51,26.18-72.44,27.23-22.77,71.75-21.68,99.58,0S1320.77,930.25,1321.75,946.14Z"/><path class="cls-58" d="M973.9,948.24a26.28,26.28,0,0,0-24.26-21.41,26.24,26.24,0,0,0-25.12-28.17,48.75,48.75,0,0,0-74.14-18.46,37.36,37.36,0,0,0-47.29,24.1,26.26,26.26,0,0,0-22.89,33.92,26.25,26.25,0,1,0,32.69,20.53,28.24,28.24,0,0,0-.73-3,26.31,26.31,0,0,0,11-6.13,37.27,37.27,0,0,0,21.69,2.85,48.73,48.73,0,0,0,72.43-2.11,26.16,26.16,0,0,0,4.61.69,26.26,26.26,0,1,0,52-2.86Z"/><path class="cls-59" d="M1710.89,961.38c2-9.49,6.07-28.55-3.85-47.34,8.81-2,15.81-6.81,19.11-14.07,7.06-15.53-5.47-36.41-28-46.65s-46.49-6-53.55,9.58A23,23,0,0,0,1643,876a68.31,68.31,0,0,0-27.13,2.87c-26,8.66-33.27,32.53-36.79,44.06-13,42.75,5.58,105.56,42.13,115.12C1656.86,1047.36,1701.85,1003.85,1710.89,961.38Z"/><path class="cls-27" d="M2016.9,932h0a184.3,184.3,0,0,1,184.3,184.3v215.33a11.34,11.34,0,0,1-11.34,11.34H1843.94a11.34,11.34,0,0,1-11.34-11.34V1116.26A184.3,184.3,0,0,1,2016.9,932Z"/><path class="cls-27" d="M100.2,932h0a184.3,184.3,0,0,1,184.3,184.3v215.33a11.34,11.34,0,0,1-11.34,11.34H-72.76a11.34,11.34,0,0,1-11.34-11.34V1116.26A184.3,184.3,0,0,1,100.2,932Z"/><path class="cls-27" d="M484.81,932h0a184.3,184.3,0,0,1,184.3,184.3v215.33a11.34,11.34,0,0,1-11.34,11.34H311.85a11.34,11.34,0,0,1-11.34-11.34V1116.26A184.3,184.3,0,0,1,484.81,932Z"/><path class="cls-27" d="M1251,932h0a184.3,184.3,0,0,1,184.3,184.3v215.33a11.34,11.34,0,0,1-11.34,11.34H1078a11.34,11.34,0,0,1-11.34-11.34V1116.26A184.3,184.3,0,0,1,1251,932Z"/><path class="cls-27" d="M861.23,930.93h0a184.3,184.3,0,0,1,184.3,184.3v215.33a11.34,11.34,0,0,1-11.34,11.34H688.27a11.34,11.34,0,0,1-11.34-11.34V1115.22a184.3,184.3,0,0,1,184.3-184.3Z"/><path class="cls-27" d="M1628.16,930.93h0a184.3,184.3,0,0,1,184.3,184.3v215.33a11.34,11.34,0,0,1-11.34,11.34H1455.2a11.34,11.34,0,0,1-11.34-11.34V1115.22a184.3,184.3,0,0,1,184.3-184.3Z"/><path class="cls-60" d="M2016.9,930.93h0a184.3,184.3,0,0,1,184.3,184.3v215.33a11.34,11.34,0,0,1-11.34,11.34H1843.94a11.34,11.34,0,0,1-11.34-11.34V1115.22a184.3,184.3,0,0,1,184.3-184.3Z"/><path class="cls-61" d="M100.2,930.93h0a184.3,184.3,0,0,1,184.3,184.3v215.33a11.34,11.34,0,0,1-11.34,11.34H-72.76a11.34,11.34,0,0,1-11.34-11.34V1115.22a184.3,184.3,0,0,1,184.3-184.3Z"/><path class="cls-62" d="M484.81,930.93h0a184.3,184.3,0,0,1,184.3,184.3v215.33a11.34,11.34,0,0,1-11.34,11.34H311.85a11.34,11.34,0,0,1-11.34-11.34V1115.22a184.3,184.3,0,0,1,184.3-184.3Z"/><path class="cls-63" d="M1251,930.93h0a184.3,184.3,0,0,1,184.3,184.3v215.33a11.34,11.34,0,0,1-11.34,11.34H1078a11.34,11.34,0,0,1-11.34-11.34V1115.22A184.3,184.3,0,0,1,1251,930.93Z"/><path class="cls-64" d="M861.23,929.89h0a184.3,184.3,0,0,1,184.3,184.3v215.33a11.34,11.34,0,0,1-11.34,11.34H688.27a11.34,11.34,0,0,1-11.34-11.34V1114.19a184.3,184.3,0,0,1,184.3-184.3Z"/><path class="cls-65" d="M1628.16,929.89h0a184.3,184.3,0,0,1,184.3,184.3v215.33a11.34,11.34,0,0,1-11.34,11.34H1455.2a11.34,11.34,0,0,1-11.34-11.34V1114.19a184.3,184.3,0,0,1,184.3-184.3Z"/></g></g></svg>