<svg id="Warstwa_1" data-name="Warstwa 1" xmlns="http://www.w3.org/2000/svg" xmlns:xlink="http://www.w3.org/1999/xlink" viewBox="0 0 62.33 139.33"><defs><style>.cls-1{fill:#31751b;}.cls-2{fill:#6caa55;}.cls-3{fill:url(#Gradient_bez_nazwy_5);}.cls-4{fill:url(#Gradient_bez_nazwy_3);}.cls-5{fill:url(#Gradient_bez_nazwy_5-2);}.cls-6{fill:#d2e2fc;}.cls-7{fill:url(#Gradient_bez_nazwy_18);}.cls-8{fill:url(#Gradient_bez_nazwy_16);}.cls-9{fill:url(#Gradient_bez_nazwy_20);}.cls-10{fill:url(#Gradient_bez_nazwy_15);}</style><linearGradient id="Gradient_bez_nazwy_5" x1="-742.55" y1="238.96" x2="-764.07" y2="218.66" gradientTransform="matrix(-1, 0, 0, 1, -715.27, -135.49)" gradientUnits="userSpaceOnUse"><stop offset="0.07" stop-color="#006837" stop-opacity="0.9"/><stop offset="0.48" stop-color="#398b47" stop-opacity="0.42"/><stop offset="0.81" stop-color="#6caa55" stop-opacity="0"/></linearGradient><linearGradient id="Gradient_bez_nazwy_3" x1="-781.31" y1="232.32" x2="-762.61" y2="231.49" gradientTransform="matrix(-1, 0, 0, 1, -715.27, -135.49)" gradientUnits="userSpaceOnUse"><stop offset="0" stop-color="#006837" stop-opacity="0.9"/><stop offset="0.48" stop-color="#398b47" stop-opacity="0.42"/><stop offset="0.87" stop-color="#6caa55" stop-opacity="0"/></linearGradient><linearGradient id="Gradient_bez_nazwy_5-2" x1="-729.05" y1="250.79" x2="-761.49" y2="229.88" xlink:href="#Gradient_bez_nazwy_5"/><linearGradient id="Gradient_bez_nazwy_18" x1="-649.05" y1="168.7" x2="-675.31" y2="132.3" gradientTransform="matrix(-1, -0.08, -0.08, 1, -621.16, -185.74)" gradientUnits="userSpaceOnUse"><stop offset="0" stop-color="#3d80ea"/><stop offset="0.06" stop-color="#4a87ea" stop-opacity="0.93"/><stop offset="0.19" stop-color="#6c99e9" stop-opacity="0.76"/><stop offset="0.36" stop-color="#a2b7e8" stop-opacity="0.47"/><stop offset="0.57" stop-color="#ecdfe6" stop-opacity="0.08"/><stop offset="0.61" stop-color="#fce7e6" stop-opacity="0"/></linearGradient><linearGradient id="Gradient_bez_nazwy_16" x1="-713.21" y1="176.88" x2="-736.46" y2="153.6" gradientTransform="matrix(-1, 0, 0, 1, -715.27, -135.49)" gradientUnits="userSpaceOnUse"><stop offset="0" stop-color="#3d80ea"/><stop offset="0.5" stop-color="#a8bae8" stop-opacity="0.44"/><stop offset="0.91" stop-color="#fce7e6" stop-opacity="0"/></linearGradient><linearGradient id="Gradient_bez_nazwy_20" x1="-678.68" y1="166.72" x2="-647.2" y2="161.86" gradientTransform="matrix(-1, -0.08, -0.08, 1, -621.16, -185.74)" gradientUnits="userSpaceOnUse"><stop offset="0" stop-color="#3d80ea"/><stop offset="0.49" stop-color="#90b7f4" stop-opacity="0.44"/><stop offset="0.88" stop-color="#d2e2fc" stop-opacity="0"/></linearGradient><linearGradient id="Gradient_bez_nazwy_15" x1="-729.56" y1="185.71" x2="-740.14" y2="178.14" gradientTransform="matrix(-1, 0, 0, 1, -715.27, -135.49)" gradientUnits="userSpaceOnUse"><stop offset="0" stop-color="#006837" stop-opacity="0.9"/><stop offset="0.05" stop-color="#096e3a" stop-opacity="0.82"/><stop offset="0.33" stop-color="#348845" stop-opacity="0.47"/><stop offset="0.59" stop-color="#539b4e" stop-opacity="0.21"/><stop offset="0.82" stop-color="#65a653" stop-opacity="0.05"/><stop offset="1" stop-color="#6caa55" stop-opacity="0"/></linearGradient></defs><path class="cls-1" d="M14.4,63.88c.63,2.91,1.6,6.91,3,11.57,2.75,8.88,6.27,20.25,14.14,31.42,6.9,9.82,11.87,12,16.62,23.13A59.67,59.67,0,0,1,51,138.14a1.18,1.18,0,0,0,.91,1.16,1.16,1.16,0,0,0,1.24-.53A85,85,0,0,0,47,105.53c-2.21-5.39-4.48-10.93-9.47-16.89C33.1,83.39,29.71,81.55,23,74.26A117.75,117.75,0,0,1,14.4,63.88Z"/><path class="cls-1" d="M52.68,138.94c1.19-3.78,2.75-9.13,4.32-15.6,1.43-5.88,4.93-18.77,5.28-29.61a103.92,103.92,0,0,0-8-42.62,77.31,77.31,0,0,1-1.45,15.5C51,75.93,49,76.78,48.07,84.07c-.69,5.23.26,5.28,1.3,21.62.58,9.21.34,10,.92,16.28C51,129.27,52,135.16,52.68,138.94Z"/><path class="cls-2" d="M52.14,139.33a1.16,1.16,0,0,0,1.16-1.13c.33-13.42-1.92-25.74-6.67-36.6a104.28,104.28,0,0,0-7.2-13.22C36,82.83,32.8,77.58,30,69.16A84.47,84.47,0,0,1,25.9,45.81a1.16,1.16,0,1,0-2.31.08,86.5,86.5,0,0,0,4.24,24c2.86,8.67,6.3,14.28,9.63,19.7a101.63,101.63,0,0,1,7,12.94c4.62,10.55,6.8,22.53,6.48,35.61a1.17,1.17,0,0,0,1.13,1.19Z"/><path class="cls-3" d="M52.14,139.33a1.16,1.16,0,0,0,1.16-1.13c.33-13.42-1.92-25.74-6.67-36.6a104.28,104.28,0,0,0-7.2-13.22C36,82.83,32.8,77.58,30,69.16A84.47,84.47,0,0,1,25.9,45.81a1.16,1.16,0,1,0-2.31.08,86.5,86.5,0,0,0,4.24,24c2.86,8.67,6.3,14.28,9.63,19.7a101.63,101.63,0,0,1,7,12.94c4.62,10.55,6.8,22.53,6.48,35.61a1.17,1.17,0,0,0,1.13,1.19Z"/><path class="cls-2" d="M56.18,106.17c-.24-6.64-1.58-7.85-1.7-15.49-.16-9.13,1.68-11.71,2-20.13a65,65,0,0,0-2.2-19.44,103.69,103.69,0,0,1,5.91,19.22,101.67,101.67,0,0,1,2.06,23.4c-.31,9.48-3.43,21.45-5.28,29.61-1.46,6.47-2.86,11.78-3.87,15.43l-.76-10.58A56.43,56.43,0,0,0,56.18,106.17Z"/><path class="cls-4" d="M56.18,106.17c-.24-6.64-1.58-7.85-1.7-15.49-.16-9.13,1.68-11.71,2-20.13a65,65,0,0,0-2.2-19.44,103.69,103.69,0,0,1,5.91,19.22,101.67,101.67,0,0,1,2.06,23.4c-.31,9.48-3.43,21.45-5.28,29.61-1.46,6.47-2.86,11.78-3.87,15.43l-.76-10.58A56.43,56.43,0,0,0,56.18,106.17Z"/><path class="cls-2" d="M14.39,63.88c.63,2.91,1.6,6.91,3.05,11.57,2.74,8.88,6.26,20.25,14.13,31.42,6.9,9.82,11.88,12,16.62,23.13A59.67,59.67,0,0,1,51,138.14a1.18,1.18,0,0,0,.91,1.16,1.16,1.16,0,0,0,1.24-.53c-.2-3.6-.41-7.2-.61-10.8a48.31,48.31,0,0,0-5.9-19.41,48.91,48.91,0,0,0-9.89-12.12C30.5,90.5,22.32,80.69,14.39,63.88Z"/><path class="cls-5" d="M14.4,63.88c.64,2.91,1.61,6.91,3,11.57,2.75,8.88,6.27,20.25,14.13,31.42,6.91,9.82,11.88,12,16.62,23.13A61.42,61.42,0,0,1,51,138.14a1.17,1.17,0,0,0,.9,1.16,1.16,1.16,0,0,0,1.24-.53c-.2-3.6-.41-7.2-.61-10.8a48.27,48.27,0,0,0-5.89-19.41,49.37,49.37,0,0,0-9.89-12.12C30.51,90.5,22.33,80.69,14.4,63.88Z"/><path class="cls-6" d="M19.58,43.64c-5.2-4.18-6.64-9.35-7.52-12.72-1.87-7.16-.54-13,.79-18.44A56.45,56.45,0,0,1,17.5,0,39.27,39.27,0,0,1,29.31,16.38c5.52,15.2-2.19,28-3.9,30.67A23.84,23.84,0,0,1,19.58,43.64Z"/><path class="cls-7" d="M21.35,44.56h0A23,23,0,0,1,18,42c-2.36-2.23-5.44-5.13-7.07-8.61-2.13-4.55-1.16-9.06,1.17-18A105.52,105.52,0,0,1,17.5,0a39.73,39.73,0,0,1,7.22,7.57A36,36,0,0,1,30,18.28a31.19,31.19,0,0,1,1.78,14.27A28.58,28.58,0,0,1,27.52,44.1C24.51,45.23,22.49,45.34,21.35,44.56Z"/><path class="cls-6" d="M17.86,44.28a17.6,17.6,0,0,1-3.31-2.53,46.07,46.07,0,0,1-7.08-8.62c-3.5-5.69-6-9.7-7-15.61A31.48,31.48,0,0,1,.85,4.88a26.91,26.91,0,0,1,9.82,5.8c2.44,2.33,3.2,4.14,7.18,8.09,2.26,2.25,3.86,3.5,4.52,4.09,3.1,2.77,5.45,8.9,2,23.72A18.88,18.88,0,0,1,17.86,44.28Z"/><path class="cls-8" d="M17.86,44.28a17.6,17.6,0,0,1-3.31-2.53,46.07,46.07,0,0,1-7.08-8.62c-3.5-5.69-6-9.7-7-15.61A31.48,31.48,0,0,1,.85,4.88a26.91,26.91,0,0,1,9.82,5.8c2.44,2.33,3.2,4.14,7.18,8.09,2.26,2.25,3.86,3.5,4.52,4.09,3.1,2.77,5.45,8.9,2,23.72A18.88,18.88,0,0,1,17.86,44.28Z"/><path class="cls-9" d="M19.75,41.56a12,12,0,0,1-1.38-8.1c.86-4.59,4.05-5.68,7.18-11.25a26.69,26.69,0,0,0,2.95-8A36.82,36.82,0,0,1,29.9,37a36.69,36.69,0,0,1-4.49,10A15,15,0,0,1,19.75,41.56Z"/><path class="cls-6" d="M22.17,42a15.05,15.05,0,0,1-.83-7.34c.71-5.08,3.5-5.42,6.63-12,2.61-5.46,1.44-6.81,4.09-10.89A24.68,24.68,0,0,1,39.7,4.4C40.55,7,48,31.19,32.62,43.31a27.14,27.14,0,0,1-7,4A16.25,16.25,0,0,1,22.17,42Z"/><path class="cls-2" d="M24.76,47.81a8,8,0,0,1,2.76-4.09,8.18,8.18,0,0,1,6.31-1.45,15.9,15.9,0,0,1-2,2A17.22,17.22,0,0,1,24.76,47.81Z"/><path class="cls-2" d="M24.91,48.08a4.82,4.82,0,0,0,1.54-2.73c.42-2.92-2.84-4.89-3.08-5a5.31,5.31,0,0,0-.79,5A6.41,6.41,0,0,0,24.91,48.08Z"/><path class="cls-2" d="M24.75,47.31a12.61,12.61,0,0,1-4.11-.9,12.75,12.75,0,0,1-5.09-3.72,8.77,8.77,0,0,1,4.57.45A9,9,0,0,1,24.75,47.31Z"/><path class="cls-10" d="M24.73,47.31a12.75,12.75,0,0,1-9.21-4.62,8.77,8.77,0,0,1,4.57.45A9.05,9.05,0,0,1,24.73,47.31Z"/></svg>