<svg xmlns="http://www.w3.org/2000/svg" xmlns:xlink="http://www.w3.org/1999/xlink" viewBox="0 0 213.99 156.93"><defs><style>.cls-1{fill:#d2e2fc;}.cls-2{opacity:0.7;fill:url(#Gradient_bez_nazwy_110);}.cls-3{fill:#3d80ea;}</style><linearGradient id="Gradient_bez_nazwy_110" x1="147.73" y1="142.65" x2="91.35" y2="67.1" gradientUnits="userSpaceOnUse"><stop offset="0" stop-color="#3d80ea" stop-opacity="0.8"/><stop offset="0.19" stop-color="#6097ee" stop-opacity="0.61"/><stop offset="0.47" stop-color="#91b7f4" stop-opacity="0.35"/><stop offset="0.71" stop-color="#b4cef8" stop-opacity="0.16"/><stop offset="0.89" stop-color="#caddfb" stop-opacity="0.04"/><stop offset="1" stop-color="#d2e2fc" stop-opacity="0"/></linearGradient></defs><g id="snooze"><path class="cls-1" d="M214,66.56C214,29.8,166.08,0,107,0S0,29.8,0,66.56C0,88.69,17.36,108.3,44.08,120.4a2.57,2.57,0,0,1,1,3.91l-21.5,28.1a2.58,2.58,0,0,0,2.72,4.06l87.19-23.42A2.61,2.61,0,0,1,114,133C169.83,130.72,214,101.85,214,66.56Z"/><path class="cls-2" d="M214,66.59c-.3-16-10.8-29.13-12.82-31.65a59.89,59.89,0,0,0-15.58-13.69,109.24,109.24,0,0,1-4.4,25.21A101.92,101.92,0,0,1,167.66,75.4c-2.34,3.35-12.35,17.13-37.74,30.27-32.43,16.79-65,19.61-85.44,19.58Q34,138.83,23.56,152.41a3.14,3.14,0,0,0,.32,3.65,3.19,3.19,0,0,0,4.46-.07l85.13-22.91a163.19,163.19,0,0,0,19.43-2c10.2-1.67,26.47-4.32,41.48-12.53C178.59,116.24,214.53,96.65,214,66.59Z"/><path class="cls-3" d="M136.61,35a1.77,1.77,0,0,1,1.62-.68,19.35,19.35,0,0,1,13,7.76,18.94,18.94,0,0,1,2.67,18.27A1.78,1.78,0,1,1,150.64,59a15.37,15.37,0,0,0-2.24-14.81,15.79,15.79,0,0,0-10.6-6.35,1.78,1.78,0,0,1-1.55-2A1.74,1.74,0,0,1,136.61,35Z"/><path class="cls-3" d="M144.15,23.1a2.4,2.4,0,0,1,2.2-.92A26.19,26.19,0,0,1,164,32.68c5.45,7.33,6.84,16.8,3.62,24.71a2.41,2.41,0,0,1-4.46-1.82c2.59-6.36,1.43-14-3-20A21.39,21.39,0,0,0,145.76,27a2.4,2.4,0,0,1-1.61-3.85Z"/><path class="cls-3" d="M139.55,89a4.56,4.56,0,0,0-.38-3.7,4.81,4.81,0,0,0-5-2.08l3.78-2.5a5.94,5.94,0,0,0,2.93-3.87,5.14,5.14,0,0,0-.78-4.15,5.38,5.38,0,0,0-5.22-1.94l1.79-1.25.18-.16a5.83,5.83,0,0,0,.9-7.32,5.45,5.45,0,0,0-3.88-2.23,6.21,6.21,0,0,0-4.78,1.51l-.9.64a5.14,5.14,0,0,0-.05-3.84,5.35,5.35,0,0,0-3.54-2.82,7.16,7.16,0,0,0-5.91,1c-.49.26-1,.54-1.46.82l5.36-7.63a5.14,5.14,0,0,0,1.17-3.94,4.57,4.57,0,0,0-1.89-3.19,4.8,4.8,0,0,0-5.42.2l2.39-3.86a5.92,5.92,0,0,0,1-4.74,5.13,5.13,0,0,0-2.43-3.45,5.41,5.41,0,0,0-5.56.43c.36-.61.73-1.24,1.1-1.89a1,1,0,0,0,.1-.21,5.84,5.84,0,0,0-2.24-7,5.49,5.49,0,0,0-4.45-.4,6.21,6.21,0,0,0-3.71,3.37l-.55,1a5.16,5.16,0,0,0-1.66-3.47,5.35,5.35,0,0,0-4.39-1.08,7.13,7.13,0,0,0-4.94,3.41c-3,4-5.78,8.16-8.41,12.36-3,4.85-5.87,9.88-8.46,15-.7-5.87-2.23-12.49-5.54-13.44a5,5,0,0,0-3.64.25c-2,1.1-2.36,3.55-2.41,4.28a.57.57,0,0,0,0,.13c.12,6,.08,12-.1,18-.08,2.77-.2,5.58-.35,8.38a18,18,0,0,0,1.25,7.72,19.61,19.61,0,0,0,9.24,9.82,17.86,17.86,0,0,0-1.17,5.5c-.48,9.4,6.85,15.86,8.57,17.25A12.84,12.84,0,0,0,83,112.18a12.18,12.18,0,0,0,2.09,1c8.73,3.27,20.67-3,27.31-6.52a78,78,0,0,0,9.15-5.66l15.32-8.93A5.13,5.13,0,0,0,139.55,89ZM85.07,61.3c-2.39,5.46-4.95,10.94-7.61,16.27-1.16,2.35-2.38,4.72-3.61,7.06A16.85,16.85,0,0,1,66,76.25a15.69,15.69,0,0,1-1.06-6.58c.15-2.8.27-5.64.36-8.43.18-6,.22-12,.1-18a2.69,2.69,0,0,1,1-2.05,2.47,2.47,0,0,1,1.63,0c1.76.51,3.49,7.33,4,15.86a1.35,1.35,0,0,0,2.57.5A190.18,190.18,0,0,1,85,38.42c2.61-4.17,5.42-8.29,8.34-12.25a.44.44,0,0,0,.08-.11,4.43,4.43,0,0,1,3.08-2.18,2.75,2.75,0,0,1,2.19.45c.89.77,1.12,2.76,0,4.49l0,.09c-10.76,20.2-10.76,20.2-9.29,21,1.2.66,1.87-.39,2.79-1.84.61-1,1.5-2.44,2.65-4.39,2.3-3.87,5.74-9.8,10.22-17.61l.06-.14A3.51,3.51,0,0,1,107.24,24a2.7,2.7,0,0,1,2.24.16,3.14,3.14,0,0,1,1.12,3.67c-14.57,25-14.44,25.09-12.94,26,1.34.81,1.88,0,5.4-5.2,2.22-3.28,5.5-8.3,9.76-14.93a2.85,2.85,0,0,1,3.31-.81,2.48,2.48,0,0,1,1.12,1.65,3.24,3.24,0,0,1-.6,2.61.61.61,0,0,0-.07.1L105.06,55.84a1.35,1.35,0,0,0,2.18,1.58L117.75,45a2.18,2.18,0,0,1,2.59-.39,1.83,1.83,0,0,1,.74,1.32,2.42,2.42,0,0,1-.58,1.88.44.44,0,0,0-.08.11l-8.77,12.49c-2,1.18-3.88,2.39-5.77,3.63-4.78,3.14-9.46,6.52-13.95,10.08,1.81-5.63,3.2-12.28.59-14.52a5,5,0,0,0-3.41-1.3c-2.3.15-3.63,2.24-4,2.88A.61.61,0,0,0,85.07,61.3Zm50.59,28.36-.12.06-15.43,9a.41.41,0,0,0-.11.07,76.47,76.47,0,0,1-8.88,5.5c-6.73,3.54-19.25,10.13-26.75,5.59a10.19,10.19,0,0,1-2.32-1.93,1.29,1.29,0,0,0-.17-.16c-1.35-1.07-8.06-6.81-7.64-15.07A15.56,15.56,0,0,1,76,86.29c1.31-2.48,2.6-5,3.85-7.51,2.66-5.36,5.23-10.85,7.63-16.34.38-.65,1-1.4,1.75-1.44a2.41,2.41,0,0,1,1.5.64c1.39,1.2.11,8.11-3,16.08a1.35,1.35,0,0,0,2.12,1.53,189.93,189.93,0,0,1,17.46-13c4.11-2.7,8.38-5.27,12.69-7.64l.12-.07a4.41,4.41,0,0,1,3.71-.69,2.73,2.73,0,0,1,1.8,1.32c.49,1.07-.14,3-1.85,4.1l-.08,0c-18.22,13.86-18.22,13.86-17.22,15.21.82,1.11,1.86.43,3.3-.51,1-.62,2.39-1.58,4.25-2.87,3.71-2.56,9.31-6.51,16.64-11.73l.12-.1a3.47,3.47,0,0,1,2.72-.89,2.73,2.73,0,0,1,2,1.09,3.13,3.13,0,0,1-.52,3.8C111.33,84,111.41,84.12,112.39,85.59c.87,1.3,1.7.79,7.08-2.47,3.38-2.05,8.46-5.24,15.11-9.48a2.85,2.85,0,0,1,3.34.65,2.41,2.41,0,0,1,.32,2,3.2,3.2,0,0,1-1.63,2.12l-.1.07L118.28,90.5a1.35,1.35,0,0,0,1.31,2.35L134.34,86a2.14,2.14,0,0,1,2.51.73,1.84,1.84,0,0,1,.12,1.5A2.41,2.41,0,0,1,135.66,89.66Z"/></g></svg>