<svg id="Warstwa_1" data-name="Warstwa 1" xmlns="http://www.w3.org/2000/svg" xmlns:xlink="http://www.w3.org/1999/xlink" viewBox="0 0 1920 1080"><defs><style>.cls-1{fill:#590f1a;}.cls-2{fill:url(#Gradient_bez_nazwy_139);}.cls-3{fill:url(#Gradient_bez_nazwy_139-2);}.cls-4{fill:url(#Gradient_bez_nazwy_139-3);}.cls-5{fill:url(#Gradient_bez_nazwy_139-4);}.cls-6{fill:url(#Gradient_bez_nazwy_139-5);}.cls-7{fill:url(#Gradient_bez_nazwy_139-6);}.cls-8{fill:url(#Gradient_bez_nazwy_139-7);}.cls-9{fill:url(#Gradient_bez_nazwy_139-8);}.cls-10{fill:url(#Gradient_bez_nazwy_139-9);}.cls-11{fill:url(#Gradient_bez_nazwy_139-10);}.cls-12{fill:url(#Gradient_bez_nazwy_139-11);}</style><linearGradient id="Gradient_bez_nazwy_139" x1="51.99" y1="538.92" x2="161.21" y2="538.92" gradientUnits="userSpaceOnUse"><stop offset="0" stop-color="#590f1a" stop-opacity="0"/><stop offset="0.49" stop-color="#330812"/><stop offset="0.69" stop-color="#400a15" stop-opacity="0.67"/><stop offset="1" stop-color="#590f1a" stop-opacity="0"/></linearGradient><linearGradient id="Gradient_bez_nazwy_139-2" x1="223.23" y1="538.92" x2="332.45" y2="538.92" xlink:href="#Gradient_bez_nazwy_139"/><linearGradient id="Gradient_bez_nazwy_139-3" x1="394.46" y1="538.92" x2="503.69" y2="538.92" xlink:href="#Gradient_bez_nazwy_139"/><linearGradient id="Gradient_bez_nazwy_139-4" x1="565.7" y1="538.92" x2="674.92" y2="538.92" xlink:href="#Gradient_bez_nazwy_139"/><linearGradient id="Gradient_bez_nazwy_139-5" x1="736.94" y1="538.92" x2="846.16" y2="538.92" xlink:href="#Gradient_bez_nazwy_139"/><linearGradient id="Gradient_bez_nazwy_139-6" x1="908.17" y1="538.92" x2="1017.4" y2="538.92" xlink:href="#Gradient_bez_nazwy_139"/><linearGradient id="Gradient_bez_nazwy_139-7" x1="1079.41" y1="538.92" x2="1188.63" y2="538.92" xlink:href="#Gradient_bez_nazwy_139"/><linearGradient id="Gradient_bez_nazwy_139-8" x1="1250.65" y1="538.92" x2="1359.87" y2="538.92" xlink:href="#Gradient_bez_nazwy_139"/><linearGradient id="Gradient_bez_nazwy_139-9" x1="1421.88" y1="538.92" x2="1531.1" y2="538.92" xlink:href="#Gradient_bez_nazwy_139"/><linearGradient id="Gradient_bez_nazwy_139-10" x1="1764.35" y1="538.92" x2="1873.58" y2="538.92" xlink:href="#Gradient_bez_nazwy_139"/><linearGradient id="Gradient_bez_nazwy_139-11" x1="1593.12" y1="538.92" x2="1702.34" y2="538.92" xlink:href="#Gradient_bez_nazwy_139"/></defs><rect class="cls-1" width="1920" height="1080"/><rect class="cls-2" x="51.99" y="-1.08" width="109.22" height="1080"/><rect class="cls-3" x="223.23" y="-1.08" width="109.22" height="1080"/><rect class="cls-4" x="394.46" y="-1.08" width="109.22" height="1080"/><rect class="cls-5" x="565.7" y="-1.08" width="109.22" height="1080"/><rect class="cls-6" x="736.94" y="-1.08" width="109.22" height="1080"/><rect class="cls-7" x="908.17" y="-1.08" width="109.22" height="1080"/><rect class="cls-8" x="1079.41" y="-1.08" width="109.22" height="1080"/><rect class="cls-9" x="1250.65" y="-1.08" width="109.22" height="1080"/><rect class="cls-10" x="1421.88" y="-1.08" width="109.22" height="1080"/><rect class="cls-11" x="1764.35" y="-1.08" width="109.22" height="1080"/><rect class="cls-12" x="1593.12" y="-1.08" width="109.22" height="1080"/></svg>