<svg id="Warstwa_1" data-name="Warstwa 1" xmlns="http://www.w3.org/2000/svg" xmlns:xlink="http://www.w3.org/1999/xlink" viewBox="0 0 379.3 528.22"><defs><style>.cls-1{fill:#fce7e6;}.cls-2{fill:url(#Gradient_bez_nazwy_86);}.cls-3{fill:url(#Gradient_bez_nazwy_84);}.cls-4{fill:url(#Gradient_bez_nazwy_83);}.cls-5{fill:url(#Gradient_bez_nazwy_83-2);}.cls-6{fill:url(#Gradient_bez_nazwy_85);}.cls-7{fill:url(#Gradient_bez_nazwy_83-3);}.cls-8{fill:#f7f6e8;}.cls-9{fill:url(#Gradient_bez_nazwy_82);}.cls-10{fill:#0c0606;}.cls-11{fill:#042033;}.cls-12{fill:#010b11;}.cls-13{fill:#d1cfb8;}.cls-14,.cls-26{fill:#141414;}.cls-15{fill:url(#Gradient_bez_nazwy_45);}.cls-16{fill:url(#Gradient_bez_nazwy_46);}.cls-17{opacity:0.27;}.cls-18{fill:#051828;}.cls-19{opacity:0.59;fill:url(#Gradient_bez_nazwy_35);}.cls-20{fill:#1e1e1e;}.cls-21{fill:#191919;}.cls-22{fill:url(#Gradient_bez_nazwy_68);}.cls-23{fill:url(#Gradient_bez_nazwy_47);}.cls-24{fill:#dbb6b6;}.cls-25{fill:url(#Gradient_bez_nazwy_34);}.cls-26{opacity:0.3;}.cls-27{fill:url(#Gradient_bez_nazwy_61);}.cls-28{fill:url(#Gradient_bez_nazwy_60);}.cls-29{fill:url(#Gradient_bez_nazwy_66);}.cls-30{fill:url(#Gradient_bez_nazwy_78);}.cls-31{fill:url(#Gradient_bez_nazwy_62);}.cls-32{fill:url(#Gradient_bez_nazwy_88);}.cls-33{fill:url(#Gradient_bez_nazwy_4);}.cls-34{fill:url(#Gradient_bez_nazwy_82-2);}.cls-35{fill:url(#Gradient_bez_nazwy_2);}.cls-36{fill:url(#Gradient_bez_nazwy_83-4);}.cls-37{fill:url(#Gradient_bez_nazwy_83-5);}.cls-38{fill:url(#Gradient_bez_nazwy_83-6);}.cls-39{fill:url(#Gradient_bez_nazwy_83-7);}.cls-40{fill:url(#Gradient_bez_nazwy_30);}</style><linearGradient id="Gradient_bez_nazwy_86" x1="1271.35" y1="176.26" x2="1251" y2="162.86" gradientTransform="matrix(-1, 0, 0, 1, 1313.07, 0)" gradientUnits="userSpaceOnUse"><stop offset="0.08" stop-color="#dbb6b6"/><stop offset="0.58" stop-color="#f0d5d5" stop-opacity="0.36"/><stop offset="0.85" stop-color="#fce7e6" stop-opacity="0"/></linearGradient><linearGradient id="Gradient_bez_nazwy_84" x1="1291.08" y1="135.07" x2="1280.96" y2="128.11" gradientTransform="matrix(-1, 0, 0, 1, 1313.07, 0)" gradientUnits="userSpaceOnUse"><stop offset="0" stop-color="#dbb6b6"/><stop offset="0.06" stop-color="#e1bfbf" stop-opacity="0.81"/><stop offset="0.14" stop-color="#e9cbcb" stop-opacity="0.57"/><stop offset="0.22" stop-color="#f0d5d5" stop-opacity="0.36"/><stop offset="0.3" stop-color="#f5dddc" stop-opacity="0.21"/><stop offset="0.37" stop-color="#f9e2e2" stop-opacity="0.09"/><stop offset="0.44" stop-color="#fbe6e5" stop-opacity="0.02"/><stop offset="0.5" stop-color="#fce7e6" stop-opacity="0"/></linearGradient><linearGradient id="Gradient_bez_nazwy_83" x1="1299.59" y1="138.36" x2="1286.78" y2="130.99" gradientTransform="matrix(-1, 0, 0, 1, 1313.07, 0)" gradientUnits="userSpaceOnUse"><stop offset="0" stop-color="#dbb6b6"/><stop offset="0.08" stop-color="#e1bfbf" stop-opacity="0.81"/><stop offset="0.19" stop-color="#e9cbcb" stop-opacity="0.57"/><stop offset="0.31" stop-color="#f0d5d5" stop-opacity="0.36"/><stop offset="0.41" stop-color="#f5dddc" stop-opacity="0.21"/><stop offset="0.51" stop-color="#f9e2e2" stop-opacity="0.09"/><stop offset="0.61" stop-color="#fbe6e5" stop-opacity="0.02"/><stop offset="0.68" stop-color="#fce7e6" stop-opacity="0"/></linearGradient><linearGradient id="Gradient_bez_nazwy_83-2" x1="1306.16" y1="144.58" x2="1294.1" y2="137.55" xlink:href="#Gradient_bez_nazwy_83"/><linearGradient id="Gradient_bez_nazwy_85" x1="1269.9" y1="144.69" x2="1259.72" y2="144.38" gradientTransform="matrix(-1, 0, 0, 1, 1313.07, 0)" gradientUnits="userSpaceOnUse"><stop offset="0" stop-color="#dbb6b6"/><stop offset="0.1" stop-color="#e1bfbf" stop-opacity="0.81"/><stop offset="0.24" stop-color="#e9cbcb" stop-opacity="0.57"/><stop offset="0.38" stop-color="#f0d5d5" stop-opacity="0.36"/><stop offset="0.52" stop-color="#f5dddc" stop-opacity="0.21"/><stop offset="0.64" stop-color="#f9e2e2" stop-opacity="0.09"/><stop offset="0.76" stop-color="#fbe6e5" stop-opacity="0.02"/><stop offset="0.85" stop-color="#fce7e6" stop-opacity="0"/></linearGradient><linearGradient id="Gradient_bez_nazwy_83-3" x1="1300.41" y1="164.67" x2="1284.91" y2="151.47" xlink:href="#Gradient_bez_nazwy_83"/><linearGradient id="Gradient_bez_nazwy_82" x1="1266.22" y1="184.41" x2="1270.7" y2="157.16" gradientTransform="matrix(-1, 0, 0, 1, 1313.07, 0)" gradientUnits="userSpaceOnUse"><stop offset="0.02" stop-color="#d1cfb8"/><stop offset="0.04" stop-color="#d7d3bf" stop-opacity="0.85"/><stop offset="0.09" stop-color="#e2d9cb" stop-opacity="0.59"/><stop offset="0.14" stop-color="#ecded4" stop-opacity="0.38"/><stop offset="0.19" stop-color="#f3e2dc" stop-opacity="0.22"/><stop offset="0.23" stop-color="#f8e5e2" stop-opacity="0.1"/><stop offset="0.27" stop-color="#fbe6e5" stop-opacity="0.02"/><stop offset="0.3" stop-color="#fce7e6" stop-opacity="0"/></linearGradient><linearGradient id="Gradient_bez_nazwy_45" x1="1421.71" y1="278.22" x2="1378.23" y2="278.65" gradientTransform="matrix(-0.97, -0.23, -0.23, 0.97, 1548.05, 146.52)" gradientUnits="userSpaceOnUse"><stop offset="0" stop-color="#dbb6b6"/><stop offset="0.09" stop-color="#e1bfbf" stop-opacity="0.81"/><stop offset="0.23" stop-color="#e9cbcb" stop-opacity="0.57"/><stop offset="0.36" stop-color="#f0d5d5" stop-opacity="0.36"/><stop offset="0.49" stop-color="#f5dddc" stop-opacity="0.21"/><stop offset="0.61" stop-color="#f9e2e2" stop-opacity="0.09"/><stop offset="0.72" stop-color="#fbe6e5" stop-opacity="0.02"/><stop offset="0.81" stop-color="#fce7e6" stop-opacity="0"/></linearGradient><linearGradient id="Gradient_bez_nazwy_46" x1="1360.08" y1="314.74" x2="1392.81" y2="303.27" gradientTransform="matrix(-0.97, -0.23, -0.23, 0.97, 1548.05, 146.52)" gradientUnits="userSpaceOnUse"><stop offset="0.04" stop-color="#dbb6b6"/><stop offset="0.07" stop-color="#ddb9b9" stop-opacity="0.94"/><stop offset="0.27" stop-color="#e8c9c9" stop-opacity="0.61"/><stop offset="0.45" stop-color="#f0d6d5" stop-opacity="0.35"/><stop offset="0.61" stop-color="#f7dfde" stop-opacity="0.16"/><stop offset="0.73" stop-color="#fbe5e4" stop-opacity="0.04"/><stop offset="0.81" stop-color="#fce7e6" stop-opacity="0"/></linearGradient><linearGradient id="Gradient_bez_nazwy_35" x1="1172.13" y1="323.94" x2="1190.31" y2="323.09" gradientTransform="matrix(-1, 0, 0, 1, 1313.07, 0)" gradientUnits="userSpaceOnUse"><stop offset="0.1" stop-color="#659bff" stop-opacity="0.7"/><stop offset="0.51" stop-color="#2a4069" stop-opacity="0.29"/><stop offset="0.81" stop-opacity="0"/></linearGradient><linearGradient id="Gradient_bez_nazwy_68" x1="1232.57" y1="372" x2="1281.02" y2="347.26" gradientTransform="matrix(-0.97, -0.23, -0.23, 0.97, 1548.05, 146.52)" gradientUnits="userSpaceOnUse"><stop offset="0.02" stop-color="#659bff" stop-opacity="0.8"/><stop offset="0.04" stop-color="#5481d4" stop-opacity="0.66"/><stop offset="0.06" stop-color="#4063a2" stop-opacity="0.51"/><stop offset="0.09" stop-color="#2f4876" stop-opacity="0.37"/><stop offset="0.12" stop-color="#203252" stop-opacity="0.26"/><stop offset="0.16" stop-color="#141f33" stop-opacity="0.16"/><stop offset="0.2" stop-color="#0b111c" stop-opacity="0.09"/><stop offset="0.25" stop-color="#05070c" stop-opacity="0.04"/><stop offset="0.31" stop-color="#010203" stop-opacity="0.01"/><stop offset="0.44" stop-opacity="0"/></linearGradient><linearGradient id="Gradient_bez_nazwy_47" x1="1331.93" y1="346.99" x2="1366.9" y2="382.62" gradientTransform="matrix(-0.97, -0.23, -0.23, 0.97, 1548.05, 146.52)" gradientUnits="userSpaceOnUse"><stop offset="0.09" stop-color="#dbb6b6"/><stop offset="0.17" stop-color="#e1bfbf" stop-opacity="0.81"/><stop offset="0.29" stop-color="#e9cbcb" stop-opacity="0.57"/><stop offset="0.41" stop-color="#f0d5d5" stop-opacity="0.36"/><stop offset="0.52" stop-color="#f5dddc" stop-opacity="0.21"/><stop offset="0.63" stop-color="#f9e2e2" stop-opacity="0.09"/><stop offset="0.73" stop-color="#fbe6e5" stop-opacity="0.02"/><stop offset="0.81" stop-color="#fce7e6" stop-opacity="0"/></linearGradient><linearGradient id="Gradient_bez_nazwy_34" x1="1108" y1="456.96" x2="1144.81" y2="451.79" gradientTransform="matrix(-1, 0, 0, 1, 1313.07, 0)" gradientUnits="userSpaceOnUse"><stop offset="0.07" stop-color="#659bff" stop-opacity="0.7"/><stop offset="0.15" stop-color="#4e77c4" stop-opacity="0.54"/><stop offset="0.26" stop-color="#365389" stop-opacity="0.37"/><stop offset="0.36" stop-color="#233557" stop-opacity="0.24"/><stop offset="0.47" stop-color="#131e31" stop-opacity="0.13"/><stop offset="0.58" stop-color="#090d16" stop-opacity="0.06"/><stop offset="0.69" stop-color="#020305" stop-opacity="0.01"/><stop offset="0.81" stop-opacity="0"/></linearGradient><radialGradient id="Gradient_bez_nazwy_61" cx="1104.39" cy="515.92" fx="1095.6789900062124" r="13.88" gradientTransform="matrix(-1, -0.05, -0.03, 0.71, 1328.65, 199.2)" gradientUnits="userSpaceOnUse"><stop offset="0" stop-color="#9e8465" stop-opacity="0.7"/><stop offset="0.12" stop-color="#947c5f" stop-opacity="0.66"/><stop offset="0.31" stop-color="#78644d" stop-opacity="0.53"/><stop offset="0.53" stop-color="#4a3e2f" stop-opacity="0.33"/><stop offset="0.77" stop-color="#0b0907" stop-opacity="0.05"/><stop offset="0.81" stop-opacity="0"/></radialGradient><radialGradient id="Gradient_bez_nazwy_60" cx="1168.56" cy="515.04" r="13.37" gradientTransform="matrix(-1, 0.06, 0.04, 0.68, 1289.12, 91.13)" gradientUnits="userSpaceOnUse"><stop offset="0" stop-color="#9e8465" stop-opacity="0.7"/><stop offset="0.14" stop-color="#977e60" stop-opacity="0.67"/><stop offset="0.3" stop-color="#826d53" stop-opacity="0.58"/><stop offset="0.47" stop-color="#60503d" stop-opacity="0.43"/><stop offset="0.65" stop-color="#31291f" stop-opacity="0.22"/><stop offset="0.81" stop-opacity="0"/></radialGradient><radialGradient id="Gradient_bez_nazwy_66" cx="1169.52" cy="376.75" fx="1160.1683171571763" r="16.82" gradientTransform="matrix(-0.97, -0.23, -1.11, 4.78, 1880.94, -1285.88)" gradientUnits="userSpaceOnUse"><stop offset="0" stop-color="#659bff" stop-opacity="0.8"/><stop offset="0.06" stop-color="#537fd2" stop-opacity="0.66"/><stop offset="0.15" stop-color="#3d5e9a" stop-opacity="0.48"/><stop offset="0.25" stop-color="#2a416b" stop-opacity="0.33"/><stop offset="0.34" stop-color="#1b2944" stop-opacity="0.21"/><stop offset="0.44" stop-color="#0f1726" stop-opacity="0.12"/><stop offset="0.55" stop-color="#070a11" stop-opacity="0.05"/><stop offset="0.66" stop-color="#020204" stop-opacity="0.01"/><stop offset="0.81" stop-opacity="0"/></radialGradient><linearGradient id="Gradient_bez_nazwy_78" x1="1250.22" y1="253.46" x2="1601.85" y2="475.24" gradientTransform="matrix(-0.97, -0.23, -0.23, 0.97, 1548.05, 146.52)" gradientUnits="userSpaceOnUse"><stop offset="0" stop-color="#dbb6b6"/><stop offset="0.05" stop-color="#e1bfbf" stop-opacity="0.81"/><stop offset="0.11" stop-color="#e9cbcb" stop-opacity="0.57"/><stop offset="0.18" stop-color="#f0d5d5" stop-opacity="0.36"/><stop offset="0.24" stop-color="#f5dddc" stop-opacity="0.21"/><stop offset="0.3" stop-color="#f9e2e2" stop-opacity="0.09"/><stop offset="0.35" stop-color="#fbe6e5" stop-opacity="0.02"/><stop offset="0.4" stop-color="#fce7e6" stop-opacity="0"/></linearGradient><linearGradient id="Gradient_bez_nazwy_62" x1="1203.01" y1="228.25" x2="1373.88" y2="323.05" gradientTransform="matrix(-0.97, -0.23, -0.23, 0.97, 1548.05, 146.52)" gradientUnits="userSpaceOnUse"><stop offset="0.02" stop-color="#659bff" stop-opacity="0.8"/><stop offset="0.02" stop-color="#6296f7" stop-opacity="0.78"/><stop offset="0.05" stop-color="#4e77c4" stop-opacity="0.61"/><stop offset="0.09" stop-color="#3b5a95" stop-opacity="0.47"/><stop offset="0.12" stop-color="#2b426c" stop-opacity="0.34"/><stop offset="0.16" stop-color="#1d2d4a" stop-opacity="0.23"/><stop offset="0.21" stop-color="#131c2f" stop-opacity="0.15"/><stop offset="0.27" stop-color="#0a101a" stop-opacity="0.08"/><stop offset="0.33" stop-color="#04070b" stop-opacity="0.03"/><stop offset="0.43" stop-color="#010102" stop-opacity="0.01"/><stop offset="0.69" stop-opacity="0"/></linearGradient><linearGradient id="Gradient_bez_nazwy_88" x1="1206.5" y1="320.91" x2="1219.7" y2="335.37" gradientTransform="matrix(-0.97, -0.23, -0.23, 0.97, 1548.05, 146.52)" gradientUnits="userSpaceOnUse"><stop offset="0.08" stop-color="#dbb6b6"/><stop offset="0.29" stop-color="#e4c4c3" stop-opacity="0.72"/><stop offset="0.54" stop-color="#eed3d2" stop-opacity="0.42"/><stop offset="0.75" stop-color="#f6dedd" stop-opacity="0.19"/><stop offset="0.91" stop-color="#fae4e4" stop-opacity="0.05"/><stop offset="1" stop-color="#fce7e6" stop-opacity="0"/></linearGradient><linearGradient id="Gradient_bez_nazwy_4" x1="321.81" y1="166.63" x2="376.6" y2="145.89" gradientUnits="userSpaceOnUse"><stop offset="0" stop-color="#dbb6b6"/><stop offset="0.08" stop-color="#e1bebe" stop-opacity="0.83"/><stop offset="0.2" stop-color="#e9cbca" stop-opacity="0.58"/><stop offset="0.32" stop-color="#f0d5d4" stop-opacity="0.37"/><stop offset="0.43" stop-color="#f5dddc" stop-opacity="0.21"/><stop offset="0.54" stop-color="#f9e2e1" stop-opacity="0.09"/><stop offset="0.64" stop-color="#fbe6e5" stop-opacity="0.02"/><stop offset="0.72" stop-color="#fce7e6" stop-opacity="0"/></linearGradient><linearGradient id="Gradient_bez_nazwy_82-2" x1="-493.52" y1="182.85" x2="-451.11" y2="163.3" gradientTransform="translate(811.5)" xlink:href="#Gradient_bez_nazwy_82"/><linearGradient id="Gradient_bez_nazwy_2" x1="313.64" y1="219.98" x2="255.93" y2="176.46" gradientUnits="userSpaceOnUse"><stop offset="0" stop-color="#659bff" stop-opacity="0.7"/><stop offset="0.04" stop-color="#517ccc" stop-opacity="0.56"/><stop offset="0.1" stop-color="#38568e" stop-opacity="0.39"/><stop offset="0.16" stop-color="#24375b" stop-opacity="0.25"/><stop offset="0.22" stop-color="#141f33" stop-opacity="0.14"/><stop offset="0.28" stop-color="#090e17" stop-opacity="0.06"/><stop offset="0.34" stop-color="#020306" stop-opacity="0.02"/><stop offset="0.4" stop-opacity="0"/></linearGradient><linearGradient id="Gradient_bez_nazwy_83-4" x1="368.46" y1="149.32" x2="379.71" y2="159.73" gradientTransform="matrix(1, 0, 0, 1, 0, 0)" xlink:href="#Gradient_bez_nazwy_83"/><linearGradient id="Gradient_bez_nazwy_83-5" x1="368.93" y1="144.68" x2="345.19" y2="130.84" gradientTransform="matrix(1, 0, 0, 1, 0, 0)" xlink:href="#Gradient_bez_nazwy_83"/><linearGradient id="Gradient_bez_nazwy_83-6" x1="361.99" y1="138.01" x2="340.18" y2="125.3" gradientTransform="matrix(1, 0, 0, 1, 0, 0)" xlink:href="#Gradient_bez_nazwy_83"/><linearGradient id="Gradient_bez_nazwy_83-7" x1="348.85" y1="142.67" x2="320.73" y2="126.28" gradientTransform="matrix(1, 0, 0, 1, 0, 0)" xlink:href="#Gradient_bez_nazwy_83"/><linearGradient id="Gradient_bez_nazwy_30" x1="1068.74" y1="372.83" x2="1115.4" y2="375.5" gradientTransform="matrix(-1, 0, 0, 1, 1313.07, 0)" gradientUnits="userSpaceOnUse"><stop offset="0.1" stop-color="#659bff" stop-opacity="0.7"/><stop offset="0.15" stop-color="#5c8ee9" stop-opacity="0.64"/><stop offset="0.38" stop-color="#355186" stop-opacity="0.37"/><stop offset="0.58" stop-color="#18253e" stop-opacity="0.17"/><stop offset="0.72" stop-color="#070a11" stop-opacity="0.05"/><stop offset="0.81" stop-opacity="0"/></linearGradient></defs><path class="cls-1" d="M57.41,176.39,53.58,162c-.31-2.43-.6-4.91-.86-7.42-.57-5.49-1-10.82-1.26-16a3.61,3.61,0,0,0-1.72-2.72,3.25,3.25,0,0,0-2.33.05c-3.41,1.25-3.34,13.8-3.32,15.44a169.5,169.5,0,0,0-10.56-16.32c-2.76-3.78-5.53-7.23-8.23-10.38-2.07-3.14-5.6-3.67-7-2.51s-1.49,4.12.53,6.69l9.94,16.37-12.12-17.9a7.94,7.94,0,0,0-3.3-3.41c-.46-.25-3-1.6-4.26-.71s-1.21,4.06.69,7.66l11.89,18.39L8.54,132.63a3.8,3.8,0,0,0-5.06-.75,3.77,3.77,0,0,0,.09,5.64L15,153.23,4.82,142.86a3.38,3.38,0,0,0-3.51-.93c-1.31.66-2,3.15-.4,5.32q5,6.15,10,12.28c4,5.09,19.14,23.84,27.16,20.4a5.1,5.1,0,0,0,1-.54l8.76,6.24Z"/><path class="cls-2" d="M35.18,177.54a5.29,5.29,0,0,1,.78-6.61,5.22,5.22,0,0,1,5.61-.88,5,5,0,0,1,8.37-4.85,5,5,0,0,1,3.47-4.52q1.2,6.85,2.39,13.69l-10.28,9.85-7.7-5.49a4.37,4.37,0,0,1-1.43,1c-2.31,1-4.68-.56-4.95-.75A5.1,5.1,0,0,1,35.18,177.54Z"/><path class="cls-3" d="M29.6,144.56l-.83.7q-5-8.17-9.94-16.37a6.07,6.07,0,0,1-1.24-5.65c1.56,2.92,3.15,5.86,4.81,8.84Q26,138.51,29.6,144.56Z"/><path class="cls-4" d="M23,149.49h0a.25.25,0,0,1,0,.07l-1.71-.86q-5.75-8.91-11.5-17.8a10.44,10.44,0,0,1-1.49-6.21c1.44,2.33,2.59,4.27,3.39,5.63Z"/><path class="cls-5" d="M16.23,153.52l-.73.3-.78-.86.25.27L3.57,137.51a3.85,3.85,0,0,1-.69-5c.89,1.59,1.81,3.2,2.78,4.82C9.13,143.2,12.69,148.58,16.23,153.52Z"/><path class="cls-6" d="M45.79,144.12c-.3,2.3-.64,5.44-.88,9.26-.3-.63-.59-1.31-.86-2l0,.06c0-1.64-.1-14.19,3.31-15.44a4.6,4.6,0,0,1,.63-.17,22.64,22.64,0,0,0-1.21,3A28.58,28.58,0,0,0,45.79,144.12Z"/><path class="cls-7" d="M2.13,145.74a158,158,0,0,0,12.78,16.15c5.36,6.12,8,9.18,10.87,11.46a55,55,0,0,0,8.12,5.42,4.33,4.33,0,0,0-1.21.88c-8.13-3.13-18.54-16-21.75-20.12L.9,147.25A4.26,4.26,0,0,1,.34,143C.87,143.83,1.47,144.75,2.13,145.74Z"/><path class="cls-8" d="M58.46,173.68l-.66-1.21c3.47-4.06,3.72-8.66,1.76-10.58a4.92,4.92,0,0,0-4.85-.88,5.67,5.67,0,0,0-3.52,4.85,5.21,5.21,0,0,0-6.61-.44,5.12,5.12,0,0,0-1.76,5.29,5.24,5.24,0,0,0-5.62.88,5.29,5.29,0,0,0-.77,6.61A4.69,4.69,0,0,0,32,180.62a4.05,4.05,0,0,0,.22,3.63c1.42,2.33,6,2.81,11.46,1l1.76.88Z"/><path class="cls-9" d="M46.93,178.7c2.42-1.37,4.17-2.57,7.23-4.69,2.14-1.48,3.89-2.76,5.1-3.68l-1.46,2.06.66,1.21Q52,179.83,45.46,186l-1.76-.88c-5.41,1.82-10,1.34-11.45-1a3.17,3.17,0,0,1-.23-.45,28.43,28.43,0,0,0,3.75-.47A34.76,34.76,0,0,0,46.93,178.7Z"/><path class="cls-10" d="M197.88,429.49q6.84,23.58,13.66,47.15,4-15,7.93-30l25.14,40.53a337.63,337.63,0,0,0-17.21-59,212,212,0,0,0-15-30.84,194.69,194.69,0,0,0-11.89-17.62Q199.21,404.6,197.88,429.49Z"/><path class="cls-10" d="M152.5,484.13c.3,3.38.59,6.75.88,10.13-2.18,1.12-5.9,3-10.57,5.29-10.95,5.36-14.12,6.58-15.86,10.13-.86,1.75-1.93,5.2,0,11a28,28,0,0,0,29.52-.44L175.41,504l-.63-22.49Z"/><path class="cls-10" d="M193,487.65a47.9,47.9,0,0,0,11,11c6.35,4.52,10.33,4.93,13.66,9.25,2,2.65,4.12,7.13,3.53,15a30,30,0,0,1-8.37,4c-2.71.79-10,2.82-18.07-.44a26,26,0,0,1-11.45-9.26l-10.14-13.66V485Z"/><path class="cls-11" d="M131,357.21q3.63,31,8.5,63.67,5.49,36.54,11.94,70.74a24.49,24.49,0,0,0,19.38,1.17,56.37,56.37,0,0,0,27.38-1.22q6.39-68.37,12.8-136.73a203.29,203.29,0,0,1-80,2.37Z"/><path class="cls-12" d="M170.86,492.79l-4.11-96.05a14.3,14.3,0,0,1-8.52-4.7q5,50.77,9.91,101.55Z"/><path class="cls-12" d="M208.3,366.63c-.06,1.57-.16,4.42-.29,8-.34,9.14-.55,14.8-.76,19.2-.26,5.31-.73,12.88-1.66,22.25A52.33,52.33,0,0,0,195,407.69a54.49,54.49,0,0,0-25.22-7.61q-.23-8.49-.35-17.16t-.14-17.46Z"/><path class="cls-8" d="M187.31,362.3c-8.9.11-18.4-.08-28.42-.66s-19.55-1.5-28.42-2.64q2.78-33.19,4.63-68.07,1.26-23.83,2-46.93l54.86,2.65Z"/><path class="cls-13" d="M173.21,256.78c-1.77,15-3.16,31-4,48-.91,19.06-1,37-.44,53.75l19.82.88q2.64-53.08,5.29-106.18Z"/><path class="cls-10" d="M168.93,354.47a265.28,265.28,0,0,0,38.87-1.42l-1,9.22A219.38,219.38,0,0,1,169.3,365q-.18-2.6-.27-5.34C169,357.89,168.94,356.16,168.93,354.47Z"/><path class="cls-14" d="M127.17,360.32l.66-10.57a264.79,264.79,0,0,0,28.42,4c4.33.37,8.56.61,12.68.76,0,1.69,0,3.42.1,5.19s.15,3.61.27,5.34c-4.84-.06-9.86-.29-15-.71A218.35,218.35,0,0,1,127.17,360.32Z"/><path class="cls-10" d="M303.14,124.72c5.52,6.6,1.9,11.17,4.93,45.92,1.47,16.87,2.76,20.76,1.64,30.92a90.34,90.34,0,0,1-8,28.67,89.4,89.4,0,0,1-16.29,23.35c-4.35,4.65-9.42,10.07-17.7,14.88-5.61,3.26-17.65,10.27-31.77,8.23-4.81-.7-8.61-2.26-20.2-9.44-22.45-13.92-33.68-20.88-35.87-26.66-4.28-11.29,5.35-20.46,28.42-55.14,31.93-48,34.34-61.81,53.06-67.73C275.11,113.36,294.42,114.3,303.14,124.72Z"/><path class="cls-1" d="M117,51.85c6.22-8.18,25.9-31.82,59.42-38.69,18.9-3.87,34-.72,42,1,5.49,1.21,57.33,13.44,82.63,61.18,28.11,53,9.94,124.26-9.41,128.09-3.69.73-7.27-1-10-2.94l-16.14,22a135.27,135.27,0,0,1-97.31,31.57,69.29,69.29,0,0,1-47-14.18,118.51,118.51,0,0,1-15.39-21.57c-28-50.43-10.81-108.09-5.33-126.45A213.61,213.61,0,0,1,117,51.85Z"/><path class="cls-15" d="M118.75,48.92a98.57,98.57,0,0,1,24.33-19.35c8.46-4.75,17.32-8.07,17.69-7.35.53,1-17.43,7.07-33.08,24.28a113.57,113.57,0,0,0-17.63,27.87,59.5,59.5,0,0,0-3.81,11.17C104.42,93,105.32,95,106,95.93c1.1,1.63,2.58,1.91,7.11,3.6,3.83,1.43,7.18,2.87,10,4.18-3.43-.06-10.5.35-15.89,5.27a19.3,19.3,0,0,0-4.58,6.48c-9.66,20.81-6.14,45.6-6.14,45.6a98,98,0,0,0,6.39,23.48c-.6-.35-1.19-.73-1.79-1.14a37.73,37.73,0,0,1-9.52-9.3,163.51,163.51,0,0,1-1.06-30.23,184.48,184.48,0,0,1,3.9-27.46,243.45,243.45,0,0,1,11.69-40.55A226.56,226.56,0,0,1,118.75,48.92Z"/><path class="cls-16" d="M160.1,123a52.33,52.33,0,0,1-7.9,11.45c-3.57,3.91-9.34,9-10.45,9.94-4.77,4.16-6.13,4.93-6.8,7.17-1.46,4.91,2.46,10.05,3.18,11,8,10.45,27,6.85,28.32,6.58"/><path class="cls-11" d="M146.77,237.66q-23.82-12.43-47.66-24.85L58.2,173.4,43.7,185.25l38,52a8.27,8.27,0,0,0,1.62,1.67l51.55,40.32Z"/><path class="cls-17" d="M136.2,266.62,89.35,230.36a9,9,0,0,1-1.42-1.4L49.24,180.72l-5.54,4.44,38,52.1a8.27,8.27,0,0,0,1.62,1.67l51.55,40.32Z"/><path class="cls-11" d="M178.19,249.76q-1.68,21.72-2.72,44.44c-1.6,35.33-1.79,69.13-.93,101.25,6.24.1,17.52,1.22,27.5,8.74a43.85,43.85,0,0,1,11.85,14c13.63,23.76,27.52,61.15,30.81,70.12-2.36-30.8-3.32-55.67-3.76-72-1.27-46.27.38-67.24-3.21-105-2.24-23.59-5.46-42.49-7.61-53.91-1.4-3.62-4.71-10.48-11.88-14.71C206.92,236.07,190.65,238.67,178.19,249.76Z"/><path class="cls-18" d="M141.05,248q-2.31,72-4.63,144.07a67.23,67.23,0,0,0-13.22,13.88c-.7-27.05-.42-56.22,1.33-87.24,1.55-27.66,4.1-53.71,7.27-78Z"/><path class="cls-19" d="M141,248,136.35,392a67.23,67.23,0,0,0-13.22,13.88c-.7-27.05-.42-56.22,1.32-87.24,1.56-27.66,4.11-53.71,7.27-78Z"/><path class="cls-20" d="M195,112.64c-2.81,1-3.7,4.83-3.72,7,0,5.58,5.3,10.15,11.24,14.2,7.33,5,20.13,12.54,40.16,19.15a7.11,7.11,0,0,0,4.21.07,6.79,6.79,0,0,0,2.34-1.22,179.86,179.86,0,0,1-16.87-11.12C210.73,124.65,201.41,110.28,195,112.64Z"/><path class="cls-20" d="M207.7,148.74c5.58,3.9,10,10.55,11.93,18.58a2.9,2.9,0,0,1-5.65,1.33c-2.45-10.38-9.83-17.89-17.54-17.86a14.8,14.8,0,0,0-9.13,3.7,2.9,2.9,0,1,1-3.7-4.47,20.55,20.55,0,0,1,12.81-5A19.61,19.61,0,0,1,207.7,148.74Z"/><path class="cls-20" d="M130.63,116.47c-6-1.16-13,.11-19.37,3.88a3,3,0,0,0,3.1,5.19c7.87-4.69,16.88-4.66,21.44.07a12.62,12.62,0,0,1,3.12,7.75,3,3,0,1,0,6-.47,18.52,18.52,0,0,0-4.79-11.47A17.68,17.68,0,0,0,130.63,116.47Z"/><path class="cls-21" d="M101.08,183.4a35.25,35.25,0,0,0,3.78,2.24,32,32,0,0,0,3.34,1.44,30.41,30.41,0,0,0,12.85,8.66c6.18,2,10.6.95,18.36,4.71,6.12,3,5.73,4.79,11.25,8.05,10.67,6.3,22.39,5.57,31.81,5,2-.12,4.42-.36,7.13-.76a35.2,35.2,0,0,0,41.12-3.26,54.49,54.49,0,0,0,20.46-3.38c4.62-1.74,11.45-5,20.93-14.14,13.43-12.89,22.13-27.77,27.7-40.38l4.35,10.51c-5.5,10.4-11.61,21.23-18.38,32.37-6.24,10.26-12.51,19.89-18.7,28.9A142.7,142.7,0,0,1,234,243.23a152,152,0,0,1-31.58,9.4A168,168,0,0,1,163.83,255c-14.63-.74-25.33-1.22-37.64-7.39A70.59,70.59,0,0,1,111,237.26a155.08,155.08,0,0,1-16.43-43.17,152.46,152.46,0,0,1-3-20C91.86,174.47,96.69,180.41,101.08,183.4Z"/><path class="cls-22" d="M189.48,212.69a35.22,35.22,0,0,0,41.13-3.26,54.32,54.32,0,0,0,20.46-3.38c4.62-1.73,11.44-5,20.93-14.14,13.42-12.89,22.13-27.76,27.7-40.38q2.18,5.26,4.34,10.51c-5.5,10.41-11.6,21.23-18.38,32.37-6.24,10.26-12.51,19.9-18.7,28.9a143.16,143.16,0,0,1-33.12,19.9,152,152,0,0,1-31.59,9.39A157.68,157.68,0,0,1,163.71,255Z"/><path class="cls-1" d="M143.15,206.75a15.43,15.43,0,0,1,6.22,8.23,15.11,15.11,0,0,1,.29,7.53,30.74,30.74,0,0,0,27-8A52.17,52.17,0,0,0,168.38,188c-3-4.57-7.75-11.82-17-15.11a30,30,0,0,0-9.57-1.62c-11.57.2-23.07,10.19-30.1,24.74L122,210c.69-.83,5.13-5.93,12.24-6A15.86,15.86,0,0,1,143.15,206.75Z"/><path class="cls-23" d="M137.33,171.8A32.39,32.39,0,0,1,150,174.41a32,32,0,0,1,9.29,6.08c6,5.69,8,12.24,9.55,17.3a54.73,54.73,0,0,1,2.1,21l5.61-3.57,3.38-6.15a80.82,80.82,0,0,0-4.2-17c-2.44-6.68-4.37-12-9.15-17.05-1.9-2-11.58-12.41-21.32-9.48A15.32,15.32,0,0,0,137.33,171.8Z"/><path class="cls-21" d="M151.23,172.9a29.55,29.55,0,0,0-9.57-1.63c-10.48.19-20.89,8.39-28,20.74a35.23,35.23,0,0,1-5.62-5l.15.06c.45-1.14,10.21-24.55,31.56-27.12,10.75-1.3,19.28,3.31,22.1,4.83,12.62,6.82,17.89,18.84,21.78,27.6a80.69,80.69,0,0,1,6,20.31,9.67,9.67,0,0,1-13.59,6c.29-5.83.07-18.6-7.78-30.76C165.45,183.7,160.64,176.24,151.23,172.9Z"/><path class="cls-20" d="M162.84,100.8c1,2.23-.51,5.25-1.91,6.73-3.4,3.59-9.56,3.22-15.81,2.17-7.7-1.3-20.67-4.39-38-12.8A4.23,4.23,0,0,1,105,92.85a100.82,100.82,0,0,0,23,5C146.74,99.74,160.49,95.66,162.84,100.8Z"/><path class="cls-1" d="M161.77,120.46a49.12,49.12,0,0,1-6,12.78,73.23,73.23,0,0,1-9.57,11.35c-4.24,4-6,4.53-6.79,7.16-1.48,4.91,2.47,10.08,3.17,11,8,10.44,27,6.84,28.33,6.58"/><path class="cls-24" d="M174.78,19a19.63,19.63,0,0,0-.63,6.66,22.25,22.25,0,0,0,3,8.94c1.54,2.56,4.85,6.68,13.67,10.31C206,51.13,224.3,50.42,230.92,50Z"/><path class="cls-25" d="M204.71,423.33q-3.24,34.11-6.47,68.24a18,18,0,0,1-2.56.93,18.53,18.53,0,0,1-6,.66,104.48,104.48,0,0,1-4.4-14.32s-7.28-31.72,7-57.28c.86-1.54,2.26-3.64,4.4-4C200.53,417,204,422.23,204.71,423.33Z"/><path class="cls-26" d="M160.43,250.39a80.44,80.44,0,0,0,18.29.44L177,264.62a74.78,74.78,0,0,1-19.49.77,70.23,70.23,0,0,1-7.69-1.34,82.18,82.18,0,0,1-20.09-7.49q1-7.94,2-15.86A81.33,81.33,0,0,0,160.43,250.39Z"/><path class="cls-27" d="M220.21,512.62a18.79,18.79,0,0,0-2.79-5.14,11,11,0,0,0-2.43-.93c-8.68-2.15-20,6.87-18.94,11.95.38,1.91,2.64,3.89,3.3,4.47a11.47,11.47,0,0,0,3.31,2.13c.9.26,5.48,1.45,12.41-1.1a30.57,30.57,0,0,0,6.26-3.16,20.62,20.62,0,0,0-.39-5.58A21.65,21.65,0,0,0,220.21,512.62Z"/><path class="cls-28" d="M154,509.83a20,20,0,0,0-8.52-1.54c-2.83.12-6.81.28-8.88,2.42a22.45,22.45,0,0,1-2.72,2.64c-1,.82-1.25.85-1.61,1.33a4.77,4.77,0,0,0-.37,4.7c1.17,2.24,4.73,2.32,8.88,2.42A25.87,25.87,0,0,0,153,519.38c2.1-1,4.26-2.14,4.55-4.12s-1.34-3.79-1.45-3.91A6.16,6.16,0,0,0,154,509.83Z"/><path class="cls-29" d="M310.63,264c.48-2.47,2.73-2.83,7.24-7.81,2.83-3.13,4.83-5.33,6.11-8.76a26,26,0,0,0,.91-12.68c-.67-4.15-1.9-5.65-1-6.79.57-.72,1.94-1.19,5.27-.42l-.1,0c.9,1.36,7.34,11.49,3.43,23.19-3.19,9.52-11.12,13.76-13.7,15.14a29.62,29.62,0,0,1-6.95,2.65A6.17,6.17,0,0,1,310.63,264Z"/><path class="cls-30" d="M267,24.47a128.31,128.31,0,0,1,18.32,18.4c20.95,26,27.12,56.93,28.83,65.73a157.35,157.35,0,0,1,2.34,16.84q-2.17,4.31-4.54,8.7c-.41.76-2.48,4.6-5,8.91-6.93,12-13.83,22.19-16,25.38-4.56,6.63-6.84,9.95-9.59,13.34-10.76,13.26-19,18.42-21.86,20.13a67.13,67.13,0,0,1-6.81,3.51,134.83,134.83,0,0,0,19-23.3c4.49-7,7.28-12.9,6.29-19.51a19.57,19.57,0,0,0-1.27-4.54c-3.9-10.31,1-19.83,2-34,1.34-19.93-6.08-36-9.3-42-1.22-2.27-2.25-4-2.86-5-3.93-6.4-12.74-18.53-30.13-28l-1.3.09A86.18,86.18,0,0,1,267,24.47Z"/><path class="cls-21" d="M175.78,19.6a30.34,30.34,0,0,0,4.54,12.59c7.62,11.73,22,14.49,35.39,17.05a112.32,112.32,0,0,0,30.17,1.58c17.38,9.51,26.19,21.64,30.12,28,2.78,4.52,14.36,23.36,12.16,46.92-1.4,15.08-7.83,25-1.79,36.91,1.6,3.14,2.6,3.55,4.59,5.74a34.06,34.06,0,0,1,3.27,4.23c8.8,12.79,5.91,27.15,5.91,27.15-2.79,13.8-13.31,20.9-15.34,22.22a13.67,13.67,0,0,1-15.13,22.27c-.32,1.22-2.2,7.9-8.51,10.89a14.62,14.62,0,0,1-5.78,1.37q3.74,12.76,7.48,25.52c1,.44,8.52,3.66,16.34-.34,9-4.6,10.12-14.56,10.18-15.22,2.17.91,16,6.48,29.33-.65,2.57-1.38,10.51-5.61,13.69-15.14,3.92-11.69-2.53-21.82-3.43-23.18A27.88,27.88,0,0,0,341.82,219c7.44-9,6.16-20.29,5.68-24.47-1.43-12.49-7.81-19.45-12.64-27.36-11.21-18.38-5.88-29.6-11.2-56.88-1.72-8.81-7.89-39.77-28.83-65.73C272.79,17.23,232.45-7.18,196.17,2A64.55,64.55,0,0,0,182,7.39a133.51,133.51,0,0,0-19.1,6.5c-24.27,10.37-36.14,24.06-41,30.5-2.79,3.68-4.33,6.37-3.84,6.82,1.44,1.33,17.41-20.21,44.19-28.66A77.44,77.44,0,0,1,175.78,19.6Z"/><path class="cls-31" d="M323.82,218.91c-.92-3.62,3.3-5.62,4.89-12.34,1.63-6.88-1-13.17-3.79-20-1.56-3.79-2.82-5.76-6.39-11.77-3.93-6.62-7.69-13.34-11.55-20-9.11-15.66-3-30.49-7.39-51.93C293.35,72.63,271,53,266.42,49c-10.75-9.42-28.84-21-42.13-27A108.4,108.4,0,0,1,200.53,7.81c-2.71-2.15-4.84-4-6.22-5.32.63-.18,1.26-.36,1.92-.52,36.29-9.14,76.62,15.28,98.66,42.6,20.94,26,27.11,56.93,28.83,65.73,5.32,27.28,0,38.5,11.21,56.88,4.82,7.91,11.21,14.87,12.63,27.37.48,4.18,1.77,15.43-5.68,24.46a26.29,26.29,0,0,1-6.72,5.76C326.81,223.31,324.34,221,323.82,218.91Z"/><path class="cls-32" d="M296.29,176.15l-5.13,9.27a16.22,16.22,0,0,1,3,3.8,17.77,17.77,0,0,1,1.63,12.39,28.14,28.14,0,0,0,2.49-2.1,29.29,29.29,0,0,0,2.23-2.4,53.79,53.79,0,0,0-.47-9.84,29.38,29.38,0,0,0-1.68-7A25.26,25.26,0,0,0,296.29,176.15Z"/><path class="cls-20" d="M142.8,199.05a29.11,29.11,0,0,0,18.88-4.82,2.3,2.3,0,0,0,.6-3.36,2.72,2.72,0,0,0-3.6-.61c-7.73,5-17.07,5.57-22.23,1.25a12.28,12.28,0,0,1-3.95-7.38,2.61,2.61,0,0,0-3-2,2.39,2.39,0,0,0-2.14,2.73A17,17,0,0,0,133,195.08,18.33,18.33,0,0,0,142.8,199.05Z"/><path class="cls-1" d="M318.08,181.35,322.17,166c.33-2.6.63-5.23.91-7.92q.92-8.77,1.34-17a3.9,3.9,0,0,1,1.84-2.91,3.55,3.55,0,0,1,2.49.05c3.64,1.34,3.56,14.72,3.54,16.47a179.67,179.67,0,0,1,11.26-17.4c2.94-4,5.89-7.72,8.78-11.07,2.2-3.35,6-3.91,7.46-2.68s1.58,4.4-.56,7.14l-10.61,17.46,12.93-19.09a8.46,8.46,0,0,1,3.51-3.64c.5-.27,3.19-1.7,4.56-.75s1.28,4.32-.75,8.16L356.2,152.46q7-8.9,14-17.77a4.06,4.06,0,0,1,5.4-.8,4,4,0,0,1-.09,6l-12.16,16.76,10.83-11.05c1.19-1.09,2.74-1.51,3.74-1,1.39.71,2.08,3.36.43,5.68l-10.7,13.1c-4.26,5.42-20.42,25.41-29,21.75a5.22,5.22,0,0,1-1-.58l-9.34,6.65Z"/><path class="cls-33" d="M341.78,182.57a5.66,5.66,0,0,0-.82-7,5.59,5.59,0,0,0-6-.94A5.29,5.29,0,0,0,326.6,169v0a19.62,19.62,0,0,1-1.27-3.23c-1.75-5.86.57-7.84.17-16.17a35.51,35.51,0,0,1,.17-8.51c.19-1.22.42-2.21.59-2.87a3.94,3.94,0,0,0-1.1,1,3.87,3.87,0,0,0-.74,1.91q-.44,5.91-1,12-.51,5.85-1.1,11.54h0l-.57,3.26a4.19,4.19,0,0,0-.3,1.73c-.56,3.2-1.13,6.4-1.69,9.61l11,10.5,8.22-5.85a4.45,4.45,0,0,0,1.52,1.07c2.46,1.05,5-.6,5.27-.79A5.43,5.43,0,0,0,341.78,182.57Z"/><path class="cls-8" d="M317,178.46l.7-1.29c-3.7-4.33-4-9.24-1.88-11.28A5.23,5.23,0,0,1,321,165a6.06,6.06,0,0,1,3.76,5.17,5.55,5.55,0,0,1,7-.47,5.49,5.49,0,0,1,1.88,5.64,5.6,5.6,0,0,1,6,.94,5.65,5.65,0,0,1,.82,7.05,5,5,0,0,1,4.7,2.58,4.32,4.32,0,0,1-.24,3.88c-1.51,2.48-6.44,3-12.21,1l-1.88.94Z"/><path class="cls-34" d="M317.65,172.17a30,30,0,0,1-2.37-5.81,8.11,8.11,0,0,0-.8,2.37,9.23,9.23,0,0,0,1.89,6.82l1.3,1.53-.71,1.29,13.86,13.28,1.57-1a15,15,0,0,0,4.6,1.14c-3.07-2.68-5.67-5-7.73-6.89C321.64,178,319.46,175.55,317.65,172.17Z"/><path class="cls-11" d="M223.5,247.1c5.25-1.77,9.5-3.49,12.49-4.76a167,167,0,0,0,30.27-16.68c3.21-2.25,5.74-4.2,7.35-5.48l43.63-42,15.47,12.64q-20.28,27.72-40.54,55.46a9.16,9.16,0,0,1-1.73,1.79l-55,43Z"/><path class="cls-17" d="M239.2,241a162,162,0,0,0,17.87-9.32,158.45,158.45,0,0,0,16.54-11.48l43.63-42,2,1.54a257.17,257.17,0,0,1-42.13,43.79c-9.19,7.47-29.42,23.95-36.76,18.63A5.17,5.17,0,0,1,239.2,241Z"/><path class="cls-35" d="M330.71,189.17l2,1.62-40.54,55.47a4.42,4.42,0,0,1-2.5-.69,5.44,5.44,0,0,1-2-3.15c-1.64-6.47,8.51-19.4,8.51-19.4a172.71,172.71,0,0,1,18-19.66C318.77,199.15,324.26,194.31,330.71,189.17Z"/><path class="cls-36" d="M378.38,144.94a2.31,2.31,0,0,0-.71-.39c-1.64-.56-3.31.88-3.5,1q-5.61,5.73-11.21,11.48a8.91,8.91,0,0,1,1.18,1.51l.34.6a57.51,57.51,0,0,1,4.68-6.21,35.86,35.86,0,0,1,7.15-6.73C377.15,145.67,377.88,145.23,378.38,144.94Z"/><path class="cls-37" d="M374.46,133.32a4.43,4.43,0,0,0-2,0,4.54,4.54,0,0,0-2.7,1.92L356.56,152a5.93,5.93,0,0,1,.77.33,6.12,6.12,0,0,1,1,.68c.4-.75,1-1.81,1.78-3.05a73.72,73.72,0,0,1,5.15-6.92c3.63-4.65,4.1-5.38,5.66-6.86A33.81,33.81,0,0,1,374.46,133.32Z"/><path class="cls-38" d="M368.91,124.4a8.44,8.44,0,0,0-7.11,4.21l-13,19.26a4.79,4.79,0,0,1,1,.43,4.59,4.59,0,0,1,1.27,1c3.14-5.1,5.71-9.28,8.17-13.37a41.44,41.44,0,0,1,7.58-9.78C367.69,125.4,368.41,124.8,368.91,124.4Z"/><path class="cls-39" d="M358.86,123.27a4.93,4.93,0,0,0-2.91,0A4.86,4.86,0,0,0,353.6,125c-3.27,3.63-6.66,7.73-10.05,12.32a164.77,164.77,0,0,0-11.26,17.4,17.55,17.55,0,0,1,1.29,2.1,16.91,16.91,0,0,1,1.19,2.89,18.74,18.74,0,0,1,.34-4.34,21.59,21.59,0,0,1,4.09-8.51c5.58-8,5.87-8.29,9.11-12.85,2.5-3.54,4.34-6.23,7.91-8.94A31.3,31.3,0,0,1,358.86,123.27Z"/><path class="cls-17" d="M290.44,248.05c-.39-.06-1-.14-1.71-.18-10.46-.65-16.33,6.81-29.36,16.6-14.92,11.2-23.43,13.6-24.26,21.95a13.46,13.46,0,0,0,.36,4.62Z"/><path class="cls-40" d="M231.28,261.15c4.84,32.22,7.22,57.08,7.92,69.7.58,10.52.76,19.66.76,19.66.09,4.38,0,4.33.13,17,.06,7.71.11,13.44.22,20.73.06,3.91.15,8.5.31,14.37.42,15.47,1,27.13,1.54,39.65.85,18.18,1.76,33.8,2.54,46.08-3-9.32-6.59-19.22-10.91-29.56a370.55,370.55,0,0,0-17.9-37,162.68,162.68,0,0,1-2.58-26c-.21-11.13.85-15.33,1.1-26.44.08-3.65,0-6.63-.07-9.36-.24-5.5-.53-8.63-.9-13.68-.3-4.06-.47-7.86-.79-15.46-2.12-48.86,3.38-60.4,7.14-65.62,1.41-1.94,5.65-7.83,8.94-6.89A4.5,4.5,0,0,1,231.28,261.15Z"/></svg>