<svg xmlns="http://www.w3.org/2000/svg" xmlns:xlink="http://www.w3.org/1999/xlink" viewBox="0 0 60.89 52.57"><defs><style>.cls-1{fill:#fcd2d2;}.cls-2{fill:url(#Gradient_bez_nazwy_3);}</style><linearGradient id="Gradient_bez_nazwy_3" x1="46.05" y1="44.59" x2="18.47" y2="-3.19" gradientUnits="userSpaceOnUse"><stop offset="0" stop-color="#c72f5e"/><stop offset="0.2" stop-color="#d04f76" stop-opacity="0.83"/><stop offset="0.63" stop-color="#e79fb1" stop-opacity="0.39"/><stop offset="1" stop-color="#fce7e6" stop-opacity="0"/></linearGradient></defs><g id="snooze"><path class="cls-1" d="M55.8,5.22h0a17.5,17.5,0,0,0-24.68,0l-.68.68-.67-.68a17.5,17.5,0,0,0-24.68,0h0a17.5,17.5,0,0,0,0,24.68l21.05,21a6,6,0,0,0,8.48,0L55.8,29.9A17.5,17.5,0,0,0,55.8,5.22Z"/><path class="cls-2" d="M55.8,5.22h0a17.5,17.5,0,0,0-24.68,0l-.68.68-.67-.68a17.5,17.5,0,0,0-24.68,0h0a17.5,17.5,0,0,0,0,24.68l21.05,21a6,6,0,0,0,8.48,0L55.8,29.9A17.5,17.5,0,0,0,55.8,5.22Z"/></g></svg>