<svg xmlns="http://www.w3.org/2000/svg" xmlns:xlink="http://www.w3.org/1999/xlink" viewBox="0 0 336.53 89.08"><defs><style>.cls-1{fill:#fce7e6;}.cls-2{opacity:0.7;fill:url(#Gradient_bez_nazwy_2);}.cls-3{fill:#e52c61;}</style><linearGradient id="Gradient_bez_nazwy_2" x1="227.25" y1="146.71" x2="140.23" y2="-4" gradientUnits="userSpaceOnUse"><stop offset="0" stop-color="#c72f5e" stop-opacity="0.8"/><stop offset="0.12" stop-color="#ca3864" stop-opacity="0.76"/><stop offset="0.3" stop-color="#d15076" stop-opacity="0.66"/><stop offset="0.52" stop-color="#dc7894" stop-opacity="0.48"/><stop offset="0.77" stop-color="#ecaebc" stop-opacity="0.25"/><stop offset="1" stop-color="#fce7e6" stop-opacity="0"/></linearGradient></defs><g id="snooze"><rect class="cls-1" y="0.11" width="336.53" height="88.85" rx="12"/><path class="cls-2" d="M319.56,89H17a18.31,18.31,0,0,1-4.15,0c-1.86-.21-6.62-.74-9.88-4.38A11.82,11.82,0,0,1,0,77c20.41,0,51.27.06,88.86.51C219.4,79.05,292.42,83.6,312,59.09c4.91-6.15,8.27-16.39,8.66-17.62A63,63,0,0,0,319.56.11a19.54,19.54,0,0,1,4.15,0c1.94.21,5.81.63,8.92,3.4a12.21,12.21,0,0,1,3.9,8.6V77a11.92,11.92,0,0,1-2.85,7.53c-4,4.65-10.2,4.58-11,4.56Z"/><path class="cls-3" d="M35.89,54.7l2.28-.21c1.64-.16,2.28-.53,2.28-.9V24.26c0-.42-.32-.58-2.7-.79l-1.86-.16-.16-.85H51.08l-.15.85-2.23.21c-1.69.16-2.27.53-2.27.9V53.75c0,.42.31.58,2.7.79l1.8.16.15.85H35.73Z"/><path class="cls-3" d="M53.94,54.7l1-.05c1.53-.11,2.12-.27,2.12-.9V39.4c0-3.28-.43-3.81-2.23-4.23l-1.22-.27.06-.63,8.68-2.33-.11,4.34h.11c2.38-2,5.45-4.39,8.89-4.39a5.64,5.64,0,0,1,4.24,1.64c1.27,1.27,1.74,3.33,1.74,5.71V53.8c0,.37.16.63,2.6.85l.79.05.16.85H68.87L69,54.7l1-.05c1.8-.11,2-.43,2-.9V40.67c0-3.81-1.53-5.13-4.55-5.13a8.35,8.35,0,0,0-5.19,1.9V53.85c0,.48.32.64,2.39.8l1,.05.11.85h-12Z"/><path class="cls-3" d="M83.64,55l-.37-6.73,1.16,0,1.22,3.07c1.38,2.44,3.23,4,5.77,4,2.75,0,4.76-1.75,4.76-4.23s-2.48-3.81-5.66-5c-3.55-1.32-6.77-2.86-6.77-7.14s3.38-7,8.36-7a14.06,14.06,0,0,1,5.08.89l1.91-.58.26,6.88-1.06.06-2.75-4.93A6.18,6.18,0,0,0,92,32.89c-2.59,0-4.08,1.54-4.08,3.71,0,2.54,2.12,3.44,5.46,4.71,3.7,1.43,7.09,3,7.09,7.41,0,3.92-3.23,7.57-9.37,7.57A21.2,21.2,0,0,1,83.64,55Z"/><path class="cls-3" d="M106.45,49.72l.27-14.34-4.24-.16L103,33.9l3.33-2.54,4.87-3.92.8.16,0,5.08h8.15l-.74,2.49h-7.41l-.32,13.76c-.06,2.91,1.27,4.23,4,4.23A7.11,7.11,0,0,0,120,51.63l.27.53c-2.18,2.27-4.87,4.07-7.73,4.07C108.57,56.23,106.4,54.22,106.45,49.72Z"/><path class="cls-3" d="M122.07,54.7l1-.05c1.54-.11,2.12-.27,2.12-.9V39.4c0-3.28-.42-3.81-2.22-4.23l-1.22-.27,0-.63,8.69-2.33-.11,7.88h.16c1.8-5.08,3.92-7.93,7.09-7.93a3.38,3.38,0,0,1,3.6,3.28,3,3,0,0,1-3,3.12,3.35,3.35,0,0,1-3.33-3c-1.75.53-3.18,2.7-4.5,6.82v11.7c0,.48.42.69,2.54.8l1.59.05.16.85H121.91Z"/><path class="cls-3" d="M160.6,51.89h-.15c-2.39,2.12-5.35,4.4-8.79,4.4a5.74,5.74,0,0,1-4.18-1.7c-1.27-1.27-1.75-3.23-1.75-5.71l.11-14.56c0-.48-.22-.58-2.65-.79l-.85-.11-.16-.79h8.95L151,47.5c0,3.81,1.59,5.14,4.61,5.14a7.94,7.94,0,0,0,5-1.86V35.27c0-1.32-.42-1.59-2.54-1.74l-1-.11-.15-.79h8.94V51.15c0,1.38.21,1.75,1,2l2.49.64-.06.58-8.68,2.06Z"/><path class="cls-3" d="M171.19,44.75c0-7.25,5.19-12.86,12.39-12.86,4.6,0,8.09,2.06,8.09,5.08a2.91,2.91,0,0,1-3,3,3,3,0,0,1-3-3.49c0-1.17.79-1.86.79-2.17-.16-.64-1.59-1.38-3-1.38-3.81,0-6.78,3.81-6.78,9.74,0,6.14,3.34,10.06,8,10.06,2.76,0,4.87-1,6.67-3.87l.59.32c-2.23,4.55-5.46,7.2-10.06,7.2C175.79,56.34,171.19,51.36,171.19,44.75Z"/><path class="cls-3" d="M197.18,49.72l.27-14.34-4.24-.16.48-1.32L197,31.36l4.87-3.92.8.16-.06,5.08h8.15L210,35.17h-7.41l-.31,13.76c-.06,2.91,1.26,4.23,4,4.23a7.13,7.13,0,0,0,4.39-1.53l.26.53c-2.17,2.27-4.87,4.07-7.73,4.07C199.3,56.23,197.13,54.22,197.18,49.72Z"/><path class="cls-3" d="M213,54.7l1-.05c1.54-.11,2.12-.27,2.12-.9V39.35c0-3.23-.37-3.76-2.22-4.18l-1.17-.27.06-.63,8.57-2.33V53.85c0,.48.32.64,2.49.8l.85.05.16.85h-12Zm2-30.17a3.36,3.36,0,1,1,6.72,0,3.36,3.36,0,1,1-6.72,0Z"/><path class="cls-3" d="M227.51,44.17a12.23,12.23,0,0,1,12.6-12.28c7.36,0,12.23,5.29,12.23,11.91a12.25,12.25,0,0,1-12.6,12.49A11.76,11.76,0,0,1,227.51,44.17Zm18.85.58c0-4.66-1-8.42-2.76-10.27a5.06,5.06,0,0,0-3.76-1.59c-4.12,0-6.35,4.77-6.35,10.43,0,4.76.85,8.42,2.7,10.32A5,5,0,0,0,240,55.28C243.92,55.28,246.36,50.57,246.36,44.75Z"/><path class="cls-3" d="M255.46,54.7l1-.05c1.53-.11,2.11-.27,2.11-.9V39.4c0-3.28-.42-3.81-2.22-4.23l-1.22-.27.06-.63,8.68-2.33-.11,4.34h.11c2.38-2,5.45-4.39,8.89-4.39A5.61,5.61,0,0,1,277,33.53c1.27,1.27,1.75,3.33,1.75,5.71V53.8c0,.37.16.63,2.59.85l.8.05.16.85H270.39l.16-.85,1-.05c1.8-.11,2-.43,2-.9V40.67c0-3.81-1.53-5.13-4.55-5.13a8.35,8.35,0,0,0-5.19,1.9V53.85c0,.48.32.64,2.38.8l1,.05.1.85h-12Z"/><path class="cls-3" d="M285.16,55l-.37-6.73,1.16,0,1.22,3.07c1.37,2.44,3.23,4,5.77,4,2.75,0,4.76-1.75,4.76-4.23s-2.49-3.81-5.66-5c-3.55-1.32-6.78-2.86-6.78-7.14s3.39-7,8.37-7a14.1,14.1,0,0,1,5.08.89l1.9-.58.27,6.88-1.06.06-2.75-4.93a6.18,6.18,0,0,0-3.6-1.32c-2.6,0-4.08,1.54-4.08,3.71,0,2.54,2.12,3.44,5.45,4.71,3.71,1.43,7.1,3,7.1,7.41,0,3.92-3.23,7.57-9.37,7.57A21.2,21.2,0,0,1,285.16,55Z"/></g></svg>