<?xml version="1.0" encoding="utf-8"?>
<!-- Generator: Adobe Illustrator 25.4.1, SVG Export Plug-In . SVG Version: 6.00 Build 0)  -->
<svg version="1.1" id="Warstwa_1" xmlns="http://www.w3.org/2000/svg" xmlns:xlink="http://www.w3.org/1999/xlink" x="0px" y="0px"
	 viewBox="0 0 1423.7 802.7" style="enable-background:new 0 0 1423.7 802.7;" xml:space="preserve">
<style type="text/css">
	.st0{fill:#FFF8F8;}
	.st1{fill:#E52C61;}
	.st2{fill:#590F1A;}
	.st3{opacity:0.9;clip-path:url(#SVGID_00000139979965508090663850000004919454999318752159_);}
	.st4{fill:#FCD2D2;}
	.st5{fill:url(#SVGID_00000168092484784891728140000014924585085562224000_);}
	.st6{fill:#3D80EA;}
</style>
<g>
	<path class="st0" d="M1382.8,802.7H40.8C18.3,802.7,0,784.4,0,761.9v-721C0,18.3,18.3,0,40.8,0h1342c22.6,0,40.8,18.3,40.8,40.8
		v721C1423.7,784.4,1405.4,802.7,1382.8,802.7z"/>
	<g>
		<path class="st1" d="M342.1,139.9l-0.7-13.4h1.7l2.9,7.4c2.9,4.8,7.2,7,12.3,7c6.8-0.1,10.9-4.5,10.9-10.4
			c0-6.6-5.1-9.2-12.2-11.7c-7.9-2.8-14.3-6.3-14.3-14.8c0-7.4,6.1-14.3,16.8-14.4c4.5,0,8,0.9,11,1.7l3.4-1.1l0.2,14.5h-1.5
			l-5-10.9c-2.3-1.4-4.9-2.4-8.3-2.4c-5.6,0-9.3,3.7-9.3,8.3c0,6.1,5.3,8.4,11.7,10.8c8.9,3.1,15.2,6.9,15.2,15.9
			c0,8-7.4,16.1-18.9,16.1C352.2,142.6,346.6,141.4,342.1,139.9z"/>
		<path class="st1" d="M401.5,136l-0.2-0.1c-3.1,3.4-6.4,6.4-10.6,6.4c-4.8,0-8.8-3.6-8.8-8.3c0-5.8,4.8-9.7,19.8-13.3l0.1-2.1
			c0.2-7.5-3-10.8-8-10.8c-2.8,0-5.6,1.4-5.6,2.1c0,0.6,2.2,2.3,2.2,4.5c0,2-1.8,3.9-4.4,3.9c-2.5,0-4.4-1.5-4.4-3.6
			c0-4.7,10-9.6,16.9-9.6c8.5,0,11.8,3.2,11.3,13.7l-0.7,14.8c-0.2,2.8,0.9,4.1,2.6,4.1c1.3,0,2.4-1.1,3.6-2.1l0.7,0.7
			c-1.9,2.5-4.9,6-8.5,6C404.1,142.4,401.9,140.2,401.5,136z M401.3,134.5l0.5-12.3c-9.6,2.3-11.9,5.5-11.9,9.4
			c0,3.5,2.5,5.8,5.3,5.8C397.4,137.4,399.2,136.5,401.3,134.5z"/>
		<path class="st1" d="M419.5,112.1c-1.5-3.3-1.9-4-4.3-4.2l-1.6-0.2l-0.2-1.3h19.1l-0.2,1.3l-1.8,0.2c-2.7,0.2-3.2,1.1-2.2,3.6
			l8.4,21.1l6.2-16.4c2.5-6.6,1.9-7.9-2.7-8.3l-1.5-0.2l-0.2-1.3h14.4l-0.2,1.3l-1.5,0.2c-3.3,0.4-3.6,1.5-6.6,8.9l-9.8,25.5H432
			L419.5,112.1z"/>
		<path class="st1" d="M452.4,124.8c0-11.1,7.9-19.7,18.6-19.7c8.4,0,13.4,5,13.4,11.6c0,0.7-0.1,1.5-0.2,2.3c0,0-22.1-0.2-22.9-0.2
			c-0.2,0.7-0.2,2.3-0.2,3.2c0.1,9.1,5.2,15.2,12.3,15.2c4.3,0,7.8-1.5,10.5-5.9l0.9,0.5c-3.4,7-8.5,11-15.6,11
			C459.4,142.7,452.4,135,452.4,124.8z M476.1,117.3c0.1-5.5-1.7-10.5-6.2-10.5c-4.1,0-7.8,4.5-8.7,10.6
			C461.2,117.4,476.1,117.3,476.1,117.3z"/>
		<path class="st1" d="M502.9,140.2l3.6-0.3c2.6-0.2,3.6-0.8,3.6-1.4V93.6c0-0.6-0.5-0.9-4.1-1.2l-3-0.2l-0.2-1.3h22.9
			c13.6,0,20.3,4.8,20.3,12.6c0,9.2-8.8,14.7-20.9,14.7c-2.1,0-4.1-0.2-5.8-0.3v20.8c0,0.6,0.5,1,4.1,1.2l3.9,0.2l0.2,1.3h-24.8
			L502.9,140.2z M536,104.7c0-7.9-3.7-12.3-12-12.2h-4.9v23.5c1.6,0.4,2.9,0.7,5.5,0.7C531.4,116.7,536,112,536,104.7z"/>
		<path class="st1" d="M567.1,136l-0.2-0.1c-3.1,3.4-6.4,6.4-10.6,6.4c-4.8,0-8.8-3.6-8.8-8.3c0-5.8,4.8-9.7,19.8-13.3l0.1-2.1
			c0.2-7.5-3-10.8-8-10.8c-2.8,0-5.6,1.4-5.6,2.1c0,0.6,2.2,2.3,2.2,4.5c0,2-1.8,3.9-4.4,3.9c-2.5,0-4.4-1.5-4.4-3.6
			c0-4.7,10-9.6,16.9-9.6c8.5,0,11.8,3.2,11.3,13.7l-0.7,14.8c-0.2,2.8,0.9,4.1,2.6,4.1c1.3,0,2.4-1.1,3.6-2.1l0.7,0.7
			c-1.9,2.5-4.9,6-8.5,6C569.7,142.4,567.5,140.2,567.1,136z M566.9,134.5l0.5-12.3c-9.6,2.3-11.9,5.5-11.9,9.4
			c0,3.5,2.5,5.8,5.3,5.8C563,137.4,564.9,136.5,566.9,134.5z"/>
		<path class="st1" d="M585.1,112.1c-1.5-3.3-1.9-4-4.3-4.2l-1.6-0.2l-0.2-1.3h19.1l-0.2,1.3l-1.8,0.2c-2.7,0.2-3.2,1.1-2.2,3.6
			l8.4,21.1l6.2-16.4c2.5-6.6,1.9-7.9-2.7-8.3l-1.5-0.2l-0.2-1.3h14.4l-0.2,1.3l-1.5,0.2c-3.3,0.4-3.6,1.5-6.6,8.9l-9.8,25.5h-2.7
			L585.1,112.1z"/>
		<path class="st1" d="M638.2,136l-0.2-0.1c-3.1,3.4-6.4,6.4-10.6,6.4c-4.8,0-8.8-3.6-8.8-8.3c0-5.8,4.8-9.7,19.8-13.3l0.1-2.1
			c0.2-7.5-3-10.8-8-10.8c-2.8,0-5.6,1.4-5.6,2.1c0,0.6,2.2,2.3,2.2,4.5c0,2-1.8,3.9-4.4,3.9c-2.5,0-4.4-1.5-4.4-3.6
			c0-4.7,10-9.6,16.9-9.6c8.5,0,11.8,3.2,11.3,13.7l-0.7,14.8c-0.2,2.8,0.9,4.1,2.6,4.1c1.3,0,2.4-1.1,3.6-2.1l0.7,0.7
			c-1.9,2.5-4.9,6-8.5,6C640.8,142.4,638.6,140.2,638.2,136z M638,134.5l0.5-12.3c-9.6,2.3-11.9,5.5-11.9,9.4c0,3.5,2.5,5.8,5.3,5.8
			C634.1,137.4,635.9,136.5,638,134.5z"/>
		<path class="st1" d="M654.1,140.2l1.5-0.1c2.4-0.2,3.2-0.4,3.2-1.4v-22c0-5-0.6-5.8-3.4-6.5l-1.9-0.4l0.1-1l13.3-3.6l-0.2,12.1
			h0.2c2.8-7.8,6-12.2,10.9-12.2c3.1,0,5.5,2.1,5.5,5c0,2.4-1.8,4.8-4.6,4.8c-2.5,0-4.6-1.7-5.1-4.5c-2.7,0.8-4.9,4.1-6.9,10.5v17.9
			c0,0.7,0.6,1.1,3.9,1.2l2.4,0.1l0.2,1.3h-19.5L654.1,140.2z"/>
		<path class="st1" d="M684.8,124c0-10.5,8.2-18.8,19.3-18.8c11.3,0,18.7,8.1,18.7,18.2c0,10.7-8,19.1-19.3,19.1
			C692.2,142.6,684.8,134.3,684.8,124z M713.7,124.9c0-7.1-1.5-12.9-4.2-15.7c-1.3-1.3-3.1-2.4-5.8-2.4c-6.3,0-9.7,7.3-9.7,16
			c0,7.3,1.3,12.9,4.1,15.8c1.4,1.5,3.2,2.5,5.8,2.5C709.9,141.1,713.7,133.8,713.7,124.9z"/>
		<path class="st1" d="M731,132.5l0.4-22l-6.5-0.2l0.7-2l5.1-3.9l7.5-6l1.2,0.2l-0.1,7.8h12.5l-1.1,3.8h-11.3l-0.5,21.1
			c-0.1,4.5,1.9,6.5,6.1,6.5c2.7,0,4.9-1,6.7-2.4l0.4,0.8c-3.3,3.5-7.5,6.2-11.8,6.2C734.2,142.5,730.9,139.4,731,132.5z"/>
		<path class="st1" d="M758.5,132.5l0.4-22l-6.5-0.2l0.7-2l5.1-3.9l7.5-6l1.2,0.2l-0.1,7.8h12.5l-1.1,3.8h-11.3l-0.5,21.1
			c-0.1,4.5,1.9,6.5,6.1,6.5c2.7,0,4.9-1,6.7-2.4l0.4,0.8c-3.3,3.5-7.5,6.2-11.8,6.2C761.8,142.5,758.5,139.4,758.5,132.5z"/>
		<path class="st1" d="M781.6,140.2l1.5-0.1c2.4-0.2,3.2-0.4,3.2-1.4v-22c0-4.9-0.6-5.8-3.4-6.4l-1.8-0.4l0.1-1l13.1-3.6v33.6
			c0,0.7,0.5,1,3.8,1.2l1.3,0.1l0.2,1.3h-18.4L781.6,140.2z M784.6,94c0-2.4,1.7-5.2,5.1-5.2c3.5,0,5.2,2.8,5.2,5.2
			c0,2.4-1.7,5.2-5.2,5.2C786.3,99.2,784.6,96.3,784.6,94z"/>
		<path class="st1" d="M802.8,109.3c4.1-2.2,7-5.7,7-9.4c0-5.4-6.9-5.9-6.9-6.2c0-2.3,1.8-5.2,5.4-5.2c4.1,0,7.2,3.4,7.2,7.7
			c0,5.5-4.7,10.7-11.8,13.9L802.8,109.3z"/>
		<path class="st1" d="M818.3,140.6l-0.6-10.3l1.8-0.1l1.9,4.7c2.1,3.7,4.9,6.1,8.8,6.1c4.2,0,7.3-2.7,7.3-6.5
			c0-3.9-3.8-5.8-8.7-7.6c-5.4-2-10.4-4.4-10.4-10.9c0-6.3,5.2-10.8,12.8-10.8c3.1,0,5.8,0.6,7.8,1.4l2.9-0.9l0.4,10.5l-1.6,0.1
			l-4.2-7.5c-1.3-1-3.2-2-5.5-2c-4,0-6.2,2.3-6.2,5.7c0,3.9,3.2,5.3,8.3,7.2c5.7,2.2,10.9,4.5,10.9,11.3c0,6-4.9,11.6-14.3,11.6
			C825.2,142.6,821.3,141.8,818.3,140.6z"/>
		<path class="st1" d="M863.8,140.6l-0.6-10.3l1.8-0.1l1.9,4.7c2.1,3.7,4.9,6.1,8.8,6.1c4.2,0,7.3-2.7,7.3-6.5
			c0-3.9-3.8-5.8-8.7-7.6c-5.4-2-10.4-4.4-10.4-10.9c0-6.3,5.2-10.8,12.8-10.8c3.1,0,5.8,0.6,7.8,1.4l2.9-0.9l0.4,10.5l-1.6,0.1
			l-4.2-7.5c-1.3-1-3.2-2-5.5-2c-4,0-6.2,2.3-6.2,5.7c0,3.9,3.2,5.3,8.3,7.2c5.7,2.2,10.9,4.5,10.9,11.3c0,6-4.9,11.6-14.3,11.6
			C870.7,142.6,866.8,141.8,863.8,140.6z"/>
		<path class="st1" d="M892.9,140.2l1.5-0.1c2.3-0.2,3.2-0.4,3.2-1.4V95.4c0-2.4-0.5-3.1-2.6-3.6l-2.7-1l0.1-0.9l13.3-3.6v25.5
			l0.2,0.1c3.6-3,8.3-6.7,13.6-6.7c2.5,0,4.8,0.9,6.5,2.5c1.9,2,2.7,5.1,2.7,8.7v22.4c0,0.6,0.2,1,3.9,1.3l1.2,0.1l0.2,1.3h-18.3
			l0.2-1.3l1.6-0.1c2.7-0.2,3.1-0.6,3.1-1.4v-20.1c0-5.8-2.5-7.8-7.1-7.8c-3.3,0-6,1.4-7.9,2.9v25.1c0,0.7,0.4,1,3.6,1.2l1.5,0.1
			l0.2,1.3h-18.4L892.9,140.2z"/>
		<path class="st1" d="M936,124c0-10.5,8.2-18.8,19.3-18.8c11.3,0,18.7,8.1,18.7,18.2c0,10.7-8,19.1-19.3,19.1
			C943.4,142.6,936,134.3,936,124z M964.9,124.9c0-7.1-1.5-12.9-4.2-15.7c-1.3-1.3-3.1-2.4-5.8-2.4c-6.3,0-9.7,7.3-9.7,16
			c0,7.3,1.3,12.9,4.1,15.8c1.4,1.5,3.2,2.5,5.8,2.5C961.1,141.1,964.9,133.8,964.9,124.9z"/>
		<path class="st1" d="M980,112.9c-1.6-4.1-2.2-4.8-4.7-5l-1.5-0.2l-0.2-1.2h18.7l-0.2,1.2l-1.6,0.2c-2.6,0.2-3.2,0.9-2.3,3.5
			l8,21.4l6.9-17.3l-1.5-3.6c-1.3-3.2-2-3.7-4.5-4l-1.4-0.2l-0.2-1.2h18.7l-0.2,1.2l-1.6,0.2c-2.7,0.2-3,1.1-2.2,3.5l8.3,21.3
			l5.5-16c2.2-6.4,1.7-8.3-3-8.8l-1.4-0.2l-0.2-1.2h14.4l-0.2,1.2l-1.4,0.2c-3.4,0.2-3.9,1.5-6.5,9l-8.9,25.4h-2.7l-10.1-24.7
			l-10,24.7h-2.7L980,112.9z"/>
		<path class="st1" d="M1039.3,137.5c0-2.7,2.3-5,5.2-5c3,0,5.1,2.4,5.1,5c0,2.8-2.1,5.1-5.1,5.1
			C1041.6,142.6,1039.3,140.2,1039.3,137.5z M1039.9,94.2c-0.4-2.4,0.2-4.6,4.5-4.6h0.2c4.4,0,4.9,2.2,4.6,4.6l-4.1,31.9
			c-0.1,0.5-1,0.5-1.1,0L1039.9,94.2z"/>
	</g>
	<g>
		<path class="st1" d="M172.6,252.2l2-0.2c1.3-0.1,1.8-0.4,1.8-0.7v-25.2c0-0.3-0.2-0.4-2-0.6l-1.7-0.1l-0.1-0.7h21.1l0.6,8.1h-0.8
			l-0.4-1.8c-1.3-3.7-2.2-5.6-8.8-5.6h-4.3v12.6l2.9,0c4.1-0.1,4.8-0.5,5.5-2.8l0.5-1.3h0.6l-0.9,9.1l-0.6,0l-0.1-1.3
			c-0.2-2.5-0.8-2.7-5.2-2.9l-2.7,0v12.5c0,0.4,0.2,0.5,2.1,0.7l2.6,0.1l0.1,0.7h-12.3L172.6,252.2z"/>
		<path class="st1" d="M210.6,249.7L210.6,249.7c-2,1.7-4.5,3.8-7.5,3.8c-1.5,0-2.7-0.4-3.6-1.4c-1-1.1-1.4-2.6-1.4-4.5v-12.7
			c0-0.4,0-0.4-1.9-0.6l-1.1-0.1l-0.1-0.6h6.3l-0.1,13.1c0,3.2,1.5,4.5,4.1,4.5c2.2,0,3.9-1.1,5.3-2.3V236c0-1.3-0.3-1.6-1.9-1.7
			l-1.2-0.1l-0.1-0.6h6.3v16.6c0,0.8,0.1,1.1,0.9,1.2l2.2,0.4l0,0.5l-6.2,1.4L210.6,249.7z"/>
		<path class="st1" d="M217.4,252.2l1.2,0c1.2-0.1,1.6-0.2,1.6-0.7v-24.2c0-2.1-0.3-2.5-1.4-2.7l-1.7-0.4l0-0.4l6.2-1.5v29.3
			c0,0.4,0.2,0.5,1.8,0.6l1.1,0l0.1,0.7h-9.1L217.4,252.2z"/>
		<path class="st1" d="M228.1,252.2l1.2,0c1.1-0.1,1.6-0.2,1.6-0.7v-16.2l-3.5-0.1l0.5-1.7h2.8l0.1-1.1c0.5-6.5,4.8-9.9,9.5-9.9
			c2.3,0,4,1,4,2.7c0,1-0.8,1.8-1.9,1.8c-1.5,0-2.6-1.4-2.6-3.2l-1.8-0.5c-2.9,0.9-4.1,3.6-4.1,8.2v1.8h8.2l3.6-0.5v18.5
			c0,0.4,0.2,0.5,1.9,0.6l1.1,0l0.1,0.7h-9.1l0.1-0.7l1.3,0c1.2-0.1,1.6-0.2,1.6-0.7v-16.2H234v16.3c0,0.4,0.1,0.5,1.7,0.6l2,0
			l0.1,0.7h-9.9L228.1,252.2z"/>
		<path class="st1" d="M250.3,252.2l1.2,0c1.2-0.1,1.6-0.2,1.6-0.7v-24.2c0-2.1-0.3-2.5-1.4-2.7l-1.7-0.4l0-0.4l6.2-1.5v29.3
			c0,0.4,0.2,0.5,1.8,0.6l1.1,0l0.1,0.7h-9.1L250.3,252.2z"/>
		<path class="st1" d="M260.9,252.2l1.2,0c1.2-0.1,1.6-0.2,1.6-0.7v-24.2c0-2.1-0.3-2.5-1.4-2.7l-1.7-0.4l0-0.4l6.2-1.5v29.3
			c0,0.4,0.2,0.5,1.8,0.6l1.1,0l0.1,0.7h-9.1L260.9,252.2z"/>
		<path class="st1" d="M290.5,250.1L290.5,250.1c-1.8,1.7-3.6,3.2-5.8,3.2c-2.7,0-4.8-2-4.8-4.5c0-3.2,2.6-5.3,10.9-7.3l0-1.5
			c0.1-4.5-1.9-5.8-4.5-5.8c-1.8,0-3.7,1-3.7,1.5c0,0.3,1,1,1,2.2c0,0.9-0.8,1.8-2,1.8c-1.1,0-2-0.7-2-1.8c0-2.2,5-5,8.5-5
			c4,0,6,1.6,5.7,7.1l-0.5,9.6c0,1.3,0.5,1.8,1.3,1.8c0.7,0,1.4-0.6,2.1-1.3l0.4,0.4c-0.9,1.2-2.3,2.8-4,2.8
			C291.8,253.4,290.6,252.2,290.5,250.1z M290.5,249.3l0.2-7.1c-6.3,1.5-7.7,3.4-7.7,5.8c0,2.1,1.4,3.3,3.2,3.3
			C287.9,251.3,289.2,250.5,290.5,249.3z"/>
		<path class="st1" d="M312.8,249.7L312.8,249.7c-2,1.7-4.5,3.8-7.5,3.8c-1.5,0-2.7-0.4-3.6-1.4c-1-1.1-1.4-2.6-1.4-4.5v-12.7
			c0-0.4,0-0.4-1.9-0.6l-1.1-0.1l-0.1-0.6h6.3l-0.1,13.1c0,3.2,1.5,4.5,4.1,4.5c2.2,0,3.9-1.1,5.3-2.3V236c0-1.3-0.3-1.6-1.9-1.7
			l-1.2-0.1l-0.1-0.6h6.3v16.6c0,0.8,0.1,1.1,0.9,1.2l2.2,0.4l0,0.5l-6.2,1.4L312.8,249.7z"/>
		<path class="st1" d="M335,249.8l-0.1,0c-1.7,2-4,3.6-6.8,3.6c-4.5,0-8.1-4-8.1-9.6c0-6.6,4.9-10.7,10.2-10.7
			c1.9,0,3.4,0.4,4.8,1.1h0.1v-7.9c0-1.4-0.2-1.8-1.4-1.9l-2.2-0.4l0.1-0.5l6.5-1.3v28.1c0,0.9,0.2,1.2,0.9,1.3l2.2,0.4l0,0.5
			l-6.2,1.1V249.8z M335,248.7v-11.2c-1.1-2-3.2-3.6-5.6-3.6c-3.7,0-6,3.7-6,8.8c0,4.8,2.5,8.6,6.4,8.6
			C332.1,251.3,333.7,250.1,335,248.7z"/>
		<path class="st1" d="M342.1,252.2l1.3,0c1.1-0.1,1.6-0.2,1.6-0.7v-13.2c0-2.4-0.3-2.9-1.7-3.1l-1.4-0.2l0.1-0.5l6.1-1.5v18.6
			c0,0.4,0.2,0.5,1.8,0.6l1.1,0l0.1,0.7h-9.2L342.1,252.2z M343.8,226.6c0-1,0.7-2.3,2.2-2.3c1.5,0,2.2,1.3,2.2,2.3
			c0,1-0.7,2.3-2.2,2.3C344.5,228.8,343.8,227.5,343.8,226.6z"/>
		<path class="st1" d="M352.7,243.7c0-6,4-10.8,9.7-10.8c4.5,0,7,2.7,7,6.2c0,0.4,0,0.8-0.1,1.2l-13.1-0.1c-0.1,0.5-0.2,1.5-0.2,2.2
			c0,5.2,3.1,8.8,7.1,8.8c2.6,0,4.5-0.9,6.1-3.4l0.5,0.3c-1.9,3.4-4.5,5.5-8.1,5.5C356.6,253.4,352.7,249.2,352.7,243.7z M366,239.4
			c0-3.1-1.3-5.8-4-5.8c-2.5,0-4.9,2.6-5.7,5.9L366,239.4z"/>
		<path class="st1" d="M371.8,252.2l1.2,0c1.2-0.1,1.6-0.2,1.6-0.7v-13.2c0-2.4-0.3-2.9-1.6-3.1l-1.4-0.2l0-0.5l6.1-1.5l-0.1,3.7
			l0.1,0c1.9-1.6,4.5-3.8,7.5-3.8c1.4,0,2.7,0.4,3.5,1.3c1,1,1.5,2.6,1.5,4.5v12.7c0,0.3,0.1,0.5,1.9,0.6l1.1,0l0.1,0.7h-9.1
			l0.1-0.7l1.2,0c1.3-0.1,1.6-0.3,1.6-0.7v-11.7c0-3.2-1.4-4.5-4.1-4.5c-2.1,0-4,1.1-5.4,2.3v13.9c0,0.4,0.3,0.5,1.9,0.6l1.2,0
			l0.1,0.7h-9.2L371.8,252.2z"/>
		<path class="st1" d="M394.7,243.7c0-6,4.3-10.8,10.1-10.8c3.7,0,6.4,1.8,6.4,4.1c0,1.3-1,2.2-2,2.2c-1.3,0-2.2-1.1-2-2.5
			c0-1,0.6-1.4,0.6-1.6c-0.2-0.5-1.6-1.4-3.2-1.4c-3.6,0-6.7,3.6-6.7,8.6c0,5.2,3.1,8.8,7.1,8.8c2.6,0,4.4-0.9,6-3.4l0.5,0.3
			c-1.8,3.4-4.4,5.5-8,5.5C398.6,253.4,394.7,249.2,394.7,243.7z"/>
		<path class="st1" d="M413.4,243.7c0-6,4-10.8,9.7-10.8c4.5,0,7,2.7,7,6.2c0,0.4,0,0.8-0.1,1.2l-13.1-0.1c-0.1,0.5-0.2,1.5-0.2,2.2
			c0,5.2,3.1,8.8,7.1,8.8c2.6,0,4.5-0.9,6.1-3.4l0.5,0.3c-1.9,3.4-4.5,5.5-8.1,5.5C417.2,253.4,413.4,249.2,413.4,243.7z
			 M426.7,239.4c0-3.1-1.3-5.8-4-5.8c-2.5,0-4.9,2.6-5.7,5.9L426.7,239.4z"/>
		<path class="st1" d="M432.5,233.9c1.7-1.1,3.6-2.7,3.6-5c0-2.5-2.7-2.9-3.4-2.8c-0.2-1,0.6-2.5,2.4-2.5c1.8,0,3.4,1.5,3.4,3.8
			c0,2.8-2.6,5.5-5.6,6.9L432.5,233.9z"/>
		<path class="st1" d="M441.4,252.4L441,247h0.8l0.9,2.6c1.1,2,2.8,3.1,4.8,3.1c2.6,0,4.5-1.6,4.5-3.9c0-2.5-2-3.6-5-4.6
			c-2.7-0.9-5.5-2.2-5.5-5.7c0-3.2,2.7-5.6,6.5-5.6c1.6,0,2.9,0.3,4,0.8l1.4-0.4l0.3,5.4h-0.8l-1.8-3.8c-0.8-0.6-1.9-1.2-3.3-1.2
			c-2.4,0-3.9,1.4-3.9,3.4c0,2.4,1.9,3.2,4.7,4.2c3,1.1,5.9,2.3,5.9,6.1c0,3.3-2.8,6.2-7.5,6.2C445,253.5,443.1,253.1,441.4,252.4z"
			/>
		<path class="st1" d="M465.2,243.7c0-6,4-10.8,9.7-10.8c4.5,0,7,2.7,7,6.2c0,0.4,0,0.8-0.1,1.2l-13.1-0.1c-0.1,0.5-0.2,1.5-0.2,2.2
			c0,5.2,3.1,8.8,7.1,8.8c2.6,0,4.5-0.9,6.1-3.4l0.5,0.3c-1.9,3.4-4.5,5.5-8.1,5.5C469.1,253.4,465.2,249.2,465.2,243.7z
			 M478.5,239.4c0-3.1-1.3-5.8-4-5.8c-2.5,0-4.9,2.6-5.7,5.9L478.5,239.4z"/>
		<path class="st1" d="M482.8,252.2l1.3-0.2c1.2-0.2,2.1-0.8,3.7-3.1l3.8-5.1l-5.1-7.2c-1.1-1.6-1.7-2.2-2.8-2.4l-0.9-0.1l-0.1-0.6
			h9l-0.1,0.6l-1.1,0.1c-1.2,0.1-1.3,0.7-0.4,2.2l3.5,4.9h0l3.1-4.5c1.2-1.7,1.1-2.5-0.4-2.6l-1.3-0.1l-0.1-0.6h7.6l-0.1,0.6
			l-1.2,0.1c-1.3,0.1-2.1,0.8-3.8,3.2L494,242l5.5,7.7c1.2,1.6,1.7,2.2,2.7,2.3l0.9,0.1l0.1,0.7h-9l0.1-0.6l1.1-0.2
			c1.2-0.1,1.3-0.8,0.4-2.1l-3.8-5.5h0l-3.5,5.1c-1.1,1.6-1.1,2.4,0.3,2.6l1.4,0.1l0.1,0.6h-7.6L482.8,252.2z"/>
		<path class="st1" d="M503.3,263.5l1.2,0c1.1-0.1,1.6-0.2,1.6-0.6v-24.6c0-2.4-0.3-2.8-1.6-3.1l-1.4-0.2l0-0.5l6.1-1.5l0,3.8
			l0.1,0.1c1.8-2,4-3.7,6.9-3.7c4.6,0,8.1,3.9,8.1,9.5c0,6.6-4.9,10.9-9.9,10.9c-2,0-3.8-0.5-5-1.1h-0.1v10.5c0,0.3,0.2,0.4,1.8,0.5
			l1.9,0l0.1,0.7h-9.9L503.3,263.5z M520.8,243.7c0-4.8-2.5-8.4-6.3-8.4c-2.2,0-4,1.2-5.3,2.7v11.2c1.2,1.8,3.2,3.5,5.6,3.5
			C518.5,252.6,520.8,248.8,520.8,243.7z"/>
		<path class="st1" d="M526.4,243.7c0-6,4-10.8,9.7-10.8c4.5,0,7,2.7,7,6.2c0,0.4,0,0.8-0.1,1.2l-13.1-0.1c-0.1,0.5-0.2,1.5-0.2,2.2
			c0,5.2,3.1,8.8,7.1,8.8c2.6,0,4.5-0.9,6.1-3.4l0.5,0.3c-1.9,3.4-4.5,5.5-8.1,5.5C530.3,253.4,526.4,249.2,526.4,243.7z
			 M539.8,239.4c0-3.1-1.3-5.8-4-5.8c-2.5,0-4.9,2.6-5.7,5.9L539.8,239.4z"/>
		<path class="st1" d="M545.6,243.7c0-6,4.3-10.8,10.1-10.8c3.7,0,6.4,1.8,6.4,4.1c0,1.3-1,2.2-2,2.2c-1.3,0-2.2-1.1-2-2.5
			c0-1,0.6-1.4,0.6-1.6c-0.2-0.5-1.6-1.4-3.2-1.4c-3.6,0-6.7,3.6-6.7,8.6c0,5.2,3.1,8.8,7.1,8.8c2.6,0,4.4-0.9,6-3.4l0.5,0.3
			c-1.8,3.4-4.4,5.5-8,5.5C549.5,253.4,545.6,249.2,545.6,243.7z"/>
		<path class="st1" d="M566.5,248.7l0.2-13.4l-3.5-0.1l0.1-0.8l6-5l0.5,0.1l0,4h6.7l-0.5,1.7h-6.1c0,0-0.3,13-0.3,13
			c0,2.2,1.1,3.1,3.1,3.1c1.6,0,2.7-0.8,3.8-1.6l0.3,0.4c-1.7,1.6-3.6,3.1-5.8,3.1C568.4,253.5,566.4,252.2,566.5,248.7z"/>
		<path class="st1" d="M589.1,250.1L589.1,250.1c-1.8,1.7-3.6,3.2-5.8,3.2c-2.7,0-4.8-2-4.8-4.5c0-3.2,2.6-5.3,10.9-7.3l0-1.5
			c0.1-4.5-1.9-5.8-4.5-5.8c-1.8,0-3.7,1-3.7,1.5c0,0.3,1,1,1,2.2c0,0.9-0.8,1.8-2,1.8c-1.1,0-2-0.7-2-1.8c0-2.2,5-5,8.5-5
			c4,0,6,1.6,5.7,7.1l-0.5,9.6c0,1.3,0.5,1.8,1.3,1.8c0.7,0,1.4-0.6,2.1-1.3l0.4,0.4c-0.9,1.2-2.3,2.8-4,2.8
			C590.3,253.4,589.2,252.2,589.1,250.1z M589.1,249.3l0.2-7.1c-6.3,1.5-7.7,3.4-7.7,5.8c0,2.1,1.4,3.3,3.2,3.3
			C586.4,251.3,587.7,250.5,589.1,249.3z"/>
		<path class="st1" d="M598.9,248.7l0.2-13.4l-3.5-0.1l0.1-0.8l6-5l0.5,0.1l0,4h6.7l-0.5,1.7h-6.1c0,0-0.3,13-0.3,13
			c0,2.2,1.1,3.1,3.1,3.1c1.6,0,2.7-0.8,3.8-1.6l0.3,0.4c-1.7,1.6-3.6,3.1-5.8,3.1C600.9,253.5,598.9,252.2,598.9,248.7z"/>
		<path class="st1" d="M610.5,252.2l1.3,0c1.1-0.1,1.6-0.2,1.6-0.7v-13.2c0-2.4-0.3-2.9-1.7-3.1l-1.4-0.2l0.1-0.5l6.1-1.5v18.6
			c0,0.4,0.2,0.5,1.8,0.6l1.1,0l0.1,0.7h-9.2L610.5,252.2z M612.2,226.6c0-1,0.7-2.3,2.2-2.3c1.5,0,2.2,1.3,2.2,2.3
			c0,1-0.7,2.3-2.2,2.3C612.9,228.8,612.2,227.5,612.2,226.6z"/>
		<path class="st1" d="M621.1,243.2c0-5.8,4.4-10.4,10.2-10.4c5.7,0,9.9,4.4,9.9,10.1c0,5.9-4.4,10.5-10.1,10.5
			C625.3,253.5,621.1,249.1,621.1,243.2z M637.6,243.6c0-3.4-0.8-6.5-2.5-8.2c-1-1-2.3-1.8-4-1.8c-3.9,0-6.4,4.1-6.4,9
			c0,3.6,0.8,6.7,2.6,8.5c0.9,1,2.3,1.7,4,1.7C635,252.7,637.6,248.6,637.6,243.6z"/>
		<path class="st1" d="M643.2,252.2l1.2,0c1.2-0.1,1.6-0.2,1.6-0.7v-13.2c0-2.4-0.3-2.9-1.6-3.1l-1.4-0.2l0-0.5l6.1-1.5l-0.1,3.7
			l0.1,0c1.9-1.6,4.5-3.8,7.5-3.8c1.4,0,2.7,0.4,3.5,1.3c1,1,1.5,2.6,1.5,4.5v12.7c0,0.3,0.1,0.5,1.9,0.6l1.1,0l0.1,0.7h-9.1
			l0.1-0.7l1.2,0c1.3-0.1,1.6-0.3,1.6-0.7v-11.7c0-3.2-1.4-4.5-4.1-4.5c-2.1,0-4,1.1-5.4,2.3v13.9c0,0.4,0.3,0.5,1.9,0.6l1.2,0
			l0.1,0.7h-9.2L643.2,252.2z"/>
		<path class="st1" d="M666.8,252.4l-0.4-5.4h0.8l0.9,2.6c1.1,2,2.8,3.1,4.8,3.1c2.6,0,4.5-1.6,4.5-3.9c0-2.5-2-3.6-5-4.6
			c-2.7-0.9-5.5-2.2-5.5-5.7c0-3.2,2.7-5.6,6.5-5.6c1.6,0,2.9,0.3,4,0.8l1.4-0.4l0.3,5.4h-0.8l-1.8-3.8c-0.8-0.6-1.9-1.2-3.3-1.2
			c-2.4,0-3.9,1.4-3.9,3.4c0,2.4,1.9,3.2,4.7,4.2c3,1.1,5.9,2.3,5.9,6.1c0,3.3-2.8,6.2-7.5,6.2C670.4,253.5,668.5,253.1,666.8,252.4
			z"/>
	</g>
	<g>
		<path class="st1" d="M175.6,475.7c-0.9-2.6-1.2-3.1-3-3.2l-1.7-0.1l-0.1-0.7h11.5l-0.1,0.7l-1.8,0.1c-1.5,0.1-2.1,0.5-1.3,2.6
			l7.2,20.7h0.1l6.4-16.9l-1.1-3.1c-0.9-2.6-1.3-3.1-3.1-3.2l-1.7-0.1l-0.1-0.7h11.5l-0.1,0.7l-1.8,0.1c-1.6,0.1-2,0.5-1.3,2.6
			l7.4,20.6h0.1l5.9-17.5c1.6-4.5,1.5-5.3-1.8-5.6l-1.4-0.2l-0.1-0.7h9.7l-0.1,0.7l-1.1,0.1c-2.2,0.3-2.4,0.8-4.5,6.8l-7.3,21h-1
			l-7.4-20.3h0l-7.7,20.3h-1.1L175.6,475.7z"/>
		<path class="st1" d="M215.2,499.1l1.1,0c1.1-0.1,1.6-0.2,1.6-0.7v-24.8c0-1.4-0.2-1.8-1.4-2.1l-1.7-0.4l0-0.5l6.1-1.5v14.4l0.1,0
			c1.9-1.6,4.5-3.8,7.5-3.8c1.4,0,2.6,0.5,3.5,1.3c1,1.1,1.5,2.6,1.5,4.5v12.8c0,0.3,0,0.5,1.9,0.6l1.1,0l0.1,0.7h-9.1l0.1-0.7
			l1.2,0c1.3-0.1,1.6-0.3,1.6-0.7v-11.7c0-3.2-1.4-4.5-4.1-4.5c-2.2,0-4,1.1-5.4,2.3v13.9c0,0.4,0.2,0.5,1.9,0.6l1.2,0l0.1,0.7h-9.1
			L215.2,499.1z"/>
		<path class="st1" d="M238,490.6c0-6,4-10.8,9.7-10.8c4.5,0,7,2.7,7,6.2c0,0.4,0,0.8-0.1,1.2l-13.1-0.1c-0.1,0.5-0.2,1.5-0.2,2.2
			c0,5.2,3.1,8.8,7.1,8.8c2.6,0,4.5-0.9,6.1-3.4l0.5,0.3c-1.9,3.4-4.5,5.5-8.1,5.5C241.9,500.4,238,496.1,238,490.6z M251.4,486.4
			c0-3.1-1.3-5.8-4-5.8c-2.5,0-4.9,2.6-5.7,5.9L251.4,486.4z"/>
		<path class="st1" d="M257.1,499.1l1.2,0c1.2-0.1,1.6-0.2,1.6-0.7v-13.2c0-2.4-0.3-2.9-1.6-3.1l-1.4-0.2l0-0.5l6.1-1.5l-0.1,3.7
			l0.1,0c1.9-1.6,4.5-3.8,7.5-3.8c1.4,0,2.7,0.4,3.5,1.3c1,1,1.5,2.6,1.5,4.5v12.7c0,0.3,0.1,0.5,1.9,0.6l1.1,0l0.1,0.7h-9.1
			l0.1-0.7l1.2,0c1.3-0.1,1.6-0.3,1.6-0.7v-11.7c0-3.2-1.4-4.5-4.1-4.5c-2.1,0-4,1.1-5.4,2.3v13.9c0,0.4,0.3,0.5,1.9,0.6l1.2,0
			l0.1,0.7H257L257.1,499.1z"/>
		<path class="st1" d="M290.6,495.7l0.2-13.4l-3.5-0.1l0.1-0.8l6-5l0.5,0.1l0,4h6.7l-0.5,1.7H294c0,0-0.3,13-0.3,13
			c0,2.2,1.1,3.1,3.1,3.1c1.6,0,2.7-0.8,3.8-1.6l0.3,0.4c-1.7,1.6-3.6,3.2-5.8,3.2C292.6,500.4,290.6,499.2,290.6,495.7z"/>
		<path class="st1" d="M301.8,499.1l1.1,0c1.1-0.1,1.6-0.2,1.6-0.7v-24.8c0-1.4-0.2-1.8-1.4-2.1l-1.7-0.4l0-0.5l6.1-1.5v14.4l0.1,0
			c1.9-1.6,4.5-3.8,7.5-3.8c1.4,0,2.6,0.5,3.5,1.3c1,1.1,1.5,2.6,1.5,4.5v12.8c0,0.3,0,0.5,1.9,0.6l1.1,0l0.1,0.7h-9.1l0.1-0.7
			l1.2,0c1.3-0.1,1.6-0.3,1.6-0.7v-11.7c0-3.2-1.4-4.5-4.1-4.5c-2.2,0-4,1.1-5.4,2.3v13.9c0,0.4,0.2,0.5,1.9,0.6l1.2,0l0.1,0.7h-9.1
			L301.8,499.1z"/>
		<path class="st1" d="M324.6,490.6c0-6,4-10.8,9.7-10.8c4.5,0,7,2.7,7,6.2c0,0.4,0,0.8-0.1,1.2l-13.1-0.1c-0.1,0.5-0.2,1.5-0.2,2.2
			c0,5.2,3.1,8.8,7.1,8.8c2.6,0,4.5-0.9,6.1-3.4l0.5,0.3c-1.9,3.4-4.5,5.5-8.1,5.5C328.5,500.4,324.6,496.1,324.6,490.6z
			 M337.9,486.4c0-3.1-1.3-5.8-4-5.8c-2.5,0-4.9,2.6-5.7,5.9L337.9,486.4z"/>
		<path class="st1" d="M351.9,490.6c0-6,4-10.8,9.7-10.8c4.5,0,7,2.7,7,6.2c0,0.4,0,0.8-0.1,1.2l-13.1-0.1c-0.1,0.5-0.2,1.5-0.2,2.2
			c0,5.2,3.1,8.8,7.1,8.8c2.6,0,4.5-0.9,6.1-3.4l0.5,0.3c-1.9,3.4-4.5,5.5-8.1,5.5C355.8,500.4,351.9,496.1,351.9,490.6z
			 M365.2,486.4c0-3.1-1.3-5.8-4-5.8c-2.5,0-4.9,2.6-5.7,5.9L365.2,486.4z"/>
		<path class="st1" d="M369.4,499.1l1.3-0.2c1.2-0.2,2.1-0.8,3.7-3.1l3.8-5.1l-5.1-7.2c-1.1-1.6-1.7-2.2-2.8-2.4l-0.9-0.1l-0.1-0.6
			h9l-0.1,0.6l-1.1,0.1c-1.2,0.1-1.3,0.7-0.4,2.2l3.5,5h0l3.1-4.5c1.2-1.7,1.1-2.5-0.4-2.6l-1.3-0.1l-0.1-0.6h7.6l-0.1,0.6l-1.2,0.1
			c-1.3,0.1-2.1,0.8-3.8,3.2l-3.3,4.5l5.5,7.7c1.2,1.6,1.7,2.2,2.7,2.3l0.9,0.1l0.1,0.7h-9l0.1-0.6l1.1-0.2c1.2-0.1,1.3-0.8,0.4-2.1
			l-3.8-5.5h0l-3.5,5.1c-1.1,1.6-1.1,2.4,0.3,2.6l1.4,0.1l0.1,0.6h-7.6L369.4,499.1z"/>
		<path class="st1" d="M390,510.4l1.2,0c1.1-0.1,1.6-0.2,1.6-0.6v-24.6c0-2.4-0.3-2.8-1.6-3.1l-1.4-0.2l0-0.5l6.1-1.5l0,3.8l0.1,0.1
			c1.8-2,4-3.7,6.9-3.7c4.6,0,8.1,3.9,8.1,9.5c0,6.6-4.9,10.9-9.9,10.9c-2,0-3.8-0.5-5-1.1h-0.1v10.5c0,0.3,0.2,0.5,1.8,0.5l1.9,0
			l0.1,0.7h-9.9L390,510.4z M407.5,490.6c0-4.8-2.5-8.4-6.3-8.4c-2.2,0-4,1.2-5.3,2.7V496c1.2,1.8,3.2,3.5,5.6,3.5
			C405.2,499.5,407.5,495.7,407.5,490.6z"/>
		<path class="st1" d="M413.1,490.6c0-6,4-10.8,9.7-10.8c4.5,0,7,2.7,7,6.2c0,0.4,0,0.8-0.1,1.2l-13.1-0.1c-0.1,0.5-0.2,1.5-0.2,2.2
			c0,5.2,3.1,8.8,7.1,8.8c2.6,0,4.5-0.9,6.1-3.4l0.5,0.3c-1.9,3.4-4.5,5.5-8.1,5.5C417,500.4,413.1,496.1,413.1,490.6z M426.5,486.4
			c0-3.1-1.3-5.8-4-5.8c-2.5,0-4.9,2.6-5.7,5.9L426.5,486.4z"/>
		<path class="st1" d="M432.3,490.6c0-6,4.3-10.8,10.1-10.8c3.7,0,6.4,1.8,6.4,4.1c0,1.3-1,2.2-2,2.2c-1.3,0-2.2-1.1-2-2.5
			c0-1,0.6-1.4,0.6-1.6c-0.2-0.5-1.6-1.4-3.2-1.4c-3.6,0-6.7,3.6-6.7,8.6c0,5.2,3.1,8.8,7.1,8.8c2.6,0,4.4-0.9,6-3.4l0.5,0.3
			c-1.8,3.4-4.4,5.5-8,5.5C436.2,500.4,432.3,496.1,432.3,490.6z"/>
		<path class="st1" d="M453.2,495.7l0.2-13.4l-3.5-0.1l0.1-0.8l6-5l0.5,0.1l0,4h6.7l-0.5,1.7h-6.1c0,0-0.3,13-0.3,13
			c0,2.2,1.1,3.1,3.1,3.1c1.6,0,2.7-0.8,3.8-1.6l0.3,0.4c-1.7,1.6-3.6,3.2-5.8,3.2C455.1,500.4,453.1,499.2,453.2,495.7z"/>
		<path class="st1" d="M475.8,497.1L475.8,497.1c-1.8,1.7-3.6,3.2-5.8,3.2c-2.7,0-4.8-2-4.8-4.5c0-3.2,2.6-5.3,10.9-7.3l0-1.5
			c0.1-4.5-1.9-5.8-4.5-5.8c-1.8,0-3.7,1-3.7,1.5c0,0.3,1,1,1,2.2c0,0.9-0.8,1.8-2,1.8c-1.1,0-2-0.7-2-1.8c0-2.2,5-5,8.5-5
			c4,0,6,1.6,5.7,7.1l-0.5,9.6c0,1.3,0.5,1.8,1.3,1.8c0.7,0,1.4-0.6,2.1-1.3l0.4,0.4c-0.9,1.2-2.3,2.8-4,2.8
			C477,500.3,475.9,499.2,475.8,497.1z M475.8,496.2l0.2-7.1c-6.3,1.5-7.7,3.4-7.7,5.8c0,2.1,1.4,3.3,3.2,3.3
			C473.1,498.2,474.4,497.5,475.8,496.2z"/>
		<path class="st1" d="M485.6,495.7l0.2-13.4l-3.5-0.1l0.1-0.8l6-5l0.5,0.1l0,4h6.7l-0.5,1.7H489c0,0-0.3,13-0.3,13
			c0,2.2,1.1,3.1,3.1,3.1c1.6,0,2.7-0.8,3.8-1.6l0.3,0.4c-1.7,1.6-3.6,3.2-5.8,3.2C487.6,500.4,485.6,499.2,485.6,495.7z"/>
		<path class="st1" d="M497.2,499.1l1.3,0c1.1-0.1,1.6-0.2,1.6-0.7v-13.2c0-2.4-0.3-2.9-1.7-3.1l-1.4-0.2l0.1-0.5l6.1-1.5v18.6
			c0,0.4,0.2,0.5,1.8,0.6l1.1,0l0.1,0.7H497L497.2,499.1z M498.9,473.5c0-1,0.7-2.3,2.2-2.3c1.5,0,2.2,1.3,2.2,2.3s-0.7,2.3-2.2,2.3
			C499.6,475.8,498.9,474.5,498.9,473.5z"/>
		<path class="st1" d="M507.8,490.2c0-5.8,4.4-10.4,10.2-10.4c5.7,0,9.9,4.4,9.9,10.1c0,5.9-4.4,10.5-10.1,10.5
			C512,500.4,507.8,496,507.8,490.2z M524.3,490.6c0-3.4-0.8-6.5-2.5-8.2c-1-1-2.3-1.8-4-1.8c-3.9,0-6.4,4.1-6.4,9
			c0,3.6,0.8,6.7,2.6,8.5c0.9,1,2.3,1.7,4,1.7C521.7,499.6,524.3,495.5,524.3,490.6z"/>
		<path class="st1" d="M529.9,499.1l1.2,0c1.2-0.1,1.6-0.2,1.6-0.7v-13.2c0-2.4-0.3-2.9-1.6-3.1l-1.4-0.2l0-0.5l6.1-1.5l-0.1,3.7
			l0.1,0c1.9-1.6,4.5-3.8,7.5-3.8c1.4,0,2.7,0.4,3.5,1.3c1,1,1.5,2.6,1.5,4.5v12.7c0,0.3,0.1,0.5,1.9,0.6l1.1,0l0.1,0.7h-9.1
			l0.1-0.7l1.2,0c1.3-0.1,1.6-0.3,1.6-0.7v-11.7c0-3.2-1.4-4.5-4.1-4.5c-2.1,0-4,1.1-5.4,2.3v13.9c0,0.4,0.3,0.5,1.9,0.6l1.2,0
			l0.1,0.7h-9.2L529.9,499.1z"/>
		<path class="st1" d="M553.5,499.4l-0.4-5.4h0.8l0.9,2.6c1.1,2,2.8,3.1,4.8,3.1c2.6,0,4.5-1.6,4.5-3.9c0-2.5-2-3.6-5-4.6
			c-2.7-0.9-5.5-2.2-5.5-5.7c0-3.2,2.7-5.6,6.5-5.6c1.6,0,2.9,0.3,4,0.8l1.4-0.4l0.3,5.4h-0.8l-1.8-3.8c-0.8-0.6-1.9-1.2-3.3-1.2
			c-2.4,0-3.9,1.4-3.9,3.4c0,2.4,1.9,3.2,4.7,4.2c3,1.1,5.9,2.3,5.9,6.1c0,3.3-2.8,6.2-7.5,6.2C557,500.4,555.2,500,553.5,499.4z"/>
		<path class="st1" d="M578.6,473.5c0-1.3-0.3-1.8-1.4-2l-1.8-0.4l0-0.5l6.2-1.5v14.5l0.1,0.1c1.8-2,4-3.7,6.9-3.7
			c4.5,0,8.1,3.9,8.1,9.5c0,6.6-4.9,10.9-9.9,10.9c-2.1,0-4.4-0.7-5.7-1.4h-0.1l-2.1,1.7h-0.4V473.5z M593.4,490.6
			c0-4.8-2.5-8.4-6.3-8.4c-2.2,0-4,1.2-5.4,2.7v11.1c1.2,2,3.3,3.6,5.7,3.6C591,499.5,593.4,495.7,593.4,490.6z"/>
		<path class="st1" d="M609.9,497.1L609.9,497.1c-1.8,1.7-3.6,3.2-5.8,3.2c-2.7,0-4.8-2-4.8-4.5c0-3.2,2.6-5.3,10.9-7.3l0-1.5
			c0.1-4.5-1.9-5.8-4.5-5.8c-1.8,0-3.7,1-3.7,1.5c0,0.3,1,1,1,2.2c0,0.9-0.8,1.8-2,1.8c-1.1,0-2-0.7-2-1.8c0-2.2,5-5,8.5-5
			c4,0,6,1.6,5.7,7.1l-0.5,9.6c0,1.3,0.5,1.8,1.3,1.8c0.7,0,1.4-0.6,2.1-1.3l0.4,0.4c-0.9,1.2-2.3,2.8-4,2.8
			C611.1,500.3,610,499.2,609.9,497.1z M609.9,496.2l0.2-7.1c-6.3,1.5-7.7,3.4-7.7,5.8c0,2.1,1.4,3.3,3.2,3.3
			C607.2,498.2,608.5,497.5,609.9,496.2z"/>
		<path class="st1" d="M617.4,499.1l1.2,0c1.2-0.1,1.6-0.2,1.6-0.7v-13.2c0-2.4-0.3-2.9-1.6-3.1l-1.4-0.2l0-0.5l6.1-1.5l-0.1,7h0.1
			c1.7-4.6,3.5-7.1,6.1-7.1c1.6,0,2.6,1.1,2.6,2.2c0,1.1-0.8,2.2-2.1,2.2c-1.1,0-2.1-0.8-2.3-2.3c-1.8,0.5-3.1,2.7-4.3,6.5v10
			c0,0.4,0.2,0.5,1.8,0.6l1.8,0l0.1,0.7h-9.7L617.4,499.1z"/>
		<path class="st1" d="M641.2,499.1l1.3,0c1.1-0.1,1.6-0.2,1.6-0.7v-13.2c0-2.4-0.3-2.9-1.7-3.1l-1.4-0.2l0.1-0.5l6.1-1.5v18.6
			c0,0.4,0.2,0.5,1.8,0.6l1.1,0l0.1,0.7h-9.2L641.2,499.1z M643,473.5c0-1,0.7-2.3,2.2-2.3c1.5,0,2.2,1.3,2.2,2.3s-0.7,2.3-2.2,2.3
			C643.7,475.8,643,474.5,643,473.5z"/>
		<path class="st1" d="M652.5,499.4l-0.4-5.4h0.8l0.9,2.6c1.1,2,2.8,3.1,4.8,3.1c2.6,0,4.5-1.6,4.5-3.9c0-2.5-2-3.6-5-4.6
			c-2.7-0.9-5.5-2.2-5.5-5.7c0-3.2,2.7-5.6,6.5-5.6c1.6,0,2.9,0.3,4,0.8l1.4-0.4l0.3,5.4h-0.8l-1.8-3.8c-0.8-0.6-1.9-1.2-3.3-1.2
			c-2.4,0-3.9,1.4-3.9,3.4c0,2.4,1.9,3.2,4.7,4.2c3,1.1,5.9,2.3,5.9,6.1c0,3.3-2.8,6.2-7.5,6.2C656.1,500.4,654.2,500,652.5,499.4z"
			/>
		<path class="st1" d="M676.3,499.1l1.2,0c1.1-0.1,1.6-0.1,1.6-0.6v-16.2l-3.5-0.1l0.5-1.7h2.8l0.1-1.2c0.5-6.4,4.6-9.8,8.5-9.8
			c1.9,0,3.1,1,3.1,2.2c0,1-0.8,1.8-1.9,1.8c-1.2,0-2.3-1.1-2.6-2.6l-0.1-0.3l-0.7-0.1c-2.4,0.9-3.2,3.7-3.2,8.1v1.8h5.3l-0.5,1.8
			h-4.8v16.2c0,0.4,0.1,0.5,1.8,0.6l2,0l0.1,0.7h-9.9L676.3,499.1z"/>
		<path class="st1" d="M703.5,496.6L703.5,496.6c-2,1.7-4.5,3.8-7.5,3.8c-1.5,0-2.7-0.5-3.6-1.3c-1-1.1-1.4-2.6-1.4-4.5v-12.7
			c0-0.4,0-0.5-1.9-0.6l-1.1-0.1l-0.1-0.6h6.3l-0.1,13.1c0,3.2,1.5,4.5,4.1,4.5c2.2,0,3.9-1.1,5.3-2.3v-12.9c0-1.3-0.3-1.6-1.9-1.7
			l-1.2-0.1l-0.1-0.6h6.3v16.6c0,0.8,0.1,1.1,0.9,1.2l2.2,0.4l0,0.5l-6.2,1.3L703.5,496.6z"/>
		<path class="st1" d="M710.3,499.1l1.2,0c1.2-0.1,1.6-0.2,1.6-0.7v-24.2c0-2.1-0.3-2.5-1.4-2.7l-1.7-0.4l0-0.5l6.2-1.5v29.3
			c0,0.4,0.2,0.5,1.8,0.6l1.1,0l0.1,0.7h-9.1L710.3,499.1z"/>
		<path class="st1" d="M720.9,499.1l1.2,0c1.2-0.1,1.6-0.2,1.6-0.7v-24.2c0-2.1-0.3-2.5-1.4-2.7l-1.7-0.4l0-0.5l6.2-1.5v29.3
			c0,0.4,0.2,0.5,1.8,0.6l1.1,0l0.1,0.7h-9.1L720.9,499.1z"/>
		<path class="st1" d="M741,473.5c0-1.3-0.3-1.8-1.4-2l-1.8-0.4l0-0.5l6.2-1.5v14.5l0.1,0.1c1.8-2,4-3.7,6.9-3.7
			c4.5,0,8.1,3.9,8.1,9.5c0,6.6-4.9,10.9-9.9,10.9c-2.1,0-4.4-0.7-5.7-1.4h-0.1l-2.1,1.7H741V473.5z M755.8,490.6
			c0-4.8-2.5-8.4-6.3-8.4c-2.2,0-4,1.2-5.4,2.7v11.1c1.2,2,3.3,3.6,5.7,3.6C753.4,499.5,755.8,495.7,755.8,490.6z"/>
		<path class="st1" d="M761.4,490.6c0-6,4-10.8,9.7-10.8c4.5,0,7,2.7,7,6.2c0,0.4,0,0.8-0.1,1.2l-13.1-0.1c-0.1,0.5-0.2,1.5-0.2,2.2
			c0,5.2,3.1,8.8,7.1,8.8c2.6,0,4.5-0.9,6.1-3.4l0.5,0.3c-1.9,3.4-4.5,5.5-8.1,5.5C765.3,500.4,761.4,496.1,761.4,490.6z
			 M774.7,486.4c0-3.1-1.3-5.8-4-5.8c-2.5,0-4.9,2.6-5.7,5.9L774.7,486.4z"/>
		<path class="st1" d="M780.6,499.1l1.2,0c1.1-0.1,1.6-0.1,1.6-0.6v-16.2l-3.5-0.1l0.5-1.7h2.8l0.1-1.2c0.5-6.4,4.6-9.8,8.5-9.8
			c1.9,0,3.1,1,3.1,2.2c0,1-0.8,1.8-1.9,1.8c-1.2,0-2.3-1.1-2.6-2.6l-0.1-0.3l-0.7-0.1c-2.4,0.9-3.2,3.7-3.2,8.1v1.8h5.3l-0.5,1.8
			h-4.8v16.2c0,0.4,0.1,0.5,1.8,0.6l2,0l0.1,0.7h-9.9L780.6,499.1z"/>
		<path class="st1" d="M792.8,490.2c0-5.8,4.4-10.4,10.2-10.4c5.7,0,9.9,4.4,9.9,10.1c0,5.9-4.4,10.5-10.1,10.5
			C797,500.4,792.8,496,792.8,490.2z M809.3,490.6c0-3.4-0.8-6.5-2.5-8.2c-1-1-2.3-1.8-4-1.8c-3.9,0-6.4,4.1-6.4,9
			c0,3.6,0.8,6.7,2.6,8.5c0.9,1,2.3,1.7,4,1.7C806.7,499.6,809.3,495.5,809.3,490.6z"/>
		<path class="st1" d="M814.9,499.1l1.2,0c1.2-0.1,1.6-0.2,1.6-0.7v-13.2c0-2.4-0.3-2.9-1.6-3.1l-1.4-0.2l0-0.5l6.1-1.5l-0.1,7h0.1
			c1.7-4.6,3.5-7.1,6.1-7.1c1.6,0,2.6,1.1,2.6,2.2c0,1.1-0.8,2.2-2.1,2.2c-1.1,0-2.1-0.8-2.3-2.3c-1.8,0.5-3.1,2.7-4.3,6.5v10
			c0,0.4,0.2,0.5,1.8,0.6l1.8,0l0.1,0.7h-9.7L814.9,499.1z"/>
		<path class="st1" d="M830.3,490.6c0-6,4-10.8,9.7-10.8c4.5,0,7,2.7,7,6.2c0,0.4,0,0.8-0.1,1.2l-13.1-0.1c-0.1,0.5-0.2,1.5-0.2,2.2
			c0,5.2,3.1,8.8,7.1,8.8c2.6,0,4.5-0.9,6.1-3.4l0.5,0.3c-1.9,3.4-4.5,5.5-8.1,5.5C834.2,500.4,830.3,496.1,830.3,490.6z
			 M843.6,486.4c0-3.1-1.3-5.8-4-5.8c-2.5,0-4.9,2.6-5.7,5.9L843.6,486.4z"/>
		<path class="st1" d="M860.1,495.7l0.2-13.4l-3.5-0.1l0.1-0.8l6-5l0.5,0.1l0,4h6.7l-0.5,1.7h-6.1c0,0-0.3,13-0.3,13
			c0,2.2,1.1,3.1,3.1,3.1c1.6,0,2.7-0.8,3.8-1.6l0.3,0.4c-1.7,1.6-3.6,3.2-5.8,3.2C862.1,500.4,860.1,499.2,860.1,495.7z"/>
		<path class="st1" d="M871.6,499.1l1.3,0c1.1-0.1,1.6-0.2,1.6-0.7v-13.2c0-2.4-0.3-2.9-1.7-3.1l-1.4-0.2l0.1-0.5l6.1-1.5v18.6
			c0,0.4,0.2,0.5,1.8,0.6l1.1,0l0.1,0.7h-9.2L871.6,499.1z M873.3,473.5c0-1,0.7-2.3,2.2-2.3c1.5,0,2.2,1.3,2.2,2.3
			s-0.7,2.3-2.2,2.3C874.1,475.8,873.3,474.5,873.3,473.5z"/>
		<path class="st1" d="M882.1,499.1l1.2,0c1.2-0.1,1.6-0.2,1.6-0.7v-13.1c0-2.5-0.3-2.9-1.7-3.2l-1.4-0.2l0-0.5l6.1-1.5l-0.1,3.6
			l0.1,0c1.7-1.6,4-3.8,6.9-3.8c1.5,0,2.7,0.5,3.6,1.3c0.5,0.6,1,1.5,1.2,2.5l0,0c1.8-1.8,4.2-3.9,7.1-3.9c1.5,0,2.7,0.5,3.6,1.4
			c0.9,1,1.4,2.7,1.4,4.5v12.7c0,0.3,0,0.5,1.9,0.6l1,0l0.1,0.7h-9l0.1-0.7l1.2,0c1.3-0.1,1.6-0.3,1.6-0.7v-11.7
			c0-3.2-1.3-4.5-3.9-4.5c-1.9,0-4,1.1-4.9,2.3c0,0.1,0,1.2,0,1.2v12.7c0,0.3,0,0.5,1.9,0.6l1.1,0l0.1,0.7H894l0.1-0.7l1.2,0
			c1.3-0.1,1.5-0.3,1.5-0.7v-11.7c0-3.2-1.3-4.5-3.8-4.5c-2,0-3.7,1-5,2.2v14.1c0,0.4,0.3,0.5,1.9,0.6l1.2,0l0.1,0.7H882
			L882.1,499.1z"/>
		<path class="st1" d="M916.3,490.6c0-6,4-10.8,9.7-10.8c4.5,0,7,2.7,7,6.2c0,0.4,0,0.8-0.1,1.2l-13.1-0.1c-0.1,0.5-0.2,1.5-0.2,2.2
			c0,5.2,3.1,8.8,7.1,8.8c2.6,0,4.5-0.9,6.1-3.4l0.5,0.3c-1.9,3.4-4.5,5.5-8.1,5.5C920.1,500.4,916.3,496.1,916.3,490.6z
			 M929.6,486.4c0-3.1-1.3-5.8-4-5.8c-2.5,0-4.9,2.6-5.7,5.9L929.6,486.4z"/>
		<path class="st1" d="M943.4,499.1l1.2,0c1.2-0.1,1.6-0.2,1.6-0.7v-13.2c0-2.4-0.3-2.9-1.6-3.1l-1.4-0.2l0-0.5l6.1-1.5l-0.1,7h0.1
			c1.7-4.6,3.5-7.1,6.1-7.1c1.6,0,2.6,1.1,2.6,2.2c0,1.1-0.8,2.2-2.1,2.2c-1.1,0-2.1-0.8-2.3-2.3c-1.8,0.5-3.1,2.7-4.3,6.5v10
			c0,0.4,0.2,0.5,1.8,0.6l1.8,0l0.1,0.7h-9.7L943.4,499.1z"/>
		<path class="st1" d="M974,496.6L974,496.6c-2,1.7-4.5,3.8-7.5,3.8c-1.5,0-2.7-0.5-3.6-1.3c-1-1.1-1.4-2.6-1.4-4.5v-12.7
			c0-0.4,0-0.5-1.9-0.6l-1.1-0.1l-0.1-0.6h6.3l-0.1,13.1c0,3.2,1.5,4.5,4.1,4.5c2.2,0,3.9-1.1,5.3-2.3v-12.9c0-1.3-0.3-1.6-1.9-1.7
			l-1.2-0.1l-0.1-0.6h6.3v16.6c0,0.8,0.1,1.1,0.9,1.2l2.2,0.4l0,0.5l-6.2,1.3L974,496.6z"/>
		<path class="st1" d="M981,499.1l1.2,0c1.2-0.1,1.6-0.2,1.6-0.7v-13.2c0-2.4-0.3-2.9-1.6-3.1l-1.4-0.2l0-0.5l6.1-1.5l-0.1,3.7
			l0.1,0c1.9-1.6,4.5-3.8,7.5-3.8c1.4,0,2.7,0.4,3.5,1.3c1,1,1.5,2.6,1.5,4.5v12.7c0,0.3,0.1,0.5,1.9,0.6l1.1,0l0.1,0.7h-9.1
			l0.1-0.7l1.2,0c1.3-0.1,1.6-0.3,1.6-0.7v-11.7c0-3.2-1.4-4.5-4.1-4.5c-2.1,0-4,1.1-5.4,2.3v13.9c0,0.4,0.3,0.5,1.9,0.6l1.2,0
			l0.1,0.7h-9.2L981,499.1z"/>
		<path class="st1" d="M1004.6,499.4l-0.4-5.4h0.8l0.9,2.6c1.1,2,2.8,3.1,4.8,3.1c2.6,0,4.5-1.6,4.5-3.9c0-2.5-2-3.6-5-4.6
			c-2.7-0.9-5.5-2.2-5.5-5.7c0-3.2,2.7-5.6,6.5-5.6c1.6,0,2.9,0.3,4,0.8l1.4-0.4l0.3,5.4h-0.8l-1.8-3.8c-0.8-0.6-1.9-1.2-3.3-1.2
			c-2.4,0-3.9,1.4-3.9,3.4c0,2.4,1.9,3.2,4.7,4.2c3,1.1,5.9,2.3,5.9,6.1c0,3.3-2.8,6.2-7.5,6.2
			C1008.1,500.4,1006.2,500,1004.6,499.4z"/>
		<path class="st1" d="M1028.3,490.2c0-5.8,4.4-10.4,10.2-10.4c5.7,0,9.9,4.4,9.9,10.1c0,5.9-4.4,10.5-10.1,10.5
			C1032.6,500.4,1028.3,496,1028.3,490.2z M1044.8,490.6c0-3.4-0.8-6.5-2.5-8.2c-1-1-2.3-1.8-4-1.8c-3.9,0-6.4,4.1-6.4,9
			c0,3.6,0.8,6.7,2.6,8.5c0.9,1,2.3,1.7,4,1.7C1042.2,499.6,1044.8,495.5,1044.8,490.6z"/>
		<path class="st1" d="M1065.2,496.6L1065.2,496.6c-2,1.7-4.5,3.8-7.5,3.8c-1.5,0-2.7-0.5-3.6-1.3c-1-1.1-1.4-2.6-1.4-4.5v-12.7
			c0-0.4,0-0.5-1.9-0.6l-1.1-0.1l-0.1-0.6h6.3l-0.1,13.1c0,3.2,1.5,4.5,4.1,4.5c2.2,0,3.9-1.1,5.3-2.3v-12.9c0-1.3-0.3-1.6-1.9-1.7
			l-1.2-0.1l-0.1-0.6h6.3v16.6c0,0.8,0.1,1.1,0.9,1.2l2.2,0.4l0,0.5l-6.2,1.3L1065.2,496.6z"/>
		<path class="st1" d="M1074.9,495.7l0.2-13.4l-3.5-0.1l0.1-0.8l6-5l0.5,0.1l0,4h6.7l-0.5,1.7h-6.1c0,0-0.3,13-0.3,13
			c0,2.2,1.1,3.1,3.1,3.1c1.6,0,2.7-0.8,3.8-1.6l0.3,0.4c-1.7,1.6-3.6,3.2-5.8,3.2C1076.8,500.4,1074.9,499.2,1074.9,495.7z"/>
		<path class="st1" d="M1086.6,505.1c1.8-1,3.6-2.7,3.6-5c0-2.2-2.2-3.1-3.2-2.5c-0.4-1.2,0.4-2.8,2.3-2.8c1.9,0,3.4,1.4,3.4,3.6
			c0,2.8-2.7,5.7-5.6,7L1086.6,505.1z"/>
		<path class="st1" d="M1103,509.3c0-1.2,0.9-2.1,2.1-2.1c1.3,0,2.1,0.9,2.3,2.1c1.4-0.4,2.1-2,3.1-5.1l1.3-4v0l-7.2-16.6
			c-0.8-1.8-0.9-2.1-2.2-2.2l-1.1-0.1l-0.1-0.6h9l-0.1,0.6l-1,0.1c-1.4,0.1-1.6,0.6-1.1,2l5.3,12.7l3.9-10.7c1.2-3.3,0.9-3.8-1.4-4
			l-1-0.1l-0.1-0.6h7.7l-0.1,0.6l-0.9,0.1c-1.7,0.2-1.8,0.7-3.2,4.5l-5.2,14l-1.7,5.3c-1.3,4.3-2.8,6.4-5.5,6.4
			C1104.2,511.4,1103,510.4,1103,509.3z"/>
		<path class="st1" d="M1122,490.2c0-5.8,4.4-10.4,10.2-10.4c5.7,0,9.9,4.4,9.9,10.1c0,5.9-4.4,10.5-10.1,10.5
			C1126.2,500.4,1122,496,1122,490.2z M1138.5,490.6c0-3.4-0.8-6.5-2.5-8.2c-1-1-2.3-1.8-4-1.8c-3.9,0-6.4,4.1-6.4,9
			c0,3.6,0.8,6.7,2.6,8.5c0.9,1,2.3,1.7,4,1.7C1135.9,499.6,1138.5,495.5,1138.5,490.6z"/>
		<path class="st1" d="M1158.9,496.6L1158.9,496.6c-2,1.7-4.5,3.8-7.5,3.8c-1.5,0-2.7-0.5-3.6-1.3c-1-1.1-1.4-2.6-1.4-4.5v-12.7
			c0-0.4,0-0.5-1.9-0.6l-1.1-0.1l-0.1-0.6h6.3l-0.1,13.1c0,3.2,1.5,4.5,4.1,4.5c2.2,0,3.9-1.1,5.3-2.3v-12.9c0-1.3-0.3-1.6-1.9-1.7
			l-1.2-0.1l-0.1-0.6h6.3v16.6c0,0.8,0.1,1.1,0.9,1.2l2.2,0.4l0,0.5l-6.2,1.3L1158.9,496.6z"/>
		<path class="st1" d="M1176.2,483.8c-0.8-2.2-1-2.5-2.3-2.7l-1.1-0.1l-0.1-0.6h9.1l-0.1,0.6l-1,0.1c-1.4,0.1-1.8,0.5-1.3,1.8
			l4.7,13l4.4-10.6l-0.8-2.1c-0.7-1.8-1-2-2.3-2.2l-1-0.1l-0.1-0.6h9l-0.1,0.6l-1,0.1c-1.4,0.1-1.6,0.6-1.2,1.8l5.3,13.1l3.6-10.6
			c1.1-3.3,0.9-4-1.5-4.3l-0.9-0.1l-0.1-0.6h7.6l-0.1,0.6l-0.8,0.1c-1.8,0.2-2,0.8-3.3,4.6l-4.9,14.4h-1l-5.7-13.7l-5.7,13.7h-1
			L1176.2,483.8z"/>
		<path class="st1" d="M1204.9,499.1l1.3,0c1.1-0.1,1.6-0.2,1.6-0.7v-13.2c0-2.4-0.3-2.9-1.7-3.1l-1.4-0.2l0.1-0.5l6.1-1.5v18.6
			c0,0.4,0.2,0.5,1.8,0.6l1.1,0l0.1,0.7h-9.2L1204.9,499.1z M1206.7,473.5c0-1,0.7-2.3,2.2-2.3c1.5,0,2.2,1.3,2.2,2.3
			s-0.7,2.3-2.2,2.3C1207.4,475.8,1206.7,474.5,1206.7,473.5z"/>
		<path class="st1" d="M1215.4,499.1l1.2,0c1.2-0.1,1.6-0.2,1.6-0.7v-13.2c0-2.4-0.3-2.9-1.6-3.1l-1.4-0.2l0-0.5l6.1-1.5l-0.1,3.7
			l0.1,0c1.9-1.6,4.5-3.8,7.5-3.8c1.4,0,2.7,0.4,3.5,1.3c1,1,1.5,2.6,1.5,4.5v12.7c0,0.3,0.1,0.5,1.9,0.6l1.1,0l0.1,0.7h-9.1
			l0.1-0.7l1.2,0c1.3-0.1,1.6-0.3,1.6-0.7v-11.7c0-3.2-1.4-4.5-4.1-4.5c-2.1,0-4,1.1-5.4,2.3v13.9c0,0.4,0.3,0.5,1.9,0.6l1.2,0
			l0.1,0.7h-9.2L1215.4,499.1z"/>
		<path class="st1" d="M1240.4,498.1c0-1.2,1.1-2.3,2.5-2.3c1.3,0,2.3,1.1,2.3,2.3s-1,2.4-2.3,2.4
			C1241.5,500.5,1240.4,499.3,1240.4,498.1z M1240.9,473.2c-0.1-1.1,0-2.2,1.8-2.2h0.4c1.8,0,1.8,1.2,1.8,2.2l-1.7,18.3
			c0,0.3-0.5,0.3-0.5,0L1240.9,473.2z"/>
	</g>
	<g>
		<path class="st1" d="M172.8,570.6l2.2-0.2c1.3-0.1,1.8-0.4,1.8-0.7v-25.2c0-0.3-0.2-0.4-2.1-0.6l-1.8-0.1l-0.1-0.7h11.7l-0.1,0.7
			l-2.2,0.2c-1.3,0.1-1.8,0.4-1.8,0.7v25.2c0,0.3,0.3,0.4,2.1,0.6l1.8,0.1l0.1,0.7h-11.7L172.8,570.6z"/>
		<path class="st1" d="M186.5,570.6l1.2,0c1.1-0.1,1.6-0.1,1.6-0.6v-16.2l-3.5-0.1l0.5-1.7h2.8l0.1-1.2c0.5-6.4,4.6-9.8,8.5-9.8
			c1.9,0,3.1,1,3.1,2.2c0,1-0.8,1.8-1.9,1.8c-1.2,0-2.3-1.1-2.6-2.6l-0.1-0.3l-0.7-0.1c-2.4,0.9-3.2,3.7-3.2,8.1v1.8h5.3l-0.5,1.8
			h-4.8V570c0,0.4,0.1,0.5,1.8,0.6l2,0l0.1,0.7h-9.9L186.5,570.6z"/>
		<path class="st1" d="M207.2,570.6l1.3,0c1.1-0.1,1.6-0.2,1.6-0.7v-13.2c0-2.4-0.3-2.9-1.7-3.1l-1.4-0.2l0.1-0.5l6.1-1.5V570
			c0,0.4,0.2,0.5,1.8,0.6l1.1,0l0.1,0.7h-9.2L207.2,570.6z M208.9,545c0-1,0.7-2.3,2.2-2.3c1.5,0,2.2,1.3,2.2,2.3s-0.7,2.3-2.2,2.3
			C209.7,547.3,208.9,546,208.9,545z"/>
		<path class="st1" d="M220.4,567.2l0.2-13.4l-3.5-0.1l0.1-0.8l6-5l0.5,0.1l0,4h6.7l-0.5,1.7h-6.1c0,0-0.3,13-0.3,13
			c0,2.2,1.1,3.1,3.1,3.1c1.6,0,2.7-0.8,3.8-1.6l0.3,0.4c-1.7,1.6-3.6,3.2-5.8,3.2C222.3,571.9,220.3,570.7,220.4,567.2z"/>
		<path class="st1" d="M240,570.6l1.3,0c1.1-0.1,1.6-0.2,1.6-0.7v-13.2c0-2.4-0.3-2.9-1.7-3.1l-1.4-0.2l0.1-0.5l6.1-1.5V570
			c0,0.4,0.2,0.5,1.8,0.6l1.1,0l0.1,0.7h-9.2L240,570.6z M241.7,545c0-1,0.7-2.3,2.2-2.3c1.5,0,2.2,1.3,2.2,2.3s-0.7,2.3-2.2,2.3
			C242.4,547.3,241.7,546,241.7,545z"/>
		<path class="st1" d="M251.3,570.9l-0.4-5.4h0.8l0.9,2.6c1.1,2,2.8,3.1,4.8,3.1c2.6,0,4.5-1.6,4.5-3.9c0-2.5-2-3.6-5-4.6
			c-2.7-0.9-5.5-2.2-5.5-5.7c0-3.2,2.7-5.6,6.5-5.6c1.6,0,2.9,0.3,4,0.8l1.4-0.4l0.3,5.4h-0.8l-1.8-3.8c-0.8-0.6-1.9-1.2-3.3-1.2
			c-2.4,0-3.9,1.4-3.9,3.4c0,2.4,1.9,3.2,4.7,4.2c3,1.1,5.9,2.3,5.9,6.1c0,3.3-2.8,6.2-7.5,6.2C254.8,571.9,252.9,571.5,251.3,570.9
			z"/>
		<path class="st1" d="M274.9,570.6l1.2,0c1.2-0.1,1.6-0.2,1.6-0.7v-13.2c0-2.4-0.3-2.9-1.6-3.1l-1.4-0.2l0-0.5l6.1-1.5l-0.1,3.7
			l0.1,0c1.9-1.6,4.5-3.8,7.5-3.8c1.4,0,2.7,0.4,3.5,1.3c1,1,1.5,2.6,1.5,4.5v12.7c0,0.3,0.1,0.5,1.9,0.6l1.1,0l0.1,0.7h-9.1
			l0.1-0.7l1.2,0c1.3-0.1,1.6-0.3,1.6-0.7v-11.7c0-3.2-1.4-4.5-4.1-4.5c-2.1,0-4,1.1-5.4,2.3V570c0,0.4,0.3,0.5,1.9,0.6l1.2,0
			l0.1,0.7h-9.2L274.9,570.6z"/>
		<path class="st1" d="M297.8,561.7c0-5.8,4.4-10.4,10.2-10.4c5.7,0,9.9,4.4,9.9,10.1c0,5.9-4.4,10.5-10.1,10.5
			C302,571.9,297.8,567.5,297.8,561.7z M314.3,562c0-3.4-0.8-6.5-2.5-8.2c-1-1-2.3-1.8-4-1.8c-3.9,0-6.4,4.1-6.4,9
			c0,3.6,0.8,6.7,2.6,8.5c0.9,1,2.3,1.7,4,1.7C311.7,571.1,314.3,567,314.3,562z"/>
		<path class="st1" d="M322.6,567.2l0.2-13.4l-3.5-0.1l0.1-0.8l6-5l0.5,0.1l0,4h6.7l-0.5,1.7H326c0,0-0.3,13-0.3,13
			c0,2.2,1.1,3.1,3.1,3.1c1.6,0,2.7-0.8,3.8-1.6l0.3,0.4c-1.7,1.6-3.6,3.2-5.8,3.2C324.5,571.9,322.6,570.7,322.6,567.2z"/>
		<path class="st1" d="M342.4,561.7c0-5.8,4.4-10.4,10.2-10.4c5.7,0,9.9,4.4,9.9,10.1c0,5.9-4.4,10.5-10.1,10.5
			C346.6,571.9,342.4,567.5,342.4,561.7z M358.9,562c0-3.4-0.8-6.5-2.5-8.2c-1-1-2.3-1.8-4-1.8c-3.9,0-6.4,4.1-6.4,9
			c0,3.6,0.8,6.7,2.6,8.5c0.9,1,2.3,1.7,4,1.7C356.3,571.1,358.9,567,358.9,562z"/>
		<path class="st1" d="M364.5,570.6l1.2,0c1.2-0.1,1.6-0.2,1.6-0.7v-13.2c0-2.4-0.3-2.9-1.6-3.1l-1.4-0.2l0-0.5l6.1-1.5l-0.1,7h0.1
			c1.7-4.6,3.5-7.1,6.1-7.1c1.6,0,2.6,1.1,2.6,2.2c0,1.1-0.8,2.2-2.1,2.2c-1.1,0-2.1-0.8-2.3-2.3c-1.8,0.5-3.1,2.7-4.3,6.5v10
			c0,0.4,0.2,0.5,1.8,0.6l1.8,0l0.1,0.7h-9.7L364.5,570.6z"/>
		<path class="st1" d="M388.4,570.6l1.3,0c1.1-0.1,1.6-0.2,1.6-0.7v-13.2c0-2.4-0.3-2.9-1.7-3.1l-1.4-0.2l0.1-0.5l6.1-1.5V570
			c0,0.4,0.2,0.5,1.8,0.6l1.1,0l0.1,0.7h-9.2L388.4,570.6z M390.1,545c0-1,0.7-2.3,2.2-2.3c1.5,0,2.2,1.3,2.2,2.3s-0.7,2.3-2.2,2.3
			C390.8,547.3,390.1,546,390.1,545z"/>
		<path class="st1" d="M399.1,570.6l1.2,0c1.1-0.1,1.6-0.1,1.6-0.6v-16.2l-3.5-0.1l0.5-1.7h2.8l0.1-1.2c0.5-6.4,4.6-9.8,8.5-9.8
			c1.9,0,3.1,1,3.1,2.2c0,1-0.8,1.8-1.9,1.8c-1.2,0-2.3-1.1-2.6-2.6l-0.1-0.3l-0.7-0.1c-2.4,0.9-3.2,3.7-3.2,8.1v1.8h5.3l-0.5,1.8
			h-4.8V570c0,0.4,0.1,0.5,1.8,0.6l2,0l0.1,0.7h-9.9L399.1,570.6z"/>
		<path class="st1" d="M422.5,567.2l0.2-13.4l-3.5-0.1l0.1-0.8l6-5l0.5,0.1l0,4h6.7l-0.5,1.7h-6.1c0,0-0.3,13-0.3,13
			c0,2.2,1.1,3.1,3.1,3.1c1.6,0,2.7-0.8,3.8-1.6l0.3,0.4c-1.7,1.6-3.6,3.2-5.8,3.2C424.4,571.9,422.5,570.7,422.5,567.2z"/>
		<path class="st1" d="M433.7,570.6l1.1,0c1.1-0.1,1.6-0.2,1.6-0.7V545c0-1.4-0.2-1.8-1.4-2.1l-1.7-0.4l0-0.5l6.1-1.5v14.4l0.1,0
			c1.9-1.6,4.5-3.8,7.5-3.8c1.4,0,2.6,0.5,3.5,1.3c1,1.1,1.5,2.6,1.5,4.5v12.8c0,0.3,0,0.5,1.9,0.6l1.1,0l0.1,0.7H446l0.1-0.7l1.2,0
			c1.3-0.1,1.6-0.3,1.6-0.7v-11.7c0-3.2-1.4-4.5-4.1-4.5c-2.2,0-4,1.1-5.4,2.3V570c0,0.4,0.2,0.5,1.9,0.6l1.2,0l0.1,0.7h-9.1
			L433.7,570.6z"/>
		<path class="st1" d="M456.5,562.1c0-6,4-10.8,9.7-10.8c4.5,0,7,2.7,7,6.2c0,0.4,0,0.8-0.1,1.2l-13.1-0.1c-0.1,0.5-0.2,1.5-0.2,2.2
			c0,5.2,3.1,8.8,7.1,8.8c2.6,0,4.5-0.9,6.1-3.4l0.5,0.3c-1.9,3.4-4.5,5.5-8.1,5.5C460.3,571.9,456.5,567.6,456.5,562.1z
			 M469.8,557.9c0-3.1-1.3-5.8-4-5.8c-2.5,0-4.9,2.6-5.7,5.9L469.8,557.9z"/>
		<path class="st1" d="M475.6,570.6l1.2,0c1.2-0.1,1.6-0.2,1.6-0.7v-13.2c0-2.4-0.3-2.9-1.6-3.1l-1.4-0.2l0-0.5l6.1-1.5l-0.1,7h0.1
			c1.7-4.6,3.5-7.1,6.1-7.1c1.6,0,2.6,1.1,2.6,2.2c0,1.1-0.8,2.2-2.1,2.2c-1.1,0-2.1-0.8-2.3-2.3c-1.8,0.5-3.1,2.7-4.3,6.5v10
			c0,0.4,0.2,0.5,1.8,0.6l1.8,0l0.1,0.7h-9.7L475.6,570.6z"/>
		<path class="st1" d="M490.9,562.1c0-6,4-10.8,9.7-10.8c4.5,0,7,2.7,7,6.2c0,0.4,0,0.8-0.1,1.2l-13.1-0.1c-0.1,0.5-0.2,1.5-0.2,2.2
			c0,5.2,3.1,8.8,7.1,8.8c2.6,0,4.5-0.9,6.1-3.4l0.5,0.3c-1.9,3.4-4.5,5.5-8.1,5.5C494.8,571.9,490.9,567.6,490.9,562.1z
			 M504.3,557.9c0-3.1-1.3-5.8-4-5.8c-2.5,0-4.9,2.6-5.7,5.9L504.3,557.9z"/>
		<path class="st1" d="M529.1,568.6L529.1,568.6c-1.8,1.7-3.6,3.2-5.8,3.2c-2.7,0-4.8-2-4.8-4.5c0-3.2,2.6-5.3,10.9-7.3l0-1.5
			c0.1-4.5-1.9-5.8-4.5-5.8c-1.8,0-3.7,1-3.7,1.5c0,0.3,1,1,1,2.2c0,0.9-0.8,1.8-2,1.8c-1.1,0-2-0.7-2-1.8c0-2.2,5-5,8.5-5
			c4,0,6,1.6,5.7,7.1l-0.5,9.6c0,1.3,0.5,1.8,1.3,1.8c0.7,0,1.4-0.6,2.1-1.3l0.4,0.4c-0.9,1.2-2.3,2.8-4,2.8
			C530.4,571.8,529.2,570.7,529.1,568.6z M529.1,567.7l0.2-7.1c-6.3,1.5-7.7,3.4-7.7,5.8c0,2.1,1.4,3.3,3.2,3.3
			C526.4,569.7,527.8,569,529.1,567.7z"/>
		<path class="st1" d="M536.6,570.6l1.2,0c1.2-0.1,1.6-0.2,1.6-0.7v-13.2c0-2.4-0.3-2.9-1.6-3.1l-1.4-0.2l0-0.5l6.1-1.5l-0.1,7h0.1
			c1.7-4.6,3.5-7.1,6.1-7.1c1.6,0,2.6,1.1,2.6,2.2c0,1.1-0.8,2.2-2.1,2.2c-1.1,0-2.1-0.8-2.3-2.3c-1.8,0.5-3.1,2.7-4.3,6.5v10
			c0,0.4,0.2,0.5,1.8,0.6l1.8,0l0.1,0.7h-9.7L536.6,570.6z"/>
		<path class="st1" d="M552,562.1c0-6,4-10.8,9.7-10.8c4.5,0,7,2.7,7,6.2c0,0.4,0,0.8-0.1,1.2l-13.1-0.1c-0.1,0.5-0.2,1.5-0.2,2.2
			c0,5.2,3.1,8.8,7.1,8.8c2.6,0,4.5-0.9,6.1-3.4l0.5,0.3c-1.9,3.4-4.5,5.5-8.1,5.5C555.9,571.9,552,567.6,552,562.1z M565.3,557.9
			c0-3.1-1.3-5.8-4-5.8c-2.5,0-4.9,2.6-5.7,5.9L565.3,557.9z"/>
		<path class="st1" d="M579.1,570.6l1.2,0c1.2-0.1,1.6-0.2,1.6-0.7v-13.2c0-2.4-0.3-2.9-1.6-3.1l-1.4-0.2l0-0.5l6.1-1.5l-0.1,3.7
			l0.1,0c1.9-1.6,4.5-3.8,7.5-3.8c1.4,0,2.7,0.4,3.5,1.3c1,1,1.5,2.6,1.5,4.5v12.7c0,0.3,0.1,0.5,1.9,0.6l1.1,0l0.1,0.7h-9.1
			l0.1-0.7l1.2,0c1.3-0.1,1.6-0.3,1.6-0.7v-11.7c0-3.2-1.4-4.5-4.1-4.5c-2.1,0-4,1.1-5.4,2.3V570c0,0.4,0.3,0.5,1.9,0.6l1.2,0
			l0.1,0.7H579L579.1,570.6z"/>
		<path class="st1" d="M602,561.7c0-5.8,4.4-10.4,10.2-10.4c5.7,0,9.9,4.4,9.9,10.1c0,5.9-4.4,10.5-10.1,10.5
			C606.3,571.9,602,567.5,602,561.7z M618.6,562c0-3.4-0.8-6.5-2.5-8.2c-1-1-2.3-1.8-4-1.8c-3.9,0-6.4,4.1-6.4,9
			c0,3.6,0.8,6.7,2.6,8.5c0.9,1,2.3,1.7,4,1.7C615.9,571.1,618.6,567,618.6,562z"/>
		<path class="st1" d="M631.9,570.6l1.1,0c1.1-0.1,1.6-0.2,1.6-0.7V545c0-1.4-0.2-1.8-1.4-2.1l-1.7-0.4l0-0.5l6.1-1.5v14.4l0.1,0
			c1.9-1.6,4.5-3.8,7.5-3.8c1.4,0,2.6,0.5,3.5,1.3c1,1.1,1.5,2.6,1.5,4.5v12.8c0,0.3,0,0.5,1.9,0.6l1.1,0l0.1,0.7h-9.1l0.1-0.7
			l1.2,0c1.3-0.1,1.6-0.3,1.6-0.7v-11.7c0-3.2-1.4-4.5-4-4.5c-2.2,0-4,1.1-5.4,2.3V570c0,0.4,0.2,0.5,1.9,0.6l1.2,0l0.1,0.7h-9.1
			L631.9,570.6z"/>
		<path class="st1" d="M654.7,562.1c0-6,4-10.8,9.7-10.8c4.5,0,7,2.7,7,6.2c0,0.4,0,0.8-0.1,1.2l-13.1-0.1c-0.1,0.5-0.2,1.5-0.2,2.2
			c0,5.2,3.1,8.8,7.1,8.8c2.6,0,4.5-0.9,6.1-3.4l0.5,0.3c-1.9,3.4-4.5,5.5-8.1,5.5C658.6,571.9,654.7,567.6,654.7,562.1z M668,557.9
			c0-3.1-1.3-5.8-4-5.8c-2.5,0-4.9,2.6-5.7,5.9L668,557.9z"/>
		<path class="st1" d="M684.8,568.6L684.8,568.6c-1.8,1.7-3.6,3.2-5.8,3.2c-2.7,0-4.8-2-4.8-4.5c0-3.2,2.6-5.3,10.9-7.3l0-1.5
			c0.1-4.5-1.9-5.8-4.5-5.8c-1.8,0-3.7,1-3.7,1.5c0,0.3,1,1,1,2.2c0,0.9-0.8,1.8-2,1.8c-1.1,0-2-0.7-2-1.8c0-2.2,5-5,8.5-5
			c4,0,6,1.6,5.7,7.1l-0.5,9.6c0,1.3,0.5,1.8,1.3,1.8c0.7,0,1.4-0.6,2.1-1.3l0.4,0.4c-0.9,1.2-2.3,2.8-4,2.8
			C686,571.8,684.8,570.7,684.8,568.6z M684.8,567.7l0.2-7.1c-6.3,1.5-7.7,3.4-7.7,5.8c0,2.1,1.4,3.3,3.2,3.3
			C682.1,569.7,683.4,569,684.8,567.7z"/>
		<path class="st1" d="M692.3,570.6l1.2,0c1.2-0.1,1.6-0.2,1.6-0.7v-13.2c0-2.4-0.3-2.9-1.6-3.1l-1.4-0.2l0-0.5l6.1-1.5l-0.1,7h0.1
			c1.7-4.6,3.5-7.1,6.1-7.1c1.6,0,2.6,1.1,2.6,2.2c0,1.1-0.8,2.2-2.1,2.2c-1.1,0-2.1-0.8-2.3-2.3c-1.8,0.5-3.1,2.7-4.3,6.5v10
			c0,0.4,0.2,0.5,1.8,0.6l1.8,0l0.1,0.7h-9.7L692.3,570.6z"/>
		<path class="st1" d="M710.7,567.2l0.2-13.4l-3.5-0.1l0.1-0.8l6-5l0.5,0.1l0,4h6.7l-0.5,1.7h-6.1c0,0-0.3,13-0.3,13
			c0,2.2,1.1,3.1,3.1,3.1c1.6,0,2.7-0.8,3.8-1.6l0.3,0.4c-1.7,1.6-3.6,3.2-5.8,3.2C712.7,571.9,710.7,570.7,710.7,567.2z"/>
		<path class="st1" d="M723.1,570.9l-0.4-5.4h0.8l0.9,2.6c1.1,2,2.8,3.1,4.8,3.1c2.6,0,4.5-1.6,4.5-3.9c0-2.5-2-3.6-5-4.6
			c-2.7-0.9-5.5-2.2-5.5-5.7c0-3.2,2.7-5.6,6.5-5.6c1.6,0,2.9,0.3,4,0.8l1.4-0.4l0.3,5.4h-0.8l-1.8-3.8c-0.8-0.6-1.9-1.2-3.3-1.2
			c-2.4,0-3.9,1.4-3.9,3.4c0,2.4,1.9,3.2,4.7,4.2c3,1.1,5.9,2.3,5.9,6.1c0,3.3-2.8,6.2-7.5,6.2C726.6,571.9,724.8,571.5,723.1,570.9
			z"/>
		<path class="st1" d="M746.5,570.6l1.2,0c1.2-0.1,1.6-0.2,1.6-0.7v-24.2c0-2.1-0.3-2.5-1.4-2.7l-1.7-0.4l0-0.5l6.2-1.5V570
			c0,0.4,0.2,0.5,1.8,0.6l1.1,0l0.1,0.7h-9.1L746.5,570.6z"/>
		<path class="st1" d="M757.2,562.1c0-6,4-10.8,9.7-10.8c4.5,0,7,2.7,7,6.2c0,0.4,0,0.8-0.1,1.2l-13.1-0.1c-0.1,0.5-0.2,1.5-0.2,2.2
			c0,5.2,3.1,8.8,7.1,8.8c2.6,0,4.5-0.9,6.1-3.4l0.5,0.3c-1.9,3.4-4.5,5.5-8.1,5.5C761,571.9,757.2,567.6,757.2,562.1z M770.5,557.9
			c0-3.1-1.3-5.8-4-5.8c-2.5,0-4.9,2.6-5.7,5.9L770.5,557.9z"/>
		<path class="st1" d="M776.4,570.6l1.2,0c1.1-0.1,1.6-0.1,1.6-0.6v-16.2l-3.5-0.1l0.5-1.7h2.8l0.1-1.2c0.5-6.4,4.6-9.8,8.5-9.8
			c1.9,0,3.1,1,3.1,2.2c0,1-0.8,1.8-1.9,1.8c-1.2,0-2.3-1.1-2.6-2.6l-0.1-0.3l-0.7-0.1c-2.4,0.9-3.2,3.7-3.2,8.1v1.8h5.3l-0.5,1.8
			h-4.8V570c0,0.4,0.1,0.5,1.8,0.6l2,0l0.1,0.7h-9.9L776.4,570.6z"/>
		<path class="st1" d="M791.3,567.2l0.2-13.4l-3.5-0.1l0.1-0.8l6-5l0.5,0.1l0,4h6.7l-0.5,1.7h-6.1c0,0-0.3,13-0.3,13
			c0,2.2,1.1,3.1,3.1,3.1c1.6,0,2.7-0.8,3.8-1.6l0.3,0.4c-1.7,1.6-3.6,3.2-5.8,3.2C793.2,571.9,791.2,570.7,791.3,567.2z"/>
		<path class="st1" d="M803,576.6c1.8-1,3.6-2.7,3.6-5c0-2.2-2.2-3.1-3.2-2.5c-0.5-1.2,0.4-2.8,2.3-2.8c1.9,0,3.4,1.4,3.4,3.6
			c0,2.8-2.7,5.7-5.6,7L803,576.6z"/>
		<path class="st1" d="M819.4,580.8c0-1.2,0.9-2.1,2.1-2.1c1.3,0,2.1,0.9,2.3,2.1c1.4-0.4,2.1-2,3.1-5.1l1.3-4v0l-7.2-16.6
			c-0.8-1.8-0.9-2.1-2.2-2.2l-1.1-0.1l-0.1-0.6h9l-0.1,0.6l-1,0.1c-1.4,0.1-1.6,0.6-1.1,2l5.3,12.7l3.9-10.7c1.2-3.3,0.9-3.8-1.4-4
			l-1-0.1L831,552h7.7l-0.1,0.6l-0.9,0.1c-1.7,0.2-1.8,0.7-3.2,4.5l-5.2,14l-1.7,5.3c-1.3,4.3-2.8,6.4-5.5,6.4
			C820.6,582.9,819.4,581.9,819.4,580.8z"/>
		<path class="st1" d="M838.4,561.7c0-5.8,4.4-10.4,10.2-10.4c5.7,0,9.9,4.4,9.9,10.1c0,5.9-4.4,10.5-10.1,10.5
			C842.6,571.9,838.4,567.5,838.4,561.7z M854.9,562c0-3.4-0.8-6.5-2.5-8.2c-1-1-2.3-1.8-4-1.8c-3.9,0-6.4,4.1-6.4,9
			c0,3.6,0.8,6.7,2.6,8.5c0.9,1,2.3,1.7,4,1.7C852.3,571.1,854.9,567,854.9,562z"/>
		<path class="st1" d="M875.3,568.1L875.3,568.1c-2,1.7-4.5,3.8-7.5,3.8c-1.5,0-2.7-0.5-3.6-1.3c-1-1.1-1.4-2.6-1.4-4.5v-12.7
			c0-0.4,0-0.5-1.9-0.6l-1.1-0.1l-0.1-0.6h6.3l-0.1,13.1c0,3.2,1.5,4.5,4.1,4.5c2.2,0,3.9-1.1,5.3-2.3v-12.9c0-1.3-0.3-1.6-1.9-1.7
			l-1.2-0.1l-0.1-0.6h6.3v16.6c0,0.8,0.1,1.1,0.9,1.2l2.2,0.4l0,0.5l-6.2,1.3L875.3,568.1z"/>
		<path class="st1" d="M890.2,570.6l1.2,0c1.2-0.1,1.6-0.2,1.6-0.7v-24.2c0-2.1-0.3-2.5-1.4-2.7l-1.7-0.4l0-0.5l6.2-1.5V570
			c0,0.4,0.2,0.5,1.8,0.6l1.1,0l0.1,0.7h-9.1L890.2,570.6z"/>
		<path class="st1" d="M900.8,561.7c0-5.8,4.4-10.4,10.2-10.4c5.7,0,9.9,4.4,9.9,10.1c0,5.9-4.4,10.5-10.1,10.5
			C905.1,571.9,900.8,567.5,900.8,561.7z M917.4,562c0-3.4-0.8-6.5-2.5-8.2c-1-1-2.3-1.8-4-1.8c-3.9,0-6.4,4.1-6.4,9
			c0,3.6,0.8,6.7,2.6,8.5c0.9,1,2.3,1.7,4,1.7C914.7,571.1,917.4,567,917.4,562z"/>
		<path class="st1" d="M923.8,570.9l-0.4-5.4h0.8l0.9,2.6c1.1,2,2.8,3.1,4.8,3.1c2.6,0,4.5-1.6,4.5-3.9c0-2.5-2-3.6-5-4.6
			c-2.7-0.9-5.5-2.2-5.5-5.7c0-3.2,2.7-5.6,6.5-5.6c1.6,0,2.9,0.3,4,0.8l1.4-0.4l0.3,5.4h-0.8l-1.8-3.8c-0.8-0.6-1.9-1.2-3.3-1.2
			c-2.4,0-3.9,1.4-3.9,3.4c0,2.4,1.9,3.2,4.7,4.2c3,1.1,5.9,2.3,5.9,6.1c0,3.3-2.8,6.2-7.5,6.2C927.3,571.9,925.5,571.5,923.8,570.9
			z"/>
		<path class="st1" d="M939.4,562.1c0-6,4-10.8,9.7-10.8c4.5,0,7,2.7,7,6.2c0,0.4,0,0.8-0.1,1.2l-13.1-0.1c-0.1,0.5-0.2,1.5-0.2,2.2
			c0,5.2,3.1,8.8,7.1,8.8c2.6,0,4.5-0.9,6.1-3.4l0.5,0.3c-1.9,3.4-4.5,5.5-8.1,5.5C943.3,571.9,939.4,567.6,939.4,562.1z
			 M952.8,557.9c0-3.1-1.3-5.8-4-5.8c-2.5,0-4.9,2.6-5.7,5.9L952.8,557.9z"/>
		<path class="st1" d="M958.8,569.4c0-1.3,1.1-2.4,2.5-2.4c1.4,0,2.4,1.1,2.4,2.4c0,1.3-1,2.4-2.4,2.4
			C959.9,571.9,958.8,570.7,958.8,569.4z"/>
	</g>
	<g>
		<path class="st1" d="M172.8,351l2.2-0.2c1.3-0.1,1.8-0.4,1.8-0.7v-25.2c0-0.3-0.2-0.4-2.1-0.6l-1.8-0.1l-0.1-0.7h11.7l-0.1,0.7
			l-2.2,0.2c-1.3,0.1-1.8,0.4-1.8,0.7v25.2c0,0.3,0.3,0.4,2.1,0.6l1.8,0.1l0.1,0.7h-11.7L172.8,351z"/>
		<path class="st1" d="M186.5,351l1.2,0c1.1-0.1,1.6-0.1,1.6-0.6v-16.2l-3.5-0.1l0.5-1.7h2.8l0.1-1.2c0.5-6.4,4.6-9.8,8.5-9.8
			c1.9,0,3.1,1,3.1,2.2c0,1-0.8,1.8-1.9,1.8c-1.2,0-2.3-1.1-2.6-2.6l-0.1-0.3l-0.7-0.1c-2.4,0.9-3.2,3.7-3.2,8.1v1.8h5.3l-0.5,1.8
			h-4.8v16.2c0,0.4,0.1,0.5,1.8,0.6l2,0l0.1,0.7h-9.9L186.5,351z"/>
		<path class="st1" d="M207.6,361.2c0-1.2,0.9-2.1,2.1-2.1c1.3,0,2.1,0.9,2.3,2.1c1.4-0.4,2.1-2,3.1-5.1l1.3-4v0l-7.2-16.6
			c-0.8-1.8-0.9-2.1-2.2-2.2L206,333l-0.1-0.6h9l-0.1,0.6l-1,0.1c-1.4,0.1-1.6,0.6-1.1,2l5.3,12.7l3.9-10.7c1.2-3.3,0.9-3.8-1.4-4
			l-1-0.1l-0.1-0.6h7.7l-0.1,0.6l-0.9,0.1c-1.7,0.2-1.8,0.7-3.2,4.5l-5.2,13.9l-1.7,5.3c-1.3,4.3-2.8,6.4-5.5,6.4
			C208.8,363.3,207.6,362.3,207.6,361.2z"/>
		<path class="st1" d="M226.6,342.1c0-5.8,4.4-10.4,10.2-10.4c5.7,0,9.9,4.4,9.9,10.1c0,5.9-4.4,10.5-10.1,10.5
			C230.8,352.3,226.6,347.9,226.6,342.1z M243.1,342.4c0-3.4-0.8-6.5-2.5-8.2c-1-1-2.3-1.8-4-1.8c-3.9,0-6.4,4.1-6.4,9
			c0,3.6,0.8,6.7,2.6,8.5c0.9,1,2.3,1.7,4,1.7C240.5,351.5,243.1,347.4,243.1,342.4z"/>
		<path class="st1" d="M263.5,348.5L263.5,348.5c-2,1.7-4.5,3.8-7.5,3.8c-1.5,0-2.7-0.4-3.6-1.4c-1-1.1-1.4-2.6-1.4-4.5v-12.7
			c0-0.4,0-0.4-1.9-0.6l-1.1-0.1l-0.1-0.6h6.3l-0.1,13.1c0,3.2,1.5,4.5,4.1,4.5c2.2,0,3.9-1.1,5.3-2.3v-12.9c0-1.3-0.3-1.6-1.9-1.7
			l-1.2-0.1l-0.1-0.6h6.3V349c0,0.8,0.1,1.1,0.9,1.2l2.2,0.4l0,0.5l-6.2,1.4L263.5,348.5z"/>
		<path class="st1" d="M278.6,351l1.2,0c1.2-0.1,1.6-0.2,1.6-0.7v-13.1c0-2.5-0.3-2.9-1.7-3.1l-1.4-0.2l0-0.5l6.1-1.5l-0.1,3.6
			l0.1,0c1.7-1.6,4-3.8,6.9-3.8c1.5,0,2.7,0.5,3.6,1.3c0.5,0.6,1,1.5,1.2,2.5l0,0c1.8-1.8,4.2-3.9,7.1-3.9c1.5,0,2.7,0.4,3.6,1.4
			c0.9,1,1.4,2.7,1.4,4.5v12.7c0,0.3,0,0.5,1.9,0.6l1,0l0.1,0.7h-9l0.1-0.7l1.2,0c1.3-0.1,1.6-0.3,1.6-0.7v-11.7
			c0-3.1-1.3-4.5-3.9-4.5c-1.9,0-4,1.1-4.9,2.3c0,0.1,0,1.2,0,1.2v12.7c0,0.3,0,0.5,1.9,0.6l1.1,0l0.1,0.7h-9.1l0.1-0.7l1.2,0
			c1.3-0.1,1.5-0.3,1.5-0.7v-11.7c0-3.1-1.3-4.5-3.8-4.5c-2,0-3.7,1-5,2.2v14.1c0,0.4,0.3,0.5,1.9,0.6l1.2,0l0.1,0.7h-9.2L278.6,351
			z"/>
		<path class="st1" d="M312.6,351l1.3,0c1.1-0.1,1.6-0.2,1.6-0.7v-13.2c0-2.4-0.3-2.9-1.7-3.1l-1.4-0.2l0.1-0.5l6.1-1.5v18.6
			c0,0.4,0.2,0.5,1.8,0.6l1.1,0l0.1,0.7h-9.2L312.6,351z M314.3,325.4c0-1,0.7-2.3,2.2-2.3c1.5,0,2.2,1.3,2.2,2.3
			c0,1-0.7,2.3-2.2,2.3C315,327.7,314.3,326.4,314.3,325.4z"/>
		<path class="st1" d="M323.9,351.3l-0.4-5.4h0.8l0.9,2.6c1.1,2,2.8,3.1,4.8,3.1c2.6,0,4.5-1.6,4.5-3.9c0-2.5-2-3.6-5-4.6
			c-2.7-0.9-5.5-2.2-5.5-5.7c0-3.2,2.7-5.6,6.5-5.6c1.6,0,2.9,0.3,4,0.8l1.4-0.4l0.3,5.4h-0.8l-1.8-3.8c-0.8-0.6-1.9-1.2-3.3-1.2
			c-2.4,0-3.9,1.4-3.9,3.4c0,2.4,1.9,3.2,4.7,4.2c3,1.1,5.9,2.3,5.9,6.1c0,3.3-2.8,6.2-7.5,6.2C327.4,352.3,325.5,351.9,323.9,351.3
			z"/>
		<path class="st1" d="M340.2,351.3l-0.4-5.4h0.8l0.9,2.6c1.1,2,2.8,3.1,4.8,3.1c2.6,0,4.5-1.6,4.5-3.9c0-2.5-2-3.6-5-4.6
			c-2.7-0.9-5.5-2.2-5.5-5.7c0-3.2,2.7-5.6,6.5-5.6c1.6,0,2.9,0.3,4,0.8l1.4-0.4l0.3,5.4h-0.8l-1.8-3.8c-0.8-0.6-1.9-1.2-3.3-1.2
			c-2.4,0-3.9,1.4-3.9,3.4c0,2.4,1.9,3.2,4.7,4.2c3,1.1,5.9,2.3,5.9,6.1c0,3.3-2.8,6.2-7.5,6.2C343.8,352.3,341.9,351.9,340.2,351.3
			z"/>
		<path class="st1" d="M374.8,349L374.8,349c-1.8,1.7-3.6,3.2-5.8,3.2c-2.7,0-4.8-2-4.8-4.5c0-3.2,2.6-5.3,10.9-7.3l0-1.5
			c0.1-4.5-1.9-5.8-4.5-5.8c-1.8,0-3.7,1-3.7,1.5c0,0.3,1,1,1,2.2c0,0.9-0.8,1.8-2,1.8c-1.1,0-2-0.7-2-1.8c0-2.2,5-5,8.5-5
			c4,0,6,1.6,5.7,7.1l-0.5,9.6c0,1.3,0.5,1.8,1.3,1.8c0.7,0,1.4-0.6,2.1-1.3l0.4,0.4c-0.9,1.2-2.3,2.8-4,2.8
			C376.1,352.2,374.9,351.1,374.8,349z M374.8,348.1l0.2-7.1c-6.3,1.5-7.7,3.4-7.7,5.8c0,2.1,1.4,3.3,3.2,3.3
			C372.2,350.1,373.5,349.4,374.8,348.1z"/>
		<path class="st1" d="M389.8,362.3l1.2,0c1.1-0.1,1.6-0.2,1.6-0.6V337c0-2.4-0.3-2.8-1.6-3.1l-1.4-0.2l0-0.5l6.1-1.5l0,3.8l0.1,0.1
			c1.8-2,4-3.7,6.9-3.7c4.6,0,8.1,3.9,8.1,9.5c0,6.6-4.9,10.9-9.9,10.9c-2,0-3.8-0.5-5-1.1h-0.1v10.5c0,0.3,0.2,0.4,1.8,0.5l1.9,0
			l0.1,0.7h-9.9L389.8,362.3z M407.3,342.5c0-4.8-2.5-8.4-6.3-8.4c-2.2,0-4,1.2-5.3,2.7v11.2c1.2,1.8,3.2,3.5,5.6,3.5
			C405,351.4,407.3,347.6,407.3,342.5z"/>
		<path class="st1" d="M412.4,351l1.1,0c1.1-0.1,1.6-0.2,1.6-0.7v-24.8c0-1.4-0.2-1.8-1.4-2.1L412,323l0-0.4l6.1-1.5v14.4l0.1,0
			c1.9-1.6,4.5-3.8,7.5-3.8c1.4,0,2.6,0.4,3.5,1.3c1,1.1,1.5,2.6,1.5,4.5v12.8c0,0.3,0,0.5,1.9,0.6l1.1,0l0.1,0.7h-9.1l0.1-0.7
			l1.2,0c1.3-0.1,1.6-0.3,1.6-0.7v-11.7c0-3.2-1.4-4.5-4-4.5c-2.2,0-4,1.1-5.4,2.3v13.9c0,0.4,0.2,0.5,1.9,0.6l1.2,0l0.1,0.7h-9.1
			L412.4,351z"/>
		<path class="st1" d="M435.2,342.1c0-5.8,4.4-10.4,10.2-10.4c5.7,0,9.9,4.4,9.9,10.1c0,5.9-4.4,10.5-10.1,10.5
			C439.4,352.3,435.2,347.9,435.2,342.1z M451.7,342.4c0-3.4-0.8-6.5-2.5-8.2c-1-1-2.3-1.8-4-1.8c-3.9,0-6.4,4.1-6.4,9
			c0,3.6,0.8,6.7,2.6,8.5c0.9,1,2.3,1.7,4,1.7C449.1,351.5,451.7,347.4,451.7,342.4z"/>
		<path class="st1" d="M457.3,351l1.2,0c1.2-0.1,1.6-0.2,1.6-0.7v-13.2c0-2.4-0.3-2.9-1.6-3.1l-1.4-0.2l0-0.5l6.1-1.5l-0.1,3.7
			l0.1,0c1.9-1.6,4.5-3.8,7.5-3.8c1.4,0,2.7,0.4,3.5,1.3c1,1,1.5,2.6,1.5,4.5v12.7c0,0.3,0.1,0.5,1.9,0.6l1.1,0l0.1,0.7h-9.1
			l0.1-0.7l1.2,0c1.3-0.1,1.6-0.3,1.6-0.7v-11.7c0-3.2-1.4-4.5-4.1-4.5c-2.1,0-4,1.1-5.4,2.3v13.9c0,0.4,0.3,0.5,1.9,0.6l1.2,0
			l0.1,0.7h-9.2L457.3,351z"/>
		<path class="st1" d="M480.2,342.5c0-6,4-10.8,9.7-10.8c4.5,0,7,2.7,7,6.2c0,0.4,0,0.8-0.1,1.2l-13.1-0.1c-0.1,0.5-0.2,1.5-0.2,2.2
			c0,5.2,3.1,8.8,7.1,8.8c2.6,0,4.5-0.9,6.1-3.4l0.5,0.3c-1.9,3.4-4.5,5.5-8.1,5.5C484.1,352.3,480.2,348,480.2,342.5z M493.6,338.3
			c0-3.1-1.3-5.8-4-5.8c-2.5,0-4.9,2.6-5.7,5.9L493.6,338.3z"/>
		<path class="st1" d="M507.5,342.1c0-5.8,4.4-10.4,10.2-10.4c5.7,0,9.9,4.4,9.9,10.1c0,5.9-4.4,10.5-10.1,10.5
			C511.7,352.3,507.5,347.9,507.5,342.1z M524,342.4c0-3.4-0.8-6.5-2.5-8.2c-1-1-2.3-1.8-4-1.8c-3.9,0-6.4,4.1-6.4,9
			c0,3.6,0.8,6.7,2.6,8.5c0.9,1,2.3,1.7,4,1.7C521.4,351.5,524,347.4,524,342.4z"/>
		<path class="st1" d="M529.6,351l1.2,0c1.2-0.1,1.6-0.2,1.6-0.7v-13.2c0-2.4-0.3-2.9-1.6-3.1l-1.4-0.2l0-0.5l6.1-1.5l-0.1,7h0.1
			c1.7-4.6,3.5-7.1,6.1-7.1c1.6,0,2.6,1.1,2.6,2.2c0,1.1-0.8,2.2-2.1,2.2c-1.1,0-2.1-0.8-2.3-2.3c-1.8,0.5-3.1,2.7-4.3,6.5v10
			c0,0.4,0.2,0.5,1.8,0.6l1.8,0l0.1,0.7h-9.7L529.6,351z"/>
		<path class="st1" d="M553.7,342.5c0-6,4.3-10.8,10.1-10.8c3.7,0,6.4,1.8,6.4,4.1c0,1.3-1,2.2-2,2.2c-1.3,0-2.2-1.1-2-2.5
			c0-1,0.6-1.4,0.6-1.6c-0.2-0.5-1.6-1.4-3.2-1.4c-3.6,0-6.7,3.6-6.7,8.6c0,5.2,3.1,8.8,7.1,8.8c2.6,0,4.4-0.9,6-3.4l0.5,0.3
			c-1.8,3.4-4.4,5.5-8,5.5C557.5,352.3,553.7,348,553.7,342.5z"/>
		<path class="st1" d="M572,351l1.2,0c1.2-0.1,1.6-0.2,1.6-0.7v-24.2c0-2.1-0.3-2.5-1.4-2.7l-1.7-0.4l0-0.4l6.2-1.5v29.3
			c0,0.4,0.2,0.5,1.8,0.6l1.1,0l0.1,0.7h-9.1L572,351z"/>
		<path class="st1" d="M582.5,351l1.3,0c1.1-0.1,1.6-0.2,1.6-0.7v-13.2c0-2.4-0.3-2.9-1.7-3.1l-1.4-0.2l0.1-0.5l6.1-1.5v18.6
			c0,0.4,0.2,0.5,1.8,0.6l1.1,0l0.1,0.7h-9.2L582.5,351z M584.2,325.4c0-1,0.7-2.3,2.2-2.3c1.5,0,2.2,1.3,2.2,2.3
			c0,1-0.7,2.3-2.2,2.3C584.9,327.7,584.2,326.4,584.2,325.4z"/>
		<path class="st1" d="M593.1,342.5c0-6,4.3-10.8,10.1-10.8c3.7,0,6.4,1.8,6.4,4.1c0,1.3-1,2.2-2,2.2c-1.3,0-2.2-1.1-2-2.5
			c0-1,0.6-1.4,0.6-1.6c-0.2-0.5-1.6-1.4-3.2-1.4c-3.6,0-6.7,3.6-6.7,8.6c0,5.2,3.1,8.8,7.1,8.8c2.6,0,4.4-0.9,6-3.4l0.5,0.3
			c-1.8,3.4-4.4,5.5-8,5.5C597,352.3,593.1,348,593.1,342.5z"/>
		<path class="st1" d="M611.2,351l1.1,0c1.1-0.1,1.6-0.2,1.6-0.7v-24.8c0-1.4-0.2-1.8-1.4-2.1l-1.7-0.4l0-0.4l6.1-1.5v21.5l4.9-4.7
			c1.5-1.4,2.8-2.9,2.8-3.6c0-0.6-0.6-1-1.9-1.1l-1-0.1l-0.1-0.6h8.7l-0.1,0.6l-1.1,0.1c-1.7,0.1-2.7,1.3-5.7,4.4c0,0-2.1,1.8-2,1.8
			l6,9.2c1.1,1.8,1.5,2.2,3,2.3l0.9,0.1l0.1,0.7h-6l-0.9-1.5l-5.4-8.7l-2.1,2v6.8c0,0.4,0.2,0.5,1.8,0.6l1.1,0l0.1,0.7h-9L611.2,351
			z"/>
		<path class="st1" d="M651.6,349L651.6,349c-1.8,1.7-3.6,3.2-5.8,3.2c-2.7,0-4.8-2-4.8-4.5c0-3.2,2.6-5.3,10.9-7.3l0-1.5
			c0.1-4.5-1.9-5.8-4.5-5.8c-1.8,0-3.7,1-3.7,1.5c0,0.3,1,1,1,2.2c0,0.9-0.8,1.8-2,1.8c-1.1,0-2-0.7-2-1.8c0-2.2,5-5,8.5-5
			c4,0,6,1.6,5.7,7.1l-0.5,9.6c0,1.3,0.5,1.8,1.3,1.8c0.7,0,1.4-0.6,2.1-1.3l0.4,0.4c-0.9,1.2-2.3,2.8-4,2.8
			C652.9,352.2,651.7,351.1,651.6,349z M651.6,348.1l0.2-7.1c-6.3,1.5-7.7,3.4-7.7,5.8c0,2.1,1.4,3.3,3.2,3.3
			C649,350.1,650.3,349.4,651.6,348.1z"/>
		<path class="st1" d="M669.4,335.7c-0.8-2.2-1-2.5-2.3-2.7L666,333l-0.1-0.6h9.1l-0.1,0.6l-1,0.1c-1.4,0.1-1.8,0.5-1.3,1.8l4.7,13
			l4.4-10.6l-0.8-2.1c-0.7-1.8-1-2-2.3-2.2l-1-0.1l-0.1-0.6h9l-0.1,0.6l-1,0.1c-1.4,0.1-1.6,0.6-1.2,1.8l5.3,13.1l3.6-10.6
			c1.1-3.3,0.9-4-1.5-4.3l-0.9-0.1l-0.1-0.6h7.6l-0.1,0.6l-0.8,0.1c-1.8,0.2-2,0.8-3.3,4.6l-4.9,14.4h-1l-5.7-13.7l-5.7,13.7h-1
			L669.4,335.7z"/>
		<path class="st1" d="M698.2,351l1.2,0c1.2-0.1,1.6-0.2,1.6-0.7v-13.2c0-2.4-0.3-2.9-1.6-3.1l-1.4-0.2l0-0.5l6.1-1.5l-0.1,7h0.1
			c1.7-4.6,3.5-7.1,6.1-7.1c1.6,0,2.6,1.1,2.6,2.2c0,1.1-0.8,2.2-2.1,2.2c-1.1,0-2.1-0.8-2.3-2.3c-1.8,0.5-3.1,2.7-4.3,6.5v10
			c0,0.4,0.2,0.5,1.8,0.6l1.8,0l0.1,0.7h-9.7L698.2,351z"/>
		<path class="st1" d="M713.6,342.1c0-5.8,4.4-10.4,10.2-10.4c5.7,0,9.9,4.4,9.9,10.1c0,5.9-4.4,10.5-10.1,10.5
			C717.8,352.3,713.6,347.9,713.6,342.1z M730.1,342.4c0-3.4-0.8-6.5-2.5-8.2c-1-1-2.3-1.8-4-1.8c-3.9,0-6.4,4.1-6.4,9
			c0,3.6,0.8,6.7,2.6,8.5c0.9,1,2.3,1.7,4,1.7C727.5,351.5,730.1,347.4,730.1,342.4z"/>
		<path class="st1" d="M735.7,351l1.2,0c1.2-0.1,1.6-0.2,1.6-0.7v-13.2c0-2.4-0.3-2.9-1.6-3.1l-1.4-0.2l0-0.5l6.1-1.5l-0.1,3.7
			l0.1,0c1.9-1.6,4.5-3.8,7.5-3.8c1.4,0,2.7,0.4,3.5,1.3c1,1,1.5,2.6,1.5,4.5v12.7c0,0.3,0.1,0.5,1.9,0.6l1.1,0l0.1,0.7h-9.1
			l0.1-0.7l1.2,0c1.3-0.1,1.6-0.3,1.6-0.7v-11.7c0-3.2-1.4-4.5-4.1-4.5c-2.1,0-4,1.1-5.4,2.3v13.9c0,0.4,0.3,0.5,1.9,0.6l1.2,0
			l0.1,0.7h-9.2L735.7,351z"/>
		<path class="st1" d="M758,357.9c0-2.7,2.8-4.6,5-5.5v-0.1c-2.6-0.3-4.4-1.5-4.4-3.2c0-2.2,2.5-3.9,4.7-4.5c0,0,0,0,0-0.1
			c-2.2-0.8-4.1-3-4.1-5.8c0-4,3.3-7,7.6-7c1.9,0,3.6,0.6,4.9,1.5l5.5-0.7l-0.3,2.1l-4.4-0.5l0,0.2c1,0.9,1.8,2.4,1.8,4.1
			c0,3.8-3.4,6.7-7.7,6.7c-0.9,0-2-0.2-2.5-0.3c-1.4,0.3-2.7,1.3-2.7,2.5c0,1.4,1.2,2,3.5,2c1.2,0,3.7-0.1,5.1-0.1
			c4.2,0,6.6,2.1,6.6,5.1c0,4.9-4.6,8.5-11.2,8.5C760.8,362.9,758,360.9,758,357.9z M774.5,356.3c0-2.4-1.6-3.9-5.5-4
			c-1.4,0-2.9,0.1-5.1,0.2c-1.4,0.5-3.4,2.3-3.4,4.5c0,2.9,2.9,4.9,6.8,4.9C771.2,361.8,774.5,359.4,774.5,356.3z M771.2,338.7
			c0-3.7-1.4-6.3-4.4-6.3c-2.5,0-4.3,2.4-4.3,5.8c0,3.8,1.8,6.3,4.3,6.3C769.4,344.5,771.2,342.2,771.2,338.7z"/>
		<path class="st1" d="M787.5,351.3l-0.4-5.4h0.8l0.9,2.6c1.1,2,2.8,3.1,4.8,3.1c2.6,0,4.5-1.6,4.5-3.9c0-2.5-2-3.6-5-4.6
			c-2.7-0.9-5.5-2.2-5.5-5.7c0-3.2,2.7-5.6,6.5-5.6c1.6,0,2.9,0.3,4,0.8l1.4-0.4l0.3,5.4h-0.8l-1.8-3.8c-0.8-0.6-1.9-1.2-3.3-1.2
			c-2.4,0-3.9,1.4-3.9,3.4c0,2.4,1.9,3.2,4.7,4.2c3,1.1,5.9,2.3,5.9,6.1c0,3.3-2.8,6.2-7.5,6.2C791,352.3,789.2,351.9,787.5,351.3z"
			/>
		<path class="st1" d="M802.3,362.3l1.2,0c1.1-0.1,1.6-0.2,1.6-0.6V337c0-2.4-0.3-2.8-1.6-3.1l-1.4-0.2l0-0.5l6.1-1.5l0,3.8l0.1,0.1
			c1.8-2,4-3.7,6.9-3.7c4.6,0,8.1,3.9,8.1,9.5c0,6.6-4.9,10.9-9.9,10.9c-2,0-3.8-0.5-5-1.1h-0.1v10.5c0,0.3,0.2,0.4,1.8,0.5l1.9,0
			l0.1,0.7h-9.9L802.3,362.3z M819.8,342.5c0-4.8-2.5-8.4-6.3-8.4c-2.2,0-4,1.2-5.3,2.7v11.2c1.2,1.8,3.2,3.5,5.6,3.5
			C817.5,351.4,819.8,347.6,819.8,342.5z"/>
		<path class="st1" d="M825.5,342.5c0-6,4-10.8,9.7-10.8c4.5,0,7,2.7,7,6.2c0,0.4,0,0.8-0.1,1.2L829,339c-0.1,0.5-0.2,1.5-0.2,2.2
			c0,5.2,3.1,8.8,7.1,8.8c2.6,0,4.5-0.9,6.1-3.4l0.5,0.3c-1.9,3.4-4.5,5.5-8.1,5.5C829.3,352.3,825.5,348,825.5,342.5z M838.8,338.3
			c0-3.1-1.3-5.8-4-5.8c-2.5,0-4.9,2.6-5.7,5.9L838.8,338.3z"/>
		<path class="st1" d="M844.6,342.5c0-6,4-10.8,9.7-10.8c4.5,0,7,2.7,7,6.2c0,0.4,0,0.8-0.1,1.2l-13.1-0.1c-0.1,0.5-0.2,1.5-0.2,2.2
			c0,5.2,3.1,8.8,7.1,8.8c2.6,0,4.5-0.9,6.1-3.4l0.5,0.3c-1.9,3.4-4.5,5.5-8.1,5.5C848.5,352.3,844.6,348,844.6,342.5z M858,338.3
			c0-3.1-1.3-5.8-4-5.8c-2.5,0-4.9,2.6-5.7,5.9L858,338.3z"/>
		<path class="st1" d="M863.8,342.5c0-6,4.3-10.8,10.1-10.8c3.7,0,6.4,1.8,6.4,4.1c0,1.3-1,2.2-2,2.2c-1.3,0-2.2-1.1-2-2.5
			c0-1,0.6-1.4,0.6-1.6c-0.2-0.5-1.6-1.4-3.2-1.4c-3.6,0-6.7,3.6-6.7,8.6c0,5.2,3.1,8.8,7.1,8.8c2.6,0,4.4-0.9,6-3.4l0.5,0.3
			c-1.8,3.4-4.4,5.5-8,5.5C867.7,352.3,863.8,348,863.8,342.5z"/>
		<path class="st1" d="M881.9,351l1.1,0c1.1-0.1,1.6-0.2,1.6-0.7v-24.8c0-1.4-0.2-1.8-1.4-2.1l-1.7-0.4l0-0.4l6.1-1.5v14.4l0.1,0
			c1.9-1.6,4.5-3.8,7.5-3.8c1.4,0,2.6,0.4,3.5,1.3c1,1.1,1.5,2.6,1.5,4.5v12.8c0,0.3,0,0.5,1.9,0.6l1.1,0l0.1,0.7h-9.1l0.1-0.7
			l1.2,0c1.3-0.1,1.6-0.3,1.6-0.7v-11.7c0-3.2-1.4-4.5-4.1-4.5c-2.2,0-4,1.1-5.4,2.3v13.9c0,0.4,0.2,0.5,1.9,0.6l1.2,0l0.1,0.7h-9.1
			L881.9,351z"/>
		<path class="st1" d="M914.3,325.3c0-1.4-0.3-1.8-1.4-2l-1.8-0.4l0-0.5l6.2-1.5v14.5l0.1,0.1c1.8-2,4-3.7,6.9-3.7
			c4.5,0,8.1,3.9,8.1,9.5c0,6.6-4.9,10.9-9.9,10.9c-2.1,0-4.4-0.7-5.7-1.4h-0.1l-2.1,1.7h-0.4V325.3z M929,342.5
			c0-4.8-2.5-8.4-6.3-8.4c-2.2,0-4,1.2-5.4,2.7v11.1c1.2,2,3.3,3.6,5.7,3.6C926.6,351.4,929,347.6,929,342.5z"/>
		<path class="st1" d="M949.2,348.5L949.2,348.5c-2,1.7-4.5,3.8-7.5,3.8c-1.5,0-2.7-0.4-3.6-1.4c-1-1.1-1.4-2.6-1.4-4.5v-12.7
			c0-0.4,0-0.4-1.9-0.6l-1.1-0.1l-0.1-0.6h6.3l-0.1,13.1c0,3.2,1.5,4.5,4.1,4.5c2.2,0,3.9-1.1,5.3-2.3v-12.9c0-1.3-0.3-1.6-1.9-1.7
			l-1.2-0.1l-0.1-0.6h6.3V349c0,0.8,0.1,1.1,0.9,1.2l2.2,0.4l0,0.5l-6.2,1.4L949.2,348.5z"/>
		<path class="st1" d="M957.8,325.3c0-1.4-0.3-1.8-1.4-2l-1.8-0.4l0-0.5l6.2-1.5v14.5l0.1,0.1c1.8-2,4-3.7,6.9-3.7
			c4.5,0,8.1,3.9,8.1,9.5c0,6.6-4.9,10.9-9.9,10.9c-2.1,0-4.4-0.7-5.7-1.4h-0.1l-2.1,1.7h-0.4V325.3z M972.5,342.5
			c0-4.8-2.5-8.4-6.3-8.4c-2.2,0-4,1.2-5.4,2.7v11.1c1.2,2,3.3,3.6,5.7,3.6C970.1,351.4,972.5,347.6,972.5,342.5z"/>
		<path class="st1" d="M979.5,325.3c0-1.4-0.3-1.8-1.4-2l-1.8-0.4l0-0.5l6.2-1.5v14.5l0.1,0.1c1.8-2,4-3.7,6.9-3.7
			c4.5,0,8.1,3.9,8.1,9.5c0,6.6-4.9,10.9-9.9,10.9c-2.1,0-4.4-0.7-5.7-1.4h-0.1l-2.1,1.7h-0.4V325.3z M994.2,342.5
			c0-4.8-2.5-8.4-6.3-8.4c-2.2,0-4,1.2-5.4,2.7v11.1c1.2,2,3.3,3.6,5.7,3.6C991.9,351.4,994.2,347.6,994.2,342.5z"/>
		<path class="st1" d="M999.5,351l1.2,0c1.2-0.1,1.6-0.2,1.6-0.7v-24.2c0-2.1-0.3-2.5-1.4-2.7l-1.7-0.4l0-0.4l6.2-1.5v29.3
			c0,0.4,0.2,0.5,1.8,0.6l1.1,0l0.1,0.7h-9.1L999.5,351z"/>
		<path class="st1" d="M1010.1,342.5c0-6,4-10.8,9.7-10.8c4.5,0,7,2.7,7,6.2c0,0.4,0,0.8-0.1,1.2l-13.1-0.1
			c-0.1,0.5-0.2,1.5-0.2,2.2c0,5.2,3.1,8.8,7.1,8.8c2.6,0,4.5-0.9,6.1-3.4l0.5,0.3c-1.9,3.4-4.5,5.5-8.1,5.5
			C1014,352.3,1010.1,348,1010.1,342.5z M1023.5,338.3c0-3.1-1.3-5.8-4-5.8c-2.5,0-4.9,2.6-5.7,5.9L1023.5,338.3z"/>
		<path class="st1" d="M1028.7,357c1.8-1,3.6-2.7,3.6-5c0-2.2-2.2-3.1-3.2-2.5c-0.5-1.2,0.4-2.8,2.3-2.8c1.9,0,3.4,1.4,3.4,3.6
			c0,2.8-2.7,5.7-5.6,7L1028.7,357z"/>
		<path class="st1" d="M1045.1,361.2c0-1.2,0.9-2.1,2.1-2.1c1.3,0,2.1,0.9,2.3,2.1c1.4-0.4,2.1-2,3.1-5.1l1.3-4v0l-7.2-16.6
			c-0.8-1.8-0.9-2.1-2.2-2.2l-1.1-0.1l-0.1-0.6h9l-0.1,0.6l-1,0.1c-1.4,0.1-1.6,0.6-1.1,2l5.3,12.7l3.9-10.7c1.2-3.3,0.9-3.8-1.4-4
			l-1-0.1l-0.1-0.6h7.7l-0.1,0.6l-0.9,0.1c-1.7,0.2-1.8,0.7-3.2,4.5l-5.2,13.9l-1.7,5.3c-1.3,4.3-2.8,6.4-5.5,6.4
			C1046.3,363.3,1045.1,362.3,1045.1,361.2z"/>
		<path class="st1" d="M1064.1,342.1c0-5.8,4.4-10.4,10.2-10.4c5.7,0,9.9,4.4,9.9,10.1c0,5.9-4.4,10.5-10.1,10.5
			C1068.3,352.3,1064.1,347.9,1064.1,342.1z M1080.6,342.4c0-3.4-0.8-6.5-2.5-8.2c-1-1-2.3-1.8-4-1.8c-3.9,0-6.4,4.1-6.4,9
			c0,3.6,0.8,6.7,2.6,8.5c0.9,1,2.3,1.7,4,1.7C1078,351.5,1080.6,347.4,1080.6,342.4z"/>
		<path class="st1" d="M1101,348.5L1101,348.5c-2,1.7-4.5,3.8-7.5,3.8c-1.5,0-2.7-0.4-3.6-1.4c-1-1.1-1.4-2.6-1.4-4.5v-12.7
			c0-0.4,0-0.4-1.9-0.6l-1.1-0.1l-0.1-0.6h6.3l-0.1,13.1c0,3.2,1.5,4.5,4.1,4.5c2.2,0,3.9-1.1,5.3-2.3v-12.9c0-1.3-0.3-1.6-1.9-1.7
			l-1.2-0.1l-0.1-0.6h6.3V349c0,0.8,0.1,1.1,0.9,1.2l2.2,0.4l0,0.5l-6.2,1.4L1101,348.5z"/>
		<path class="st1" d="M1118.3,335.7c-0.8-2.2-1-2.5-2.3-2.7l-1.1-0.1l-0.1-0.6h9.1l-0.1,0.6l-1,0.1c-1.4,0.1-1.8,0.5-1.3,1.8
			l4.7,13l4.4-10.6l-0.8-2.1c-0.7-1.8-1-2-2.3-2.2l-1-0.1l-0.1-0.6h9l-0.1,0.6l-1,0.1c-1.4,0.1-1.6,0.6-1.2,1.8l5.3,13.1l3.6-10.6
			c1.1-3.3,0.9-4-1.5-4.3l-0.9-0.1l-0.1-0.6h7.6l-0.1,0.6l-0.8,0.1c-1.8,0.2-2,0.8-3.3,4.6l-4.9,14.4h-1l-5.7-13.7l-5.7,13.7h-1
			L1118.3,335.7z"/>
		<path class="st1" d="M1147,351l1.3,0c1.1-0.1,1.6-0.2,1.6-0.7v-13.2c0-2.4-0.3-2.9-1.7-3.1l-1.4-0.2l0.1-0.5l6.1-1.5v18.6
			c0,0.4,0.2,0.5,1.8,0.6l1.1,0l0.1,0.7h-9.2L1147,351z M1148.7,325.4c0-1,0.7-2.3,2.2-2.3c1.5,0,2.2,1.3,2.2,2.3
			c0,1-0.7,2.3-2.2,2.3C1149.5,327.7,1148.7,326.4,1148.7,325.4z"/>
		<path class="st1" d="M1157.3,351l1.2,0c1.2-0.1,1.6-0.2,1.6-0.7v-24.2c0-2.1-0.3-2.5-1.4-2.7l-1.7-0.4l0-0.4l6.2-1.5v29.3
			c0,0.4,0.2,0.5,1.8,0.6l1.1,0l0.1,0.7h-9.1L1157.3,351z"/>
		<path class="st1" d="M1168,351l1.2,0c1.2-0.1,1.6-0.2,1.6-0.7v-24.2c0-2.1-0.3-2.5-1.4-2.7l-1.7-0.4l0-0.4l6.2-1.5v29.3
			c0,0.4,0.2,0.5,1.8,0.6l1.1,0l0.1,0.7h-9.1L1168,351z"/>
		<path class="st1" d="M171.9,405l1.2,0c1.2-0.1,1.6-0.2,1.6-0.7v-24.2c0-2.1-0.3-2.5-1.4-2.7l-1.7-0.4l0-0.4l6.2-1.5v29.3
			c0,0.4,0.2,0.4,1.8,0.6l1.1,0l0.1,0.7h-9.1L171.9,405z"/>
		<path class="st1" d="M182.6,396.1c0-5.8,4.4-10.4,10.2-10.4c5.7,0,9.9,4.4,9.9,10.1c0,5.9-4.4,10.5-10.1,10.5
			C186.8,406.3,182.6,401.9,182.6,396.1z M199.1,396.4c0-3.4-0.8-6.5-2.5-8.2c-1-1-2.3-1.8-4-1.8c-3.9,0-6.4,4.1-6.4,9
			c0,3.6,0.8,6.7,2.6,8.5c0.9,1,2.3,1.7,4,1.7C196.5,405.5,199.1,401.4,199.1,396.4z"/>
		<path class="st1" d="M205.5,405.3l-0.4-5.4h0.8l0.9,2.6c1.1,2,2.8,3.1,4.8,3.1c2.6,0,4.5-1.6,4.5-3.9c0-2.5-2-3.6-5-4.6
			c-2.7-0.9-5.5-2.2-5.5-5.7c0-3.2,2.7-5.6,6.5-5.6c1.6,0,2.9,0.3,4,0.8l1.4-0.4l0.3,5.4h-0.8l-1.8-3.8c-0.8-0.6-1.9-1.2-3.3-1.2
			c-2.4,0-3.9,1.4-3.9,3.4c0,2.4,1.9,3.2,4.7,4.2c3,1.1,5.9,2.3,5.9,6.1c0,3.3-2.8,6.2-7.5,6.2C209.1,406.3,207.2,405.9,205.5,405.3
			z"/>
		<path class="st1" d="M221.2,396.5c0-6,4-10.8,9.7-10.8c4.5,0,7,2.7,7,6.2c0,0.4,0,0.8-0.1,1.2l-13.1-0.1c-0.1,0.5-0.2,1.5-0.2,2.2
			c0,5.2,3.1,8.8,7.1,8.8c2.6,0,4.5-0.9,6.1-3.4l0.5,0.3c-1.9,3.4-4.5,5.5-8.1,5.5C225,406.3,221.2,402,221.2,396.5z M234.5,392.3
			c0-3.1-1.3-5.8-4-5.8c-2.5,0-4.9,2.6-5.7,5.9L234.5,392.3z"/>
		<path class="st1" d="M259.3,403L259.3,403c-1.8,1.7-3.6,3.2-5.8,3.2c-2.7,0-4.8-2-4.8-4.5c0-3.2,2.6-5.3,10.9-7.3l0-1.5
			c0.1-4.5-1.9-5.8-4.5-5.8c-1.8,0-3.7,1-3.7,1.5c0,0.3,1,1,1,2.2c0,0.9-0.8,1.8-2,1.8c-1.1,0-2-0.7-2-1.8c0-2.2,5-5,8.5-5
			c4,0,6,1.6,5.7,7.1l-0.5,9.6c0,1.3,0.5,1.8,1.3,1.8c0.7,0,1.4-0.6,2.1-1.3l0.4,0.4c-0.9,1.2-2.3,2.8-4,2.8
			C260.6,406.2,259.4,405.1,259.3,403z M259.3,402.1l0.2-7.1c-6.3,1.5-7.7,3.4-7.7,5.8c0,2.1,1.4,3.3,3.2,3.3
			C256.7,404.1,258,403.4,259.3,402.1z"/>
	</g>
	<g>
		<path class="st1" d="M826.5,226c0-1.4-0.3-1.8-1.4-2l-1.8-0.4l0-0.5l6.2-1.5v14.5l0.1,0.1c1.8-2,4.1-3.7,6.9-3.7
			c4.5,0,8.1,3.9,8.1,9.5c0,6.6-4.9,10.9-9.9,10.9c-2.1,0-4.4-0.7-5.7-1.4h-0.1l-2.1,1.7h-0.4V226z M841.2,243.1
			c0-4.8-2.5-8.4-6.3-8.4c-2.2,0-4,1.2-5.4,2.7v11.1c1.2,2,3.3,3.6,5.7,3.6C838.9,252,841.2,248.2,841.2,243.1z"/>
		<path class="st1" d="M846.3,261.8c0-1.2,0.9-2.1,2.1-2.1c1.3,0,2.1,0.9,2.3,2.1c1.4-0.4,2.1-2,3.1-5.1l1.3-4v0L848,236
			c-0.8-1.8-0.9-2.1-2.2-2.2l-1.1-0.1l-0.1-0.6h9l-0.1,0.6l-1,0.1c-1.4,0.1-1.6,0.6-1.1,2l5.3,12.7l3.9-10.7c1.2-3.3,0.9-3.8-1.4-4
			l-1-0.1l-0.1-0.6h7.7l-0.1,0.6l-0.9,0.1c-1.7,0.2-1.8,0.7-3.2,4.5l-5.2,13.9l-1.7,5.3c-1.3,4.3-2.8,6.4-5.5,6.4
			C847.4,263.9,846.3,262.9,846.3,261.8z"/>
		<path class="st1" d="M874.3,243.1c0-6,4.3-10.8,10.1-10.8c3.7,0,6.4,1.8,6.4,4.1c0,1.3-1,2.2-2,2.2c-1.3,0-2.2-1.1-2-2.5
			c0-1,0.6-1.4,0.6-1.6c-0.2-0.5-1.6-1.4-3.2-1.4c-3.6,0-6.7,3.6-6.7,8.6c0,5.2,3.1,8.8,7.1,8.8c2.6,0,4.4-0.9,6-3.4l0.5,0.3
			c-1.8,3.4-4.4,5.5-8,5.5C878.2,252.9,874.3,248.6,874.3,243.1z"/>
		<path class="st1" d="M903.9,249.6L903.9,249.6c-1.8,1.7-3.6,3.2-5.8,3.2c-2.7,0-4.8-2-4.8-4.5c0-3.2,2.6-5.3,10.9-7.3l0-1.5
			c0.1-4.5-1.9-5.8-4.5-5.8c-1.8,0-3.7,1-3.7,1.5c0,0.3,1,1,1,2.2c0,0.9-0.8,1.8-2,1.8c-1.1,0-2-0.7-2-1.8c0-2.2,5-5,8.5-5
			c4.1,0,6,1.6,5.7,7.1l-0.4,9.6c0,1.3,0.4,1.8,1.3,1.8c0.7,0,1.4-0.6,2.1-1.3l0.4,0.4c-0.9,1.2-2.3,2.8-4,2.8
			C905.2,252.8,904,251.7,903.9,249.6z M903.9,248.7l0.2-7.1c-6.3,1.5-7.7,3.4-7.7,5.8c0,2.1,1.4,3.3,3.2,3.3
			C901.2,250.7,902.5,250,903.9,248.7z"/>
		<path class="st1" d="M913.8,248.2l0.2-13.4l-3.5-0.1l0.1-0.8l6-5l0.5,0.1l0,4h6.7l-0.5,1.7h-6.1c0,0-0.3,13-0.3,13
			c0,2.2,1.1,3.1,3.1,3.1c1.6,0,2.7-0.8,3.8-1.6l0.3,0.4c-1.7,1.6-3.6,3.1-5.8,3.1C915.7,252.9,913.7,251.7,913.8,248.2z"/>
		<path class="st1" d="M924.9,243.1c0-6,4.3-10.8,10.1-10.8c3.7,0,6.4,1.8,6.4,4.1c0,1.3-1,2.2-2,2.2c-1.3,0-2.2-1.1-2-2.5
			c0-1,0.6-1.4,0.6-1.6c-0.2-0.5-1.6-1.4-3.2-1.4c-3.6,0-6.7,3.6-6.7,8.6c0,5.2,3.1,8.8,7.1,8.8c2.6,0,4.4-0.9,6-3.4l0.5,0.3
			c-1.8,3.4-4.4,5.5-8,5.5C928.7,252.9,924.9,248.6,924.9,243.1z"/>
		<path class="st1" d="M943,251.6l1.1,0c1.1-0.1,1.6-0.2,1.6-0.7V226c0-1.4-0.2-1.8-1.4-2.1l-1.7-0.4l0-0.4l6.1-1.5v14.4l0.1,0
			c1.9-1.6,4.5-3.8,7.5-3.8c1.4,0,2.6,0.4,3.5,1.3c1,1.1,1.5,2.6,1.5,4.5v12.8c0,0.3,0,0.5,1.9,0.6l1.1,0l0.1,0.7h-9.1l0.1-0.7
			l1.2,0c1.3-0.1,1.6-0.3,1.6-0.7v-11.7c0-3.2-1.4-4.5-4-4.5c-2.2,0-4.1,1.1-5.4,2.3V251c0,0.4,0.2,0.5,1.9,0.6l1.2,0l0.1,0.7h-9.1
			L943,251.6z"/>
		<path class="st1" d="M965.6,251.6l1.3,0c1.1-0.1,1.6-0.2,1.6-0.7v-13.2c0-2.4-0.3-2.9-1.7-3.1l-1.4-0.2l0.1-0.5l6.1-1.5V251
			c0,0.4,0.2,0.5,1.8,0.6l1.1,0l0.1,0.7h-9.2L965.6,251.6z M967.3,226c0-1,0.7-2.3,2.2-2.3s2.2,1.3,2.2,2.3c0,1-0.7,2.3-2.2,2.3
			C968.1,228.3,967.3,227,967.3,226z"/>
		<path class="st1" d="M976.1,251.6l1.2,0c1.2-0.1,1.6-0.2,1.6-0.7v-13.2c0-2.4-0.3-2.9-1.6-3.1l-1.4-0.2l0-0.5l6.1-1.5l-0.1,3.7
			l0.1,0c1.9-1.6,4.5-3.8,7.5-3.8c1.4,0,2.7,0.4,3.5,1.3c1,1,1.5,2.6,1.5,4.5v12.7c0,0.3,0.1,0.5,1.9,0.6l1.1,0l0.1,0.7h-9.1
			l0.1-0.7l1.2,0c1.3-0.1,1.6-0.3,1.6-0.7v-11.7c0-3.2-1.4-4.5-4.1-4.5c-2.1,0-4,1.1-5.4,2.3V251c0,0.4,0.3,0.5,1.9,0.6l1.2,0
			l0.1,0.7H976L976.1,251.6z"/>
		<path class="st1" d="M998.4,258.5c0-2.7,2.8-4.6,5-5.5v-0.1c-2.6-0.3-4.4-1.5-4.4-3.2c0-2.2,2.5-3.9,4.7-4.5c0,0,0,0,0-0.1
			c-2.2-0.8-4.1-3-4.1-5.8c0-4,3.3-7,7.6-7c1.9,0,3.6,0.6,4.9,1.5l5.5-0.7l-0.3,2.1l-4.4-0.5l0,0.2c1,0.9,1.8,2.4,1.8,4.1
			c0,3.8-3.4,6.7-7.7,6.7c-0.9,0-2-0.2-2.5-0.3c-1.4,0.3-2.7,1.3-2.7,2.5c0,1.4,1.2,2,3.5,2c1.2,0,3.7-0.1,5.1-0.1
			c4.2,0,6.6,2.1,6.6,5.1c0,4.9-4.6,8.5-11.2,8.5C1001.2,263.5,998.4,261.5,998.4,258.5z M1014.9,256.9c0-2.4-1.6-3.9-5.5-4
			c-1.4,0-2.9,0.1-5.1,0.2c-1.4,0.5-3.4,2.3-3.4,4.5c0,2.9,2.9,4.9,6.8,4.9C1011.6,262.4,1014.9,260,1014.9,256.9z M1011.6,239.3
			c0-3.7-1.4-6.3-4.4-6.3c-2.5,0-4.3,2.4-4.3,5.8c0,3.8,1.8,6.3,4.3,6.3C1009.8,245.1,1011.6,242.8,1011.6,239.3z"/>
		<path class="st1" d="M1028.9,251.6l2.1-0.2c1.1,0,1.5-0.2,1.5-0.7v-17.8l-4.8-0.5l0.1-0.5l7.7-1.1v20.1c0,0.4,0.3,0.5,1.9,0.6
			l2,0.2l0.1,0.7h-10.7L1028.9,251.6z"/>
		<path class="st1" d="M1042,241.7c0-6.5,4.6-11.2,10.7-11.2c6,0,10.5,4.7,10.5,11.2c0,6.6-4.5,11.2-10.6,11.2
			C1046.5,252.8,1042,248.2,1042,241.7z M1059.9,241.9c0-5.9-2.8-10.4-7.3-10.4c-4.3,0-7.2,4.4-7.2,9.7c0,6.3,2.7,10.7,7.4,10.7
			C1057,251.9,1059.9,247.5,1059.9,241.9z"/>
	</g>
	<g>
		<g>
			<path class="st2" d="M1147.5,273.6l-22.9-6.4c-0.3-0.1-3-1.1-3.7-3.8c-0.2-0.9-0.2-1.8,0-2.3c4.7-17,9.4-33.9,14.1-50.9
				c0.1-0.3,0.3-1.1,1.1-1.8c1.1-1,2.5-0.9,2.7-0.9c8.4,2.2,16.7,4.4,25.1,6.6c0.5,0.2,1.3,0.6,2,1.5c1.4,1.8,1,3.9,0.9,4.2
				l-14.1,50.9C1152,272.9,1149.7,274.2,1147.5,273.6z"/>
			<path class="st1" d="M1144.6,272.1l-19.1-5.3c-3.2-0.9-5.2-4.3-4.3-7.5l13.1-47c0.9-3.2,4.3-5.2,7.5-4.3l19.1,5.3
				c3.2,0.9,5.2,4.3,4.3,7.5l-13.1,47C1151.3,271,1147.9,273,1144.6,272.1z"/>
			<path class="st2" d="M1147.3,264.8l-20.1-5.6c-2.3-0.6-3.6-3-3-5.3l11.7-42.1c0.6-2.3,3-3.6,5.3-3l20.1,5.6c2.3,0.6,3.6,3,3,5.3
				l-11.7,42.1C1151.9,264,1149.5,265.4,1147.3,264.8z"/>
			<g>
				<path class="st2" d="M1135.9,267.6c-1.3-0.3-2-1.7-1.6-2.9c0.3-1.3,1.7-2,2.9-1.6c1.3,0.3,2,1.7,1.6,2.9
					C1138.5,267.2,1137.2,268,1135.9,267.6z M1137,263.5c-1-0.3-2,0.3-2.3,1.3s0.3,2,1.3,2.3c1,0.3,2-0.3,2.3-1.3
					S1138,263.8,1137,263.5z"/>
			</g>
			<g>
				<defs>
					<path id="SVGID_1_" d="M1147.2,264.8l-20.1-5.6c-2.3-0.6-3.6-3-3-5.3l11.7-42.1c0.6-2.3,3-3.6,5.3-3l20.1,5.6
						c2.3,0.6,3.6,3,3,5.3l-11.7,42.1C1151.9,264.1,1149.5,265.5,1147.2,264.8z"/>
				</defs>
				<clipPath id="SVGID_00000037692719752756186360000001548598051456361866_">
					<use xlink:href="#SVGID_1_"  style="overflow:visible;"/>
				</clipPath>
				<g style="opacity:0.9;clip-path:url(#SVGID_00000037692719752756186360000001548598051456361866_);">
					
						<image style="overflow:visible;" width="106" height="119" xlink:href="6C14EDFE.png"  transform="matrix(1 0 0 1 1090.6049 180.173)">
					</image>
				</g>
			</g>
		</g>
		<g>
			<path class="st1" d="M1110.6,244c-0.5,0.1-1-0.1-1.3-0.6c-2.6-3.3-3.6-7.7-2.9-12.1c0.9-5.5,4.4-10.1,9.2-12.1
				c0.7-0.3,1.6,0,1.9,0.8c0.3,0.7,0,1.6-0.8,1.9c-3.9,1.6-6.7,5.4-7.4,9.8c-0.6,3.6,0.3,7.2,2.4,9.9c0.5,0.6,0.4,1.6-0.3,2
				C1111.1,243.8,1110.8,243.9,1110.6,244z"/>
		</g>
		<g>
			<path class="st1" d="M1099.3,246.4c-0.7,0.1-1.4-0.2-1.8-0.8c-3.5-4.5-4.9-10.5-4-16.4c1.2-7.4,5.9-13.7,12.4-16.3
				c1-0.4,2.2,0.1,2.6,1.1c0.4,1-0.1,2.2-1.1,2.6c-5.2,2.1-9,7.2-10,13.3c-0.8,4.8,0.4,9.7,3.2,13.4c0.7,0.9,0.5,2.1-0.4,2.8
				C1100,246.2,1099.6,246.3,1099.3,246.4z"/>
		</g>
		<g>
			<path class="st1" d="M1178.6,233.7c0.5-0.1,1,0.1,1.3,0.6c2.6,3.3,3.6,7.7,2.9,12.1c-0.9,5.5-4.4,10.1-9.2,12.1
				c-0.7,0.3-1.6,0-1.9-0.8c-0.3-0.7,0-1.6,0.8-1.9c3.9-1.6,6.7-5.4,7.4-9.8c0.6-3.6-0.3-7.2-2.4-9.9c-0.5-0.6-0.4-1.6,0.3-2
				C1178.1,233.8,1178.4,233.7,1178.6,233.7z"/>
		</g>
		<g>
			<path class="st1" d="M1189.9,231.3c0.7-0.1,1.4,0.2,1.8,0.8c3.5,4.5,4.9,10.5,4,16.4c-1.2,7.4-5.9,13.7-12.4,16.3
				c-1,0.4-2.2-0.1-2.6-1.1c-0.4-1,0.1-2.2,1.1-2.6c5.2-2.1,9-7.2,10-13.3c0.8-4.8-0.4-9.7-3.2-13.4c-0.7-0.9-0.5-2.1,0.4-2.8
				C1189.3,231.5,1189.6,231.3,1189.9,231.3z"/>
		</g>
	</g>
	<g>
		<path class="st4" d="M337.3,374.2L337.3,374.2c-5.6-5.6-14.8-5.6-20.4,0l-0.6,0.6l-0.6-0.6c-5.6-5.6-14.8-5.6-20.4,0v0
			c-5.6,5.6-5.6,14.8,0,20.4l17.4,17.4c1.9,1.9,5.1,1.9,7,0l17.5-17.4C342.9,389,342.9,379.8,337.3,374.2z"/>
		
			<linearGradient id="SVGID_00000164487007011630364020000010904540445875548554_" gradientUnits="userSpaceOnUse" x1="329.2611" y1="406.7343" x2="306.4344" y2="367.1975">
			<stop  offset="6.979404e-07" style="stop-color:#C72F5E"/>
			<stop  offset="0.2126" style="stop-color:#D15177;stop-opacity:0.7874"/>
			<stop  offset="0.6797" style="stop-color:#EAA8B8;stop-opacity:0.3203"/>
			<stop  offset="1" style="stop-color:#FCE7E6;stop-opacity:0"/>
		</linearGradient>
		<path style="fill:url(#SVGID_00000164487007011630364020000010904540445875548554_);" d="M337.3,374.2L337.3,374.2
			c-5.6-5.6-14.8-5.6-20.4,0l-0.6,0.6l-0.6-0.6c-5.6-5.6-14.8-5.6-20.4,0v0c-5.6,5.6-5.6,14.8,0,20.4l17.4,17.4c1.9,1.9,5.1,1.9,7,0
			c5.8-5.8,11.7-11.6,17.5-17.4C342.9,389,342.9,379.8,337.3,374.2z"/>
	</g>
	<path class="st6" d="M769.8,246.3c-0.1-0.9-0.5-1.8-1.2-2.3c-1-0.8-2.6-0.9-3.8-0.1l1.9-2.6c0.8-0.9,1.1-2.1,1-3.2
		c-0.1-1.1-0.7-2-1.5-2.5c-1.1-0.7-2.7-0.7-3.9,0c0.3-0.4,0.6-0.8,0.9-1.3c0,0,0.1-0.1,0.1-0.1c0.8-1.8,0.3-4-1.2-5
		c-0.9-0.6-2-0.8-3.1-0.5c-1.2,0.3-2.2,1.1-2.8,2.2c-0.1,0.2-0.3,0.4-0.4,0.6c0-1-0.3-1.9-1-2.5c-0.7-0.7-1.8-1.1-3-1
		c-1.4,0.1-2.7,0.9-3.6,2.1c-0.3,0.3-0.5,0.6-0.8,0.9l1.6-6.3c0.3-0.9,0.3-2-0.2-2.9c-0.4-0.8-1.2-1.4-2-1.6
		c-1.3-0.3-2.7,0.3-3.5,1.5l0.6-3.1c0.3-1.1,0.1-2.4-0.5-3.4c-0.6-0.9-1.5-1.5-2.4-1.7c-1.3-0.2-2.7,0.5-3.5,1.6
		c0.1-0.5,0.2-1,0.3-1.5c0-0.1,0-0.1,0-0.2c0-2-1.4-3.7-3.2-4.1c-1-0.2-2.1,0.1-3,0.8c-0.9,0.8-1.5,1.9-1.6,3.1
		c0,0.3-0.1,0.5-0.1,0.8c-0.4-0.9-1.1-1.6-1.9-1.9c-1-0.4-2.1-0.2-3.1,0.4c-1.2,0.7-2.1,2-2.4,3.4c-1,3.3-1.8,6.8-2.5,10.2
		c-0.8,3.9-1.4,7.9-1.9,11.9c-1.9-3.7-4.5-7.6-6.9-7.4c-1.5,0.1-2.2,1-2.3,1.1c-1.1,1.2-0.7,2.9-0.5,3.4c0,0,0,0.1,0,0.1
		c1.5,3.9,3,7.8,4.3,11.8c0.6,1.8,1.2,3.7,1.8,5.6c0.6,1.8,1.5,3.4,2.7,4.7c2.5,2.8,5.8,3.8,8.5,4.2c0,1.3,0.2,2.6,0.6,3.9
		c2,6.3,8.4,8.7,9.8,9.2c0.8,0.4,1.6,0.7,2.4,0.8c0.5,0.1,1.1,0.1,1.6,0.1c6.5,0,12.8-7,16.3-11c1.7-1.9,3.2-3.9,4.6-5.9l7.8-9.6
		C769.5,248.3,769.8,247.3,769.8,246.3z M727.4,241.6c-0.2,4.2-0.6,8.4-1,12.5c-0.2,1.8-0.4,3.7-0.6,5.5c-2.3-0.3-5.1-1.2-7.2-3.6
		c-1-1.1-1.8-2.5-2.3-4c-0.6-1.9-1.2-3.8-1.8-5.6c-1.3-4-2.8-7.9-4.3-11.8c-0.1-0.5-0.2-1.2,0.1-1.6c0,0,0.4-0.4,1.1-0.4
		c1.3-0.1,4.1,3.9,6.5,9.4c0.2,0.4,0.6,0.6,1,0.5c0.4-0.1,0.7-0.4,0.8-0.8c0.4-5,1.2-10.1,2.2-15c0.7-3.4,1.5-6.7,2.5-10.1
		c0,0,0-0.1,0-0.1c0.2-0.9,0.7-1.7,1.5-2.2c0.5-0.3,1.1-0.4,1.5-0.2c0.8,0.3,1.4,1.5,1.1,2.9c0,0,0,0,0,0.1
		c-2.1,15.9-2.1,15.9-0.9,16c0.9,0.1,1.1-0.7,1.4-1.9c0.2-0.8,0.4-2,0.7-3.5c0.6-3.1,1.3-7.8,2.4-14c0,0,0-0.1,0-0.1
		c0-0.7,0.4-1.4,0.9-1.8c0.5-0.4,1-0.5,1.5-0.4c0.8,0.1,1.6,1,1.6,2.1c-3.4,19.9-3.3,19.9-2.1,20.2c1.1,0.2,1.2-0.5,2.3-4.7
		c0.6-2.7,1.6-6.8,2.7-12.2c0.4-1,1.3-1.4,2-1.3c0.4,0.1,0.8,0.4,1.1,0.8c0.3,0.5,0.4,1.2,0.2,1.9c0,0,0,0.1,0,0.1l-3,15
		c-0.1,0.5,0.2,1,0.7,1.1c0.5,0.1,1-0.1,1.1-0.6l3.8-10.7c0.3-0.7,1.1-1,1.6-0.9c0.3,0.1,0.6,0.3,0.8,0.7c0.2,0.4,0.3,0.9,0.1,1.4
		c0,0,0,0.1,0,0.1l-2.7,10.3c-1,1.3-2,2.5-2.9,3.8c-2.4,3.2-4.6,6.6-6.7,10c-0.2-4.1-0.9-8.8-3.2-9.6c-1.4-0.5-2.4-0.1-2.5,0
		C727.8,239.3,727.4,241,727.4,241.6C727.4,241.5,727.4,241.5,727.4,241.6z M767.4,247.7C767.4,247.7,767.4,247.8,767.4,247.7
		l-8,9.7c0,0,0,0-0.1,0.1c-1.4,2-2.9,4-4.5,5.8c-3.5,4-10.1,11.3-16.1,10.2c-0.7-0.1-1.4-0.4-2-0.7c0,0-0.1,0-0.2-0.1
		c-1.1-0.4-6.9-2.5-8.7-8c-0.5-1.5-0.6-3-0.4-4.6c0.2-1.9,0.5-3.9,0.7-5.9c0.4-4.2,0.8-8.4,1-12.6c0.1-0.5,0.3-1.2,0.8-1.4
		c0,0,0.5-0.2,1.1,0.1c1.2,0.4,2.1,5.3,2,11.2c0,0.4,0.3,0.8,0.7,0.9c0.4,0.1,0.9-0.1,1.1-0.4c2.5-4.4,5.3-8.7,8.2-12.7
		c2-2.8,4.2-5.5,6.4-8.1c0,0,0,0,0.1-0.1c0.5-0.8,1.4-1.3,2.3-1.4c0.6-0.1,1.2,0.1,1.5,0.4c0.6,0.6,0.6,2-0.2,3.1c0,0,0,0,0,0.1
		c-8.5,13.5-8.5,13.5-7.5,14.2c0.8,0.5,1.3-0.2,2-1.1c0.5-0.6,1.2-1.6,2.1-2.9c1.8-2.6,4.5-6.5,8-11.7c0,0,0-0.1,0.1-0.1
		c0.3-0.6,0.9-1.1,1.6-1.2c0.6-0.1,1.1-0.1,1.6,0.2c0.6,0.4,1,1.5,0.6,2.6c-11.4,16.7-11.3,16.7-10.3,17.5c0.9,0.6,1.3,0.1,4-3.3
		c1.7-2.2,4.3-5.5,7.6-9.9c0.8-0.7,1.8-0.8,2.3-0.4c0.4,0.2,0.6,0.7,0.7,1.2c0.1,0.6-0.1,1.3-0.5,1.8c0,0,0,0-0.1,0.1l-9,12.4
		c-0.3,0.4-0.2,1,0.2,1.3c0.4,0.3,0.9,0.3,1.3-0.1l8-8.1c0.6-0.5,1.4-0.5,1.8-0.1c0.3,0.2,0.4,0.6,0.4,1
		C767.9,246.9,767.7,247.4,767.4,247.7z"/>
</g>
</svg>
