<svg id="Warstwa_1" data-name="Warstwa 1" xmlns="http://www.w3.org/2000/svg" xmlns:xlink="http://www.w3.org/1999/xlink" viewBox="0 0 1920 1080"><defs><style>.cls-1{fill:none;}.cls-2{clip-path:url(#clip-path);}.cls-3{fill:#0a0a2b;}.cls-4{fill:#040416;}.cls-11,.cls-12,.cls-13,.cls-32,.cls-35,.cls-5,.cls-6,.cls-7,.cls-8,.cls-9{opacity:0.7;}.cls-5{fill:url(#Gradient_bez_nazwy_3);}.cls-6{fill:url(#Gradient_bez_nazwy_5);}.cls-7{fill:url(#Gradient_bez_nazwy_4);}.cls-8{fill:url(#Gradient_bez_nazwy_4-2);}.cls-9{fill:url(#Gradient_bez_nazwy_5-2);}.cls-10{fill:#070721;}.cls-11{fill:url(#Gradient_bez_nazwy_6);}.cls-12{fill:url(#Gradient_bez_nazwy_6-2);}.cls-13{fill:url(#Gradient_bez_nazwy_6-3);}.cls-14{fill:#2a669b;opacity:0.36;}.cls-15,.cls-16,.cls-17,.cls-18,.cls-19,.cls-21,.cls-22,.cls-23,.cls-24,.cls-25,.cls-26,.cls-27,.cls-28,.cls-29,.cls-30,.cls-31{opacity:0.8;}.cls-15{fill:url(#Gradient_bez_nazwy_43);}.cls-16{fill:url(#Gradient_bez_nazwy_43-2);}.cls-17{fill:url(#Gradient_bez_nazwy_43-3);}.cls-18{fill:url(#Gradient_bez_nazwy_43-4);}.cls-19{fill:url(#Gradient_bez_nazwy_43-5);}.cls-20{fill:#f4d0e9;opacity:0.7;}.cls-21{fill:url(#Gradient_bez_nazwy_32);}.cls-22{fill:url(#Gradient_bez_nazwy_262);}.cls-23{fill:url(#Gradient_bez_nazwy_262-2);}.cls-24{fill:url(#Gradient_bez_nazwy_262-3);}.cls-25{fill:url(#Gradient_bez_nazwy_262-4);}.cls-26{fill:url(#Gradient_bez_nazwy_262-5);}.cls-27{fill:url(#Gradient_bez_nazwy_262-6);}.cls-28{fill:url(#Gradient_bez_nazwy_262-7);}.cls-29{fill:url(#Gradient_bez_nazwy_262-8);}.cls-30{fill:url(#Gradient_bez_nazwy_262-9);}.cls-31{fill:url(#Gradient_bez_nazwy_262-10);}.cls-32{fill:url(#Gradient_bez_nazwy_15);}.cls-33{fill:url(#Gradient_bez_nazwy_29);}.cls-34{fill:#efbfbf;}.cls-36{fill:url(#Gradient_bez_nazwy_101);}.cls-37{fill:url(#Gradient_bez_nazwy_101-2);}.cls-38{fill:url(#Gradient_bez_nazwy_7);}.cls-39{fill:url(#Gradient_bez_nazwy_110);}.cls-40{fill:url(#Gradient_bez_nazwy_110-2);}.cls-41{fill:url(#Gradient_bez_nazwy_110-3);}.cls-42{fill:#fcf0f0;}</style><clipPath id="clip-path"><rect class="cls-1" width="1920" height="1080"/></clipPath><linearGradient id="Gradient_bez_nazwy_3" x1="1847.65" y1="399.37" x2="1380.91" y2="928.1" gradientUnits="userSpaceOnUse"><stop offset="0" stop-color="#3d80ea" stop-opacity="0.8"/><stop offset="0.07" stop-color="#356fcd" stop-opacity="0.83"/><stop offset="0.28" stop-color="#20417f" stop-opacity="0.9"/><stop offset="0.46" stop-color="#112046" stop-opacity="0.95"/><stop offset="0.59" stop-color="#070c23" stop-opacity="0.99"/><stop offset="0.67" stop-color="#040416"/></linearGradient><linearGradient id="Gradient_bez_nazwy_5" x1="895.57" y1="691.23" x2="570.02" y2="974.13" gradientUnits="userSpaceOnUse"><stop offset="0.04" stop-color="#3d80ea" stop-opacity="0.8"/><stop offset="0.11" stop-color="#356fcd" stop-opacity="0.83"/><stop offset="0.3" stop-color="#20417f" stop-opacity="0.9"/><stop offset="0.46" stop-color="#112046" stop-opacity="0.95"/><stop offset="0.58" stop-color="#070c23" stop-opacity="0.99"/><stop offset="0.66" stop-color="#040416"/></linearGradient><linearGradient id="Gradient_bez_nazwy_4" x1="2005.02" y1="771.49" x2="1832.51" y2="952.17" gradientUnits="userSpaceOnUse"><stop offset="0" stop-color="#3d80ea" stop-opacity="0.8"/><stop offset="0.07" stop-color="#356fcd" stop-opacity="0.83"/><stop offset="0.27" stop-color="#20417f" stop-opacity="0.9"/><stop offset="0.44" stop-color="#112046" stop-opacity="0.95"/><stop offset="0.58" stop-color="#070c23" stop-opacity="0.99"/><stop offset="0.66" stop-color="#040416"/></linearGradient><linearGradient id="Gradient_bez_nazwy_4-2" x1="1173.25" y1="780.46" x2="966.7" y2="996.8" xlink:href="#Gradient_bez_nazwy_4"/><linearGradient id="Gradient_bez_nazwy_5-2" x1="451.85" y1="696.41" x2="168.65" y2="942.5" xlink:href="#Gradient_bez_nazwy_5"/><linearGradient id="Gradient_bez_nazwy_6" x1="601.32" y1="862.72" x2="426.65" y2="1045.67" gradientUnits="userSpaceOnUse"><stop offset="0" stop-color="#3d80ea" stop-opacity="0.8"/><stop offset="0.04" stop-color="#3977db" stop-opacity="0.82"/><stop offset="0.25" stop-color="#24478c" stop-opacity="0.89"/><stop offset="0.43" stop-color="#142452" stop-opacity="0.95"/><stop offset="0.57" stop-color="#0b0f2e" stop-opacity="0.99"/><stop offset="0.66" stop-color="#070721"/></linearGradient><linearGradient id="Gradient_bez_nazwy_6-2" x1="406.59" y1="862.72" x2="231.91" y2="1045.67" xlink:href="#Gradient_bez_nazwy_6"/><linearGradient id="Gradient_bez_nazwy_6-3" x1="219.62" y1="862.72" x2="44.95" y2="1045.67" xlink:href="#Gradient_bez_nazwy_6"/><radialGradient id="Gradient_bez_nazwy_43" cx="1635.23" cy="862.88" r="49.41" gradientTransform="translate(0 -2062.71) scale(1 3.39)" gradientUnits="userSpaceOnUse"><stop offset="0" stop-color="#f4d0e9" stop-opacity="0.7"/><stop offset="0.12" stop-color="#d8c1de" stop-opacity="0.6"/><stop offset="0.55" stop-color="#7b90ba" stop-opacity="0.28"/><stop offset="0.85" stop-color="#4072a4" stop-opacity="0.08"/><stop offset="1" stop-color="#2a669b" stop-opacity="0"/></radialGradient><radialGradient id="Gradient_bez_nazwy_43-2" cx="1519.1" cy="862.88" r="49.41" xlink:href="#Gradient_bez_nazwy_43"/><radialGradient id="Gradient_bez_nazwy_43-3" cx="1402.04" cy="862.88" r="49.41" xlink:href="#Gradient_bez_nazwy_43"/><radialGradient id="Gradient_bez_nazwy_43-4" cx="1285.1" cy="862.88" r="49.41" xlink:href="#Gradient_bez_nazwy_43"/><radialGradient id="Gradient_bez_nazwy_43-5" cx="1168.17" cy="862.88" r="49.41" xlink:href="#Gradient_bez_nazwy_43"/><radialGradient id="Gradient_bez_nazwy_32" cx="1494.07" cy="161.89" r="45.74" gradientUnits="userSpaceOnUse"><stop offset="0" stop-color="#ffffb7"/><stop offset="0.05" stop-color="#ffffbf" stop-opacity="0.89"/><stop offset="0.15" stop-color="#ffffce" stop-opacity="0.69"/><stop offset="0.26" stop-color="#ffffdb" stop-opacity="0.5"/><stop offset="0.37" stop-color="#ffffe6" stop-opacity="0.35"/><stop offset="0.48" stop-color="#ffffef" stop-opacity="0.22"/><stop offset="0.6" stop-color="#fffff6" stop-opacity="0.12"/><stop offset="0.72" stop-color="#fffffb" stop-opacity="0.05"/><stop offset="0.85" stop-color="#fffffe" stop-opacity="0.01"/><stop offset="1" stop-color="#fff" stop-opacity="0"/></radialGradient><radialGradient id="Gradient_bez_nazwy_262" cx="1204.34" cy="424.52" r="20.48" xlink:href="#Gradient_bez_nazwy_32"/><radialGradient id="Gradient_bez_nazwy_262-2" cx="136.45" cy="209.35" r="45.74" xlink:href="#Gradient_bez_nazwy_32"/><radialGradient id="Gradient_bez_nazwy_262-3" cx="1645.47" cy="351.72" r="22.47" xlink:href="#Gradient_bez_nazwy_32"/><radialGradient id="Gradient_bez_nazwy_262-4" cx="436.99" cy="175.45" r="22.47" xlink:href="#Gradient_bez_nazwy_32"/><radialGradient id="Gradient_bez_nazwy_262-5" cx="1804.79" cy="548.56" r="22.47" xlink:href="#Gradient_bez_nazwy_32"/><radialGradient id="Gradient_bez_nazwy_262-6" cx="79.36" cy="613.2" r="22.47" xlink:href="#Gradient_bez_nazwy_32"/><radialGradient id="Gradient_bez_nazwy_262-7" cx="1784.45" cy="114.42" r="34.03" xlink:href="#Gradient_bez_nazwy_32"/><radialGradient id="Gradient_bez_nazwy_262-8" cx="459.46" cy="676.48" r="34.03" xlink:href="#Gradient_bez_nazwy_32"/><radialGradient id="Gradient_bez_nazwy_262-9" cx="1081.06" cy="182.47" r="34.03" xlink:href="#Gradient_bez_nazwy_32"/><radialGradient id="Gradient_bez_nazwy_262-10" cx="336.99" cy="468.64" r="34.03" xlink:href="#Gradient_bez_nazwy_32"/><radialGradient id="Gradient_bez_nazwy_15" cx="941.09" cy="464.58" r="453.41" gradientUnits="userSpaceOnUse"><stop offset="0" stop-color="#3d80ea" stop-opacity="0.8"/><stop offset="0.16" stop-color="#3c7ee6" stop-opacity="0.78"/><stop offset="0.31" stop-color="#3876d9" stop-opacity="0.74"/><stop offset="0.45" stop-color="#336ac4" stop-opacity="0.66"/><stop offset="0.59" stop-color="#2b58a6" stop-opacity="0.54"/><stop offset="0.72" stop-color="#204280" stop-opacity="0.4"/><stop offset="0.86" stop-color="#142651" stop-opacity="0.22"/><stop offset="0.99" stop-color="#05061a" stop-opacity="0.02"/><stop offset="1" stop-color="#040416" stop-opacity="0"/></radialGradient><linearGradient id="Gradient_bez_nazwy_29" x1="-172.67" y1="762.01" x2="1233.36" y2="361.97" gradientUnits="userSpaceOnUse"><stop offset="0" stop-color="#3d80ea" stop-opacity="0.4"/><stop offset="0.26" stop-color="#3165bc" stop-opacity="0.31"/><stop offset="0.81" stop-color="#101f44" stop-opacity="0.09"/><stop offset="1" stop-color="#040416" stop-opacity="0"/></linearGradient><linearGradient id="Gradient_bez_nazwy_101" x1="1315.37" y1="587.86" x2="1315.37" y2="587.86" gradientTransform="translate(-36 90.86) rotate(-5.36)" gradientUnits="userSpaceOnUse"><stop offset="0" stop-color="#c72f5e" stop-opacity="0.8"/><stop offset="0.08" stop-color="#cd426c" stop-opacity="0.72"/><stop offset="0.4" stop-color="#e188a0" stop-opacity="0.41"/><stop offset="0.67" stop-color="#f0bcc6" stop-opacity="0.19"/><stop offset="0.88" stop-color="#f9dbdd" stop-opacity="0.05"/><stop offset="1" stop-color="#fce7e6" stop-opacity="0"/></linearGradient><linearGradient id="Gradient_bez_nazwy_101-2" x1="972.95" y1="766.77" x2="972.96" y2="766.77" xlink:href="#Gradient_bez_nazwy_101"/><linearGradient id="Gradient_bez_nazwy_7" x1="1137.44" y1="369.41" x2="374.83" y2="554.54" gradientTransform="translate(-36 90.86) rotate(-5.36)" gradientUnits="userSpaceOnUse"><stop offset="0.05" stop-color="#c72f5e"/><stop offset="0.17" stop-color="#cc406b" stop-opacity="0.91"/><stop offset="0.42" stop-color="#d96d8c" stop-opacity="0.66"/><stop offset="0.77" stop-color="#eeb5c1" stop-opacity="0.27"/><stop offset="1" stop-color="#fce7e6" stop-opacity="0"/></linearGradient><linearGradient id="Gradient_bez_nazwy_110" x1="1315.31" y1="587.86" x2="1315.32" y2="587.86" gradientTransform="translate(-36 90.86) rotate(-5.36)" gradientUnits="userSpaceOnUse"><stop offset="0" stop-color="#3d80ea" stop-opacity="0.8"/><stop offset="0.19" stop-color="#6097ee" stop-opacity="0.61"/><stop offset="0.47" stop-color="#91b7f4" stop-opacity="0.35"/><stop offset="0.71" stop-color="#b4cef8" stop-opacity="0.16"/><stop offset="0.89" stop-color="#caddfb" stop-opacity="0.04"/><stop offset="1" stop-color="#d2e2fc" stop-opacity="0"/></linearGradient><linearGradient id="Gradient_bez_nazwy_110-2" x1="972.9" y1="766.77" x2="972.91" y2="766.77" xlink:href="#Gradient_bez_nazwy_110"/><linearGradient id="Gradient_bez_nazwy_110-3" x1="549.69" y1="503.24" x2="1316.62" y2="336.9" xlink:href="#Gradient_bez_nazwy_110"/></defs><g class="cls-2"><rect class="cls-3" y="1.93" width="1920" height="1078.07"/><path class="cls-4" d="M1420.71,457.29h0a352.63,352.63,0,0,1,352.63,352.63v278.95a0,0,0,0,1,0,0H1068.08a0,0,0,0,1,0,0V809.92A352.63,352.63,0,0,1,1420.71,457.29Z"/><path class="cls-5" d="M1420.71,457.29h0a352.63,352.63,0,0,1,352.63,352.63v278.95a0,0,0,0,1,0,0H1068.08a0,0,0,0,1,0,0V809.92A352.63,352.63,0,0,1,1420.71,457.29Z"/><path class="cls-4" d="M1092.64,1088.87H897.9V853.77a8.24,8.24,0,0,1,2.14-5.5l87.4-97.66a9.59,9.59,0,0,1,14-.05l89,97.69a8.28,8.28,0,0,1,2.19,5.56Z"/><path class="cls-4" d="M813.42,1091.13H382.12V822.53c0-3.12,1.68-6.14,4.73-8.53L580.43,636.56c8.07-6.31,22.87-6.35,31-.09L808.57,814c3.13,2.4,4.85,5.46,4.85,8.62Z"/><path class="cls-6" d="M813.42,1091.13H382.12V822.53c0-3.12,1.68-6.14,4.73-8.53L580.43,636.56c8.07-6.31,22.87-6.35,31-.09L808.57,814c3.13,2.4,4.85,5.46,4.85,8.62Z"/><path class="cls-4" d="M391.55,1088.87H-9.22v-265c0-2.75,1.56-5.43,4.4-7.54L175.06,682.43c7.49-5.58,21.24-5.62,28.82-.08L387,816.28c2.91,2.13,4.51,4.83,4.51,7.62Z"/><path class="cls-4" d="M1943.52,1088.87H1748.78v-275a10.61,10.61,0,0,1,2.14-6.44l87.4-114.23a8.67,8.67,0,0,1,14-.06l89,114.27a10.64,10.64,0,0,1,2.19,6.51Z"/><path class="cls-7" d="M1943.52,1088.87H1748.78v-275a10.61,10.61,0,0,1,2.14-6.44l87.4-114.23a8.67,8.67,0,0,1,14-.06l89,114.27a10.64,10.64,0,0,1,2.19,6.51Z"/><path class="cls-8" d="M1092.87,1088.87H898.13V853.77a8.24,8.24,0,0,1,2.14-5.5l87.4-97.66a9.59,9.59,0,0,1,14-.05l89,97.69a8.28,8.28,0,0,1,2.19,5.56Z"/><path class="cls-9" d="M391.1,1027.3H-9.55V822.15c0-2.38,1.55-4.69,4.4-6.51L174.67,680.12c7.49-4.83,21.24-4.86,28.81-.07L386.59,815.62c2.91,1.84,4.51,4.17,4.51,6.58Z"/><path class="cls-10" d="M168.08,1110.7H-26.66V931.52a5.57,5.57,0,0,1,2.14-4.2l87.4-74.43c3.65-3.1,10.33-3.12,14,0l89,74.46a5.59,5.59,0,0,1,2.19,4.24Z"/><path class="cls-10" d="M358.55,1110.7H163.82V931.52a5.55,5.55,0,0,1,2.13-4.2l87.41-74.43c3.64-3.1,10.32-3.12,14,0l89,74.46a5.56,5.56,0,0,1,2.19,4.24Z"/><path class="cls-10" d="M549.78,1110.7H355V931.52a5.57,5.57,0,0,1,2.14-4.2l87.41-74.43c3.64-3.1,10.32-3.12,14,0l89,74.46a5.59,5.59,0,0,1,2.19,4.24Z"/><path class="cls-11" d="M549.78,1110.52H355V928.91a5.66,5.66,0,0,1,2.14-4.25l87.41-75.44c3.64-3.14,10.32-3.16,14,0l89,75.47a5.69,5.69,0,0,1,2.19,4.3Z"/><path class="cls-12" d="M355,1110.52H160.31V928.91a5.65,5.65,0,0,1,2.13-4.25l87.41-75.44c3.64-3.14,10.32-3.16,14,0l89,75.47A5.66,5.66,0,0,1,355,929Z"/><path class="cls-13" d="M168.08,1110.52H-26.66V928.91a5.66,5.66,0,0,1,2.14-4.25l87.4-75.44c3.65-3.14,10.33-3.16,14,0l89,75.47a5.69,5.69,0,0,1,2.19,4.3Z"/><path class="cls-14" d="M1172.59,788.5h0a31.3,31.3,0,0,1,31.3,31.3V937.94a0,0,0,0,1,0,0h-62.61a0,0,0,0,1,0,0V819.8a31.3,31.3,0,0,1,31.3-31.3Z"/><path class="cls-14" d="M1289.53,788.5h0a31.3,31.3,0,0,1,31.3,31.3V937.94a0,0,0,0,1,0,0h-62.61a0,0,0,0,1,0,0V819.8A31.3,31.3,0,0,1,1289.53,788.5Z"/><path class="cls-14" d="M1406.47,788.5h0a31.3,31.3,0,0,1,31.3,31.3V937.94a0,0,0,0,1,0,0h-62.61a0,0,0,0,1,0,0V819.8a31.3,31.3,0,0,1,31.3-31.3Z"/><path class="cls-14" d="M1523.4,788.5h0a31.3,31.3,0,0,1,31.3,31.3V937.94a0,0,0,0,1,0,0H1492.1a0,0,0,0,1,0,0V819.8A31.3,31.3,0,0,1,1523.4,788.5Z"/><path class="cls-14" d="M1640.34,788.5h0a31.3,31.3,0,0,1,31.3,31.3V937.94a0,0,0,0,1,0,0H1609a0,0,0,0,1,0,0V819.8A31.3,31.3,0,0,1,1640.34,788.5Z"/><path class="cls-15" d="M1639.66,788.5h0a31.3,31.3,0,0,1,31.3,31.3V937.94a0,0,0,0,1,0,0h-62.61a0,0,0,0,1,0,0V819.8a31.3,31.3,0,0,1,31.3-31.3Z"/><path class="cls-16" d="M1523.52,788.5h0a31.3,31.3,0,0,1,31.3,31.3V937.94a0,0,0,0,1,0,0h-62.61a0,0,0,0,1,0,0V819.8A31.3,31.3,0,0,1,1523.52,788.5Z"/><path class="cls-17" d="M1406.47,788.5h0a31.3,31.3,0,0,1,31.3,31.3V937.94a0,0,0,0,1,0,0h-62.61a0,0,0,0,1,0,0V819.8A31.3,31.3,0,0,1,1406.47,788.5Z"/><path class="cls-18" d="M1289.53,788.5h0a31.3,31.3,0,0,1,31.3,31.3V937.94a0,0,0,0,1,0,0h-62.61a0,0,0,0,1,0,0V819.8A31.3,31.3,0,0,1,1289.53,788.5Z"/><path class="cls-19" d="M1172.59,788.5h0a31.3,31.3,0,0,1,31.3,31.3V937.94a0,0,0,0,1,0,0h-62.61a0,0,0,0,1,0,0V819.8a31.3,31.3,0,0,1,31.3-31.3Z"/><path class="cls-20" d="M1203.92,819.8a19.26,19.26,0,0,0-21.09-24.15h0a31.4,31.4,0,0,0-31.31,31.3v111h52.4Z"/><circle class="cls-21" cx="1494.07" cy="161.89" r="45.74"/><circle class="cls-22" cx="1204.34" cy="424.52" r="20.48"/><circle class="cls-23" cx="136.45" cy="209.35" r="45.74"/><circle class="cls-24" cx="1645.47" cy="351.72" r="22.47"/><circle class="cls-25" cx="436.99" cy="175.45" r="22.47"/><circle class="cls-26" cx="1804.79" cy="548.56" r="22.47"/><circle class="cls-27" cx="79.36" cy="613.2" r="22.47"/><circle class="cls-28" cx="1784.45" cy="114.42" r="34.03"/><circle class="cls-29" cx="459.46" cy="676.48" r="34.03"/><circle class="cls-30" cx="1081.06" cy="182.47" r="34.03"/><circle class="cls-31" cx="336.99" cy="468.64" r="34.03"/><ellipse class="cls-32" cx="941.09" cy="464.58" rx="488.68" ry="415.15"/><path class="cls-33" d="M765.6,54.53h0L-37.13,478.88V903.21l1060.09-40c230.54-65.3,363.45-305,303.32-523.75C1262.9,108.93,1004.12-29.4,765.6,54.53Z"/><path class="cls-20" d="M1671.66,819.8a19.26,19.26,0,0,0-21.09-24.15h0a31.4,31.4,0,0,0-31.3,31.3v111h52.39Z"/><path class="cls-20" d="M1554.73,819.8a19.26,19.26,0,0,0-21.09-24.15h0a31.4,31.4,0,0,0-31.31,31.3v111h52.4Z"/><path class="cls-20" d="M1437.79,819.8a19.26,19.26,0,0,0-21.09-24.15h0a31.39,31.39,0,0,0-31.3,31.3v111h52.39Z"/><path class="cls-20" d="M1320.85,819.8a19.26,19.26,0,0,0-21.09-24.15h0a31.4,31.4,0,0,0-31.3,31.3v111h52.39Z"/></g><polygon class="cls-34" points="1328.38 553.25 1328.37 553.25 1328.37 553.25 1328.38 553.25"/><path class="cls-34" d="M1004.18,763.37h0Z"/><path class="cls-34" d="M1339.66,551.8a14,14,0,0,0-9.82,1l-.51.15c-.36.1-.68.2-.94.29h0l-.65.22.65-.22-.23.07c-3.13.87-10.48,2.94-12.61,11.1a32,32,0,0,1-4.54,10,26,26,0,0,1-2.43,3,75.85,75.85,0,0,0,6.28-24,67.35,67.35,0,0,0-.43-16.81l0-.27c-.57-3.61-1.64-10.35-7.15-15.22a15.8,15.8,0,0,0-13.24-3.78,13.7,13.7,0,0,0-2.54.64l-.8.27-1.12.36a20.62,20.62,0,0,0-11-3.26,51.63,51.63,0,0,0-20.53,3.31c-5.77,2.12-11.87,4.6-17.51,9.53-.75.65-1.47,1.33-2.19,2-3.51-.58-6.93-1.24-10.21-2l-.41-.09a22.17,22.17,0,0,0-6.78-.76,23.16,23.16,0,0,0-7.78,2,44.07,44.07,0,0,0-5.5,2.16,21.86,21.86,0,0,0-5.87,4,16.67,16.67,0,0,0-14.84-5.65,15.22,15.22,0,0,0-2.89.57,63.37,63.37,0,0,0-8.46,3.16l-.2.09-.48.25a18,18,0,0,0-6.23,5,20,20,0,0,0-3.69,9.18l0,.33c-1.11,4.8-2.39,9.64-3.82,14.38-1.76,5.85-3.81,11.73-6.12,17.57a111.36,111.36,0,0,0,3.22-11.6c1.37-6.15,4.2-19-4-27.49-2.57-2.68-8.25-7-17.62-5.3a55.44,55.44,0,0,0-11.92,3.87l-1.33.55a50.62,50.62,0,0,0-11,6.33,59.53,59.53,0,0,0-18,21.47,23.67,23.67,0,0,0-11.91-12c-6.92-3.25-15.27-3.49-24.78-.71a79,79,0,0,0-13.23,5,40.84,40.84,0,0,0-8.6,5.77,13.72,13.72,0,0,0-2.73-.73,12.67,12.67,0,0,0-1.36-.11c9.32-29.62,18-61.1,17.26-93.47h0c-.36-17-2.76-36.12-17.86-49.42-10.93-9.62-26.3-14.53-42.17-13.46a60,60,0,0,0-11.53,2,93.36,93.36,0,0,0,25.09-18.74,79.94,79.94,0,0,0,8.5-10.54,13.32,13.32,0,0,0,0,2.19A14,14,0,0,0,1026,397.22h0a77.57,77.57,0,0,0,27.94-7.57c11.64-5.43,18.8-14.77,19.65-25.61.46-5.87-.81-12.3-3.89-19.66a52.29,52.29,0,0,0-8.24-13.4A75.91,75.91,0,0,0,1046,317.13c-7.24-4.94-15.13-9.82-24.12-14.9-6.11-3.46-11.6-1.3-15.6.28a30.84,30.84,0,0,0-5.78,2.64A14.07,14.07,0,0,0,994,318.09c1.28,17.29-3.15,35.24-12.17,49.25-4.18,6.5-10.15,12.35-18.27,17.89l-.2.13q3.27-3.71,6.2-7.64a114.07,114.07,0,0,0,12.1-20.5A111,111,0,0,0,986,346l.27-.79A44.24,44.24,0,0,0,989,333c.4-8.05-2.7-13.14-5.38-16a19.59,19.59,0,0,0-14.2-6c-6.23-.08-11.6,2-15.52,3.5l-1.44.55c-12.23,4.58-22.18,11.67-29.56,21.07a54.2,54.2,0,0,0-7.18,12.18,24.15,24.15,0,0,0-5.56-10.55c-5.69-6.1-13.35-7.49-22.77-4.15-1.51.48-2.65.86-3.42,1.13a19.28,19.28,0,0,0-2.92,1.32,59.23,59.23,0,0,0-5.56,2.67A65.5,65.5,0,0,0,863,347.82a14,14,0,0,0-7.42,1.45l-.29.08c-.41.11-.78.22-1.08.32l-.24.07c-2.38.64-7.4,2-10.57,6.59a23,23,0,0,0-6.39-4.15,35,35,0,0,0-13.35-2.49,59.51,59.51,0,0,0-11.85.77,68.9,68.9,0,0,0-12.53,3.62,14.07,14.07,0,0,0-15.06-1.67c-.78.22-1.52.44-2,.63l-.37.12a21.3,21.3,0,0,0-6.4,2.92,67.22,67.22,0,0,0-22.32,25.63c-.4-5.92-2.45-15.48-12.89-19.67-7-2.82-13.9-1.52-18.45-.3-1.39.37-2.74.78-4.07,1.22l2.75-7.84c7.94-3.3,15.44-6.51,22.76-9.76,11.68-5.17,23.33-10.6,34.66-16.12,12.19-5.94,24.09-11.83,35.61-18.56,8.74-5.1,21.56-13.2,32-24.57A92.89,92.89,0,0,0,864,255.7c6.22-16.48,7.45-32.62,3.56-46.67-4.14-15-14.66-28-29.62-36.73-8-4.65-17-8.18-29.2-11.45a127.84,127.84,0,0,0-19.26-3.6q3.32-9.66,6.6-19.34,2.63-7.72,5.24-15.45a.06.06,0,0,0,0,0,14,14,0,0,0-19.59-17.06l-.35.1-1,.31-.23.07c-2.95.8-9.85,2.69-12.37,10.17q-7.12,21-14.33,42.07c-14.56,2.15-30.06,6.51-48,13.44-19.74,7.64-39.89,18.5-59.91,32.28a403.75,403.75,0,0,0-48.87,39.79c-13.53,12.86-24,24.23-33,35.8a108.67,108.67,0,0,0-9.25,13.48,35.21,35.21,0,0,0-2.33,29.18c2.73,7.59,8.63,14,17.06,18.47,6.51,3.48,12.47.72,15.33-.6l.27-.12-.59.24c.35-.13,1.07-.44,2-.86a14.05,14.05,0,0,0,3.25-26h0c-2.63-1.4-3.69-2.74-3.87-3.24a8.54,8.54,0,0,1-.24-4.65,26.83,26.83,0,0,1,2.7-4.5l.27-.4c7-10.28,15.76-19.8,23.45-27.76a383.43,383.43,0,0,1,39.88-35.83,324.62,324.62,0,0,1,40.28-27L628.16,381.18,625.65,388c-2.82,7.72-5.49,15-8.54,22.2-5.69,13.47-13.11,28.4-25,37a33.14,33.14,0,0,1-3.65,2.3,36.08,36.08,0,0,1,3.25-5.34h0A14.05,14.05,0,0,0,574,423.3c-.45.12-1,.26-1.49.44l-.12,0c-2.29.59-7,1.82-10.37,6.38-11.49,15.76-13.27,30.92-4.9,41.58,6.51,8.29,15.3,10,23.43,9.2,7.18-.67,13.84-3.25,17.93-4.83l1.52-.59a69.08,69.08,0,0,0,26.22-17.67c6.39-6.86,12.12-15.31,17.52-25.83a256.76,256.76,0,0,0,11.73-27.43L666,376.22q6.48-2.34,12.86-4.72L655.5,438.1c-.09.25-.2.5-.3.76a31.32,31.32,0,0,0-1.54,4.51c-.14.43-.28.92-.4,1.46A14.05,14.05,0,0,0,671.87,461l2.49-.93.32-.1.2-.05c2.84-.77,9.49-2.56,12.2-9.66,6-15.6,13.57-33.55,24.6-48.46a47.48,47.48,0,0,1,5.88-6.75c-.7,5.08-1.94,10.25-3.23,15.66-.49,2-1,4.08-1.45,6.14-3.13,13.78-1.22,24.63,5.68,32.25,5.87,6.48,14.94,8.55,24.86,5.66a75.81,75.81,0,0,0,15.07-6,13.83,13.83,0,0,0-3.65,6.18l-9.7,33.7c-3.9,1.54-8,3.32-12.17,5.42a14.11,14.11,0,0,0-6.84,17.57,14.08,14.08,0,0,0-9.2-6.5,39.61,39.61,0,0,0,9.63-9.14,38.18,38.18,0,0,0,7.26-17.27,15.36,15.36,0,0,0-2.8-12.81,15.05,15.05,0,0,0-9.4-5.25,25.78,25.78,0,0,0-7.15-.39,34.21,34.21,0,0,0-9.2,2.3l-.54.2c-5.37,2-12.06,4.41-17.63,10.89-4.67,5.42-7.19,11.57-9.22,17.4-.3.85-.6,1.71-.89,2.58-5.58-2.61-12.8-3-20.6-.66l-2.73.84a14,14,0,0,0-11,.63c-.7.2-1.37.4-1.95.6l-.29.09a20.46,20.46,0,0,0-7,3.31c-10.28,7.82-16.26,19.08-16.43,30.87-.17,12.24,4.81,19.34,9,23.14A28.17,28.17,0,0,0,649.14,559a36,36,0,0,0,6.93-1.91c1.24-.44,3.69-1.36,5.16-2l1-.42q-.6,4-1.13,8.05h0a14,14,0,0,0,12.13,15.74,13.68,13.68,0,0,0,3.13,0,14,14,0,0,0,4.84-1.36l.85-.26.79-.25.26-.08c3.19-1,11.66-3.46,12.84-12.82,1.14-8.86,2.66-17.76,4.52-26.58,3.07-.68,6.15-1.3,9.2-1.86a27.62,27.62,0,0,0,7-2.4l.68-.32a13.93,13.93,0,0,0,9.89-18.75,14,14,0,0,0,8.79,6.47l-3.58,12.46a14,14,0,0,0,19.77,16.45l.45-.13c.37-.1.7-.21,1-.29l.24-.07c2.25-.63,6.71-1.88,9.83-5.62a14,14,0,0,0,5.57.61,13.66,13.66,0,0,0,3.58-.82l2.49-.92.31-.1.21-.06c2.91-.79,9.73-2.64,12.32-10l1-2.67a19.7,19.7,0,0,0,3.41,4.9,18,18,0,0,0,13.34,5.63,30.66,30.66,0,0,0,11.82-3c.44-.19.87-.37,1.29-.53s.85-.33,1.25-.51h0a45.93,45.93,0,0,0,5.22-2.5,25.06,25.06,0,0,0,13,.85,45.18,45.18,0,0,0,7.1-2.08,36.92,36.92,0,0,0,4.78-1.84,46.72,46.72,0,0,0,12.53-7,285.88,285.88,0,0,0-14.78,87c-.14,11.59.25,26.82,4.52,41.93,4.63,16.41,12.7,28.77,24,36.74C887.07,696.19,900,699.35,914,698a74.52,74.52,0,0,0,13.69-2.64A119.93,119.93,0,0,0,968,675.27a137.29,137.29,0,0,0,28.4-30.53c1.45-2.09,2.83-4.22,4.17-6.35L982.5,749a14,14,0,0,0,15.18,16.24,13.88,13.88,0,0,0,3.57-.81l2.46-.91.45-.15h0l.34-.12.24-.09-.58.2.2-.05c3.07-.9,11.24-3.27,12.78-12.21,6.28-35.68,12.11-65,18.37-92.12,4.11-17.86,8.77-38.11,15.53-56.5,2.27-6.18,5.57-13.81,10.91-18l0,0,.35,0a40.31,40.31,0,0,1-.51,7.8c-.6,4.36-1.58,8.82-2.62,13.53-1,4.42-2,9-2.71,13.77-.85,5.45-2.6,16.79,4.47,24.86a18.88,18.88,0,0,0,14.86,6.37,30.76,30.76,0,0,0,10.56-2.42l.12,0a30.79,30.79,0,0,0,5.27-2c2.36-.93,4.27-1.75,6.1-2.62a148.49,148.49,0,0,0,14.75-7.94,32.21,32.21,0,0,0,24.12,2.21,73,73,0,0,0,43.73-33.43,15,15,0,0,0,2-3.13c.06-.15.13-.3.2-.44q1.86,8,3.94,16.15a14.05,14.05,0,0,0,18.5,9.67l2.07-.77c4.46-1.31,13.57-4,14-14.35.23-5.25.55-11.46,1-18.08a37,37,0,0,0,8.61,15.94c13.66,14.41,32.14,7.36,41,4a60.34,60.34,0,0,0,11.38-5.79c7.19,4.37,15.91,5.18,24.75,2.26l1.65-.56a26.33,26.33,0,0,0,5.9-2.14,65.75,65.75,0,0,0,10.09-4.83c9.42-5.64,16.84-14.56,21.45-25.78a61.24,61.24,0,0,0,2.57-7.64v0h0A14,14,0,0,0,1339.66,551.8ZM682.88,576.66l.61-.21ZM1325,556.78c-.27.36-.53.73-.77,1.11A12.83,12.83,0,0,1,1325,556.78Zm-.89,1.32c-.2.33-.39.65-.56,1C1323.71,558.75,1323.89,558.42,1324.09,558.1Zm-.77,1.47c-.12.27-.25.53-.35.81C1323.07,560.1,1323.2,559.84,1323.32,559.57Zm-58.18,16.21q.52,3.4,1.31,6.54a38.8,38.8,0,0,1-5.71,4.59c-.35.23-.7.45-1,.65a7.5,7.5,0,0,1-1.43,0,8.75,8.75,0,0,1-1.52-2.94c-2.4-7.11-2-16.41.94-24.68,2.44-.72,4.78-1.55,7-2.37A71.48,71.48,0,0,0,1265.14,575.78ZM1093,612c.1.27.2.54.31.8l-.57.4C1092.87,612.82,1093,612.42,1093,612ZM862.73,492.42c1.62-4.09,4.44-12.64-.72-20.19a16.87,16.87,0,0,0-14.55-7.2,27,27,0,0,0-8.5,1.68,35.13,35.13,0,0,0-7,2.56c-.9.36-1.79.74-2.68,1.15a39.08,39.08,0,0,0-10.2,6.8,17.55,17.55,0,0,0-3.45-2.41,18.6,18.6,0,0,0-8-2.19l4.94-15A14,14,0,0,0,809,443.11a53.61,53.61,0,0,0,7.81-3.95A63.9,63.9,0,0,0,832.4,425a13.84,13.84,0,0,0,2.68,2.67,14,14,0,0,0,13.38,2l2.38-.88.48-.16.18-.05c3.09-.86,10.31-2.87,12.55-10.87,3.93-14,9-31.93,18.59-44.81,0,.16,0,.32,0,.47-.19,2-.64,4.35-1.12,6.8a77.16,77.16,0,0,0-1.72,12.33A27.27,27.27,0,0,0,891.9,416c10.9,7.08,22.39,2.9,28.77.53.63-.22,1.48-.52,2.45-1v0c1.74-.67,3.79-1.51,6-2.6a33.45,33.45,0,0,0,19.83,6.58,39.5,39.5,0,0,0,9.28-1.14c-.72.36-1.43.72-2.12,1.1-8.74-.14-16.27,2.39-23.28,5.05a66.72,66.72,0,0,0-20.91,12.75c-12.73,11.37-21.21,25.7-28.16,38.24q-6.36,11.46-11.61,23.45a14,14,0,0,0-9.4-6.62Zm7.32,5.46a14,14,0,0,0-5-4,14.15,14.15,0,0,0-2.57-.94v0A14,14,0,0,1,870.05,497.88Zm62.77,165c-1.2.67-2.39,1.29-3.52,1.84-.71.35-1.42.68-2.1,1l-.05,0-.39.11q-1,.3-2,.54c-1.37.34-2.75.62-4.08.83a32.33,32.33,0,0,1-13.75-.55c-8.94-2.54-14-10.07-16.24-14.34-3.78-7.24-6.09-16.31-7.07-27.74a208.79,208.79,0,0,1,.62-37.36,257.7,257.7,0,0,1,19.51-77q3.81-9,8.31-17.61c1.3,8.15,5.44,14.82,11.92,18.89,11.94,7.51,25,2.76,31.35.47,6.88-2.49,14.84-5.62,22.13-11.14A63.9,63.9,0,0,0,994.15,482v0a14.05,14.05,0,0,0-18.48-19.61c-.92.25-1.66.49-2,.63l-2.17.81a14.59,14.59,0,0,0-8.58,6.62,36,36,0,0,1-14.82,14l-.06,0c-.5.13-1,.24-1.34.3h0a19.44,19.44,0,0,1,.62-4.77c1-4.31,3.35-8.83,5.68-13.07a78.91,78.91,0,0,1,9.19-13.4,55.17,55.17,0,0,1,10.94-9.89,44.16,44.16,0,0,1,5.2-3c.77-.18,1.56-.34,2.37-.47,7.81-1.29,15.78.08,21.86,3.8a20.58,20.58,0,0,1,6.79,6.54c2.05,3.29,3.34,7.71,4.05,13.92,3.19,27.88-3.94,57.21-12.12,84.75-7.77,26.18-15.17,47.69-26,67.59C963.51,638.26,949.25,653.77,932.82,662.89ZM852,428.4a6.08,6.08,0,0,1-.58.2Zm-56.35-39.94c.49-.13,1.1-.3,1.76-.54l.21-.05a19,19,0,0,0,8.12-4.14,24.85,24.85,0,0,1,4.15-3,23.14,23.14,0,0,1,3.76-.34h.45c.66,0,1.52,0,2.35,0a32.7,32.7,0,0,1-1.17,6.69,60.91,60.91,0,0,1-6.74,15.83,49,49,0,0,1-10.7,13,25.15,25.15,0,0,1-2.91,2h-.21c-3.26.13-7.51-.72-9.66-3.47-2.41-3.07-2.66-8.36-2.45-12.26a29.16,29.16,0,0,1,3.74-12.53A14,14,0,0,0,795.61,388.46Zm226-18.87a13.9,13.9,0,0,0-4.51,2.05q2.21-4.33,4.12-9.11a112.68,112.68,0,0,0,5.33-17c1.2,1,2.3,1.92,3.33,2.89a27.53,27.53,0,0,1,7.34,10.52c1.19,3.4,1.39,4.81,1.38,5.36a1.6,1.6,0,0,1-.26.33,8.07,8.07,0,0,1-1.8,1.32l-.4.08a39,39,0,0,1-5,.58,20.23,20.23,0,0,0-7.4,2.05l-.3.13C1022.77,369.05,1022.13,369.35,1021.63,369.59ZM854.18,349.68c-.31.09-.54.18-.7.23A7.18,7.18,0,0,1,854.18,349.68ZM743.94,288.31q7.23-20.42,14.41-40.85c6.34-18.13,13-37.28,20.65-59.61a113.54,113.54,0,0,1,26,5.94c9.38,3.33,16.33,7.44,21.25,12.57,6.28,6.54,9.25,15.77,8.36,26-1.45,16.64-10.23,32.78-24.08,44.28-8.89,7.36-19.26,13.22-29.16,18.46C772.11,300,762,305,749.43,311q-8,3.79-16.15,7.5Q738.59,303.38,743.94,288.31Zm-17.41-75.09a14.06,14.06,0,0,0-6.3-17.15l.43-.17c1-.31,1.91-.64,2.87-1,1.19-.41,2.39-.82,3.6-1.19a155.63,155.63,0,0,1,15.43-4c-4.74,13.74-9.25,26.77-13.66,39.41-7.5,21.52-15.23,43.38-22.72,64.52l-6.73,19q-3.78,10.72-7.53,21.46l-.8,2.3c-4.12,1.66-8.19,3.26-12.17,4.81Zm53.82-107.44-.69.23C779.81,106,780.05,105.87,780.35,105.78ZM674.72,459.94l.65-.22C675.21,459.78,675,459.86,674.72,459.94Zm78.93,88.86.65-.22A6.77,6.77,0,0,1,753.65,548.8Zm117.73-48.9c.07.13.15.25.21.38h0C871.52,500.16,871.45,500,871.38,499.9Zm-.9-1.45q.22.32.42.63Q870.71,498.77,870.48,498.45Z"/><g class="cls-35"><polygon class="cls-36" points="1328.56 553.23 1328.55 553.23 1328.55 553.23 1328.56 553.23"/><path class="cls-37" d="M1004.35,763.35h0Z"/><path class="cls-38" d="M1339.84,551.78a14,14,0,0,0-9.82,1l-.52.15-.94.29h0l-.65.22.65-.22-.23.07c-3.13.88-10.48,2.94-12.61,11.11a32.05,32.05,0,0,1-4.54,10,25.21,25.21,0,0,1-2.43,3,76.05,76.05,0,0,0,6.28-24,67.83,67.83,0,0,0-.43-16.81l0-.26c-.58-3.62-1.65-10.36-7.15-15.23a15.78,15.78,0,0,0-13.25-3.77,14.62,14.62,0,0,0-2.53.63l-.8.27c-.36.13-.73.24-1.12.36a20.53,20.53,0,0,0-11-3.25,51.52,51.52,0,0,0-20.54,3.3c-5.76,2.12-11.86,4.6-17.51,9.53-.74.65-1.47,1.33-2.18,2-3.51-.58-6.93-1.24-10.21-2l-.41-.1a22.22,22.22,0,0,0-6.78-.76,23.59,23.59,0,0,0-7.78,2,44.07,44.07,0,0,0-5.5,2.16,22.09,22.09,0,0,0-5.87,4,16.7,16.7,0,0,0-14.84-5.65,14.51,14.51,0,0,0-2.89.58,63.14,63.14,0,0,0-8.46,3.15l-.2.1-.48.24a18,18,0,0,0-6.23,5,20,20,0,0,0-3.69,9.17l-.05.33c-1.11,4.8-2.39,9.64-3.82,14.39-1.77,5.85-3.81,11.72-6.12,17.56a111.36,111.36,0,0,0,3.22-11.6c1.36-6.15,4.2-19-4-27.48-2.57-2.68-8.26-7-17.62-5.3a56,56,0,0,0-11.92,3.86l-1.33.55a50.26,50.26,0,0,0-11,6.34,59.5,59.5,0,0,0-18,21.46,23.79,23.79,0,0,0-11.91-12c-6.92-3.25-15.27-3.48-24.78-.71a79,79,0,0,0-13.23,5,41.16,41.16,0,0,0-8.61,5.77,14.13,14.13,0,0,0-2.72-.73c-.46-.07-.91-.08-1.37-.11,9.33-29.62,18-61.1,17.27-93.47h0c-.36-17-2.76-36.12-17.86-49.41-10.93-9.63-26.3-14.53-42.17-13.47a60.62,60.62,0,0,0-11.53,2,93.53,93.53,0,0,0,25.09-18.73,82.11,82.11,0,0,0,8.5-10.54,13.29,13.29,0,0,0,0,2.19,14,14,0,0,0,14.87,13.16h0a77.8,77.8,0,0,0,27.94-7.58c11.64-5.43,18.8-14.76,19.65-25.61.46-5.87-.81-12.3-3.89-19.65a52.12,52.12,0,0,0-8.24-13.4,75.66,75.66,0,0,0-15.47-13.86c-7.24-4.94-15.13-9.81-24.13-14.9-6.1-3.46-11.59-1.29-15.59.28a31.65,31.65,0,0,0-5.78,2.64,14.09,14.09,0,0,0-6.53,12.94c1.29,17.29-3.14,35.24-12.16,49.26-4.18,6.49-10.16,12.34-18.28,17.88l-.19.14q3.27-3.72,6.2-7.65a113.72,113.72,0,0,0,12.1-20.5,115,115,0,0,0,4.4-11.19l.27-.79A44.25,44.25,0,0,0,989.21,333c.4-8-2.7-13.14-5.38-16a19.56,19.56,0,0,0-14.21-6c-6.22-.09-11.59,2-15.51,3.49l-1.44.56c-12.24,4.57-22.18,11.66-29.56,21.07a54,54,0,0,0-7.18,12.18,24.18,24.18,0,0,0-5.56-10.56c-5.69-6.1-13.35-7.49-22.77-4.14-1.51.47-2.65.85-3.42,1.13a20.32,20.32,0,0,0-2.92,1.31,58.05,58.05,0,0,0-5.56,2.67,65.5,65.5,0,0,0-12.53,9.09,14.06,14.06,0,0,0-7.42,1.45l-.29.08-1.08.32-.24.07c-2.38.65-7.4,2-10.57,6.59a22.74,22.74,0,0,0-6.39-4.14,34.58,34.58,0,0,0-13.35-2.49,58.64,58.64,0,0,0-11.85.76,68.18,68.18,0,0,0-12.53,3.63,14.07,14.07,0,0,0-15.06-1.68c-.78.22-1.52.45-2,.64l-.38.11a21.38,21.38,0,0,0-6.39,2.92,67.29,67.29,0,0,0-22.32,25.63c-.4-5.92-2.46-15.48-12.89-19.66-7-2.83-13.91-1.53-18.45-.31-1.39.37-2.74.79-4.07,1.23l2.75-7.84c7.94-3.3,15.44-6.52,22.76-9.77C755,340.17,766.7,334.75,778,329.23c12.19-6,24.09-11.84,35.61-18.57,8.74-5.1,21.56-13.19,32.05-24.56a93.11,93.11,0,0,0,18.51-30.42c6.22-16.48,7.45-32.62,3.56-46.67-4.14-15-14.66-28-29.62-36.73-8-4.64-17-8.18-29.2-11.45a127.84,127.84,0,0,0-19.26-3.6q3.32-9.66,6.6-19.34,2.63-7.72,5.24-15.45s0,0,0,0a14,14,0,0,0-19.59-17.06l-.35.1-1,.31-.24.07c-2.94.8-9.84,2.69-12.36,10.17q-7.12,21-14.33,42.07c-14.57,2.16-30.06,6.51-48,13.45-19.74,7.63-39.9,18.49-59.91,32.27a404.8,404.8,0,0,0-48.87,39.8c-13.53,12.85-24,24.22-33,35.79a109.11,109.11,0,0,0-9.24,13.49A35.21,35.21,0,0,0,552.29,322c2.73,7.58,8.63,14,17.06,18.47,6.51,3.47,12.47.72,15.33-.6l.27-.13c-.26.12-.47.19-.59.24.35-.13,1.07-.43,1.95-.86a14,14,0,0,0,3.24-26h0c-2.62-1.41-3.68-2.74-3.87-3.25a8.62,8.62,0,0,1-.23-4.65,26.81,26.81,0,0,1,2.7-4.49l.27-.4c7-10.29,15.76-19.81,23.45-27.77a383.43,383.43,0,0,1,39.88-35.83,323.39,323.39,0,0,1,40.28-27L628.34,381.17c-.84,2.26-1.68,4.54-2.51,6.81-2.83,7.71-5.5,15-8.54,22.19-5.69,13.47-13.12,28.4-25,37a34.81,34.81,0,0,1-3.65,2.31,35.29,35.29,0,0,1,3.25-5.35h0a14.05,14.05,0,0,0-17.69-20.82c-.45.12-.95.26-1.49.44l-.13,0c-2.28.59-7,1.83-10.37,6.39-11.48,15.76-13.27,30.91-4.89,41.58,6.5,8.29,15.3,10,23.42,9.19,7.19-.67,13.85-3.25,17.93-4.83l1.53-.58a69.08,69.08,0,0,0,26.21-17.67c6.4-6.86,12.13-15.32,17.53-25.84a256.68,256.68,0,0,0,11.73-27.42l10.54-28.37q6.47-2.34,12.86-4.72l-23.35,66.61c-.09.24-.2.5-.3.76a30.71,30.71,0,0,0-1.54,4.5,15.19,15.19,0,0,0-.4,1.47A14,14,0,0,0,672,461l2.5-.93.32-.1.2-.05c2.84-.77,9.49-2.56,12.2-9.66,6-15.59,13.57-33.55,24.6-48.45a48.26,48.26,0,0,1,5.87-6.76c-.69,5.08-1.93,10.25-3.23,15.66-.49,2-1,4.09-1.44,6.14-3.13,13.79-1.22,24.64,5.67,32.25,5.88,6.49,14.94,8.55,24.87,5.66a75.81,75.81,0,0,0,15.07-6,13.83,13.83,0,0,0-3.65,6.18l-9.7,33.71c-3.9,1.54-8,3.32-12.17,5.41a14.11,14.11,0,0,0-6.84,17.58,14,14,0,0,0-9.2-6.5,39.47,39.47,0,0,0,9.63-9.15A38.29,38.29,0,0,0,734,478.71a15.34,15.34,0,0,0-2.8-12.8,15,15,0,0,0-9.4-5.25,25.78,25.78,0,0,0-7.15-.4,34.59,34.59,0,0,0-9.2,2.3l-.54.2c-5.37,2-12.06,4.41-17.63,10.89-4.67,5.42-7.19,11.57-9.22,17.4-.3.86-.6,1.72-.89,2.58-5.58-2.61-12.8-3-20.6-.66q-1.37.4-2.73.84a14.11,14.11,0,0,0-11,.63c-.71.2-1.37.4-2,.61l-.29.08a20.49,20.49,0,0,0-7,3.31c-10.27,7.83-16.26,19.08-16.42,30.88-.17,12.23,4.81,19.33,9,23.13A28.17,28.17,0,0,0,649.32,559a36,36,0,0,0,6.93-1.91c1.24-.43,3.69-1.36,5.16-2l1-.43c-.4,2.68-.78,5.37-1.13,8.05v0h0a14,14,0,0,0,12.13,15.73,14.28,14.28,0,0,0,3.13.06,14,14,0,0,0,4.84-1.37l.85-.26.79-.25.26-.08c3.19-.94,11.66-3.45,12.83-12.82,1.15-8.85,2.67-17.76,4.53-26.58,3.07-.67,6.15-1.29,9.2-1.85a27.57,27.57,0,0,0,7-2.41l.68-.32a13.92,13.92,0,0,0,9.89-18.74,14,14,0,0,0,8.79,6.47l-3.58,12.45a14,14,0,0,0,19.76,16.46l.46-.13,1-.3.24-.07c2.25-.62,6.71-1.88,9.83-5.62a14,14,0,0,0,5.57.61,14.15,14.15,0,0,0,3.58-.81l2.49-.93.31-.1.21,0c2.91-.8,9.73-2.65,12.32-10,.31-.86.62-1.75,1-2.66a20.07,20.07,0,0,0,3.41,4.9,18,18,0,0,0,13.34,5.62,30.66,30.66,0,0,0,11.82-3l1.28-.53q.66-.24,1.26-.51h0a45.89,45.89,0,0,0,5.22-2.51,24.93,24.93,0,0,0,13,.85,44,44,0,0,0,7.11-2.08,37.49,37.49,0,0,0,4.78-1.84,52.37,52.37,0,0,0,7.6-3.64A48.13,48.13,0,0,0,863,523a286.59,286.59,0,0,0-10.31,40.31,283.14,283.14,0,0,0-4.47,46.72c-.14,11.59.25,26.82,4.52,41.93,4.63,16.41,12.7,28.77,24,36.74,10.51,7.44,23.47,10.59,37.44,9.28a74.26,74.26,0,0,0,13.68-2.64,119.89,119.89,0,0,0,40.29-20.13,136.82,136.82,0,0,0,28.39-30.53c1.45-2.09,2.83-4.22,4.18-6.35L982.68,749a14.05,14.05,0,0,0,15.18,16.25,14.43,14.43,0,0,0,3.57-.82l2.45-.91.46-.14h0l.35-.12.24-.08-.59.2.21-.06c3.07-.89,11.24-3.26,12.78-12.2,6.28-35.68,12.11-65,18.37-92.12,4.11-17.87,8.77-38.12,15.53-56.5,2.27-6.19,5.56-13.82,10.9-18l0,0,.36,0a39.77,39.77,0,0,1-.52,7.8c-.59,4.37-1.57,8.82-2.61,13.53-1,4.43-2,9-2.72,13.78-.84,5.45-2.59,16.78,4.48,24.85a18.81,18.81,0,0,0,14.86,6.37,30.78,30.78,0,0,0,10.56-2.41l.12,0a30.79,30.79,0,0,0,5.27-2c2.36-.93,4.27-1.75,6.09-2.62a143.49,143.49,0,0,0,14.76-7.94,32.16,32.16,0,0,0,24.12,2.21,72.92,72.92,0,0,0,43.72-33.43,14.17,14.17,0,0,0,2-3.13c.06-.15.13-.29.2-.44,1.24,5.35,2.55,10.75,3.94,16.15a14.07,14.07,0,0,0,18.5,9.68l2.07-.77c4.46-1.31,13.56-4.05,14-14.36.24-5.25.56-11.46,1-18.08a36.89,36.89,0,0,0,8.61,15.94c13.66,14.42,32.14,7.36,41,4a59.75,59.75,0,0,0,11.38-5.79c7.19,4.37,15.91,5.18,24.75,2.26l1.65-.56a25.85,25.85,0,0,0,5.9-2.14,65.75,65.75,0,0,0,10.09-4.83c9.42-5.64,16.84-14.56,21.45-25.78a61.24,61.24,0,0,0,2.57-7.64v0A14,14,0,0,0,1339.84,551.78ZM683.06,576.64l.6-.21Zm642.1-19.87q-.4.53-.78,1.11C1324.63,557.49,1324.89,557.11,1325.16,556.77Zm-.9,1.32c-.19.32-.38.65-.55,1C1323.88,558.73,1324.07,558.41,1324.26,558.09Zm-.76,1.46c-.12.27-.25.54-.35.81C1323.25,560.08,1323.38,559.82,1323.5,559.55Zm-58.18,16.21c.35,2.27.79,4.46,1.31,6.55a39.39,39.39,0,0,1-5.71,4.58q-.53.35-1.05.66a6.73,6.73,0,0,1-1.43,0,8.58,8.58,0,0,1-1.52-2.93c-2.4-7.12-2-16.42.94-24.69,2.44-.72,4.78-1.54,7-2.37A71.48,71.48,0,0,0,1265.32,575.76ZM1093.22,612c.1.27.2.54.31.81l-.57.39C1093,612.81,1093.13,612.4,1093.22,612ZM862.91,492.41c1.62-4.09,4.44-12.65-.73-20.19A16.85,16.85,0,0,0,847.64,465a27.62,27.62,0,0,0-8.5,1.68,36.44,36.44,0,0,0-7,2.56c-.9.37-1.79.74-2.68,1.15a38.86,38.86,0,0,0-10.2,6.81,17.59,17.59,0,0,0-3.45-2.42,18.88,18.88,0,0,0-8-2.19l4.94-15a14.05,14.05,0,0,0-3.59-14.47,51.67,51.67,0,0,0,7.81-3.95A64.08,64.08,0,0,0,832.58,425a13.88,13.88,0,0,0,2.68,2.68,14.07,14.07,0,0,0,13.38,2l2.38-.89.48-.15.18-.05c3.08-.86,10.31-2.88,12.55-10.87,3.93-14,8.95-31.93,18.59-44.81,0,.15,0,.31-.05.47-.19,2-.64,4.34-1.13,6.79a78.37,78.37,0,0,0-1.71,12.33A27.28,27.28,0,0,0,892.08,416c10.89,7.07,22.39,2.89,28.77.52a25.3,25.3,0,0,0,2.45-1v0c1.73-.67,3.79-1.51,6-2.6a33.39,33.39,0,0,0,19.83,6.59,40,40,0,0,0,9.28-1.15c-.72.36-1.43.72-2.12,1.1-8.74-.14-16.27,2.4-23.28,5.05a67.06,67.06,0,0,0-20.92,12.75c-12.73,11.37-21.2,25.7-28.15,38.24Q877.56,487,872.31,499a13.73,13.73,0,0,0-3.62-4A14,14,0,0,0,862.91,492.41Zm7.32,5.46a14,14,0,0,0-5-4,13.49,13.49,0,0,0-2.58-.93l0,0A14,14,0,0,1,870.23,497.87Zm62.77,165c-1.2.68-2.39,1.3-3.52,1.85-.71.34-1.42.68-2.1,1l0,0-.39.1c-.67.2-1.34.38-2,.55-1.37.34-2.75.61-4.08.82a32.17,32.17,0,0,1-13.75-.55c-8.94-2.53-14-10.07-16.24-14.34-3.78-7.24-6.09-16.31-7.07-27.73a208.9,208.9,0,0,1,.62-37.37,257.34,257.34,0,0,1,19.51-77q3.81-9,8.31-17.62c1.3,8.16,5.44,14.82,11.92,18.9,11.94,7.5,25.05,2.75,31.35.47,6.88-2.5,14.84-5.62,22.13-11.15A63.73,63.73,0,0,0,994.32,482v0a14,14,0,0,0-18.47-19.6c-.92.24-1.66.48-2,.62l-2.16.81a14.63,14.63,0,0,0-8.58,6.62,35.76,35.76,0,0,1-9,10.33,36.46,36.46,0,0,1-5.81,3.68l-.06,0c-.5.13-1,.24-1.34.3h0a19,19,0,0,1,.62-4.78c1-4.31,3.34-8.83,5.68-13.07a78.91,78.91,0,0,1,9.19-13.4,55.48,55.48,0,0,1,10.94-9.89,42.73,42.73,0,0,1,5.2-3q1.15-.28,2.37-.48a32.38,32.38,0,0,1,21.86,3.8,20.65,20.65,0,0,1,6.78,6.54c2.06,3.29,3.35,7.72,4.06,13.93,3.19,27.87-3.94,57.2-12.12,84.74-7.78,26.18-15.18,47.69-26,67.59C963.69,638.24,949.43,653.76,933,662.87ZM852.14,428.39l-.58.2Zm-56.35-39.95c.49-.13,1.1-.3,1.76-.53l.21-.06a19.1,19.1,0,0,0,8.12-4.13,24,24,0,0,1,4.15-3,23.18,23.18,0,0,1,3.76-.33h.45c.66,0,1.52,0,2.35,0a32.74,32.74,0,0,1-1.17,6.68,60.77,60.77,0,0,1-6.74,15.83,49.19,49.19,0,0,1-10.7,13,24,24,0,0,1-2.91,2h-.21c-3.26.13-7.51-.71-9.66-3.46-2.41-3.08-2.67-8.37-2.45-12.27a29,29,0,0,1,3.74-12.52A14.1,14.1,0,0,0,795.79,388.44Zm226-18.87a14.11,14.11,0,0,0-4.51,2.05c1.47-2.88,2.83-5.92,4.12-9.11a114.07,114.07,0,0,0,5.33-17c1.2,1,2.3,1.91,3.33,2.89a27.54,27.54,0,0,1,7.34,10.51c1.19,3.41,1.39,4.81,1.38,5.37a2.66,2.66,0,0,1-.26.33,8.65,8.65,0,0,1-1.8,1.31l-.4.08a41,41,0,0,1-4.95.59,20.46,20.46,0,0,0-7.4,2l-.3.13C1023,369,1022.31,369.33,1021.81,369.57ZM854.36,349.66l-.7.24C853.82,349.84,854.06,349.75,854.36,349.66ZM744.12,288.3q7.23-20.42,14.41-40.86c6.34-18.13,13-37.28,20.65-59.61a114.07,114.07,0,0,1,26,5.94c9.37,3.33,16.33,7.44,21.25,12.57,6.28,6.54,9.25,15.78,8.36,26-1.45,16.64-10.23,32.77-24.09,44.27-8.88,7.37-19.26,13.23-29.15,18.46C772.29,300,762.15,305,749.61,311q-8,3.8-16.15,7.5Q738.77,303.36,744.12,288.3Zm-17.41-75.1a14.07,14.07,0,0,0-6.3-17.15l.43-.17c1-.31,1.91-.63,2.87-1,1.19-.41,2.39-.82,3.59-1.19a157,157,0,0,1,15.43-4c-4.73,13.74-9.24,26.76-13.65,39.4-7.5,21.52-15.24,43.38-22.72,64.52l-6.73,19q-3.79,10.72-7.53,21.47l-.8,2.29q-6.19,2.49-12.17,4.81Zm53.82-107.44-.7.24C780,105.94,780.23,105.85,780.53,105.76ZM674.9,459.92c.3-.1.53-.17.64-.22C675.39,459.76,675.17,459.84,674.9,459.92Zm78.93,88.86c.3-.09.53-.17.65-.22A6.77,6.77,0,0,1,753.83,548.78Zm117.73-48.89c.06.12.15.24.21.37v0C871.7,500.14,871.63,500,871.56,499.89Zm-.9-1.46c.15.21.28.42.42.63C870.94,498.85,870.81,498.64,870.66,498.43Z"/></g><g class="cls-35"><polygon class="cls-39" points="1328.5 553.24 1328.5 553.24 1328.5 553.24 1328.5 553.24"/><path class="cls-40" d="M1004.3,763.36h0Z"/><path class="cls-41" d="M1339.78,551.79a14,14,0,0,0-9.81,1l-.52.15-.94.28h0l-.66.22c.15-.05.37-.14.66-.22l-.23.06c-3.14.88-10.48,2.94-12.62,11.11a31.76,31.76,0,0,1-4.54,10,25,25,0,0,1-2.42,3,75.91,75.91,0,0,0,6.27-24,67.36,67.36,0,0,0-.42-16.81l0-.27c-.58-3.61-1.65-10.35-7.16-15.23a15.81,15.81,0,0,0-13.24-3.77,13.7,13.7,0,0,0-2.54.64l-.8.27-1.11.35a20.74,20.74,0,0,0-11-3.25,51.68,51.68,0,0,0-20.54,3.31c-5.76,2.12-11.86,4.6-17.51,9.53-.74.65-1.47,1.33-2.18,2-3.51-.58-6.93-1.24-10.21-2l-.41-.09a22.48,22.48,0,0,0-6.78-.77,23.3,23.3,0,0,0-7.78,2,43.76,43.76,0,0,0-5.51,2.16,21.73,21.73,0,0,0-5.86,4,16.68,16.68,0,0,0-14.84-5.65,15.22,15.22,0,0,0-2.89.57,64,64,0,0,0-8.46,3.15l-.2.1-.48.24a18.08,18.08,0,0,0-6.23,5,20,20,0,0,0-3.69,9.17l-.06.34c-1.1,4.8-2.39,9.63-3.82,14.38-1.76,5.85-3.81,11.73-6.11,17.57a113.89,113.89,0,0,0,3.22-11.6c1.36-6.15,4.2-19-4-27.49-2.56-2.68-8.25-7-17.61-5.3a55.72,55.72,0,0,0-11.93,3.87l-1.32.55a49.58,49.58,0,0,0-11,6.33,59.62,59.62,0,0,0-18,21.46,23.71,23.71,0,0,0-11.9-12c-6.93-3.25-15.27-3.49-24.79-.71a78.3,78.3,0,0,0-13.22,5,41.51,41.51,0,0,0-8.61,5.76,14.41,14.41,0,0,0-2.73-.72,10.25,10.25,0,0,0-1.36-.11c9.33-29.62,18-61.1,17.27-93.47h0c-.36-17-2.76-36.12-17.86-49.41-10.93-9.62-26.3-14.53-42.18-13.46a60.93,60.93,0,0,0-11.53,2,93.31,93.31,0,0,0,25.1-18.73,80.75,80.75,0,0,0,8.5-10.54,14.51,14.51,0,0,0,0,2.19,14,14,0,0,0,14.88,13.16h.05a77.62,77.62,0,0,0,27.94-7.57c11.64-5.43,18.8-14.77,19.65-25.61.46-5.87-.81-12.3-3.89-19.66a52.4,52.4,0,0,0-8.24-13.4,76.51,76.51,0,0,0-15.47-13.86c-7.24-4.94-15.14-9.81-24.13-14.89-6.11-3.46-11.59-1.3-15.6.28a32.19,32.19,0,0,0-5.77,2.63,14.08,14.08,0,0,0-6.53,12.94c1.29,17.29-3.14,35.25-12.16,49.26-4.18,6.49-10.16,12.34-18.28,17.88l-.2.14q3.28-3.71,6.21-7.65a113.64,113.64,0,0,0,12.1-20.49,116,116,0,0,0,4.4-11.19l.27-.8A44.47,44.47,0,0,0,989.15,333c.41-8-2.7-13.14-5.37-16a19.62,19.62,0,0,0-14.21-6c-6.23-.09-11.59,2-15.51,3.5l-1.45.55c-12.23,4.58-22.17,11.67-29.55,21.07a54.24,54.24,0,0,0-7.19,12.18,23.94,23.94,0,0,0-5.56-10.55c-5.68-6.1-13.34-7.5-22.76-4.15-1.51.47-2.65.85-3.43,1.13a19.15,19.15,0,0,0-2.91,1.32,58.05,58.05,0,0,0-5.56,2.67,65.13,65.13,0,0,0-12.53,9.08,14.06,14.06,0,0,0-7.42,1.45l-.3.09c-.41.11-.77.22-1.08.32l-.23.06c-2.38.65-7.41,2-10.57,6.6a22.89,22.89,0,0,0-6.4-4.15,34.7,34.7,0,0,0-13.35-2.49,59.32,59.32,0,0,0-11.84.76,68.74,68.74,0,0,0-12.53,3.63,14.07,14.07,0,0,0-15.06-1.68c-.79.23-1.53.45-2,.64l-.38.12a21.34,21.34,0,0,0-6.39,2.91,67.36,67.36,0,0,0-22.33,25.64c-.4-5.93-2.45-15.48-12.88-19.67-7-2.82-13.91-1.52-18.45-.3-1.39.37-2.74.78-4.07,1.22l2.75-7.84c7.94-3.3,15.43-6.51,22.76-9.76,11.67-5.18,23.33-10.6,34.65-16.12,12.2-5.94,24.1-11.84,35.62-18.56,8.73-5.1,21.56-13.2,32-24.57a92.81,92.81,0,0,0,18.5-30.42c6.23-16.47,7.46-32.61,3.57-46.67-4.15-15-14.67-28-29.62-36.72-8-4.65-17-8.18-29.2-11.46a129.09,129.09,0,0,0-19.26-3.59q3.3-9.68,6.6-19.34l5.24-15.45s0,0,0,0a14,14,0,0,0-19.6-17.06l-.34.1-1,.31-.23.06c-2.94.81-9.84,2.69-12.37,10.17q-7.11,21.06-14.32,42.08c-14.57,2.15-30.06,6.5-48,13.44-19.74,7.64-39.9,18.5-59.91,32.28a403.84,403.84,0,0,0-48.88,39.79,318,318,0,0,0-33,35.8,109.73,109.73,0,0,0-9.24,13.48A35.18,35.18,0,0,0,552.23,322c2.74,7.58,8.64,14,17.07,18.47,6.51,3.47,12.47.72,15.33-.6l.27-.12-.59.23c.35-.13,1.07-.43,1.94-.85a14.05,14.05,0,0,0,3.25-26h0c-2.63-1.4-3.68-2.74-3.87-3.25a8.59,8.59,0,0,1-.23-4.64,26.67,26.67,0,0,1,2.69-4.5l.27-.4c7-10.28,15.77-19.8,23.46-27.76a383.52,383.52,0,0,1,39.88-35.84,325.62,325.62,0,0,1,40.28-27L628.29,381.17q-1.26,3.4-2.51,6.81c-2.83,7.72-5.5,15-8.54,22.2-5.69,13.47-13.12,28.4-25,37a34.83,34.83,0,0,1-3.66,2.3,36.8,36.8,0,0,1,3.26-5.35h0a14,14,0,0,0-17.69-20.81c-.46.12-1,.25-1.5.43l-.12,0c-2.28.59-7,1.82-10.37,6.38-11.48,15.76-13.27,30.91-4.9,41.58,6.51,8.29,15.31,10,23.43,9.2,7.19-.68,13.85-3.25,17.93-4.83l1.53-.59a69,69,0,0,0,26.21-17.67c6.4-6.86,12.13-15.31,17.53-25.83a257.63,257.63,0,0,0,11.73-27.43l10.54-28.37c4.31-1.55,8.6-3.13,12.86-4.71l-23.35,66.6c-.09.25-.2.5-.31.76a32.14,32.14,0,0,0-1.54,4.51,14.36,14.36,0,0,0-.39,1.46A14,14,0,0,0,672,461l2.5-.93.32-.1.2-.06c2.84-.76,9.48-2.55,12.2-9.65,6-15.6,13.57-33.55,24.59-48.46a48.12,48.12,0,0,1,5.88-6.75c-.69,5.07-1.93,10.25-3.23,15.66-.49,2-1,4.08-1.44,6.14-3.13,13.78-1.22,24.63,5.67,32.24,5.88,6.49,14.94,8.56,24.87,5.67a76.92,76.92,0,0,0,15.07-6,13.84,13.84,0,0,0-3.66,6.18l-9.7,33.7c-3.89,1.54-8,3.32-12.17,5.42a14.11,14.11,0,0,0-6.83,17.57,14.13,14.13,0,0,0-9.2-6.5,39.79,39.79,0,0,0,9.63-9.14A38.29,38.29,0,0,0,734,478.72a15.4,15.4,0,0,0-2.8-12.81,15,15,0,0,0-9.4-5.25,25.85,25.85,0,0,0-7.16-.39,34.54,34.54,0,0,0-9.19,2.29l-.55.2c-5.37,2-12.05,4.41-17.63,10.9-4.66,5.42-7.18,11.56-9.22,17.4-.29.85-.59,1.71-.88,2.58-5.58-2.61-12.8-3-20.6-.66-.91.27-1.82.54-2.73.84a14,14,0,0,0-11,.63c-.71.2-1.37.4-1.95.6l-.3.09a20.54,20.54,0,0,0-7,3.31c-10.27,7.82-16.26,19.08-16.42,30.87-.17,12.23,4.81,19.34,9,23.14A28.18,28.18,0,0,0,649.26,559a35.88,35.88,0,0,0,6.94-1.92c1.23-.43,3.69-1.35,5.16-2,.33-.13.68-.27,1-.43q-.61,4-1.13,8.06h0a14,14,0,0,0,12.12,15.74,14.28,14.28,0,0,0,3.13,0,14.08,14.08,0,0,0,4.85-1.36l.85-.27.78-.24.27-.08c3.19-1,11.66-3.46,12.83-12.82,1.15-8.86,2.66-17.77,4.53-26.59q4.61-1,9.2-1.85a27.52,27.52,0,0,0,6.95-2.4l.69-.32a14.07,14.07,0,0,0,10.63-16.22,14.21,14.21,0,0,0-.75-2.53,14,14,0,0,0,8.8,6.47l-3.59,12.45a14,14,0,0,0,19.77,16.46l.45-.13,1-.3.24-.06c2.25-.63,6.71-1.88,9.83-5.63a14.16,14.16,0,0,0,5.57.62,14.54,14.54,0,0,0,3.57-.82l2.5-.93.31-.09.2-.06c2.91-.79,9.73-2.65,12.33-10,.3-.87.62-1.76,1-2.67a20,20,0,0,0,3.42,4.9A18,18,0,0,0,806,539.65a30.5,30.5,0,0,0,11.82-3c.44-.19.87-.38,1.28-.54s.85-.32,1.26-.5h0a47.62,47.62,0,0,0,5.22-2.5,24.92,24.92,0,0,0,13,.84,44.35,44.35,0,0,0,7.11-2.07,36.7,36.7,0,0,0,4.78-1.85,51.74,51.74,0,0,0,7.59-3.63,50.49,50.49,0,0,0,4.94-3.38,288.22,288.22,0,0,0-10.32,40.3,283.35,283.35,0,0,0-4.46,46.73c-.14,11.58.25,26.82,4.52,41.93,4.63,16.41,12.7,28.77,24,36.74,10.51,7.43,23.47,10.59,37.44,9.28a73.47,73.47,0,0,0,13.68-2.65,119.54,119.54,0,0,0,40.28-20.12,137.06,137.06,0,0,0,28.4-30.53c1.45-2.1,2.83-4.22,4.18-6.36L982.63,749a14.06,14.06,0,0,0,18.75,15.44l2.45-.92.45-.14h0l.35-.11.23-.09-.58.2.21-.06c3.07-.89,11.23-3.26,12.78-12.2,6.28-35.68,12.11-65,18.36-92.12,4.12-17.86,8.78-38.11,15.53-56.5,2.28-6.18,5.57-13.81,10.91-18l0,0,.36,0a39.64,39.64,0,0,1-.52,7.79c-.59,4.37-1.57,8.82-2.61,13.53-1,4.43-2,9-2.72,13.78-.84,5.45-2.59,16.79,4.48,24.86a18.86,18.86,0,0,0,14.86,6.37,30.76,30.76,0,0,0,10.56-2.42l.12,0a31.65,31.65,0,0,0,5.27-2c2.36-.94,4.27-1.76,6.09-2.62a148.58,148.58,0,0,0,14.76-7.94,32.25,32.25,0,0,0,24.12,2.21,73.1,73.1,0,0,0,43.72-33.43,15,15,0,0,0,2-3.13l.21-.45q1.85,8,3.94,16.16a14,14,0,0,0,18.5,9.67l2.06-.77c4.46-1.31,13.57-4.05,14-14.35.24-5.25.55-11.46,1-18.09a37.05,37.05,0,0,0,8.62,16c13.65,14.41,32.13,7.36,41,4a60,60,0,0,0,11.37-5.79c7.2,4.37,15.92,5.17,24.76,2.25l1.64-.55a26.15,26.15,0,0,0,5.9-2.14,64.86,64.86,0,0,0,10.09-4.83c9.42-5.64,16.84-14.56,21.46-25.79a60.55,60.55,0,0,0,2.57-7.63v0h0A14,14,0,0,0,1339.78,551.79ZM683,576.64l.6-.2Zm642.1-19.87q-.42.54-.78,1.11Q1324.71,557.3,1325.11,556.77Zm-.9,1.32c-.19.32-.38.65-.55,1C1323.83,558.73,1324,558.41,1324.21,558.09Zm-.76,1.47c-.13.27-.25.53-.36.81C1323.2,560.09,1323.33,559.83,1323.45,559.56Zm-58.18,16.21c.35,2.27.78,4.45,1.31,6.54a38.09,38.09,0,0,1-5.71,4.58c-.35.24-.71.45-1.06.66a6.76,6.76,0,0,1-1.43,0,8.52,8.52,0,0,1-1.51-2.93c-2.4-7.12-2-16.41.94-24.68,2.44-.73,4.78-1.55,7-2.38A71.1,71.1,0,0,0,1265.27,575.77ZM1093.16,612l.32.8-.57.4C1093,612.81,1093.08,612.41,1093.16,612Zm-230.3-119.6c1.61-4.09,4.44-12.64-.73-20.19a16.85,16.85,0,0,0-14.54-7.2,27.11,27.11,0,0,0-8.51,1.68,35.3,35.3,0,0,0-7,2.56c-.9.36-1.79.74-2.68,1.15a38.83,38.83,0,0,0-10.2,6.8,17.55,17.55,0,0,0-3.45-2.41,18.6,18.6,0,0,0-8-2.19l4.94-15a14,14,0,0,0-3.59-14.48,52.07,52.07,0,0,0,7.82-3.94A64.08,64.08,0,0,0,832.53,425a14,14,0,0,0,16.05,4.63l2.39-.88.48-.16.18-.05c3.08-.86,10.3-2.87,12.55-10.87,3.92-14,8.94-31.93,18.58-44.81,0,.16,0,.31,0,.47-.19,2-.64,4.35-1.13,6.8a79.5,79.5,0,0,0-1.72,12.33A27.26,27.26,0,0,0,892,416c10.89,7.08,22.39,2.89,28.77.53.62-.22,1.48-.52,2.45-1v0c1.73-.67,3.79-1.52,6-2.6a33.48,33.48,0,0,0,19.84,6.58,40.1,40.1,0,0,0,9.28-1.14c-.72.36-1.43.72-2.13,1.1-8.73-.15-16.26,2.39-23.27,5A67,67,0,0,0,912,437.34c-12.73,11.37-21.21,25.7-28.16,38.23Q877.52,487,872.26,499a14.18,14.18,0,0,0-3.62-4A14,14,0,0,0,862.86,492.41Zm7.32,5.46a13.92,13.92,0,0,0-7.54-4.92l0,0A14.1,14.1,0,0,1,870.18,497.87Zm62.77,165c-1.21.67-2.39,1.29-3.52,1.84-.71.35-1.42.68-2.11,1l0,0-.4.11c-.66.19-1.33.38-2,.54-1.38.34-2.75.62-4.08.82a32.17,32.17,0,0,1-13.75-.55c-8.95-2.53-14-10.06-16.24-14.33-3.78-7.24-6.1-16.31-7.07-27.74a209.64,209.64,0,0,1,.61-37.36,257.64,257.64,0,0,1,19.52-77c2.54-6,5.32-11.86,8.31-17.61,1.3,8.15,5.44,14.82,11.92,18.89,11.93,7.51,25,2.75,31.35.47,6.88-2.49,14.84-5.62,22.13-11.14A63.73,63.73,0,0,0,994.27,482v0a14.05,14.05,0,0,0-18.48-19.61c-.91.25-1.66.49-2,.62-.74.28-1.49.55-2.17.82a14.54,14.54,0,0,0-8.57,6.62,35.88,35.88,0,0,1-9,10.32,36.26,36.26,0,0,1-5.81,3.69l-.06,0c-.5.13-1,.24-1.34.3h0a18.55,18.55,0,0,1,.62-4.78c1-4.3,3.34-8.82,5.68-13.06a79.45,79.45,0,0,1,9.18-13.4,55.73,55.73,0,0,1,10.94-9.89,45.11,45.11,0,0,1,5.21-3c.76-.18,1.55-.34,2.36-.48a32.42,32.42,0,0,1,21.87,3.8,20.67,20.67,0,0,1,6.78,6.55c2.06,3.29,3.35,7.71,4.06,13.92,3.18,27.87-3.94,57.21-12.12,84.75-7.78,26.18-15.18,47.69-26,67.59C963.63,638.25,949.38,653.76,933,662.88ZM852.09,428.39l-.58.2Zm-56.36-39.94c.5-.14,1.11-.31,1.77-.54l.21-.06a19,19,0,0,0,8.12-4.13,24.05,24.05,0,0,1,4.15-3,23.14,23.14,0,0,1,3.76-.34h.45c.66,0,1.52,0,2.35,0a33.52,33.52,0,0,1-1.17,6.69,61.4,61.4,0,0,1-6.74,15.83,49,49,0,0,1-10.71,13,24.17,24.17,0,0,1-2.9,2h-.21c-3.26.13-7.51-.72-9.66-3.47-2.42-3.08-2.67-8.37-2.46-12.26a29,29,0,0,1,3.75-12.53A14,14,0,0,0,795.73,388.45Zm226-18.87a13.78,13.78,0,0,0-4.51,2q2.19-4.32,4.11-9.11a113.39,113.39,0,0,0,5.34-17c1.2,1,2.3,1.92,3.32,2.89a27.39,27.39,0,0,1,7.34,10.51c1.2,3.41,1.4,4.82,1.39,5.37a2.91,2.91,0,0,1-.26.33,8.31,8.31,0,0,1-1.8,1.32l-.41.07a37,37,0,0,1-4.94.59,20.52,20.52,0,0,0-7.41,2l-.29.14A20.35,20.35,0,0,0,1021.76,369.58ZM854.31,349.66l-.71.24C853.77,349.84,854,349.75,854.31,349.66ZM744.07,288.3q7.23-20.42,14.41-40.85c6.33-18.13,13-37.29,20.65-59.62a114.09,114.09,0,0,1,26,5.95c9.37,3.32,16.32,7.43,21.25,12.57,6.28,6.54,9.25,15.77,8.36,26-1.45,16.64-10.23,32.78-24.09,44.27-8.88,7.37-19.26,13.23-29.15,18.46C772.23,300,762.1,305,749.56,311q-8,3.8-16.15,7.5Q738.72,303.37,744.07,288.3Zm-17.42-75.1a14,14,0,0,0-6.29-17.14l.43-.17c1-.31,1.91-.64,2.86-1,1.2-.41,2.4-.82,3.6-1.2a159.09,159.09,0,0,1,15.43-4c-4.74,13.74-9.25,26.77-13.65,39.41-7.5,21.52-15.24,43.38-22.72,64.51l-6.73,19q-3.8,10.72-7.53,21.46l-.81,2.3q-6.18,2.47-12.16,4.81Zm53.83-107.43c-.31.09-.55.18-.7.23A7.18,7.18,0,0,1,780.48,105.77ZM674.85,459.93l.64-.22C675.34,459.76,675.12,459.85,674.85,459.93Zm78.92,88.86.66-.22Zm117.73-48.9c.07.13.15.24.22.37v0Zm-.89-1.45.42.63C870.89,498.86,870.76,498.64,870.61,498.44Z"/></g><path class="cls-42" d="M732.92,445.57a60,60,0,0,0,14.58-6.07,36.18,36.18,0,0,0,10.83-10.07c5.24,6.56,14.07,10.08,23.69,9.43a32.88,32.88,0,0,0,8.75-2l.21-.08,0-.06a17.08,17.08,0,0,0,5-1.83l0,0a44.4,44.4,0,0,0,7.33-3.56c6.12-3.83,11.77-9.59,16.78-17.12a78.72,78.72,0,0,0,10-21.24c1.6-5.39,3.24-12.44,1.67-19.09a11.5,11.5,0,0,0-6.63-8.36,23.53,23.53,0,0,0-8.86-1.52,47.37,47.37,0,0,0-9.46.58,64.89,64.89,0,0,0-16.62,5.77,40.11,40.11,0,0,0-9.39,6.35h0a2.06,2.06,0,0,0,2.73,3.09,10.47,10.47,0,0,1,1.6-.51,12.94,12.94,0,0,0,1.27-.37,7,7,0,0,1,.87-.26,7.82,7.82,0,0,0,3.27-1.48A36.55,36.55,0,0,1,797,372.5c.4-.22.81-.43,1.22-.63l.16-.08c.47-.12.88-.24,1.22-.35a34.26,34.26,0,0,1,6.72-.72h.43c3.91-.06,8.34-.12,11.26,2a7.59,7.59,0,0,1,2.68,4.44c1.31,5.1.16,10.8-1,15.2a73.12,73.12,0,0,1-8.05,18.95,60.64,60.64,0,0,1-13.41,16.11,37.68,37.68,0,0,1-6.5,4.26c-.42.1-.84.19-1.26.25a19.53,19.53,0,0,1-2.47.23c-8.06.32-15.37-2.69-19.57-8-3.78-4.83-5.45-11.66-5-20.32.73-13.29,8.38-26,21-34.79h0a2.07,2.07,0,1,0-2.36-3.39h0a8.33,8.33,0,0,1-1.71.6c-.48.13-.94.26-1.33.41s-.62.2-.95.31a10.11,10.11,0,0,0-3,1.26c-13.44,9.38-21.71,22.82-22.7,36.87a47,47,0,0,0,.68,12.75l-.06.22a31.08,31.08,0,0,1-12,18.72,34.1,34.1,0,0,1-4.26,2.67,10.51,10.51,0,0,1-2,.2c-2.77,0-4.62-1.31-5.84-4.1-2.57-5.87-1.3-12.24.36-18.79,2.25-8.9,4.8-19,4.82-29.16,0-3.71,0-9.92-5.46-12.11-3.68-1.48-7.75-.7-10.89.14A103.86,103.86,0,0,0,705.63,380a43.83,43.83,0,0,0-17.32,12.48l15.43-44c9.72-4,18.71-7.82,27.44-11.69,11.53-5.11,23.05-10.47,34.26-15.94,12-5.84,23.67-11.62,34.82-18.13,13-7.6,22-14.49,29.29-22.35a81.1,81.1,0,0,0,16.1-26.52c5.32-14.09,6.44-27.66,3.23-39.25-3.36-12.13-11.69-22.35-24.1-29.56-7-4.09-15.15-7.25-26.28-10.24a119.82,119.82,0,0,0-31.54-4h-1.12l.84-2.46q5.48-16,10.92-31.94l5.25-15.46h0a2.06,2.06,0,0,0-1.3-2.61,2,2,0,0,0-2,.38c-.47.19-1.56.5-2,.63l-.85.26-.55.16c-2.29.62-3.71,1.08-4.18,2.45q-8.33,24.63-16.77,49.21c-15.72,1.52-32.47,5.86-52.56,13.64-18.87,7.3-38.19,17.72-57.44,31a392.08,392.08,0,0,0-47.42,38.61C584.69,267,574.59,278,566,289.07a98,98,0,0,0-8.25,12,23.22,23.22,0,0,0-1.52,19.25c2.17,6,7.42,9.82,11.44,12,1.19.64,2.48.1,4.67-.91l.52-.23c.17-.06.5-.22.92-.42a18.35,18.35,0,0,1,1.74-.78,2.1,2.1,0,0,0,1.92-1.1,2.07,2.07,0,0,0-.85-2.79c-3.35-1.79-7.71-4.91-9.47-9.64a20.57,20.57,0,0,1-.47-12.33,30.69,30.69,0,0,1,4.25-7.73l.26-.38c7.48-11,16.71-21.05,24.76-29.38A396.61,396.61,0,0,1,637,229.64a322.53,322.53,0,0,1,52.49-33.75c4.86-2.45,9.74-4.71,14.48-6.72,1.16-.49,2.31-1,3.47-1.44l1.74-.69.22-.08c1-.33,2-.68,3.06-1,1.3-.44,2.6-.89,3.92-1.3a160,160,0,0,1,30-6.35c2.13-.24,4.34-.42,6.57-.54-7.08,20.64-13.62,39.55-20,57.72-7.59,21.78-15.42,43.89-23,65.28l-6.49,18.33q-3.66,10.37-7.29,20.77l-2.82,8.06c-8.05,3.29-15.94,6.4-23.46,9.26-5.82,2.21-11.92,4.45-18.55,6.8l56.67-152.58h0a2.06,2.06,0,0,0-3.29-2.27c-.46.18-1.53.49-2,.61s-.76.22-.89.27l-.57.15c-2.24.61-3.65,1.08-4.14,2.39l-65,175.16c-.84,2.25-1.66,4.5-2.49,6.76-2.75,7.51-5.6,15.28-8.75,22.74-6.34,15-14.76,31.74-29.09,42a46.67,46.67,0,0,1-5.77,3.55c-.43.22-.87.43-1.31.63l-.12,0c-.33.09-.65.18-1,.25-4.38,1.07-9.86,1.89-13.34-1.29-7-6.44,2.46-20.3,4.43-23a2.06,2.06,0,0,0-3.07-2.73,16.7,16.7,0,0,1-1.68.51c-.48.12-.89.24-1.14.33s-.43.12-.72.2c-1.36.35-2.9.75-3.7,1.85-3.82,5.25-12,18.4-5.15,27.12,3.3,4.2,8.08,5.17,13,4.71,5.21-.49,10.6-2.58,14.6-4.12l1.59-.62A57.22,57.22,0,0,0,610.28,452C615.91,446,621,438.4,625.9,428.87a241.6,241.6,0,0,0,11.17-26.13l12.47-33.59c14.43-5.14,28.54-10.45,42-15.8l-31.91,91c-.16.43-.34.88-.53,1.34a17.68,17.68,0,0,0-1.1,3.34,3.39,3.39,0,0,0-.21.61,2.07,2.07,0,0,0,2.73,2.39l2.8-1,.69-.21.57-.16c2.23-.6,3.63-1.07,4.13-2.37C675,431.93,683,413.05,694.89,397c5.17-7,9.92-11.32,15.41-14l1.42-.68a25.63,25.63,0,0,1,3.21-.7c2.13-.29,5-.31,6.55,1.19a4.31,4.31,0,0,1,1,2.11,30.49,30.49,0,0,1,.31,9.4c-.54,7.31-2.19,14.22-3.95,21.54-.48,2-1,4-1.41,6-2.24,9.89-1.3,16.94,2.87,21.55C723,446.36,727.49,447.15,732.92,445.57ZM827.7,200.39c8.71,9.07,12.85,21.62,11.65,35.34-1.72,19.8-12.06,38.92-28.37,52.45-9.72,8.07-20.74,14.3-31.2,19.83-9.36,4.95-19.65,10.08-32.36,16.12-13.61,6.46-27.62,12.74-41.72,18.7l8.5-24.24q5.67-16.14,11.4-32.25,7.17-20.25,14.28-40.5c7.08-20.25,14.6-42,23.62-68.23a125.12,125.12,0,0,1,38.31,7.22C813,188.79,821.46,193.89,827.7,200.39Z"/><path class="cls-42" d="M855.3,368.74c.44-1.31.89-2.6,1.36-3.88h0a2.07,2.07,0,0,0-3.3-2.27c-.46.19-1.55.5-2,.62s-.74.21-.87.26l-.56.16c-2.26.61-3.67,1.08-4.15,2.41a202.73,202.73,0,0,0-11.46,52.62,2,2,0,0,0,.81,1.82,2.08,2.08,0,0,0,1.44.41,2.31,2.31,0,0,0,.52-.12l2.63-1,.86-.27c.1,0,.29-.09.51-.15,2.45-.68,3.84-1.14,4.25-2.57,5.71-20.38,13.53-48.3,34.5-62.23.93-.62,1.92-1.22,2.93-1.79,1.65.37,2.59,2.41,3.1,4.12,2.11,7,2,14.71,1.48,19.92a79.21,79.21,0,0,1-1.31,8,69.3,69.3,0,0,0-1.5,10.47,15.11,15.11,0,0,0,6.71,13c5.94,3.85,12.7,1.34,18.18-.7a21.82,21.82,0,0,0,2.28-.87,44.5,44.5,0,0,0,8.4-4.14c1.15-.75,2.3-1.59,3.44-2.5a28.39,28.39,0,0,0,3.75,4.17,21.57,21.57,0,0,0,14.48,5.67c5.82,0,11.19-2.11,16.39-4.17l1.42-.56c9.53-3.72,19.19-10.38,27.19-18.74,6.61-6.92,11.9-15.45,16.16-26.07a97.71,97.71,0,0,0,7.12-33.12c3.21,2,6.22,3.85,9.13,5.72a78.93,78.93,0,0,1,11.78,9,39.22,39.22,0,0,1,10.4,15.24c1.33,3.8,2.48,7.8,1.9,11.4a12.54,12.54,0,0,1-3.26,6.37,22.42,22.42,0,0,1-6.34,4.52c-.81.2-1.63.39-2.46.54a51.39,51.39,0,0,1-6.44.78,8.94,8.94,0,0,0-3.21,1c-.31.14-.61.28-.88.38a13.43,13.43,0,0,0-1.28.57,7.3,7.3,0,0,1-1.59.63h0a2,2,0,0,0-1.93,2.19,2.07,2.07,0,0,0,2.19,1.94h0a65.61,65.61,0,0,0,23.65-6.48c7.61-3.55,12.27-9.27,12.77-15.69.31-3.92-.67-8.53-3-14.09a40.43,40.43,0,0,0-6.38-10.33,63.56,63.56,0,0,0-13-11.65c-7-4.75-14.57-9.45-23.27-14.37-1.93-1.09-9,2.6-9.1,2.64a2.07,2.07,0,0,0-1,1.9,92.39,92.39,0,0,1-14,56.63c-5.06,7.87-12.13,14.84-21.6,21.3a71.86,71.86,0,0,1-6.35,3.89c-.72.39-1.45.74-2.18,1.09-.44.12-.89.23-1.33.32A18.53,18.53,0,0,1,940.32,401a21.8,21.8,0,0,1-7.59-7.65,107.52,107.52,0,0,0,20-20.45,101.37,101.37,0,0,0,14.76-28.34l.27-.81a33.14,33.14,0,0,0,2.12-9c.16-3-.58-5.53-2.14-7.19a7.7,7.7,0,0,0-5.63-2.26c-3.92-.05-7.7,1.41-11,2.7l-1.56.6c-10.14,3.79-18.32,9.59-24.33,17.24A45.78,45.78,0,0,0,916,376.52a49,49,0,0,0,4,17.35,48.32,48.32,0,0,1-8,7.16,35.06,35.06,0,0,1-3.59,2.23l-.1.05c-3.3.61-7.81.36-10.82-4.27-2-3-1.94-6.16-1.29-9.91l.54-3c1.05-5.87,2.13-11.94,2.07-18.16a65.15,65.15,0,0,0-1-10.46l0-.33c-.49-2.83-1.09-6.36-3.43-8.89-3.26-3.49-7.46-1.95-10.14-1-2.58.81-4.12,1.28-4.92,1.88a46.35,46.35,0,0,0-5,2.37A59,59,0,0,0,855.3,368.74Zm-2.52-5.3h0Zm98.82-30.88.26-.13.16,0a16.3,16.3,0,0,1,2.06-.32c3.92-.31,4.36,1.53,4.55,2.31.54,2.23,0,4.68-.64,7-.84,3-1.83,5.95-2.94,8.84a97.7,97.7,0,0,1-8.82,17.36,100.12,100.12,0,0,1-16.5,19.56,45.91,45.91,0,0,1-1.79-6.41c-1.94-9.65-.94-19.37,2.8-27.36,3.62-7.73,10.19-14.66,18.49-19.52C950,333.4,950.8,333,951.6,332.56Z"/><path class="cls-42" d="M854.56,509.79a2.07,2.07,0,0,0-2.66-3.05c-.17.06-.42.13-.51.15l-.21.07-2.59,1-2.48.92a3.2,3.2,0,0,0-1.82,1.06,28.83,28.83,0,0,1-6.69,6.32c-.91.62-1.9,1.22-3,1.81-.32.05-.64.08-1,.1A8.13,8.13,0,0,1,826,514a53.32,53.32,0,0,0,18.06-22.82c1.41-3.45,2.61-7.33.87-9.87a4.92,4.92,0,0,0-4.44-2,16.38,16.38,0,0,0-5.23,1.18l-.48.17v0a23.73,23.73,0,0,0-5.12,1.85c-.85.34-1.7.69-2.53,1.07a24.87,24.87,0,0,0-13.36,31.59,42.1,42.1,0,0,1-7.32,6.81c-.54.4-1.09.78-1.65,1.15a1.49,1.49,0,0,1-.87-.56c-2-2.51-1.47-6.5-.78-9.7l.49-2.21A72.62,72.62,0,0,0,805.88,496v-.29c0-2.37.12-6.34-3.06-8.05-2.35-1.27-5.09-.77-6.94-.29-1.12.29-2.29.67-3.79,1.22a16.29,16.29,0,0,0-4.58,1.76,35.36,35.36,0,0,0-5.61,2.7L794,456.17h0a2.07,2.07,0,0,0-3.31-2.22c-.47.19-1.57.51-2,.64s-.73.21-.85.25l-.54.16c-2.3.63-3.73,1.08-4.19,2.47l-12.15,37a2,2,0,0,0-1.86-.62c-3.14.62-6.37,1.4-9.64,2.33l10.66-37a2.07,2.07,0,0,0-3.31-2.16c-.47.2-1.6.52-2.05.66s-.72.21-.82.25l-.53.15c-2.43.67-3.82,1.12-4.23,2.55l-11.36,39.45a155.06,155.06,0,0,0-16.62,7h0a2.07,2.07,0,0,0,1.87,3.69,19.67,19.67,0,0,1,3.15-1.16,24.71,24.71,0,0,0,3.82-1.43c2.14-1.09,4.15-2,6.13-2.89l.16-.07-9.55,33.19h0a2.07,2.07,0,0,0,1.41,2.56,2.24,2.24,0,0,0,.77.07,2.15,2.15,0,0,0,1.13-.47c.47-.19,1.59-.52,2-.65l.82-.25.52-.15c2.44-.68,3.83-1.13,4.24-2.55l10.18-35.38c1.69-.41,3.38-.78,5-1.11a16.89,16.89,0,0,0,4-1.45,14.39,14.39,0,0,1,2.92-1.11l-11,33.5a2.06,2.06,0,0,0,.53,2.13,2,2,0,0,0,1.62.57,1.63,1.63,0,0,0,.53-.12l2.77-1,.71-.22.55-.16c2.28-.62,3.7-1.07,4.17-2.43,3.12-8.87,7.6-20.28,14.65-29.78a23.75,23.75,0,0,1,7.28-6.71,4.36,4.36,0,0,1,1.65,0,1.54,1.54,0,0,1,1,.54,7.09,7.09,0,0,1,.49,2.83,42.87,42.87,0,0,1-.63,8.29c-.27,1.75-.69,3.48-1.14,5.31a48.39,48.39,0,0,0-1.52,8.51c-.16,2.82.44,6.64,2.6,8.91a6.11,6.11,0,0,0,4.55,1.91c2.55,0,5-1.09,7.26-2,.62-.26,1.22-.52,1.75-.72a8.45,8.45,0,0,0,1-.39,31.23,31.23,0,0,0,5.9-3.11c1-.71,2.1-1.51,3.21-2.42A12.3,12.3,0,0,0,829,524.56a32.84,32.84,0,0,0,5.37-1.6,25.9,25.9,0,0,0,4-1.55,41.15,41.15,0,0,0,6.27-2.95A34,34,0,0,0,854.56,509.79Zm-21-23.72a3,3,0,0,1,.68,0c.13,0,.44.07.51.19.28.5.27,1.92-1.39,5.89l-.14.33a47.73,47.73,0,0,1-9.62,14.67q-.15-1-.21-1.92a20.44,20.44,0,0,1,9.19-18.58C832.86,486.46,833.19,486.26,833.52,486.07Zm-43.41-31.21v0h0Z"/><path class="cls-42" d="M712.34,474.8l-.14,0h0a13.93,13.93,0,0,0-3.89-.22,22.4,22.4,0,0,0-6,1.6l-.57.21c-4.69,1.72-9.12,3.34-12.66,7.45s-5.46,9.14-7,13.53c-3.29,9.44-6.28,19.6-8.88,30.22q-3.93,1.23-7.79,2.55a41.3,41.3,0,0,0,3-8.66c.71-3.08,1.34-7.08,0-10.64-2.12-5.76-9.56-5.84-15.81-4a60.83,60.83,0,0,0-8.93,3.22,2.07,2.07,0,0,0-3.21-2.31,7.31,7.31,0,0,1-1.65.57c-.48.13-.94.26-1.31.4s-.6.19-.93.29a9.06,9.06,0,0,0-3.08,1.33c-7.32,5.58-11.59,13.42-11.7,21.51-.09,6.14,1.66,11,5.07,14.08a16.08,16.08,0,0,0,13.23,3.59,24.29,24.29,0,0,0,4.71-1.33c1.3-.45,4-1.49,4.58-1.77a25.09,25.09,0,0,0,5-2.55,29.93,29.93,0,0,0,7.71-8.08c3.21-1.1,6.49-2.14,9.8-3.13-2.55,11.11-4.59,22.52-6.07,34h0a2.07,2.07,0,0,0,1.78,2.32,1.77,1.77,0,0,0,.46,0,2,2,0,0,0,1-.4c.5-.21,1.8-.6,2.25-.74l.71-.23.46-.14c2.59-.77,4.14-1.23,4.36-2.87a351.67,351.67,0,0,1,6.35-35c5.68-1.41,11.43-2.65,17.1-3.69a16.62,16.62,0,0,0,4-1.46,13.25,13.25,0,0,1,3-1.13h0a2.06,2.06,0,1,0-.75-4.06h0c-7.2,1.31-14.6,3-22,5,1.26-5,2.61-9.94,4-14.62.66-2.21,1.35-4.42,2-6.62,1.41-.42,2.84-.92,4.36-1.51l.89-.35c1.46-.59,2.73-1.15,3.88-1.69a27.32,27.32,0,0,0,10-8.28,26.11,26.11,0,0,0,5-12l0-.18c.22-1.16.42-2.25-.29-3.13A3.25,3.25,0,0,0,712.34,474.8Zm-79.43,54.62a21.52,21.52,0,0,1,3.72-11.67,2.06,2.06,0,0,0,2.46.32c.15-.06.34-.1.44-.13l.27-.08,2.49-.91a7.88,7.88,0,0,1,.84-.25,7.35,7.35,0,0,0,3.35-1.54,19.68,19.68,0,0,1,2.87-2.3,14.06,14.06,0,0,1,1.44-.16c4.44-.26,6.24.36,6.88,2.37.76,2.41.31,5.3-.16,7.55a37.83,37.83,0,0,1-3.7,10,31.93,31.93,0,0,1-6.52,8.68A23.52,23.52,0,0,1,645.2,543a11.48,11.48,0,0,1-9.34-3.48C633.86,537.18,632.87,533.8,632.91,529.42Zm59.79-32-.24.06.45-1.32A41.47,41.47,0,0,1,698,485.4a18.34,18.34,0,0,1,3.39-3.64c.24-.2.5-.38.76-.56h0a12.23,12.23,0,0,1,1.74,0,21.64,21.64,0,0,1-.71,2.84l-.07.22h0a22.94,22.94,0,0,1-5.29,9.08,23.33,23.33,0,0,1-4.27,3.57C693.27,497.05,693,497.21,692.7,497.37Z"/><path class="cls-42" d="M1011.82,568.71c9.55-30,18.81-61.9,18.13-94.08-.32-15.09-2.21-30.47-13.8-40.67-8.55-7.53-20.74-11.36-33.46-10.5a58.43,58.43,0,0,0-15.24,3.47c-.32.09-1.13.38-1.91.68l-1.31.48a71.91,71.91,0,0,0-12.63,6.08,2.08,2.08,0,0,0-.75-.2c-7.5-.64-13.93,1.51-21,4.17a54.15,54.15,0,0,0-17.18,10.48c-11.34,10.13-19.19,23.43-25.66,35.11a273.85,273.85,0,0,0-34.17,128.83c-.12,10.78.23,24.89,4.08,38.53s10.38,23.87,19.35,30.22c8.13,5.75,18.32,8.17,29.45,7.12a61.44,61.44,0,0,0,11.42-2.21,107.83,107.83,0,0,0,36.28-18.09,124.74,124.74,0,0,0,25.89-27.88C995.15,617.43,1004.63,591.28,1011.82,568.71ZM927.4,677.83c-.84.42-1.7.82-2.56,1.19l-1.08.47c-.33.07-.62.13-.82.19-.82.24-1.64.47-2.47.67-1.72.42-3.45.77-5.13,1a44.1,44.1,0,0,1-18.84-.86c-9.83-2.79-18.21-10-23.6-20.32-4.52-8.68-7.27-19.23-8.38-32.26a221.37,221.37,0,0,1,.62-39.51,269.88,269.88,0,0,1,20.42-80.53,266.62,266.62,0,0,1,19.17-36.78c5.91-9.44,14.21-21.17,26-28.15.8-.48,1.68-1,2.85-1.52l.09,0c.34-.09.68-.18,1-.25a30.28,30.28,0,0,1,8.28-.54c-8.3,7.34-15.38,17.07-21.1,29-2.44,5.06-5,11.16-5.39,18-.43,7.39,1.95,13.12,6.71,16.11,7,4.39,15.69,1.23,20.9-.65,6.33-2.3,13-4.91,19-9.43a51.92,51.92,0,0,0,13.59-15.35,2.07,2.07,0,0,0-3.19-2.55,18.2,18.2,0,0,1-1.78.53,10.58,10.58,0,0,0-1,.31l-.32.12-2.24.83a3.07,3.07,0,0,0-2,1.27,47.7,47.7,0,0,1-19.77,18.67c-.38.2-.77.37-1.16.55l-.19.09a30.89,30.89,0,0,1-3.63.84c-2.19.35-9.53,1-12.49-5.34-1.66-3.53-1.8-8.26-.4-14.08s4.09-11.06,6.83-16a91.7,91.7,0,0,1,10.59-15.43,67.9,67.9,0,0,1,13.34-12,55.71,55.71,0,0,1,7.63-4.3c.27-.09.53-.18.79-.25,1.26-.32,2.57-.6,3.88-.81,10.59-1.77,21.56.2,30.06,5.39a32.74,32.74,0,0,1,10.71,10.41c3,4.86,4.88,10.87,5.8,18.92,3.43,30-4,60.76-12.54,89.52-8,26.91-15.64,49.1-27,69.91-12.81,23.51-28.65,40.62-47.09,50.86C930.1,676.47,928.72,677.19,927.4,677.83Z"/><path class="cls-42" d="M1329.46,565.72a2.1,2.1,0,0,0-1.84.4c-.48.2-1.63.53-2.09.67s-.68.2-.8.25l-.51.15c-2.24.62-3.86,1.08-4.26,2.59a43.78,43.78,0,0,1-6.27,13.76,35,35,0,0,1-7.94,8.3,33.17,33.17,0,0,1-5.34,3.17,14,14,0,0,1-3,.35c-6.71,0-10.79-5.88-12.84-10a64,64,0,0,0,11.2-30.66,55.2,55.2,0,0,0-.33-13.85l0-.29c-.39-2.43-1-6.1-3.26-8.13a3.8,3.8,0,0,0-3.77-.82h0l-.16,0h0l0,0c-.21.06-.43.13-.66.22-.55.19-1.14.37-1.75.56a19.26,19.26,0,0,0-5.74,2.48c-3.55,2.58-5.48,7.62-6.89,11.31l-.25.66a57.65,57.65,0,0,0-3,29.41,50.52,50.52,0,0,0,3,11.22,52.35,52.35,0,0,1-12.62,11.75,40.06,40.06,0,0,1-3.64,2.12h0a19.69,19.69,0,0,1-7.81.22c-6.29-1.15-9.24-7.29-10.44-10.85-3.51-10.42-2.79-23.48,1.93-34.92.53-1.3,1.12-2.57,1.75-3.81.51-.09,1-.19,1.54-.3a100.74,100.74,0,0,0,13.57-4.47l.81-.31a73.91,73.91,0,0,0,11.45-5.45l.45-.27c2.3-1.38,5.17-3.1,6.66-5.69a3.5,3.5,0,0,0,.2-3.57c-1-1.87-3.47-2.23-5.73-2.33a39.34,39.34,0,0,0-15.86,2.59c-5.1,1.87-9.65,3.71-13.76,7.3a38,38,0,0,0-5.36,5.84l-.83-.12c-5.79-.8-11.42-1.8-16.71-3l-.61-.14a11.2,11.2,0,0,0-3.32-.45,12.44,12.44,0,0,0-3.91,1.09l-.23.09a38.83,38.83,0,0,0-4.38,1.67,9.58,9.58,0,0,0-3.64,2.72c-3.65,4.5-5,10.94-6,16.12l-.15.71c-.82,4.06-1.53,8.37-2.14,13.11-.29-1.47-.56-2.93-.84-4.38-.81-4.27-1.65-8.69-2.57-13l-.09-.41a52.18,52.18,0,0,0-3.1-10.7c-.61-1.38-2.47-5.56-6.78-4.45h0l-.24,0a51.87,51.87,0,0,0-6.87,2.55l-.13.07,0,0-.07,0a6.23,6.23,0,0,0-2.22,1.69,8.9,8.9,0,0,0-1.38,3.94c-.06.33-.11.65-.18.94-1.17,5.08-2.52,10.18-4,15.16a239.48,239.48,0,0,1-11.19,29.69,2.29,2.29,0,0,0-.54.7A54,54,0,0,1,1143,613.28a64.19,64.19,0,0,1-6.32,5.39c-1.37,1-2.73,1.93-4,2.72-.71.43-1.44.84-2.17,1.21l0,0a17.58,17.58,0,0,1-2.15.33,15.17,15.17,0,0,1-4.69-.25,16.78,16.78,0,0,1-7.16-3.64,23.66,23.66,0,0,1-2.34-2.27,105.86,105.86,0,0,0,25.26-48.2c1-4.44,2.81-12.71-.93-16.61-1.11-1.17-3.21-2.41-6.89-1.78a45.12,45.12,0,0,0-9.38,3.12l-1.39.58a38.57,38.57,0,0,0-8.35,4.83,47.67,47.67,0,0,0-15.3,19.17,44.89,44.89,0,0,0,4.16,40.42,77.61,77.61,0,0,1-14.08,10.39c-3.74,2.14-7.66,4-10.65,5.46l-.18.08a5.43,5.43,0,0,1-1.7.1,2.76,2.76,0,0,1-2-1.09c-2-2.64-.86-9-.34-12.13l.09-.52c.64-3.84,1.5-7.73,2.32-11.5,1.18-5.35,2.4-10.89,3.06-16.49.6-5.08,2.19-18.56-7.55-23.13-4.26-2-9.6-2-16.33-.06a68.08,68.08,0,0,0-11.25,4.22c-7.81,3.89-14.24,11.84-19.1,23.62l-.39,1,2.62-16.07a2.07,2.07,0,0,0-3.3-2c-.5.2-1.76.59-2.2.72a7.09,7.09,0,0,0-.74.24l-.48.14c-2.54.74-4.07,1.19-4.33,2.79l-27.6,169.18a2,2,0,0,0,.73,1.92,2.07,2.07,0,0,0,1.5.46,1.63,1.63,0,0,0,.53-.12l2.71-1,.77-.25.47-.14c2.44-.7,4.06-1.17,4.34-2.77,6.3-35.87,12.18-65.33,18.49-92.73,4.19-18.21,8.94-38.85,16-58,2.81-7.67,7-17.24,14.75-23.3a24.29,24.29,0,0,1,2.92-2c5.56-1.27,9.8-.85,12.62,1.22,5,3.68,4.69,11.55,3.6,19.5-.66,4.85-1.73,9.74-2.78,14.48-.93,4.25-1.9,8.64-2.58,13-.56,3.65-1.74,11.26,1.65,15.12a7,7,0,0,0,5.59,2.29,19.83,19.83,0,0,0,6.58-1.64l.46-.18a19.72,19.72,0,0,0,4.22-1.59c2.36-.91,4.18-1.69,5.88-2.5a108.74,108.74,0,0,0,20-11.72c5.9,5.69,13,7.51,20.76,5.3a61.27,61.27,0,0,0,23.91-12.67,60.63,60.63,0,0,0,13.42-16.42,2.59,2.59,0,0,0,.79-1,242.66,242.66,0,0,0,9.91-25c1.56-4.7,3-9.48,4.24-14.22,0-.07,0-.14,0-.21,1.17,4.6,2,9.36,2.89,14,.32,1.76.64,3.51,1,5.26,2.39,12.34,5.27,25.12,8.57,38a2.15,2.15,0,0,0,1,1.32,2.06,2.06,0,0,0,1.68.1l2.39-.89.4-.12c4-1.17,5.45-1.6,5.53-3.42.42-9.32,1.08-21.62,2.47-34.07a166.39,166.39,0,0,1,3.43-21,37.36,37.36,0,0,1,3.3-9.41l1.68.4c1.06.25,2.11.51,3.15.71,4.42.84,8.83,1.54,13.12,2.08.75.1,1.47.18,2.18.24a57.33,57.33,0,0,0-6.38,25.43c-.19,11.73,2.29,20.4,7.37,25.76,8.15,8.61,20.12,4,28,1a50,50,0,0,0,16.16-10.16,21.4,21.4,0,0,0,4.85,4.76c4.35,3,9.75,3.62,15.65,1.67l1.72-.58.53-.18h0a19.78,19.78,0,0,0,4.34-1.57,55.67,55.67,0,0,0,8.62-4.07c7.19-4.31,12.91-11.25,16.54-20.08a47.24,47.24,0,0,0,2.06-6.15h0A2.07,2.07,0,0,0,1329.46,565.72Zm-45.79-2a56.68,56.68,0,0,1-2.78,9.47,55.76,55.76,0,0,1-.33-14.69,51.47,51.47,0,0,1,3.55-13.85c.09-.21.18-.42.26-.63q.06.38.09.63A56.54,56.54,0,0,1,1283.67,563.75Zm-32.55-23.87a29.38,29.38,0,0,1,3.31-2.45c.34-.21.68-.39,1-.58h0a31.6,31.6,0,0,1,9.19-.42c.18,0,.56.05.91.11a12.65,12.65,0,0,1-1.34,1.19l-.24.2a36.47,36.47,0,0,1-5.93,3.82c-1.12.61-2.28,1.19-3.44,1.73-.41.19-.82.37-1.24.54l-.2.09-.32.1a41.88,41.88,0,0,1-7.13,1.57A35.31,35.31,0,0,1,1251.12,539.88ZM1126,556.76h0c2.1-.2,2.65.58,2.84.85,1.66,2.35.82,6.35.15,9.57l-.22,1.08a101.19,101.19,0,0,1-19.2,41.76,39.29,39.29,0,0,1-2.74-7.18,41.65,41.65,0,0,1-.64-20.75A39.26,39.26,0,0,1,1116.72,564a44.27,44.27,0,0,1,7.38-6.08C1124.71,557.49,1125.34,557.12,1126,556.76Z"/></svg>