<svg xmlns="http://www.w3.org/2000/svg" xmlns:xlink="http://www.w3.org/1999/xlink" viewBox="0 0 126.96 88.85"><defs><style>.cls-1{fill:#f5f8fc;}.cls-2{opacity:0.7;fill:url(#Gradient_bez_nazwy_228);}.cls-3{fill:#1d2633;}</style><linearGradient id="Gradient_bez_nazwy_228" x1="98.78" y1="99.92" x2="59.56" y2="31.99" gradientUnits="userSpaceOnUse"><stop offset="0" stop-color="#100e2a" stop-opacity="0.8"/><stop offset="0.6" stop-color="#98a2bd" stop-opacity="0.24"/><stop offset="1" stop-color="#d2e2fc" stop-opacity="0"/></linearGradient></defs><g id="snooze"><rect class="cls-1" width="126.96" height="88.85" rx="12"/><path class="cls-2" d="M115,88.85l-103.5-.17H11.4c0-.11,14.85-1.61,15.72-1.7C49.78,84.7,105.27,84.76,112.06,74c.8-1.27,1.5-2.73,1.5-2.73a31.12,31.12,0,0,0,2.92-12.93c.19-6.21-.07-28.29-1.52-58.38a12.16,12.16,0,0,1,8.84,3.75A12.08,12.08,0,0,1,127,12V76.85a12.49,12.49,0,0,1-2.65,7.41A12.9,12.9,0,0,1,115,88.85Z"/><path class="cls-3" d="M82.21,16a3.54,3.54,0,0,0-3.56,0L54.06,29.92H43.45a5.62,5.62,0,0,0-5.62,5.62V52.81a5.62,5.62,0,0,0,5.62,5.62H54.18L78.65,72.26a3.49,3.49,0,0,0,1.76.47A3.58,3.58,0,0,0,84,69.15v-50A3.54,3.54,0,0,0,82.21,16ZM40.32,52.81V35.54a3.13,3.13,0,0,1,3.13-3.13h9.48V55.94H43.45A3.13,3.13,0,0,1,40.32,52.81ZM81.5,69.15a1.09,1.09,0,0,1-1.63.95l-24-13.6V31.77l24-13.59a1.09,1.09,0,0,1,1.63.95Z"/><path class="cls-3" d="M100.21,70.25a1.36,1.36,0,0,1-.77-.23L26.84,20.51a1.36,1.36,0,1,1,1.53-2.25L101,67.77a1.37,1.37,0,0,1,.36,1.89A1.34,1.34,0,0,1,100.21,70.25Z"/><path class="cls-3" d="M27.44,70a1.35,1.35,0,0,1-.76-2.48l72.94-49a1.35,1.35,0,0,1,1.51,2.25l-72.94,49A1.3,1.3,0,0,1,27.44,70Z"/></g></svg>