<svg xmlns="http://www.w3.org/2000/svg" xmlns:xlink="http://www.w3.org/1999/xlink" viewBox="0 0 214.61 157.28"><defs><style>.cls-1{fill:#fce7e6;}.cls-2{opacity:0.7;fill:url(#Gradient_bez_nazwy_101);}.cls-3{fill:#e52c61;}</style><linearGradient id="Gradient_bez_nazwy_101" x1="147.99" y1="143.16" x2="90.88" y2="66.65" gradientUnits="userSpaceOnUse"><stop offset="0" stop-color="#c72f5e" stop-opacity="0.8"/><stop offset="0.08" stop-color="#cd426c" stop-opacity="0.72"/><stop offset="0.4" stop-color="#e188a0" stop-opacity="0.41"/><stop offset="0.67" stop-color="#f0bcc6" stop-opacity="0.19"/><stop offset="0.88" stop-color="#f9dbdd" stop-opacity="0.05"/><stop offset="1" stop-color="#fce7e6" stop-opacity="0"/></linearGradient></defs><g id="phone"><path class="cls-1" d="M214,66.56C214,29.8,166.08,0,107,0S0,29.8,0,66.56C0,88.69,17.36,108.3,44.08,120.4a2.57,2.57,0,0,1,1,3.91l-21.5,28.1a2.58,2.58,0,0,0,2.72,4.06l87.19-23.42A2.61,2.61,0,0,1,114,133C169.83,130.72,214,101.85,214,66.56Z"/><path class="cls-2" d="M214.61,66.56c-.27-26.16-25.39-42.81-28.47-44.78-.95,13.76-4.64,34.1-17.85,53.58-38.62,57-119.81,49.32-123.23,49q-3.69,5.07-7.58,10.2-7.5,9.92-15,19.07a3.9,3.9,0,0,0,1.37,3.06A4,4,0,0,0,29,156l85.13-22.91a167.32,167.32,0,0,0,19.43-2c10.2-1.67,26.47-4.32,41.48-12.54C181.6,114.91,214.93,96.87,214.61,66.56Z"/><path class="cls-3" d="M112.45,97.27a4.12,4.12,0,0,1-1-.1L82.18,90.44a3.85,3.85,0,0,1-2.88-4.61L92.75,27.44A3.85,3.85,0,0,1,94.46,25a3.9,3.9,0,0,1,2.9-.49l29.24,6.74a3.86,3.86,0,0,1,2.88,4.61L116,94.29A3.85,3.85,0,0,1,112.45,97.27Zm-16-71a2.11,2.11,0,0,0-1.94,1.61L81,86.22a2.1,2.1,0,0,0,1.57,2.5l29.23,6.73a2.07,2.07,0,0,0,2.49-1.56l13.46-58.38A2.08,2.08,0,0,0,126.2,33L97,26.27A2.12,2.12,0,0,0,96.41,26.22Z"/><path class="cls-3" d="M111.93,111.8a6.46,6.46,0,0,1-1.84-.18L78,104a7.07,7.07,0,0,1-5.14-8.45L88.62,24.84a6.83,6.83,0,0,1,8.2-5.27l32.06,7.65a6.84,6.84,0,0,1,4.27,3.14,7.22,7.22,0,0,1,.88,5.31l-15.74,70.68A6.89,6.89,0,0,1,111.93,111.8Zm-1.43-2a5,5,0,0,0,6-3.87l15.74-70.68a5.23,5.23,0,0,0-.65-3.9A5,5,0,0,0,128.48,29L96.42,21.39a5,5,0,0,0-6,3.87L74.66,95.94a5.2,5.2,0,0,0,3.77,6.21Z"/><path class="cls-3" d="M96.33,95.81a4,4,0,0,0-3.07.52,4,4,0,0,0-1.82,2.53,4.08,4.08,0,0,0,4.16,5,4.09,4.09,0,0,0,3.78-3.16A4.06,4.06,0,0,0,96.33,95.81Zm1.24,2.62a2.55,2.55,0,0,1,.33,1.92,2.6,2.6,0,0,1-1.14,1.59,2.55,2.55,0,0,1-3.83-2.73,2.55,2.55,0,0,1,2.37-2,2.69,2.69,0,0,1,.69.06A2.5,2.5,0,0,1,97.57,98.43Z"/><path class="cls-3" d="M144.41,58.73a1.4,1.4,0,0,1,1.26.53,14.91,14.91,0,0,1,2.76,11.34,14.57,14.57,0,0,1-8.59,11.33,1.37,1.37,0,0,1-1.79-.75,1.36,1.36,0,0,1,.75-1.78,11.83,11.83,0,0,0,6.92-9.22,12.12,12.12,0,0,0-2.23-9.25,1.37,1.37,0,0,1,.26-1.92A1.33,1.33,0,0,1,144.41,58.73Z"/><path class="cls-3" d="M155,56.47a1.88,1.88,0,0,1,1.7.72,20.11,20.11,0,0,1,3.73,15.34,19.69,19.69,0,0,1-11.62,15.32,1.85,1.85,0,0,1-1.4-3.43A16,16,0,0,0,156.77,72a16.46,16.46,0,0,0-3-12.52,1.85,1.85,0,0,1,1.24-3Z"/><path class="cls-3" d="M65.38,63.73a1.36,1.36,0,0,1-1.25-.53,14.87,14.87,0,0,1-2.76-11.34A14.57,14.57,0,0,1,70,40.53a1.37,1.37,0,0,1,1,2.54,11.81,11.81,0,0,0-6.93,9.21,12.2,12.2,0,0,0,2.23,9.26,1.37,1.37,0,0,1-.25,1.92A1.4,1.4,0,0,1,65.38,63.73Z"/><path class="cls-3" d="M54.79,66a1.83,1.83,0,0,1-1.69-.71,20.19,20.19,0,0,1-3.74-15.35A19.73,19.73,0,0,1,61,34.62,1.85,1.85,0,1,1,62.39,38,16,16,0,0,0,53,50.51,16.39,16.39,0,0,0,56,63a1.85,1.85,0,0,1-.35,2.6A1.82,1.82,0,0,1,54.79,66Z"/></g></svg>