<svg xmlns="http://www.w3.org/2000/svg" xmlns:xlink="http://www.w3.org/1999/xlink" viewBox="0 0 214.61 157.28"><defs><style>.cls-1{fill:#fce7e6;}.cls-2{opacity:0.7;fill:url(#Gradient_bez_nazwy_101);}</style><linearGradient id="Gradient_bez_nazwy_101" x1="147.99" y1="143.16" x2="90.88" y2="66.65" gradientUnits="userSpaceOnUse"><stop offset="0" stop-color="#c72f5e" stop-opacity="0.8"/><stop offset="0.08" stop-color="#cd426c" stop-opacity="0.72"/><stop offset="0.4" stop-color="#e188a0" stop-opacity="0.41"/><stop offset="0.67" stop-color="#f0bcc6" stop-opacity="0.19"/><stop offset="0.88" stop-color="#f9dbdd" stop-opacity="0.05"/><stop offset="1" stop-color="#fce7e6" stop-opacity="0"/></linearGradient></defs><g id="phone"><path class="cls-1" d="M214,66.56C214,29.8,166.08,0,107,0S0,29.8,0,66.56C0,88.69,17.36,108.3,44.08,120.4a2.57,2.57,0,0,1,1,3.91l-21.5,28.1a2.58,2.58,0,0,0,2.72,4.06l87.19-23.42A2.61,2.61,0,0,1,114,133C169.83,130.72,214,101.85,214,66.56Z"/><path class="cls-2" d="M214.61,66.56c-.27-26.16-25.39-42.81-28.47-44.78-.95,13.76-4.64,34.1-17.85,53.58-38.62,57-119.81,49.32-123.23,49q-3.69,5.07-7.58,10.2-7.5,9.92-15,19.07a3.9,3.9,0,0,0,1.37,3.06A4,4,0,0,0,29,156l85.13-22.91a167.32,167.32,0,0,0,19.43-2c10.2-1.67,26.47-4.32,41.48-12.54C181.6,114.91,214.93,96.87,214.61,66.56Z"/></g></svg>