<svg id="Warstwa_1" data-name="Warstwa 1" xmlns="http://www.w3.org/2000/svg" xmlns:xlink="http://www.w3.org/1999/xlink" viewBox="0 0 79.83 129.42"><defs><style>.cls-1{fill:#31751b;}.cls-2{fill:#6caa55;}.cls-3{fill:url(#Gradient_bez_nazwy_5);}.cls-4{fill:url(#Gradient_bez_nazwy_3);}.cls-5{fill:url(#Gradient_bez_nazwy_5-2);}.cls-6{fill:#fce7e6;}.cls-7{fill:url(#Gradient_bez_nazwy_10);}.cls-8{fill:url(#Gradient_bez_nazwy_13);}.cls-9{fill:url(#Gradient_bez_nazwy_11);}.cls-10{fill:url(#Gradient_bez_nazwy_15);}</style><linearGradient id="Gradient_bez_nazwy_5" x1="275.96" y1="609.13" x2="254.43" y2="588.83" gradientTransform="translate(-108.89 -555.27) rotate(12.09)" gradientUnits="userSpaceOnUse"><stop offset="0.07" stop-color="#006837" stop-opacity="0.9"/><stop offset="0.48" stop-color="#398b47" stop-opacity="0.42"/><stop offset="0.81" stop-color="#6caa55" stop-opacity="0"/></linearGradient><linearGradient id="Gradient_bez_nazwy_3" x1="237.19" y1="602.49" x2="255.89" y2="601.66" gradientTransform="translate(-108.89 -555.27) rotate(12.09)" gradientUnits="userSpaceOnUse"><stop offset="0" stop-color="#006837" stop-opacity="0.9"/><stop offset="0.48" stop-color="#398b47" stop-opacity="0.42"/><stop offset="0.87" stop-color="#6caa55" stop-opacity="0"/></linearGradient><linearGradient id="Gradient_bez_nazwy_5-2" x1="289.46" y1="620.96" x2="257.01" y2="600.05" xlink:href="#Gradient_bez_nazwy_5"/><linearGradient id="Gradient_bez_nazwy_10" x1="334.79" y1="638.37" x2="308.54" y2="601.98" gradientTransform="translate(-186.79 -641.93) rotate(7.45)" gradientUnits="userSpaceOnUse"><stop offset="0" stop-color="#bc8f8f"/><stop offset="0.08" stop-color="#c19696" stop-opacity="0.92"/><stop offset="0.22" stop-color="#cfaaa9" stop-opacity="0.7"/><stop offset="0.43" stop-color="#e6c9c8" stop-opacity="0.35"/><stop offset="0.61" stop-color="#fce7e6" stop-opacity="0"/></linearGradient><linearGradient id="Gradient_bez_nazwy_13" x1="305.29" y1="547.05" x2="282.04" y2="523.77" gradientTransform="translate(-108.89 -555.27) rotate(12.09)" gradientUnits="userSpaceOnUse"><stop offset="0" stop-color="#bc8f8f"/><stop offset="0.41" stop-color="#d9b7b7" stop-opacity="0.54"/><stop offset="0.91" stop-color="#fce7e6" stop-opacity="0"/></linearGradient><linearGradient id="Gradient_bez_nazwy_11" x1="305.16" y1="636.4" x2="336.64" y2="631.54" gradientTransform="translate(-186.79 -641.93) rotate(7.45)" gradientUnits="userSpaceOnUse"><stop offset="0" stop-color="#bc8f8f"/><stop offset="0.38" stop-color="#d9b7b7" stop-opacity="0.54"/><stop offset="0.84" stop-color="#fce7e6" stop-opacity="0"/></linearGradient><linearGradient id="Gradient_bez_nazwy_15" x1="288.94" y1="555.88" x2="278.36" y2="548.3" gradientTransform="translate(-108.89 -555.27) rotate(12.09)" gradientUnits="userSpaceOnUse"><stop offset="0" stop-color="#006837" stop-opacity="0.9"/><stop offset="0.05" stop-color="#096e3a" stop-opacity="0.82"/><stop offset="0.33" stop-color="#348845" stop-opacity="0.47"/><stop offset="0.59" stop-color="#539b4e" stop-opacity="0.21"/><stop offset="0.82" stop-color="#65a653" stop-opacity="0.05"/><stop offset="1" stop-color="#6caa55" stop-opacity="0"/></linearGradient></defs><path class="cls-1" d="M54.32,63.43c-1.23,2.72-3,6.43-5.39,10.69-4.53,8.11-10.34,18.5-20.35,27.8-8.8,8.17-14.11,9.25-21.06,19.17a59.29,59.29,0,0,0-4.42,7.39,1.18,1.18,0,0,1-1.13.94,1.17,1.17,0,0,1-1.1-.77A84.75,84.75,0,0,1,13.8,97.41c3.28-4.82,6.65-9.76,12.77-14.55,5.4-4.23,9.1-5.32,17.21-11A119.48,119.48,0,0,0,54.32,63.43Z"/><path class="cls-1" d="M1.27,128.9c-.37-3.94-.79-9.5-1-16.15-.17-6.06-.92-19.39,1-30.07a103.87,103.87,0,0,1,16.65-40,77,77,0,0,0-1.8,15.46c-.14,9.51,1.62,10.75,1.05,18.07-.41,5.27-1.35,5.12-5.76,20.89C8.93,106,9,106.82,7.14,112.8,5,119.8,2.76,125.35,1.27,128.9Z"/><path class="cls-2" d="M1.72,129.4a1.18,1.18,0,0,1-.9-1.35C3.29,114.85,8,103.27,15,93.63A104.07,104.07,0,0,1,24.73,82.2c4.49-4.73,8.74-9.19,13.2-16.84a84.27,84.27,0,0,0,8.89-22,1.15,1.15,0,1,1,2.24.56,86.34,86.34,0,0,1-9.13,22.59c-4.6,7.89-9.13,12.66-13.51,17.28A99.93,99.93,0,0,0,16.84,95c-6.71,9.36-11.33,20.62-13.74,33.49a1.16,1.16,0,0,1-1.35.92Z"/><path class="cls-3" d="M1.72,129.4a1.18,1.18,0,0,1-.9-1.35C3.29,114.85,8,103.27,15,93.63A104.07,104.07,0,0,1,24.73,82.2c4.49-4.73,8.74-9.19,13.2-16.84a84.27,84.27,0,0,0,8.89-22,1.15,1.15,0,1,1,2.24.56,86.34,86.34,0,0,1-9.13,22.59c-4.6,7.89-9.13,12.66-13.51,17.28A99.93,99.93,0,0,0,16.84,95c-6.71,9.36-11.33,20.62-13.74,33.49a1.16,1.16,0,0,1-1.35.92Z"/><path class="cls-2" d="M4.66,96.12c1.61-6.44,3.17-7.35,4.88-14.79,2.05-8.91.78-11.81,2.19-20.12a65.11,65.11,0,0,1,6.2-18.56A104.19,104.19,0,0,0,8.15,60.22,101.77,101.77,0,0,0,1.28,82.68c-1.67,9.35-1.1,21.7-1,30.07.09,6.63.35,12.12.58,15.9l2.94-10.2A56.28,56.28,0,0,1,4.66,96.12Z"/><path class="cls-4" d="M4.66,96.12c1.61-6.44,3.17-7.35,4.88-14.79,2.05-8.91.78-11.81,2.19-20.12a65.11,65.11,0,0,1,6.2-18.56A104.19,104.19,0,0,0,8.15,60.22,101.77,101.77,0,0,0,1.28,82.68c-1.67,9.35-1.1,21.7-1,30.07.09,6.63.35,12.12.58,15.9l2.94-10.2A56.28,56.28,0,0,1,4.66,96.12Z"/><path class="cls-2" d="M54.32,63.43c-1.22,2.72-3,6.43-5.38,10.69-4.53,8.11-10.34,18.5-20.35,27.8-8.8,8.17-14.11,9.25-21.07,19.17a60.25,60.25,0,0,0-4.41,7.39,1.16,1.16,0,0,1-2.23.17q1.43-5.22,2.84-10.44a48.08,48.08,0,0,1,9.8-17.76,49.22,49.22,0,0,1,12.19-9.81C33,86.13,43.07,78.24,54.32,63.43Z"/><path class="cls-5" d="M54.31,63.43c-1.23,2.72-3,6.43-5.38,10.69-4.54,8.11-10.34,18.5-20.36,27.8-8.79,8.17-14.1,9.25-21.06,19.17a61,61,0,0,0-4.41,7.38,1.19,1.19,0,0,1-1.13.95,1.2,1.2,0,0,1-1.11-.77l2.85-10.44a48.18,48.18,0,0,1,9.8-17.77,49.18,49.18,0,0,1,12.19-9.8C33,86.13,43.06,78.23,54.31,63.43Z"/><path class="cls-6" d="M53.45,42.56c6-3,8.44-7.77,10-10.88,3.32-6.61,3.22-12.56,3.06-18.21A56.68,56.68,0,0,0,64.55.3,39.37,39.37,0,0,0,49.6,13.87C41,27.6,45.92,41.7,47,44.68A23.23,23.23,0,0,0,53.45,42.56Z"/><path class="cls-7" d="M51.53,43.09h0A24.41,24.41,0,0,0,55.3,41.3c2.77-1.69,6.39-3.89,8.71-7,3-4,3-8.62,2.59-17.84a104.65,104.65,0,0,0-2-16.2,40,40,0,0,0-8.63,5.91,35.84,35.84,0,0,0-7.4,9.38,31,31,0,0,0-4.7,13.58,28.42,28.42,0,0,0,1.77,12.19C48.3,43.09,50.25,43.62,51.53,43.09Z"/><path class="cls-6" d="M55,43.55a17.71,17.71,0,0,0,3.77-1.8,46,46,0,0,0,8.71-7C72.09,30,75.34,26.54,77.58,21A31.45,31.45,0,0,0,79.82,8.54,27,27,0,0,0,69,12.17c-2.88,1.77-4,3.38-8.71,6.42-2.68,1.73-4.51,2.63-5.27,3.06-3.6,2.07-7.18,7.58-6.87,22.79A19,19,0,0,0,55,43.55Z"/><path class="cls-8" d="M55,43.55a17.71,17.71,0,0,0,3.77-1.8,46,46,0,0,0,8.71-7C72.09,30,75.34,26.54,77.58,21A31.45,31.45,0,0,0,79.82,8.54,27,27,0,0,0,69,12.17c-2.88,1.77-4,3.38-8.71,6.42-2.68,1.73-4.51,2.63-5.27,3.06-3.6,2.07-7.18,7.58-6.87,22.79A19,19,0,0,0,55,43.55Z"/><path class="cls-9" d="M53.72,40.48a12,12,0,0,0,3-7.62c.11-4.68-2.78-6.41-4.69-12.51a27,27,0,0,1-1.22-8.44,36.77,36.77,0,0,0-6.1,22A36.34,36.34,0,0,0,47,44.68,15,15,0,0,0,53.72,40.48Z"/><path class="cls-6" d="M51.27,40.38a15.14,15.14,0,0,0,2.33-7c.37-5.12-2.29-6-4-13.12-1.41-5.89,0-7-1.73-11.51a24.81,24.81,0,0,0-6-8.74c-1.38,2.39-13.66,24.48-1.16,39.52a26.89,26.89,0,0,0,6.06,5.35A16.62,16.62,0,0,0,51.27,40.38Z"/><path class="cls-2" d="M47.51,45.56A7.93,7.93,0,0,0,45.67,41a8.25,8.25,0,0,0-5.88-2.74,16.8,16.8,0,0,0,7.72,7.31Z"/><path class="cls-2" d="M47.32,45.79a4.74,4.74,0,0,1-.94-3c.19-3,3.8-4.2,4-4.28a5.28,5.28,0,0,1-.27,5.07A6.34,6.34,0,0,1,47.32,45.79Z"/><path class="cls-2" d="M47.63,45.08a12.88,12.88,0,0,0,4.21,0,12.71,12.71,0,0,0,5.75-2.58A8.79,8.79,0,0,0,53,42,8.92,8.92,0,0,0,47.63,45.08Z"/><path class="cls-10" d="M47.66,45.08a12.55,12.55,0,0,0,4.21,0,13,13,0,0,0,5.75-2.58A8.79,8.79,0,0,0,53.06,42,9,9,0,0,0,47.66,45.08Z"/></svg>