<svg xmlns="http://www.w3.org/2000/svg" xmlns:xlink="http://www.w3.org/1999/xlink" viewBox="0 0 315.08 89.08"><defs><style>.cls-1{fill:#fce7e6;}.cls-2{opacity:0.7;fill:url(#Gradient_bez_nazwy_2);}.cls-3{font-size:52.93px;fill:#e52c61;font-family:FreightDispProSemibold-Regular, FreightDisp Pro;letter-spacing:0.01em;}.cls-4{letter-spacing:0.01em;}.cls-5{letter-spacing:0em;}.cls-6{letter-spacing:0.01em;}.cls-7{letter-spacing:0em;}</style><linearGradient id="Gradient_bez_nazwy_2" x1="214.45" y1="142.44" x2="132.7" y2="0.84" gradientUnits="userSpaceOnUse"><stop offset="0" stop-color="#c72f5e" stop-opacity="0.8"/><stop offset="0.12" stop-color="#ca3864" stop-opacity="0.76"/><stop offset="0.3" stop-color="#d15076" stop-opacity="0.66"/><stop offset="0.52" stop-color="#dc7894" stop-opacity="0.48"/><stop offset="0.77" stop-color="#ecaebc" stop-opacity="0.25"/><stop offset="1" stop-color="#fce7e6" stop-opacity="0"/></linearGradient></defs><g id="snooze"><rect class="cls-1" x="0.51" y="0.31" width="315.08" height="88.85" rx="12"/><path class="cls-2" d="M299.71,89.16H16.4a16.1,16.1,0,0,1-3.89,0c-1.73-.21-6.19-.74-9.25-4.38A12.35,12.35,0,0,1,.51,77.16c19.11,0,48,.06,83.19.51,122.23,1.58,190.59,6.13,208.93-18.38,4.61-6.15,7.75-16.39,8.12-17.62a67,67,0,0,0-1-41.36,17.09,17.09,0,0,1,3.88,0,13.86,13.86,0,0,1,8.35,3.4,12.57,12.57,0,0,1,3.65,8.6V77.16a12.41,12.41,0,0,1-2.67,7.53c-3.75,4.65-9.54,4.58-10.26,4.56Z"/><text class="cls-3" transform="translate(48.81 55.75)">p<tspan class="cls-4" x="28.21" y="0">l</tspan><tspan class="cls-5" x="42.4" y="0">a</tspan><tspan class="cls-6" x="65.69" y="0">y a</tspan><tspan class="cls-7" x="125.77" y="0">g</tspan><tspan class="cls-4" x="150.65" y="0">ain</tspan></text></g></svg>