<svg xmlns="http://www.w3.org/2000/svg" xmlns:xlink="http://www.w3.org/1999/xlink" viewBox="0 0 237.96 88.85"><defs><style>.cls-1{fill:#fce7e6;}.cls-2{opacity:0.7;fill:url(#Gradient_bez_nazwy_2);}.cls-3{font-size:52.93px;fill:#e52c61;font-family:FreightDispProSemibold-Regular, FreightDisp Pro;letter-spacing:0.01em;}.cls-4{letter-spacing:0.01em;}.cls-5{letter-spacing:0em;}.cls-6{letter-spacing:0.01em;}</style><linearGradient id="Gradient_bez_nazwy_2" x1="165.76" y1="125.45" x2="103.27" y2="17.23" gradientUnits="userSpaceOnUse"><stop offset="0" stop-color="#c72f5e" stop-opacity="0.8"/><stop offset="0.12" stop-color="#ca3864" stop-opacity="0.76"/><stop offset="0.3" stop-color="#d15076" stop-opacity="0.66"/><stop offset="0.52" stop-color="#dc7894" stop-opacity="0.48"/><stop offset="0.77" stop-color="#ecaebc" stop-opacity="0.25"/><stop offset="1" stop-color="#fce7e6" stop-opacity="0"/></linearGradient></defs><g id="snooze"><rect class="cls-1" width="237.96" height="88.85" rx="12"/><path class="cls-2" d="M226,88.85H12a12,12,0,0,1-12-12c14.43,0,36.25.06,62.83.51,92.3,1.58,143.93,6.13,157.79-18.38,3.47-6.15,5.85-16.39,6.12-17.62A87.61,87.61,0,0,0,226,0a12.28,12.28,0,0,1,8.47,3.53A11.93,11.93,0,0,1,238,12V76.85A12,12,0,0,1,226,88.85Z"/><text class="cls-3" transform="translate(74.98 55.44)">p<tspan class="cls-4" x="28.21" y="0">l</tspan><tspan class="cls-5" x="42.4" y="0">a</tspan><tspan class="cls-6" x="65.69" y="0">y</tspan></text></g></svg>