<svg xmlns="http://www.w3.org/2000/svg" xmlns:xlink="http://www.w3.org/1999/xlink" viewBox="0 0 315.08 89.08"><defs><style>.cls-1{fill:#fce7e6;}.cls-2{opacity:0.7;fill:url(#Gradient_bez_nazwy_2);}.cls-3{fill:#e52c61;}</style><linearGradient id="Gradient_bez_nazwy_2" x1="214.45" y1="142.44" x2="132.7" y2="0.84" gradientUnits="userSpaceOnUse"><stop offset="0" stop-color="#c72f5e" stop-opacity="0.8"/><stop offset="0.12" stop-color="#ca3864" stop-opacity="0.76"/><stop offset="0.3" stop-color="#d15076" stop-opacity="0.66"/><stop offset="0.52" stop-color="#dc7894" stop-opacity="0.48"/><stop offset="0.77" stop-color="#ecaebc" stop-opacity="0.25"/><stop offset="1" stop-color="#fce7e6" stop-opacity="0"/></linearGradient></defs><g id="snooze"><rect class="cls-1" x="0.51" y="0.31" width="315.08" height="88.85" rx="12"/><path class="cls-2" d="M299.71,89.16H16.4a16.1,16.1,0,0,1-3.89,0c-1.73-.21-6.19-.74-9.25-4.38A12.35,12.35,0,0,1,.51,77.16c19.11,0,48,.06,83.19.51,122.23,1.58,190.59,6.13,208.93-18.38,4.61-6.15,7.75-16.39,8.12-17.62a67,67,0,0,0-1-41.36,17.09,17.09,0,0,1,3.88,0,13.86,13.86,0,0,1,8.35,3.4,12.57,12.57,0,0,1,3.65,8.6V77.16a12.41,12.41,0,0,1-2.67,7.53c-3.75,4.65-9.54,4.58-10.26,4.56Z"/><path class="cls-3" d="M49.12,68.19l1.11-.06c1.49-.1,2.12-.26,2.12-.84V39.55c0-3.23-.42-3.76-2.22-4.18L49,35.1l.06-.63,8.63-2.33-.11,4.66.21.05c2.12-2.54,4.87-4.5,8-4.5,5.4,0,9.42,4.76,9.42,11.22,0,8.15-6.14,12.92-12.39,12.92a13,13,0,0,1-5.18-1h-.06V67.39c0,.42.27.64,2.44.74l1.85.06L62,69H49ZM69.5,45.27c0-5.4-2.64-9.48-6.72-9.48a7,7,0,0,0-5.19,2.49V50.72c1.38,2.59,3.71,4.66,6.14,4.66C67.23,55.38,69.5,50.93,69.5,45.27Z"/><path class="cls-3" d="M78.08,54.9l1,0c1.54-.11,2-.27,2-.9V26.63c0-2.54-.38-3-1.75-3.33l-1.75-.64.11-.58,8.63-2.33v34.3c0,.48.37.64,2.38.8l.9,0,.16.85H77.92Z"/><path class="cls-3" d="M105.45,52.2l-.11-.05c-2,2.22-4.18,4.18-6.93,4.18a5.56,5.56,0,0,1-5.72-5.4c0-3.76,3.12-6.35,12.91-8.68l.06-1.38c.1-4.92-2-7-5.24-7-1.86,0-3.66.9-3.66,1.38s1.43,1.48,1.43,3a2.68,2.68,0,0,1-2.85,2.54c-1.64,0-2.86-1-2.86-2.38,0-3.07,6.56-6.25,11.06-6.25,5.56,0,7.73,2.12,7.41,9l-.48,9.69c-.1,1.8.59,2.64,1.7,2.64A3.85,3.85,0,0,0,114.5,52l.47.47c-1.21,1.64-3.23,3.92-5.55,3.92S105.71,55,105.45,52.2Zm-.16-1,.31-8c-6.3,1.48-7.78,3.6-7.78,6.14a3.6,3.6,0,0,0,3.44,3.81A5.43,5.43,0,0,0,105.29,51.19Z"/><path class="cls-3" d="M116.24,66.39a2.79,2.79,0,0,1,2.86-2.86,3.2,3.2,0,0,1,3.28,2.54c1.22-.32,1.91-1.8,2.81-4.34L127,56.28h-.26l-8.84-19.64c-1-2.23-1.27-2.6-2.91-2.81L114,33.67l-.16-.79h12.44l-.16.79-1.06.16c-1.75.11-2.06.74-1.32,2.38l5.71,13.45,3.82-10.48c1.48-4.24,1.16-5-1.86-5.35l-1-.16-.16-.79h9.47l-.16.79-1.05.16c-2.12.21-2.39.9-4.24,5.77l-5.82,15.67-2.33,7.09c-1.54,4.66-3.28,7-6.3,7C117.88,69.4,116.24,68.19,116.24,66.39Z"/><path class="cls-3" d="M164.62,52.2l-.1-.05c-2,2.22-4.18,4.18-6.94,4.18a5.56,5.56,0,0,1-5.71-5.4c0-3.76,3.12-6.35,12.91-8.68l.05-1.38c.11-4.92-2-7-5.24-7-1.85,0-3.65.9-3.65,1.38s1.43,1.48,1.43,3a2.69,2.69,0,0,1-2.86,2.54c-1.64,0-2.86-1-2.86-2.38,0-3.07,6.57-6.25,11.07-6.25,5.56,0,7.73,2.12,7.41,9l-.48,9.69c-.1,1.8.58,2.64,1.7,2.64A3.85,3.85,0,0,0,173.67,52l.48.47c-1.22,1.64-3.23,3.92-5.56,3.92S164.89,55,164.62,52.2Zm-.16-1,.32-8c-6.3,1.48-7.78,3.6-7.78,6.14a3.6,3.6,0,0,0,3.44,3.81A5.41,5.41,0,0,0,164.46,51.19Z"/><path class="cls-3" d="M175.1,63.21c0-3,3.23-5,6.09-6.14V57c-3.12-.37-5.34-2.17-5.34-4.34,0-2.64,2.85-4.66,5.66-5.4v-.1a7.18,7.18,0,0,1-4.77-6.83c0-4.55,4-8.15,9.43-8.15a11.8,11.8,0,0,1,6.3,1.8l6.93-.85-.37,3-5.29-.8-.06.21a6.14,6.14,0,0,1,1.85,4.4c0,4.5-4.07,8-9.58,8a19.07,19.07,0,0,1-3.28-.32c-1.48.32-2.75,1.27-2.75,2.54,0,1.54,1.48,2.17,4.08,2.17,1.74,0,4.5-.16,6.4-.16,4.82,0,7.78,2.49,7.78,6.51,0,5.77-5.61,10.22-14,10.22C178.44,68.82,175.1,66.76,175.1,63.21Zm19.54-1.8c0-2.65-1.8-4.18-6.25-4.39-1.53-.06-3.86,0-6,.21a5.17,5.17,0,0,0-3.08,4.6c0,3.34,3.23,5.61,7.73,5.61S194.64,64.74,194.64,61.41Zm-4.19-21.07c0-4.34-1.27-7.3-4.34-7.3-2.54,0-4.07,2.49-4.07,6.72,0,4.5,1.59,7.2,4.07,7.2C188.87,47,190.45,44.63,190.45,40.34Z"/><path class="cls-3" d="M213.69,52.2l-.1-.05c-2,2.22-4.19,4.18-6.94,4.18a5.56,5.56,0,0,1-5.71-5.4c0-3.76,3.12-6.35,12.91-8.68l.05-1.38c.11-4.92-2-7-5.24-7-1.85,0-3.65.9-3.65,1.38s1.43,1.48,1.43,3a2.69,2.69,0,0,1-2.86,2.54c-1.64,0-2.86-1-2.86-2.38,0-3.07,6.57-6.25,11.06-6.25,5.56,0,7.73,2.12,7.42,9l-.48,9.69c-.1,1.8.58,2.64,1.69,2.64A3.85,3.85,0,0,0,222.74,52l.48.47c-1.22,1.64-3.23,3.92-5.56,3.92S214,55,213.69,52.2Zm-.16-1,.32-8c-6.3,1.48-7.78,3.6-7.78,6.14a3.6,3.6,0,0,0,3.44,3.81A5.41,5.41,0,0,0,213.53,51.19Z"/><path class="cls-3" d="M224.81,54.9l1,0c1.54-.11,2.12-.27,2.12-.9V39.55c0-3.23-.37-3.76-2.22-4.18l-1.17-.27.06-.63,8.57-2.33V54.05c0,.48.32.64,2.49.8l.85,0,.15.85h-12Zm2-30.17a3.36,3.36,0,1,1,6.72,0,3.36,3.36,0,1,1-6.72,0Z"/><path class="cls-3" d="M239.26,54.9l1,0c1.54-.11,2.12-.27,2.12-.9V39.6c0-3.28-.42-3.81-2.22-4.23l-1.22-.27.05-.63,8.68-2.33-.1,4.34h.1c2.39-2,5.46-4.4,8.9-4.4a5.63,5.63,0,0,1,4.23,1.65c1.27,1.27,1.75,3.33,1.75,5.71V54c0,.37.16.63,2.59.85l.8,0,.15.85h-11.9l.15-.85,1,0c1.8-.11,2-.43,2-.9V40.87c0-3.81-1.54-5.13-4.55-5.13a8.35,8.35,0,0,0-5.19,1.9V54.05c0,.48.32.64,2.38.8l1,0,.11.85h-12Z"/></g></svg>