<svg xmlns="http://www.w3.org/2000/svg" xmlns:xlink="http://www.w3.org/1999/xlink" viewBox="0 0 237.96 88.85"><defs><style>.cls-1{fill:#fce7e6;}.cls-2{opacity:0.7;fill:url(#Gradient_bez_nazwy_2);}.cls-3{fill:#e52c61;}</style><linearGradient id="Gradient_bez_nazwy_2" x1="165.76" y1="125.45" x2="103.27" y2="17.23" gradientUnits="userSpaceOnUse"><stop offset="0" stop-color="#c72f5e" stop-opacity="0.8"/><stop offset="0.12" stop-color="#ca3864" stop-opacity="0.76"/><stop offset="0.3" stop-color="#d15076" stop-opacity="0.66"/><stop offset="0.52" stop-color="#dc7894" stop-opacity="0.48"/><stop offset="0.77" stop-color="#ecaebc" stop-opacity="0.25"/><stop offset="1" stop-color="#fce7e6" stop-opacity="0"/></linearGradient></defs><g id="snooze"><rect class="cls-1" width="237.96" height="88.85" rx="12"/><path class="cls-2" d="M226,88.85H12a12,12,0,0,1-12-12c14.43,0,36.25.06,62.83.51,92.3,1.58,143.93,6.13,157.79-18.38,3.47-6.15,5.85-16.39,6.12-17.62A87.61,87.61,0,0,0,226,0a12.28,12.28,0,0,1,8.47,3.53A11.93,11.93,0,0,1,238,12V76.85A12,12,0,0,1,226,88.85Z"/><path class="cls-3" d="M75.29,67.87l1.11-.05c1.49-.1,2.12-.26,2.12-.85V39.24c0-3.23-.42-3.76-2.22-4.18l-1.16-.27,0-.63,8.63-2.33-.11,4.66.21,0C86,34,88.79,32,92,32c5.4,0,9.42,4.76,9.42,11.22,0,8.15-6.14,12.92-12.39,12.92a13,13,0,0,1-5.18-1h-.06V67.08c0,.42.27.64,2.44.74l1.85.05.16.85H75.14ZM95.67,45c0-5.39-2.64-9.47-6.72-9.47A7,7,0,0,0,83.76,38V50.41c1.38,2.59,3.71,4.65,6.14,4.65C93.4,55.06,95.67,50.62,95.67,45Z"/><path class="cls-3" d="M104.25,54.59l1-.05c1.54-.11,2-.27,2-.9V26.32c0-2.54-.37-3-1.75-3.33l-1.75-.64.11-.58,8.63-2.33v34.3c0,.48.37.64,2.38.8l.9.05.16.85H104.09Z"/><path class="cls-3" d="M131.62,51.89l-.11,0c-2,2.22-4.18,4.18-6.93,4.18a5.56,5.56,0,0,1-5.72-5.4c0-3.76,3.12-6.35,12.91-8.68l.06-1.38c.1-4.92-2-7-5.24-7-1.86,0-3.66.9-3.66,1.38s1.43,1.48,1.43,3a2.69,2.69,0,0,1-2.85,2.54c-1.65,0-2.86-1-2.86-2.38,0-3.07,6.56-6.25,11.06-6.25,5.56,0,7.73,2.12,7.41,9l-.48,9.69c-.1,1.8.59,2.64,1.7,2.64a3.9,3.9,0,0,0,2.33-1.37l.47.47c-1.21,1.64-3.23,3.92-5.55,3.92S131.88,54.64,131.62,51.89Zm-.16-1,.31-8C125.48,44.32,124,46.44,124,49a3.6,3.6,0,0,0,3.44,3.81A5.43,5.43,0,0,0,131.46,50.88Z"/><path class="cls-3" d="M142.41,66.07a2.78,2.78,0,0,1,2.86-2.85,3.2,3.2,0,0,1,3.28,2.54c1.22-.32,1.91-1.8,2.81-4.34L153.21,56H153l-8.84-19.63c-1-2.23-1.27-2.6-2.91-2.81l-1.06-.16-.16-.79h12.44l-.16.79-1.06.16c-1.75.11-2.06.74-1.32,2.38l5.71,13.45,3.82-10.48c1.48-4.24,1.16-5-1.86-5.35l-1-.16-.16-.79h9.47l-.16.79-1,.16c-2.12.21-2.39.9-4.24,5.77L154.59,55l-2.33,7.09c-1.53,4.66-3.28,7-6.3,7C144.06,69.09,142.41,67.87,142.41,66.07Z"/></g></svg>