<svg id="Warstwa_1" data-name="Warstwa 1" xmlns="http://www.w3.org/2000/svg" xmlns:xlink="http://www.w3.org/1999/xlink" viewBox="0 0 113.59 93.72"><defs><style>.cls-1{fill:#6caa55;}.cls-2{fill:url(#Gradient_bez_nazwy_36);}.cls-3{fill:#31751b;}.cls-4{fill:url(#Gradient_bez_nazwy_12);}.cls-5{fill:#3a8924;}.cls-6{fill:url(#Gradient_bez_nazwy_57);}.cls-7{fill:#7f182c;}.cls-8{fill:url(#Gradient_bez_nazwy_50);}.cls-9{fill:#9b1535;}.cls-10{fill:url(#Gradient_bez_nazwy_49);}.cls-11{fill:url(#Gradient_bez_nazwy_49-2);}.cls-12{fill:url(#Gradient_bez_nazwy_40);}.cls-13{fill:url(#Gradient_bez_nazwy_23);}.cls-14,.cls-15,.cls-16,.cls-17,.cls-18,.cls-19{opacity:0.73;}.cls-14{fill:url(#Gradient_bez_nazwy_48);}.cls-15{fill:url(#Gradient_bez_nazwy_42);}.cls-16{fill:url(#Gradient_bez_nazwy_42-2);}.cls-17{fill:url(#Gradient_bez_nazwy_42-3);}.cls-18{fill:url(#Gradient_bez_nazwy_48-2);}.cls-19{fill:url(#Gradient_bez_nazwy_48-3);}.cls-20{opacity:0.49;fill:url(#Gradient_bez_nazwy_53);}.cls-21{fill:url(#Gradient_bez_nazwy_56);}.cls-22{fill:url(#Gradient_bez_nazwy_56-2);}</style><linearGradient id="Gradient_bez_nazwy_36" x1="380.93" y1="2027.18" x2="369.14" y2="2012.08" gradientTransform="matrix(0.39, -0.92, 0.92, 0.39, -1935.64, -409.88)" gradientUnits="userSpaceOnUse"><stop offset="0" stop-color="#006837" stop-opacity="0.9"/><stop offset="0.45" stop-color="#398b47" stop-opacity="0.42"/><stop offset="0.82" stop-color="#6caa55" stop-opacity="0"/></linearGradient><linearGradient id="Gradient_bez_nazwy_12" x1="220.26" y1="2175.64" x2="204.21" y2="2178.84" gradientTransform="translate(-2087.27 -355.29) rotate(-72.95)" gradientUnits="userSpaceOnUse"><stop offset="0" stop-color="#006837" stop-opacity="0.9"/><stop offset="0.55" stop-color="#398b47" stop-opacity="0.42"/><stop offset="1" stop-color="#6caa55" stop-opacity="0"/></linearGradient><linearGradient id="Gradient_bez_nazwy_57" x1="234.76" y1="2189.11" x2="219.1" y2="2181.81" gradientTransform="translate(-2087.27 -355.29) rotate(-72.95)" gradientUnits="userSpaceOnUse"><stop offset="0.03" stop-color="#006837" stop-opacity="0.9"/><stop offset="0.49" stop-color="#1f7a2d" stop-opacity="0.42"/><stop offset="0.87" stop-color="#3a8924" stop-opacity="0"/></linearGradient><linearGradient id="Gradient_bez_nazwy_50" x1="316.17" y1="2047.21" x2="328.39" y2="2044.1" gradientTransform="translate(-2017.15 -380.02) rotate(-70.07)" gradientUnits="userSpaceOnUse"><stop offset="0.02" stop-color="#1c0303"/><stop offset="0.57" stop-color="#3e0a10" stop-opacity="0.45"/><stop offset="0.92" stop-color="#590f1a" stop-opacity="0"/></linearGradient><linearGradient id="Gradient_bez_nazwy_49" x1="314.71" y1="2042.8" x2="317.14" y2="2035.84" gradientTransform="translate(-2017.15 -380.02) rotate(-70.07)" gradientUnits="userSpaceOnUse"><stop offset="0.02" stop-color="#1c0303"/><stop offset="0.2" stop-color="#2f070a" stop-opacity="0.7"/><stop offset="0.64" stop-color="#4e0d16" stop-opacity="0.18"/><stop offset="1" stop-color="#590f1a" stop-opacity="0"/></linearGradient><linearGradient id="Gradient_bez_nazwy_49-2" x1="309.2" y1="2056.61" x2="320.96" y2="2034.18" xlink:href="#Gradient_bez_nazwy_49"/><linearGradient id="Gradient_bez_nazwy_40" x1="305.47" y1="2056.46" x2="333.01" y2="2068.2" gradientTransform="translate(-2017.15 -380.02) rotate(-70.07)" gradientUnits="userSpaceOnUse"><stop offset="0.06" stop-color="#1c0303"/><stop offset="0.29" stop-color="#2d0609" stop-opacity="0.72"/><stop offset="1" stop-color="#590f1a" stop-opacity="0"/></linearGradient><linearGradient id="Gradient_bez_nazwy_23" x1="307.44" y1="2044.32" x2="305.81" y2="2051.79" gradientTransform="translate(-2017.15 -380.02) rotate(-70.07)" gradientUnits="userSpaceOnUse"><stop offset="0.21" stop-color="#1c0303"/><stop offset="0.29" stop-color="#250506" stop-opacity="0.85"/><stop offset="0.7" stop-color="#4b0c15" stop-opacity="0.22"/><stop offset="1" stop-color="#590f1a" stop-opacity="0"/></linearGradient><linearGradient id="Gradient_bez_nazwy_48" x1="259.18" y1="2093.29" x2="260.66" y2="2089.26" gradientTransform="translate(-2063.01 -365.65) rotate(-71.92)" gradientUnits="userSpaceOnUse"><stop offset="0" stop-color="#fce7e6"/><stop offset="0.9" stop-color="#d64358" stop-opacity="0"/></linearGradient><linearGradient id="Gradient_bez_nazwy_42" x1="333.04" y1="2054.85" x2="334.04" y2="2048.17" gradientTransform="translate(-2017.15 -380.02) rotate(-70.07)" gradientUnits="userSpaceOnUse"><stop offset="0" stop-color="#fce7e6"/><stop offset="0.12" stop-color="#f6cfd1" stop-opacity="0.85"/><stop offset="0.41" stop-color="#e9949e" stop-opacity="0.49"/><stop offset="0.66" stop-color="#df6878" stop-opacity="0.23"/><stop offset="0.83" stop-color="#d84d61" stop-opacity="0.06"/><stop offset="0.92" stop-color="#d64358" stop-opacity="0"/></linearGradient><linearGradient id="Gradient_bez_nazwy_42-2" x1="327.56" y1="2046.94" x2="328.5" y2="2040.62" xlink:href="#Gradient_bez_nazwy_42"/><linearGradient id="Gradient_bez_nazwy_42-3" x1="-316.1" y1="2557.6" x2="-315.59" y2="2554.15" gradientTransform="translate(-2564.79 -61.55) rotate(-95.49)" xlink:href="#Gradient_bez_nazwy_42"/><linearGradient id="Gradient_bez_nazwy_48-2" x1="397.86" y1="1911.82" x2="398.7" y2="1909.55" gradientTransform="translate(-1899.09 -410.11) rotate(-65.28)" xlink:href="#Gradient_bez_nazwy_48"/><linearGradient id="Gradient_bez_nazwy_48-3" x1="599.17" y1="1534.26" x2="599.75" y2="1532.66" gradientTransform="matrix(0.61, -0.79, 0.79, 0.61, -1577.46, -441.61)" xlink:href="#Gradient_bez_nazwy_48"/><radialGradient id="Gradient_bez_nazwy_53" cx="306.33" cy="2059.82" fx="294.7279555038001" r="11.62" gradientTransform="matrix(0.34, -0.94, 1.43, 0.52, -3024.27, -745.2)" gradientUnits="userSpaceOnUse"><stop offset="0.04" stop-color="#fce7e6"/><stop offset="0.13" stop-color="#fadddd" stop-opacity="0.94"/><stop offset="0.29" stop-color="#f4c3c6" stop-opacity="0.78"/><stop offset="0.51" stop-color="#ea98a2" stop-opacity="0.52"/><stop offset="0.78" stop-color="#dc5e6f" stop-opacity="0.16"/><stop offset="0.9" stop-color="#d64358" stop-opacity="0"/></radialGradient><linearGradient id="Gradient_bez_nazwy_56" x1="238.38" y1="2144.89" x2="241.66" y2="2141.03" gradientTransform="translate(-2087.27 -355.29) rotate(-72.95)" gradientUnits="userSpaceOnUse"><stop offset="0.23" stop-color="#006837" stop-opacity="0.9"/><stop offset="0.65" stop-color="#1f7a2d" stop-opacity="0.42"/><stop offset="1" stop-color="#3a8924" stop-opacity="0"/></linearGradient><linearGradient id="Gradient_bez_nazwy_56-2" x1="-3035.41" y1="691.68" x2="-3031.59" y2="687.93" gradientTransform="matrix(-0.91, 0.42, 0.42, 0.91, -2997.46, 691.67)" xlink:href="#Gradient_bez_nazwy_56"/></defs><path class="cls-1" d="M77,57c-3.9.67-8.16-1.76-10.18-5-3.74-6,2.06-11.82-2.13-18.85C63.4,31,62.5,30.9,60.82,27.81c-2-3.77-1.82-5.7-3.8-8.42a14.41,14.41,0,0,0-5.18-4.28,54.81,54.81,0,0,1,17.31,9.35c3.65,2.94,9.88,8.08,13,16.76,1.11,3.12,2.95,8.29.34,12.17A8.91,8.91,0,0,1,77,57Z"/><path class="cls-2" d="M57.11,17.23c.93.43,2.27,1.06,3.88,1.86,1.39.69,2.46,1.24,2.65,1.34,1.89,1,6.72,4.11,12.07,10.7a47.25,47.25,0,0,1,5.35,7.8c2.2,4.1,3.44,6.47,3,9.64a10.17,10.17,0,0,1-4,7.12A8.52,8.52,0,0,1,77,57a7.35,7.35,0,0,1-4.35-2c-1.76-1.75-2-4.28-2.49-9.27-.26-2.79-.06-2.78-.3-4.86a34.91,34.91,0,0,0-2.11-8.46,32.08,32.08,0,0,0-6.53-11.52A28,28,0,0,0,57.11,17.23Z"/><path class="cls-3" d="M57.87,17.62c.65.26,1.63.69,2.8,1.25A51,51,0,0,1,75.3,29.45a32.13,32.13,0,0,1,6.19,8.15c.75,1.47,4.29,8.67,2.19,13.68A10.82,10.82,0,0,1,81,55.06a9.34,9.34,0,0,1-2.32,1.41C81,53.3,81,51.3,80.6,50c-.37-1.11-1-1.47-3-4.17-.39-.53-1.51-2.07-2.29-3.41-2-3.35-1.53-5.13-3.07-9.46a37.3,37.3,0,0,0-2.47-5.32C68.45,25.4,65.33,21,57.87,17.62Z"/><path class="cls-3" d="M78.55,72.53,77,71c0-.17,0-.42,0-.73a103.41,103.41,0,0,0-2.3-21.37,57.77,57.77,0,0,0-5.39-15.21,53.52,53.52,0,0,0-7-10.17,52.81,52.81,0,0,1,7.86,10.38,57.16,57.16,0,0,1,6.41,17.52A99.85,99.85,0,0,1,78.4,67.8C78.5,69.75,78.54,71.38,78.55,72.53Z"/><path class="cls-1" d="M34.35,72.72c2.2,4.69,4.8,6.75,6.82,7.75s4.38,1.44,7.26,3.87c.86.72.86.86,2.35,2.23a57.43,57.43,0,0,0,5.53,4.55c4,2.73,11.82,4,17.45.32a11.58,11.58,0,0,0,5.12-6.78c.14-.61,1.1-4.55-1-7.15-1.67-2-5.46-2.14-13-2.26l-11.14-.19A88.79,88.79,0,0,1,34.35,72.72Z"/><path class="cls-4" d="M79.24,82.24a8.65,8.65,0,0,0-5,.35c-1.77.73-2.38,1.8-3.76,2.77-3,2.09-6.68,1.68-7.69,1.56-6.08-.68-10.1-6.37-14.54-7.43-1.49-.35-3.09-.63-3.1-.63-1.61-.28-2.77-.39-3-.42-1.51-.19-3.91-1.35-7.73-5.72A124.22,124.22,0,0,0,57,74.26c9.84-.25,17.57-1.51,20.81,2.9A8.19,8.19,0,0,1,79.24,82.24Z"/><path class="cls-3" d="M79,79.87a7.26,7.26,0,0,0-4-2.35c-3.79-.62-5,3.19-9.23,4.13C59.19,83.12,55.65,75.34,47,76.4a15.76,15.76,0,0,1-4,.29,15.28,15.28,0,0,1-8.65-4c10.48,1.59,17.33,1.69,21.81,1.42l1.69-.1c11.62-.66,13.74-.45,16,.39,3.1,1.18,4.14,2.73,4.56,3.53A6.49,6.49,0,0,1,79,79.87Z"/><path class="cls-3" d="M91.3,80.64a.72.72,0,0,1-.52.8A84.41,84.41,0,0,1,79.89,83a85.75,85.75,0,0,1-17.41-.43,80.46,80.46,0,0,1-9.43-1.72,76.77,76.77,0,0,1-11.21-3.71c3.62,1.21,6.78,2,9.25,2.62a76.26,76.26,0,0,0,9.06,1.65,73.86,73.86,0,0,0,8.09.46,151.53,151.53,0,0,0,22.2-1.82A.73.73,0,0,1,91.3,80.64Z"/><path class="cls-5" d="M113.53,92.13a1.8,1.8,0,0,1-.08.21,1.42,1.42,0,0,1-1.9.65A255,255,0,0,1,59.2,58.92a255.87,255.87,0,0,1-24.85-24A1.42,1.42,0,0,1,36.46,33,253.68,253.68,0,0,0,61,56.75a252.18,252.18,0,0,0,51.76,33.69A1.42,1.42,0,0,1,113.53,92.13Z"/><path class="cls-6" d="M112.79,90.44A252.18,252.18,0,0,1,61,56.75,253.68,253.68,0,0,1,36.46,33a1.43,1.43,0,0,0-1.25-.45,1.44,1.44,0,0,0,.36.84,255.72,255.72,0,0,0,24.84,24,255.05,255.05,0,0,0,52.35,34.08,1.58,1.58,0,0,0,.82.13A1.4,1.4,0,0,0,112.79,90.44Z"/><path class="cls-7" d="M11,6.11a23.25,23.25,0,0,0,2.65.42c3.45.35,4.88-.32,6.35.57a5,5,0,0,1,2,3C23.35,14.32,21.67,21,18,21.75c-2.89.62-6.09-2.65-7.44-5.4C8.22,11.56,10.65,6.72,11,6.11Z"/><path class="cls-8" d="M11,6.05a22.8,22.8,0,0,0,2.65.43c3.45.34,4.88-.32,6.35.56a5,5,0,0,1,2,3c1.43,4.26-.25,10.92-3.9,11.7-2.89.62-6.09-2.65-7.44-5.41C8.24,11.5,10.67,6.67,11,6.05Z"/><path class="cls-9" d="M9,6.07a2.37,2.37,0,0,1,1-1.54,1.41,1.41,0,0,1,1.48,0c.54.5,0,1.84-.31,2.8A25.5,25.5,0,0,0,10,13.87l-.86.19C9,13.27,8.3,8.45,9,6.07Z"/><path class="cls-7" d="M1.55,18.82a18.24,18.24,0,0,1,1.72,2.49c1.76,3.12,1.42,4.85,2.3,6.26,2,3.13,10.18,5,14,.31,3.18-3.81,1.76-10-1.58-12.79C13.94,11.66,6.1,12.58,1.55,18.82Z"/><path class="cls-10" d="M1.52,18.79a16.42,16.42,0,0,1,1.72,2.48C5,24.39,4.66,26.12,5.55,27.53c2,3.13,10.18,4.95,14,.31,3.17-3.8,1.75-10-1.59-12.79C13.91,11.63,6.07,12.54,1.52,18.79Z"/><path class="cls-7" d="M20.43,3.8a20.2,20.2,0,0,0-5.68,6.63c-.83,1.57-3.81,7.19-1.83,13.45C14.45,28.69,19.29,35.1,26,34.6c6.94-.52,11.37-8.15,11.25-14.21a14.5,14.5,0,0,0-3.72-9c-1.6-1.71-4-2.95-8.76-5.44C23,5,21.45,4.27,20.43,3.8Z"/><path class="cls-9" d="M16.94,5.1C18.63,2.75,19.63,2,20.83,1.85c.71-.07,1.79.07,2,.66.45,1.05-2,2.87-3.64,4.44a23.5,23.5,0,0,0-6.12,10.57l-1.73.81a31.11,31.11,0,0,1,1.13-4.76A28.26,28.26,0,0,1,16.94,5.1Z"/><path class="cls-7" d="M1.86,29.86A16.84,16.84,0,0,1,4.58,32a17.2,17.2,0,0,1,4.19,6.3,20.55,20.55,0,0,0,16.94.35c8.69-3.91,10.91-12.47,11.16-13.49A23.85,23.85,0,0,0,30,19.49c-1.91-1-8-4.33-15-2.48C5.67,19.46,2.18,29,1.86,29.86Z"/><path class="cls-11" d="M1.93,29.85a16.84,16.84,0,0,1,2.72,2.09,17.25,17.25,0,0,1,4.19,6.3,20.52,20.52,0,0,0,16.94.34c8.69-3.9,10.91-12.46,11.15-13.48a23.78,23.78,0,0,0-6.85-5.62c-1.91-1-8-4.33-15-2.48C5.74,19.45,2.25,29,1.93,29.85Z"/><path class="cls-7" d="M38.46,36.94a21.33,21.33,0,0,0,1.81-2.55,20,20,0,0,0,2.71-7c.6-4.73-2.36-8.84-5.5-13.2C35.7,11.72,34.77,11.07,32.83,8A46.68,46.68,0,0,1,29.61,1.9a19.82,19.82,0,0,0-4.82,4.44c-.31.39-6.73,9-3.34,18.77,2.68,7.73,10.79,14.2,15.59,12.6A4.81,4.81,0,0,0,38.46,36.94Z"/><path class="cls-12" d="M37.65,37.92a25.24,25.24,0,0,0-2.86-5.29,22.41,22.41,0,0,0-10-8.24,19.86,19.86,0,0,0-4-1.09A22.25,22.25,0,0,1,20.48,20,21.8,21.8,0,0,1,25.56,5.4a20,20,0,0,1,4.05-3.5,45.24,45.24,0,0,0,2.67,5.18c.27.44,1,1.7,2.18,3.27,1.27,1.76,1.77,2.21,3,3.86a36,36,0,0,1,2.77,4c1.45,2.49,2.81,4.83,2.78,7.94A13.66,13.66,0,0,1,42,31a16.42,16.42,0,0,1-1.91,3.62,17.06,17.06,0,0,1-1,1.63A16.65,16.65,0,0,1,37.65,37.92Z"/><path class="cls-9" d="M20,22.45a28.56,28.56,0,0,1,0-6.52,23.4,23.4,0,0,1,2.46-8.67c.92-1.75,2.16-3.09,4.64-5.78A4,4,0,0,1,29.54,0c.09,0,1.45-.12,1.92.53.7,1-.82,3-4.23,8-3.74,5.38-5,7.32-5.48,10.21a14.1,14.1,0,0,0-.14,3.42Z"/><path class="cls-7" d="M35.28,40.12a17.44,17.44,0,0,1-6.22,3.73c-5.19,1.46-8-2.3-17-3.4a37.32,37.32,0,0,0-6-.25,11.62,11.62,0,0,1-.54-5.3c.62-4.49,3.87-7.21,5.73-8.77A16.21,16.21,0,0,1,20,22a16,16,0,0,1,9.33,1.92C36,27.27,38.64,33.6,39.39,35.59A22.66,22.66,0,0,1,35.28,40.12Z"/><path class="cls-13" d="M6.09,40.2l.51-.05a2.48,2.48,0,0,0,.53-.06,4.53,4.53,0,0,0,2.18-1.26c1.41-1.44,1.61-4.57,2.74-7.25a14.65,14.65,0,0,1,3.11-4.52A18.53,18.53,0,0,1,23.41,22a18.83,18.83,0,0,0-8.08,1.31c-4.45,1.81-10.58,6.4-10.5,12.37A9.8,9.8,0,0,0,6.09,40.2Z"/><path class="cls-9" d="M2.33,43.75a2.61,2.61,0,0,0,1.89-1,15.19,15.19,0,0,0,3.19-4.6c1-2.7,3.2-8.83,5.13-11.35,1.7-2.2,5.41-4.51,14.54-3.87a19,19,0,0,0-5-1,20.44,20.44,0,0,0-12.4,3.36C1.45,31,0,42.4,1.43,43.43A2,2,0,0,0,2.33,43.75Z"/><path class="cls-14" d="M1.12,42.41A2.59,2.59,0,0,1,1,40.88a5,5,0,0,1,.18-1A10.44,10.44,0,0,0,3,38.18a24.41,24.41,0,0,0,3.51-6.37,6.2,6.2,0,0,1,2-2.53,1.09,1.09,0,0,1,.85-.2.74.74,0,0,1,.47.34.83.83,0,0,1-.1.92C9,31.84,8.57,33,8.27,33.86c-.15.42-.47,1.32-1,2.67-.26.7-.4,1.06-.47,1.22a13.43,13.43,0,0,1-1.67,2.7,19.94,19.94,0,0,1-1.69,1.9,2.3,2.3,0,0,1-1,.66,1.38,1.38,0,0,1-.56.07A1.22,1.22,0,0,1,1.12,42.41Z"/><path class="cls-15" d="M22.25,12.41c-.19-.12-.24-.48,0-1.6a11,11,0,0,1,1.16-3.33,12.37,12.37,0,0,1,1-1.58c3.25-4.49,3.86-5.24,5-5.47.18,0,1.26-.25,1.61.24s-.53,1.77-1.79,3.68c-1.35,2.06-4.41,7-6.3,8C22.81,12.38,22.46,12.56,22.25,12.41Z"/><path class="cls-16" d="M13,15.72a.29.29,0,0,1-.27-.05c-.17-.12-.15-.42-.15-.53.22-3.51,4-8.78,4-8.78,2.16-3,3.1-4.06,4.47-4.16.07,0,1.17-.08,1.36.38s-.74,1.15-3,3.24C18.44,6.7,18,7.14,17.8,7.33c-2.47,2.7-4.49,7.76-4.62,8.12A.39.39,0,0,1,13,15.72Z"/><path class="cls-17" d="M9.73,12.29a.24.24,0,0,1-.13.13c-.11,0-.22-.27-.24-.35A13.35,13.35,0,0,1,9.22,8.3a9.16,9.16,0,0,1,.39-2.5,1.7,1.7,0,0,1,.79-1.11c.22-.11.68-.24.9,0s0,.8-.63,2.91c-.15.47-.22.71-.24.8A34.18,34.18,0,0,0,9.83,12,.73.73,0,0,1,9.73,12.29Z"/><path class="cls-9" d="M18.41,16.51a17.52,17.52,0,0,0-4.7.29C4.29,18.68.24,27.78,0,29.41c0,.3-.14,1.11.31,1.47a1.12,1.12,0,0,0,.83.17c1.63-.19,4.7-6.21,4.72-6.24C7.29,22.07,10.46,18.74,18.41,16.51Z"/><path class="cls-9" d="M11.41,13.11a13.87,13.87,0,0,0-3.59.51C5.77,14.19,4.19,15.45,1,18c-.33.27-1,.82-.88,1.22s.58.4.71.42C2.5,19.92,4.16,17,7.17,15A13.78,13.78,0,0,1,11.41,13.11Z"/><path class="cls-18" d="M.08,30.37a1.44,1.44,0,0,1,0-.87A3.05,3.05,0,0,1,.25,29a6.07,6.07,0,0,0,1.15-.83,13.51,13.51,0,0,0,2.39-3.34A3.49,3.49,0,0,1,5.08,23.5a.66.66,0,0,1,.49-.06.49.49,0,0,1,.24.22.5.5,0,0,1-.12.52c-.49.79-.83,1.43-1.05,1.87-.11.22-.35.71-.72,1.43-.2.38-.3.57-.35.65a7.67,7.67,0,0,1-1.11,1.41,11.92,11.92,0,0,1-1.07.95,1.31,1.31,0,0,1-.63.3.63.63,0,0,1-.32,0A.67.67,0,0,1,.08,30.37Z"/><path class="cls-19" d="M.32,19.11c-.09-.19.1-.45.2-.58A1.6,1.6,0,0,1,1,18.09c.65-.41,3.74-2.72,4.33-3.16a2.83,2.83,0,0,1,1.48-.59c.15,0,.47,0,.51.09s-1.13.74-2,1.61l-.61.59c-.24.23-.35.33-.51.51s-.36.41-.43.49a5.8,5.8,0,0,1-2.16,1.69,1.67,1.67,0,0,1-.61.09,1.08,1.08,0,0,1-.42-.11C.44,19.24.36,19.2.32,19.11Z"/><path class="cls-20" d="M10,40.22a31.34,31.34,0,0,1,6.43,1.07c2.05.56,3.73,1.18,3.73,1.18.75.23,1.29.46,1.45.52a16.6,16.6,0,0,0,2.8.89,10.47,10.47,0,0,0,1.06.17,8.93,8.93,0,0,0,1.23-1c1.84-1.91,1.77-3.84,2.66-5.36C30,36.48,31.5,35.17,35,34.56a7.78,7.78,0,0,1,.57-2.35,7.68,7.68,0,0,1,1.1-1.85c-3.75-4.56-9.28-6.9-14.4-5.86-1.15.24-5.29,1.07-7.32,4.33-1.38,2.21-1,4.27-3.08,8.37A23.56,23.56,0,0,1,10,40.22Z"/><path class="cls-5" d="M40.08,39.83a4.44,4.44,0,0,0-2.15-2.54c-2.1-1-4.71.43-6.07,1.87-1.56,1.66-1.08,3-2.58,4.84a8.8,8.8,0,0,1-4.55,2.85,8.25,8.25,0,0,0,5.84-.79c2.27-1.37,2.48-3.47,5-5A9,9,0,0,1,40.08,39.83Z"/><path class="cls-21" d="M32.38,40.68c-2.22,2.15-1.82,3.65-3.45,4.94a6.41,6.41,0,0,1-4.2,1.23,10.61,10.61,0,0,0,3,.08A7.12,7.12,0,0,0,30,46.34a7,7,0,0,0,1.63-1.08c.9-.79.83-1.11,1.82-2.29a7.81,7.81,0,0,1,2.59-2.23,8.93,8.93,0,0,1,1.63-.59A7.82,7.82,0,0,1,39,39.91,4,4,0,0,0,37.52,39a4.13,4.13,0,0,0-2.27,0A6,6,0,0,0,32.38,40.68Z"/><path class="cls-5" d="M40.61,39.12a4.51,4.51,0,0,1-2.82-1.78c-1.26-1.94-.23-4.72,1-6.26,1.42-1.79,2.78-1.49,4.43-3.23a8.86,8.86,0,0,0,2.19-4.91,8.26,8.26,0,0,1,0,5.89c-1,2.44-3.09,3-4.26,5.66A8.85,8.85,0,0,0,40.61,39.12Z"/><path class="cls-22" d="M40.37,31.37c2.17-2.54,3.43-2.42,4.42-4.1a6.49,6.49,0,0,0,.63-4.33,10.75,10.75,0,0,1,.49,2.94,7.34,7.34,0,0,1-.26,2.38A7,7,0,0,1,44.81,30c-.66,1-1,1-2,2.12A7.74,7.74,0,0,0,41,35a9.45,9.45,0,0,0-.36,1.7,9,9,0,0,0,0,2.1,3.48,3.48,0,0,1-1.76-1.55,3.73,3.73,0,0,1-.23-2.71A7.47,7.47,0,0,1,40.37,31.37Z"/></svg>