<svg id="Warstwa_1" data-name="Warstwa 1" xmlns="http://www.w3.org/2000/svg" xmlns:xlink="http://www.w3.org/1999/xlink" viewBox="0 0 280.97 499.67"><defs><style>.cls-1{fill:#042033;}.cls-2,.cls-4{fill:#010b11;}.cls-2{opacity:0.56;}.cls-3{fill:#0c0606;}.cls-11,.cls-5{fill:#141414;}.cls-6{fill:url(#Gradient_bez_nazwy_34);}.cls-7{fill:url(#Gradient_bez_nazwy_34-2);}.cls-8{fill:url(#Gradient_bez_nazwy_25);}.cls-9{fill:url(#Gradient_bez_nazwy_21);}.cls-10{fill:#fce7e6;}.cls-11{opacity:0.3;}.cls-12{fill:url(#Gradient_bez_nazwy_61);}.cls-13{fill:url(#Gradient_bez_nazwy_60);}.cls-14{fill:#191919;}.cls-15{fill:url(#Gradient_bez_nazwy_62);}.cls-16{fill:url(#Gradient_bez_nazwy_66);}</style><linearGradient id="Gradient_bez_nazwy_34" x1="-138.99" y1="445.53" x2="-194.17" y2="438.41" gradientTransform="matrix(-1, 0, 0, 1, -11.08, 0)" gradientUnits="userSpaceOnUse"><stop offset="0.07" stop-color="#659bff" stop-opacity="0.7"/><stop offset="0.15" stop-color="#4e77c4" stop-opacity="0.54"/><stop offset="0.26" stop-color="#365389" stop-opacity="0.37"/><stop offset="0.36" stop-color="#233557" stop-opacity="0.24"/><stop offset="0.47" stop-color="#131e31" stop-opacity="0.13"/><stop offset="0.58" stop-color="#090d16" stop-opacity="0.06"/><stop offset="0.69" stop-color="#020305" stop-opacity="0.01"/><stop offset="0.81" stop-opacity="0"/></linearGradient><linearGradient id="Gradient_bez_nazwy_34-2" x1="-121.94" y1="455.39" x2="-154.53" y2="451.18" xlink:href="#Gradient_bez_nazwy_34"/><linearGradient id="Gradient_bez_nazwy_25" x1="56.93" y1="316.1" x2="254.58" y2="318.57" gradientUnits="userSpaceOnUse"><stop offset="0.08" stop-color="#659bff" stop-opacity="0.7"/><stop offset="0.17" stop-color="#4e77c4" stop-opacity="0.54"/><stop offset="0.27" stop-color="#365389" stop-opacity="0.37"/><stop offset="0.37" stop-color="#233557" stop-opacity="0.24"/><stop offset="0.47" stop-color="#131e31" stop-opacity="0.13"/><stop offset="0.58" stop-color="#090d16" stop-opacity="0.06"/><stop offset="0.69" stop-color="#020305" stop-opacity="0.01"/><stop offset="0.81" stop-opacity="0"/></linearGradient><linearGradient id="Gradient_bez_nazwy_21" x1="263.92" y1="248.99" x2="321.95" y2="223.34" gradientTransform="translate(-114.26 77.9) rotate(-5.46)" gradientUnits="userSpaceOnUse"><stop offset="0" stop-color="#659bff" stop-opacity="0.7"/><stop offset="0.09" stop-color="#4e77c4" stop-opacity="0.54"/><stop offset="0.21" stop-color="#365389" stop-opacity="0.37"/><stop offset="0.32" stop-color="#233557" stop-opacity="0.24"/><stop offset="0.44" stop-color="#131e31" stop-opacity="0.13"/><stop offset="0.56" stop-color="#090d16" stop-opacity="0.06"/><stop offset="0.68" stop-color="#020305" stop-opacity="0.01"/><stop offset="0.81" stop-opacity="0"/></linearGradient><radialGradient id="Gradient_bez_nazwy_61" cx="-1281.84" cy="2420.86" fx="-1292.3667876900463" r="13.75" gradientTransform="matrix(1, 0.05, 0.03, -0.71, 1355.51, 2270.41)" gradientUnits="userSpaceOnUse"><stop offset="0" stop-color="#9e8465" stop-opacity="0.7"/><stop offset="0.12" stop-color="#947c5f" stop-opacity="0.66"/><stop offset="0.31" stop-color="#78644d" stop-opacity="0.53"/><stop offset="0.53" stop-color="#4a3e2f" stop-opacity="0.33"/><stop offset="0.77" stop-color="#0b0907" stop-opacity="0.05"/><stop offset="0.81" stop-opacity="0"/></radialGradient><radialGradient id="Gradient_bez_nazwy_60" cx="-1266.3" cy="2418.01" fx="-1275.906032332838" r="11.2" gradientTransform="matrix(1, -0.06, -0.05, -0.86, 1522.71, 2492.55)" gradientUnits="userSpaceOnUse"><stop offset="0" stop-color="#9e8465" stop-opacity="0.7"/><stop offset="0.14" stop-color="#977e60" stop-opacity="0.67"/><stop offset="0.3" stop-color="#826d53" stop-opacity="0.58"/><stop offset="0.47" stop-color="#60503d" stop-opacity="0.43"/><stop offset="0.65" stop-color="#31291f" stop-opacity="0.22"/><stop offset="0.81" stop-opacity="0"/></radialGradient><linearGradient id="Gradient_bez_nazwy_62" x1="-1604.73" y1="-6.02" x2="-1443.77" y2="83.29" gradientTransform="translate(1647.18 284.26) rotate(8.12)" gradientUnits="userSpaceOnUse"><stop offset="0.02" stop-color="#659bff" stop-opacity="0.8"/><stop offset="0.02" stop-color="#6296f7" stop-opacity="0.78"/><stop offset="0.05" stop-color="#4e77c4" stop-opacity="0.61"/><stop offset="0.09" stop-color="#3b5a95" stop-opacity="0.47"/><stop offset="0.12" stop-color="#2b426c" stop-opacity="0.34"/><stop offset="0.16" stop-color="#1d2d4a" stop-opacity="0.23"/><stop offset="0.21" stop-color="#131c2f" stop-opacity="0.15"/><stop offset="0.27" stop-color="#0a101a" stop-opacity="0.08"/><stop offset="0.33" stop-color="#04070b" stop-opacity="0.03"/><stop offset="0.43" stop-color="#010102" stop-opacity="0.01"/><stop offset="0.69" stop-opacity="0"/></linearGradient><radialGradient id="Gradient_bez_nazwy_66" cx="-1635.92" cy="132.81" fx="-1644.7359166621752" r="15.84" gradientTransform="matrix(0.99, 0.14, -0.69, 4.85, 1720.43, -228.93)" gradientUnits="userSpaceOnUse"><stop offset="0" stop-color="#659bff" stop-opacity="0.8"/><stop offset="0.06" stop-color="#537fd2" stop-opacity="0.66"/><stop offset="0.15" stop-color="#3d5e9a" stop-opacity="0.48"/><stop offset="0.25" stop-color="#2a416b" stop-opacity="0.33"/><stop offset="0.34" stop-color="#1b2944" stop-opacity="0.21"/><stop offset="0.44" stop-color="#0f1726" stop-opacity="0.12"/><stop offset="0.55" stop-color="#070a11" stop-opacity="0.05"/><stop offset="0.66" stop-color="#020204" stop-opacity="0.01"/><stop offset="0.81" stop-opacity="0"/></radialGradient></defs><path class="cls-1" d="M223.3,293.59c1.15-9.72,2.09-19.91,2.73-30.54,1.14-18.66,1.23-36.19.64-52.38l-22.76-1.93-20.39,38.89Z"/><path class="cls-2" d="M222.68,298.82c1.35-11.33,2.47-23.27,3.27-35.77.77-11.94,1.19-23.41,1.33-34.36l-30,6.3L197,250.08c1.39.17,3.25.38,5.46.57.72.06,3.75.32,5.83.39,7.92.23,10.15-2.19,12.3-.64,1.95,1.39,1.74,4.54,1.41,10.21-.32,5.42-.57,9.68-2.68,10.47s-5-2.52-11.62-9.45c-5.36-5.61-9.84-10-12.77-12.89q9,17.13,18.94,34.76Q218.24,291.28,222.68,298.82Z"/><path class="cls-3" d="M141.49,464.08c6.54-4.44,14.55-3.87,18.84.54,3.77,3.88,3.37,9.39,3.27,10.46-1.82,2.42-3.89,4.94-6.21,7.52a114.76,114.76,0,0,1-8.71,8.69c-1.34,1-9.12,6.41-18.68,4.14a21.56,21.56,0,0,1-9-4.59q-.48-11.89-1-23.78Z"/><path class="cls-3" d="M162.57,472.78c6.41-5.5,15.24-4.83,19.41,0,2.9,3.36,3.4,8.56,1.53,13.28l-14.81,9.7c-1.39.89-9.47,5.87-18.89,3.06a21.46,21.46,0,0,1-8.68-5.1q.18-11.91.38-23.8Z"/><path class="cls-1" d="M99.34,342.12q3.63,31,8.5,63.67,5.49,36.54,11.93,70.74a24.5,24.5,0,0,0,7.35,2.35,24.83,24.83,0,0,0,12-1.18,56.31,56.31,0,0,0,27.37-1.22l12.81-136.73a203.29,203.29,0,0,1-80,2.37Z"/><path class="cls-4" d="M139.16,477.7l-4.11-96.05a14.3,14.3,0,0,1-8.52-4.7q5,50.78,9.91,101.55Z"/><path class="cls-3" d="M137.23,339.38A265.28,265.28,0,0,0,176.1,338l-1,9.22a219.3,219.3,0,0,1-37.53,2.73q-.17-2.6-.27-5.34C137.26,342.8,137.24,341.07,137.23,339.38Z"/><path class="cls-5" d="M95.47,345.23l.66-10.57a264.79,264.79,0,0,0,28.42,4c4.33.37,8.56.61,12.68.76,0,1.69,0,3.42.09,5.19s.16,3.61.27,5.34q-7.26-.09-15-.71A218.45,218.45,0,0,1,95.47,345.23Z"/><path class="cls-6" d="M158.23,412.52c.27,1.18.53,2.38.77,3.58,3.2,16.08,4,37-2.92,62.45-3,.08-6.18.05-9.59-.15-2.58-.16-5-.4-7.33-.7l-2.79-65.18a12.91,12.91,0,0,1,21.86,0Z"/><path class="cls-7" d="M118,433.84a40.51,40.51,0,0,1,8,9.07c9.55,14.79,6.25,31.45,5.11,36.24a25,25,0,0,1-9.35-1.7c-.73-.29-1.41-.6-2-.92l-7.45-42.29c-.42-2.76-.22-5.14.72-5.5S116.19,430.34,118,433.84Z"/><path class="cls-2" d="M180.28,332.86c4.27-13,1.27-27.07-7.83-36.46-12.14-12.52-32-13.38-42.74-5.85s-6.91,19.51-11.55,54.07c-3.37,25.17-8.28,40.72-10.93,53.34q8.61,23,17.21,46c6.75-29.31,15.49-39.82,20-43.91s7.47-7.42,14.8-12.76c2.95-2.15,5.93-4.1,7.92-3.07s2,4.22,2,5.62c.5,19.32-4.51,70.48-4.51,70.48-.34,3.46-.86,9.43-1.13,17l3-.8Q173.4,404.68,180.28,332.86Z"/><path class="cls-1" d="M88.53,202.11c-9.51,11.41-8.74,26.18-8.17,31.66q-1.38,23.53-2,48A1504.47,1504.47,0,0,0,82.4,439.05l17.37-43.92q10.2,25,20.42,50c1.43-13.39,5.65-32.22,19.41-48,5.65-6.48,12.92-9.54,25.53-21.44a220.41,220.41,0,0,0,18-19.21,257.45,257.45,0,0,0,10.89-47.31c1-7.29,1.78-16,2.73-58.22.35-15.66.55-28.68.68-37.78-11.43-8.9-34.46-23.87-65-24.38C119,188.61,100.05,188.3,88.53,202.11Z"/><path class="cls-8" d="M88.64,202.11c-9.51,11.41-8.74,26.18-8.17,31.66q-1.38,23.53-2,48a1499,1499,0,0,0,4.08,157.28l17.36-43.92,20.43,50c1.42-13.39,5.65-32.22,19.4-48,5.65-6.48,12.93-9.54,25.53-21.44a219.26,219.26,0,0,0,18.05-19.21,298.84,298.84,0,0,0,10.89-47.31,301.08,301.08,0,0,0-1.47-95.15c-9.23-8.08-30.61-24.26-60.15-25.23C120.29,188.43,100.56,187.81,88.64,202.11Z"/><path class="cls-1" d="M186.37,233.25l36.93,60.34a24.78,24.78,0,0,1-5.46,16.26c-1.42,1.7-6,7-12.73,7.44-3.59.21-7.41-1.06-12.05-5.11-13-11.31-23.54-32-28-41.19-13.13-15.05-11.13-33.6-2.6-39.66C168.37,227.16,178,228.44,186.37,233.25Z"/><path class="cls-9" d="M201.91,256.27q10.85,18.64,21.7,37.29a24.74,24.74,0,0,1-5.47,16.26c-1.41,1.7-6,7-12.72,7.44-4.53.26-8.29-2.06-12-5.11C180.9,302,172.25,286,168.21,277.72a10.78,10.78,0,0,1-1-6.64C168.82,262.74,182.73,256.56,201.91,256.27Z"/><path class="cls-10" d="M111.44,191.66a15.38,15.38,0,0,1,6.23,8.23,15.11,15.11,0,0,1,.29,7.53,30.77,30.77,0,0,0,27-8A52.1,52.1,0,0,0,136.67,173c-3-4.57-7.74-11.82-17-15.11a30.06,30.06,0,0,0-9.58-1.62C98.54,156.42,87,166.41,80,181L90.34,194.9c.69-.82,5.13-5.93,12.24-6A15.79,15.79,0,0,1,111.44,191.66Z"/><path class="cls-11" d="M128.73,235.3a80.44,80.44,0,0,0,18.29.44q-.84,6.9-1.69,13.79a74.68,74.68,0,0,1-19.48.77,69.82,69.82,0,0,1-7.69-1.34,82,82,0,0,1-20.09-7.49q1-7.92,2-15.86A81.39,81.39,0,0,0,128.73,235.3Z"/><path class="cls-12" d="M141.78,493.52c.2.51.41.92.56,1.22a8.94,8.94,0,0,0,3.13,2.23c5.12,3,11,3.35,15.25.58,3-2,6.24-6.3,5.22-9.9-.59-2.1-2.58-3.84-3.3-4.48a11.83,11.83,0,0,0-3.31-2.13c-4.21-1.18-8.22-.3-12.41,1.1a37.73,37.73,0,0,0-5.92,2.58,23.6,23.6,0,0,0,.05,6.16A15.47,15.47,0,0,0,141.78,493.52Z"/><path class="cls-13" d="M123.06,492.44a14.49,14.49,0,0,0,9.32,2.23c1.84-.21,4.23-.49,5.81-2.42a6.47,6.47,0,0,0,1.36-3.41,8,8,0,0,0-1.61-5.59c-1.08-1.34-2.52-2.09-5.29-2.86a38.81,38.81,0,0,0-12.1-1.29q.08,3.18.22,6.45c.07,1.78.16,3.55.26,5.29A14.63,14.63,0,0,0,123.06,492.44Z"/><path class="cls-2" d="M228.28,232.27c-15.85-14.65-50.89-42.65-95.72-43.44-13-.23-32.36-.58-43.91,13.28-9.52,11.41-8.74,26.18-8.18,31.66q-.54,9.31-1,18.78a30.73,30.73,0,0,0,13,9.78c11.33,4.45,24.55,1.76,34-6.86,1.4,1.36,14,13.18,32.3,10.44,18.66-2.78,27.22-18.22,28.1-19.87a40.27,40.27,0,0,0,12.25,4.26,38,38,0,0,0,18.25-.67,37.1,37.1,0,0,0,10.5-4.94Z"/><path class="cls-14" d="M268.15,100.82A155.12,155.12,0,0,1,271,152c12.6,14.36,13,34.69,2.55,47.18-12,14.31-32.29,11.13-33.12,11,0,2.36-.43,17.19-12.29,27.12-11,9.22-27.46,10.49-41.27,3-.88,1.65-9.44,17.08-28.09,19.86-18.34,2.74-30.91-9.08-32.3-10.44-9.45,8.62-22.67,11.31-34,6.87-13.49-5.3-18-18.25-18.64-20.14-11,6.57-24.35,5.64-32.88-1.9-9.08-8-8.64-20-8.55-21.66C12.88,211-.26,197.32,0,184.33c.21-10.31,8.8-17.51,10.92-19.2a26.29,26.29,0,0,1-8.37-11.88c-3.46-10.48,1.5-19.91,3.35-23.42,5.51-10.49,13.49-14.43,20.42-19.73C42.43,97.78,41.57,86.11,55.54,64c4.51-7.14,20.48-32.23,47.72-47.9,28.66-16.48,72.4-24.18,101.16-3.8A61.44,61.44,0,0,1,215,21.88,158.27,158.27,0,0,1,229.6,34.1c6.41,6,16.89,16.11,25.6,31.47C263.27,79.8,266.18,92.13,268.15,100.82Z"/><path class="cls-15" d="M18.39,159.31c2-2.88-1-6.07-.09-12.51.91-6.59,5.34-11.24,10.13-16.27,2.67-2.8,4.45-4.1,9.63-8.17,5.71-4.47,11.3-9.09,17-13.61C68.35,98.1,68,83,79.2,65.66c15.79-24.44,42.12-34,47.48-36,12.64-4.61,32.49-8.63,46.19-9.34a102,102,0,0,0,25.72-4.42c3.12-1,5.63-1.9,7.27-2.55-.49-.37-1-.75-1.5-1.11C175.6-8.13,131.86-.43,103.2,16.05,76,31.72,60,56.81,55.48,64c-14,22.14-13.11,33.81-29.22,46.13-6.93,5.31-14.91,9.24-20.43,19.73-1.84,3.51-6.8,13-3.34,23.42a24.87,24.87,0,0,0,3.94,7.35C14.26,162.15,17.23,160.94,18.39,159.31Z"/><path class="cls-16" d="M15.11,202.39c.42-2.33-1.43-3.42-3.7-9.33C10,189.35,9,186.74,9,183.29a24.45,24.45,0,0,1,3.52-11.45c2-3.42,3.6-4.31,3.21-5.61-.25-.84-1.29-1.71-4.48-2.17l.08.06C10.1,165,1,171.71.44,183.32c-.44,9.45,5.08,15.87,6.87,18a28.36,28.36,0,0,0,5.2,4.7A5.79,5.79,0,0,0,15.11,202.39Z"/></svg>