<svg xmlns="http://www.w3.org/2000/svg" viewBox="0 0 391.64 60.14"><defs><style>.cls-1{fill:#d2e2fc;}.cls-2{fill:#3d80ea;}</style></defs><g id="snooze"><path class="cls-1" d="M375.11,0H74.79V0H17.55l-.41,0h-.62A16.34,16.34,0,0,0,0,16.14V44A16.35,16.35,0,0,0,16.52,60.14H375.11A16.35,16.35,0,0,0,391.64,44V16.14A16.34,16.34,0,0,0,375.11,0Zm14,44a13.84,13.84,0,0,1-14,13.65H74.79V2.5H375.11a13.84,13.84,0,0,1,14,13.64Z"/><path class="cls-2" d="M61.57,32.68A2.37,2.37,0,0,0,60.72,31a2.47,2.47,0,0,0-2.79-.1L59.3,29a3.11,3.11,0,0,0,.72-2.4,2.64,2.64,0,0,0-1.13-1.87,2.79,2.79,0,0,0-2.87,0l.63-.93a.24.24,0,0,0,.06-.11,3,3,0,0,0-.89-3.7,2.79,2.79,0,0,0-2.27-.37,3.23,3.23,0,0,0-2,1.59l-.32.48a2.63,2.63,0,0,0-.72-1.85,2.73,2.73,0,0,0-2.22-.72,3.69,3.69,0,0,0-2.67,1.57l-.55.66,1.21-4.66a2.67,2.67,0,0,0-.15-2.11,2.36,2.36,0,0,0-1.49-1.2A2.47,2.47,0,0,0,42,14.43l.45-2.29a3,3,0,0,0-.35-2.48,2.6,2.6,0,0,0-1.8-1.22,2.77,2.77,0,0,0-2.61,1.21c.06-.36.13-.73.19-1.12a.49.49,0,0,0,0-.12,3,3,0,0,0-2.35-3A2.85,2.85,0,0,0,33.33,6a3.17,3.17,0,0,0-1.18,2.3l-.09.56a2.66,2.66,0,0,0-1.43-1.37,2.73,2.73,0,0,0-2.32.27,3.71,3.71,0,0,0-1.77,2.54c-.7,2.47-1.32,5-1.83,7.5-.58,2.89-1,5.83-1.37,8.77C21.94,23.89,20,21,18.23,21.11a2.5,2.5,0,0,0-1.71.78,2.73,2.73,0,0,0-.39,2.5.14.14,0,0,0,0,.06c1.13,2.87,2.21,5.79,3.2,8.7.46,1.36.91,2.74,1.34,4.12a9.52,9.52,0,0,0,2,3.5,10.08,10.08,0,0,0,6.24,3.07,9.2,9.2,0,0,0,.43,2.87c1.47,4.63,6.18,6.43,7.26,6.78a6.51,6.51,0,0,0,1.8.62,6.09,6.09,0,0,0,1.2.11c4.8,0,9.43-5.19,12-8.09A41.76,41.76,0,0,0,55,41.74l5.78-7.08A2.62,2.62,0,0,0,61.57,32.68ZM30.24,29.15c-.17,3.08-.41,6.18-.73,9.24-.14,1.35-.3,2.71-.47,4.07a8.68,8.68,0,0,1-5.31-2.63,8,8,0,0,1-1.71-3c-.43-1.38-.89-2.77-1.35-4.14-1-2.92-2.07-5.85-3.21-8.73a1.4,1.4,0,0,1,.1-1.16,1.31,1.31,0,0,1,.78-.32c.95-.07,3,2.91,4.81,6.94a.7.7,0,0,0,.75.4.69.69,0,0,0,.58-.63,99.23,99.23,0,0,1,1.6-11.1c.5-2.48,1.11-5,1.81-7.42,0,0,0,0,0-.07A2.3,2.3,0,0,1,29,9a1.47,1.47,0,0,1,1.14-.18A1.92,1.92,0,0,1,31,11a.11.11,0,0,1,0,0c-1.54,11.7-1.54,11.7-.68,11.83.7.1.83-.53,1-1.4.12-.57.29-1.44.49-2.59.41-2.29,1-5.78,1.75-10.36,0,0,0,0,0-.08a1.77,1.77,0,0,1,.66-1.32,1.46,1.46,0,0,1,1.12-.33,1.63,1.63,0,0,1,1.2,1.58C34,23.08,34.08,23.1,35,23.27s.9-.33,1.66-3.49c.48-2,1.16-5,2-9a1.47,1.47,0,0,1,1.45-1,1.27,1.27,0,0,1,.84.6,1.68,1.68,0,0,1,.18,1.37.13.13,0,0,0,0,.06L38.91,22.9a.7.7,0,0,0,1.34.37l2.83-7.9a1.12,1.12,0,0,1,1.18-.66,1,1,0,0,1,.6.5,1.27,1.27,0,0,1,.06,1,.25.25,0,0,0,0,.07l-2,7.62c-.73.92-1.44,1.86-2.13,2.8-1.74,2.38-3.39,4.86-4.92,7.4-.14-3.05-.67-6.52-2.34-7.13a2.6,2.6,0,0,0-1.88,0,2.75,2.75,0,0,0-1.4,2.11A.2.2,0,0,0,30.24,29.15ZM59.81,33.7l0,0-5.83,7.14a.1.1,0,0,0,0,0,38.22,38.22,0,0,1-3.3,4.27c-2.61,2.92-7.46,8.37-11.91,7.54a5.6,5.6,0,0,1-1.47-.52l-.11,0c-.84-.28-5.12-1.84-6.42-5.9a8.19,8.19,0,0,1-.3-3.43c.19-1.44.36-2.89.51-4.32.31-3.07.56-6.19.73-9.28a1.36,1.36,0,0,1,.58-1,1.2,1.2,0,0,1,.84,0c.89.32,1.52,3.9,1.47,8.31a.71.71,0,0,0,.52.68.69.69,0,0,0,.78-.33,98.26,98.26,0,0,1,6.09-9.42c1.5-2,3.1-4.06,4.75-6l.05-.06a2.26,2.26,0,0,1,1.66-1,1.42,1.42,0,0,1,1.11.31,1.89,1.89,0,0,1-.15,2.31l0,0c-6.29,10-6.29,10-5.56,10.47s1-.13,1.5-.85c.35-.47.87-1.19,1.53-2.15,1.33-1.91,3.32-4.83,5.92-8.68a.43.43,0,0,0,0-.07A1.79,1.79,0,0,1,53.88,21a1.4,1.4,0,0,1,1.15.17,1.62,1.62,0,0,1,.44,1.93C47,35.37,47.1,35.41,47.84,35.94s1,.08,3-2.47c1.26-1.6,3.14-4.06,5.58-7.31a1.47,1.47,0,0,1,1.74-.29,1.29,1.29,0,0,1,.51.89,1.7,1.7,0,0,1-.41,1.32l0,0-6.62,9.13a.69.69,0,0,0,.11.94.7.7,0,0,0,1,0l5.88-6a1.11,1.11,0,0,1,1.34-.1.9.9,0,0,1,.33.7A1.22,1.22,0,0,1,59.81,33.7Z"/></g></svg>