<svg xmlns="http://www.w3.org/2000/svg" xmlns:xlink="http://www.w3.org/1999/xlink" viewBox="0 0 537.56 613.24"><defs><style>.cls-1{fill:#000015;opacity:0.51;}.cls-2{fill:#fce7e6;}.cls-3{fill:url(#Gradient_bez_nazwy_86);}.cls-4{fill:url(#Gradient_bez_nazwy_84);}.cls-5{fill:url(#Gradient_bez_nazwy_83);}.cls-6{fill:url(#Gradient_bez_nazwy_83-2);}.cls-7{fill:url(#Gradient_bez_nazwy_85);}.cls-8{fill:url(#Gradient_bez_nazwy_83-3);}.cls-9{fill:#f7f6e8;}.cls-10{fill:url(#Gradient_bez_nazwy_82);}.cls-11{fill:#0c0606;}.cls-12{fill:#042033;}.cls-13{fill:#010b11;}.cls-14{fill:#d1cfb8;}.cls-15,.cls-29{fill:#141414;}.cls-16{fill:url(#Gradient_bez_nazwy_45);}.cls-17{fill:url(#Gradient_bez_nazwy_46);}.cls-18{fill:#051828;}.cls-19{fill:url(#Gradient_bez_nazwy_35);}.cls-20{fill:#1e1e1e;}.cls-21{fill:#191919;}.cls-22{fill:url(#Gradient_bez_nazwy_68);}.cls-23{fill:url(#Gradient_bez_nazwy_47);}.cls-24{fill:#441e1e;}.cls-25{fill:#dbb6b6;}.cls-26{fill:url(#Gradient_bez_nazwy_32);}.cls-27{fill:url(#Gradient_bez_nazwy_30);}.cls-28{fill:url(#Gradient_bez_nazwy_34);}.cls-29{opacity:0.3;}.cls-30{fill:url(#Gradient_bez_nazwy_61);}.cls-31{fill:url(#Gradient_bez_nazwy_60);}.cls-32{fill:url(#Gradient_bez_nazwy_66);}.cls-33{fill:url(#Gradient_bez_nazwy_78);}.cls-34{fill:url(#Gradient_bez_nazwy_62);}.cls-35{fill:url(#Gradient_bez_nazwy_88);}</style><linearGradient id="Gradient_bez_nazwy_86" x1="300.34" y1="238.19" x2="279.99" y2="224.79" gradientUnits="userSpaceOnUse"><stop offset="0.08" stop-color="#dbb6b6"/><stop offset="0.58" stop-color="#f0d5d5" stop-opacity="0.36"/><stop offset="0.85" stop-color="#fce7e6" stop-opacity="0"/></linearGradient><linearGradient id="Gradient_bez_nazwy_84" x1="320.07" y1="197" x2="309.96" y2="190.05" gradientUnits="userSpaceOnUse"><stop offset="0" stop-color="#dbb6b6"/><stop offset="0.06" stop-color="#e1bfbf" stop-opacity="0.81"/><stop offset="0.14" stop-color="#e9cbcb" stop-opacity="0.57"/><stop offset="0.22" stop-color="#f0d5d5" stop-opacity="0.36"/><stop offset="0.3" stop-color="#f5dddc" stop-opacity="0.21"/><stop offset="0.37" stop-color="#f9e2e2" stop-opacity="0.09"/><stop offset="0.44" stop-color="#fbe6e5" stop-opacity="0.02"/><stop offset="0.5" stop-color="#fce7e6" stop-opacity="0"/></linearGradient><linearGradient id="Gradient_bez_nazwy_83" x1="328.58" y1="200.3" x2="315.77" y2="192.92" gradientUnits="userSpaceOnUse"><stop offset="0" stop-color="#dbb6b6"/><stop offset="0.08" stop-color="#e1bfbf" stop-opacity="0.81"/><stop offset="0.19" stop-color="#e9cbcb" stop-opacity="0.57"/><stop offset="0.31" stop-color="#f0d5d5" stop-opacity="0.36"/><stop offset="0.41" stop-color="#f5dddc" stop-opacity="0.21"/><stop offset="0.51" stop-color="#f9e2e2" stop-opacity="0.09"/><stop offset="0.61" stop-color="#fbe6e5" stop-opacity="0.02"/><stop offset="0.68" stop-color="#fce7e6" stop-opacity="0"/></linearGradient><linearGradient id="Gradient_bez_nazwy_83-2" x1="335.15" y1="206.51" x2="323.09" y2="199.48" xlink:href="#Gradient_bez_nazwy_83"/><linearGradient id="Gradient_bez_nazwy_85" x1="298.89" y1="206.62" x2="288.71" y2="206.32" gradientUnits="userSpaceOnUse"><stop offset="0" stop-color="#dbb6b6"/><stop offset="0.1" stop-color="#e1bfbf" stop-opacity="0.81"/><stop offset="0.24" stop-color="#e9cbcb" stop-opacity="0.57"/><stop offset="0.38" stop-color="#f0d5d5" stop-opacity="0.36"/><stop offset="0.52" stop-color="#f5dddc" stop-opacity="0.21"/><stop offset="0.64" stop-color="#f9e2e2" stop-opacity="0.09"/><stop offset="0.76" stop-color="#fbe6e5" stop-opacity="0.02"/><stop offset="0.85" stop-color="#fce7e6" stop-opacity="0"/></linearGradient><linearGradient id="Gradient_bez_nazwy_83-3" x1="329.4" y1="226.61" x2="313.9" y2="213.41" xlink:href="#Gradient_bez_nazwy_83"/><linearGradient id="Gradient_bez_nazwy_82" x1="295.21" y1="246.34" x2="299.69" y2="219.1" gradientUnits="userSpaceOnUse"><stop offset="0.02" stop-color="#d1cfb8"/><stop offset="0.04" stop-color="#d7d3bf" stop-opacity="0.85"/><stop offset="0.09" stop-color="#e2d9cb" stop-opacity="0.59"/><stop offset="0.14" stop-color="#ecded4" stop-opacity="0.38"/><stop offset="0.19" stop-color="#f3e2dc" stop-opacity="0.22"/><stop offset="0.23" stop-color="#f8e5e2" stop-opacity="0.1"/><stop offset="0.27" stop-color="#fbe6e5" stop-opacity="0.02"/><stop offset="0.3" stop-color="#fce7e6" stop-opacity="0"/></linearGradient><linearGradient id="Gradient_bez_nazwy_45" x1="265.92" y1="121.48" x2="222.45" y2="121.91" gradientUnits="userSpaceOnUse"><stop offset="0" stop-color="#dbb6b6"/><stop offset="0.09" stop-color="#e1bfbf" stop-opacity="0.81"/><stop offset="0.23" stop-color="#e9cbcb" stop-opacity="0.57"/><stop offset="0.36" stop-color="#f0d5d5" stop-opacity="0.36"/><stop offset="0.49" stop-color="#f5dddc" stop-opacity="0.21"/><stop offset="0.61" stop-color="#f9e2e2" stop-opacity="0.09"/><stop offset="0.72" stop-color="#fbe6e5" stop-opacity="0.02"/><stop offset="0.81" stop-color="#fce7e6" stop-opacity="0"/></linearGradient><linearGradient id="Gradient_bez_nazwy_46" x1="204.29" y1="157.04" x2="237.01" y2="145.57" gradientUnits="userSpaceOnUse"><stop offset="0.04" stop-color="#dbb6b6"/><stop offset="0.07" stop-color="#ddb9b9" stop-opacity="0.94"/><stop offset="0.27" stop-color="#e8c9c9" stop-opacity="0.61"/><stop offset="0.45" stop-color="#f0d6d5" stop-opacity="0.35"/><stop offset="0.61" stop-color="#f7dfde" stop-opacity="0.16"/><stop offset="0.73" stop-color="#fbe5e4" stop-opacity="0.04"/><stop offset="0.81" stop-color="#fce7e6" stop-opacity="0"/></linearGradient><linearGradient id="Gradient_bez_nazwy_35" x1="218.28" y1="326.68" x2="236.46" y2="325.83" gradientUnits="userSpaceOnUse"><stop offset="0.1" stop-color="#659bff" stop-opacity="0.7"/><stop offset="0.51" stop-color="#2a4069" stop-opacity="0.29"/><stop offset="0.81" stop-opacity="0"/></linearGradient><linearGradient id="Gradient_bez_nazwy_68" x1="76.77" y1="214.3" x2="125.23" y2="189.55" gradientUnits="userSpaceOnUse"><stop offset="0.02" stop-color="#659bff" stop-opacity="0.8"/><stop offset="0.04" stop-color="#5481d4" stop-opacity="0.66"/><stop offset="0.06" stop-color="#4063a2" stop-opacity="0.51"/><stop offset="0.09" stop-color="#2f4876" stop-opacity="0.37"/><stop offset="0.12" stop-color="#203252" stop-opacity="0.26"/><stop offset="0.16" stop-color="#141f33" stop-opacity="0.16"/><stop offset="0.2" stop-color="#0b111c" stop-opacity="0.09"/><stop offset="0.25" stop-color="#05070c" stop-opacity="0.04"/><stop offset="0.31" stop-color="#010203" stop-opacity="0.01"/><stop offset="0.44" stop-opacity="0"/></linearGradient><linearGradient id="Gradient_bez_nazwy_47" x1="176.14" y1="189.29" x2="211.11" y2="224.92" gradientUnits="userSpaceOnUse"><stop offset="0.09" stop-color="#dbb6b6"/><stop offset="0.17" stop-color="#e1bfbf" stop-opacity="0.81"/><stop offset="0.29" stop-color="#e9cbcb" stop-opacity="0.57"/><stop offset="0.41" stop-color="#f0d5d5" stop-opacity="0.36"/><stop offset="0.52" stop-color="#f5dddc" stop-opacity="0.21"/><stop offset="0.63" stop-color="#f9e2e2" stop-opacity="0.09"/><stop offset="0.73" stop-color="#fbe6e5" stop-opacity="0.02"/><stop offset="0.81" stop-color="#fce7e6" stop-opacity="0"/></linearGradient><linearGradient id="Gradient_bez_nazwy_32" x1="84.82" y1="298.31" x2="116.86" y2="305.53" gradientUnits="userSpaceOnUse"><stop offset="0.21" stop-color="#659bff" stop-opacity="0.8"/><stop offset="0.64" stop-color="#1d2c49" stop-opacity="0.23"/><stop offset="0.81" stop-opacity="0"/></linearGradient><linearGradient id="Gradient_bez_nazwy_30" x1="114.86" y1="381.7" x2="161.06" y2="384.34" gradientUnits="userSpaceOnUse"><stop offset="0.1" stop-color="#659bff" stop-opacity="0.7"/><stop offset="0.15" stop-color="#5c8ee9" stop-opacity="0.64"/><stop offset="0.38" stop-color="#355186" stop-opacity="0.37"/><stop offset="0.58" stop-color="#18253e" stop-opacity="0.17"/><stop offset="0.72" stop-color="#070a11" stop-opacity="0.05"/><stop offset="0.81" stop-opacity="0"/></linearGradient><linearGradient id="Gradient_bez_nazwy_34" x1="154.16" y1="459.69" x2="190.96" y2="454.53" gradientUnits="userSpaceOnUse"><stop offset="0.07" stop-color="#659bff" stop-opacity="0.7"/><stop offset="0.15" stop-color="#4e77c4" stop-opacity="0.54"/><stop offset="0.26" stop-color="#365389" stop-opacity="0.37"/><stop offset="0.36" stop-color="#233557" stop-opacity="0.24"/><stop offset="0.47" stop-color="#131e31" stop-opacity="0.13"/><stop offset="0.58" stop-color="#090d16" stop-opacity="0.06"/><stop offset="0.69" stop-color="#020305" stop-opacity="0.01"/><stop offset="0.81" stop-opacity="0"/></linearGradient><radialGradient id="Gradient_bez_nazwy_61" cx="150.55" cy="518.65" fx="141.83154959467228" r="13.88" gradientTransform="translate(-16.66 156.56) rotate(-2.61) scale(1 0.71)" gradientUnits="userSpaceOnUse"><stop offset="0" stop-color="#9e8465" stop-opacity="0.7"/><stop offset="0.12" stop-color="#947c5f" stop-opacity="0.66"/><stop offset="0.31" stop-color="#78644d" stop-opacity="0.53"/><stop offset="0.53" stop-color="#4a3e2f" stop-opacity="0.33"/><stop offset="0.77" stop-color="#0b0907" stop-opacity="0.05"/><stop offset="0.81" stop-opacity="0"/></radialGradient><radialGradient id="Gradient_bez_nazwy_60" cx="214.72" cy="517.78" r="13.37" gradientTransform="translate(22.26 150.8) rotate(3.53) scale(1 0.68)" gradientUnits="userSpaceOnUse"><stop offset="0" stop-color="#9e8465" stop-opacity="0.7"/><stop offset="0.14" stop-color="#977e60" stop-opacity="0.67"/><stop offset="0.3" stop-color="#826d53" stop-opacity="0.58"/><stop offset="0.47" stop-color="#60503d" stop-opacity="0.43"/><stop offset="0.65" stop-color="#31291f" stop-opacity="0.22"/><stop offset="0.81" stop-opacity="0"/></radialGradient><radialGradient id="Gradient_bez_nazwy_66" cx="13.73" cy="219.05" fx="4.374773444113561" r="16.82" gradientTransform="translate(0 -855.02) scale(1 4.9)" gradientUnits="userSpaceOnUse"><stop offset="0" stop-color="#659bff" stop-opacity="0.8"/><stop offset="0.06" stop-color="#537fd2" stop-opacity="0.66"/><stop offset="0.15" stop-color="#3d5e9a" stop-opacity="0.48"/><stop offset="0.25" stop-color="#2a416b" stop-opacity="0.33"/><stop offset="0.34" stop-color="#1b2944" stop-opacity="0.21"/><stop offset="0.44" stop-color="#0f1726" stop-opacity="0.12"/><stop offset="0.55" stop-color="#070a11" stop-opacity="0.05"/><stop offset="0.66" stop-color="#020204" stop-opacity="0.01"/><stop offset="0.81" stop-opacity="0"/></radialGradient><linearGradient id="Gradient_bez_nazwy_78" x1="94.43" y1="95.76" x2="446.05" y2="317.54" gradientUnits="userSpaceOnUse"><stop offset="0" stop-color="#dbb6b6"/><stop offset="0.05" stop-color="#e1bfbf" stop-opacity="0.81"/><stop offset="0.11" stop-color="#e9cbcb" stop-opacity="0.57"/><stop offset="0.18" stop-color="#f0d5d5" stop-opacity="0.36"/><stop offset="0.24" stop-color="#f5dddc" stop-opacity="0.21"/><stop offset="0.3" stop-color="#f9e2e2" stop-opacity="0.09"/><stop offset="0.35" stop-color="#fbe6e5" stop-opacity="0.02"/><stop offset="0.4" stop-color="#fce7e6" stop-opacity="0"/></linearGradient><linearGradient id="Gradient_bez_nazwy_62" x1="47.22" y1="70.55" x2="218.09" y2="165.35" gradientUnits="userSpaceOnUse"><stop offset="0.02" stop-color="#659bff" stop-opacity="0.8"/><stop offset="0.02" stop-color="#6296f7" stop-opacity="0.78"/><stop offset="0.05" stop-color="#4e77c4" stop-opacity="0.61"/><stop offset="0.09" stop-color="#3b5a95" stop-opacity="0.47"/><stop offset="0.12" stop-color="#2b426c" stop-opacity="0.34"/><stop offset="0.16" stop-color="#1d2d4a" stop-opacity="0.23"/><stop offset="0.21" stop-color="#131c2f" stop-opacity="0.15"/><stop offset="0.27" stop-color="#0a101a" stop-opacity="0.08"/><stop offset="0.33" stop-color="#04070b" stop-opacity="0.03"/><stop offset="0.43" stop-color="#010102" stop-opacity="0.01"/><stop offset="0.69" stop-opacity="0"/></linearGradient><linearGradient id="Gradient_bez_nazwy_88" x1="50.71" y1="163.2" x2="63.9" y2="177.67" gradientUnits="userSpaceOnUse"><stop offset="0.08" stop-color="#dbb6b6"/><stop offset="0.29" stop-color="#e4c4c3" stop-opacity="0.72"/><stop offset="0.54" stop-color="#eed3d2" stop-opacity="0.42"/><stop offset="0.75" stop-color="#f6dedd" stop-opacity="0.19"/><stop offset="0.91" stop-color="#fae4e4" stop-opacity="0.05"/><stop offset="1" stop-color="#fce7e6" stop-opacity="0"/></linearGradient></defs><g id="Warstwa_4" data-name="Warstwa 4"><path class="cls-1" d="M465.93,601a335.85,335.85,0,0,0-39.29-4.63c-.23-.93-.47-1.86-.7-2.78h0q-1.41-7.1-2.77-13.9l46.39,1.64.2,0a11.28,11.28,0,0,0,8.48,4.57c1.56,0,3-.59,3.31-1.44a1.16,1.16,0,0,0,.05-.64l.82.25,5.9,2q7.88,2.79,15.13,5.57a7.54,7.54,0,0,0,3.35.39,1.81,1.81,0,0,0,1-.59h0a1,1,0,0,0,.16-.29h0c.54-1.74-10.86-6.41-12.35-7,6.07.85,12.75,1.63,19.91,2.23,4.75.4,9.21.68,13.34.87,3.83.42,5.93-.67,5.53-1.6a1.93,1.93,0,0,0-.64-.65h0l0,0-.18-.11-.37-.21-.24-.12a5.11,5.11,0,0,0-.47-.2l-.24-.1a7.68,7.68,0,0,0-.81-.27l-.15,0-.77-.19-.3-.07-.75-.13-.3-.05c-.35,0-.71-.09-1.09-.12L508.58,581l21.79,2.24a14.89,14.89,0,0,0,4.6.07c.44-.07,2.8-.47,2.57-1.25-.07-.25-.43-.53-1-.81h0l-.28-.13-.14-.06c-.23-.11-.48-.21-.75-.31l-.16,0-.79-.26-.23-.07-1.07-.28-.12,0-1.09-.24-.3-.06c-.43-.08-.87-.16-1.34-.23l-21.23-2.4h0l-.71-.09,21,1.44c2.08.09,3.29-.65,3-1.49a1.44,1.44,0,0,0-.33-.45h0a4,4,0,0,0-1.19-.78l-.16-.08-.37-.14-.32-.11-.34-.1-.43-.11-.31-.06-.53-.08-.26,0a7.2,7.2,0,0,0-.81,0l-19.16-1.68,13.86.21c1.41,0,2.42-.37,2.43-.86,0-.21-.19-.45-.51-.7h0l-.18-.12-.09-.06a4.13,4.13,0,0,0-.47-.26l-.12-.06c-.15-.07-.31-.14-.48-.2l-.15-.06c-.08,0-.33-.12-.68-.22l-.78-.17-.2,0c-.28,0-.56-.09-.85-.11l-15.41-.94-4-.26h-.22l-.71,0-.36,0-.6,0-.46,0-.56,0-1.07-.05h-.37l-.71,0-.35,0-.76,0H494l-.83,0h-.1c-1,0-2,0-3-.06H489c-1.72,0-3.42,0-5,.07h0c-1.62.06-3.15.17-4.52.32h-.06a26,26,0,0,0-2.92.49h0a2.32,2.32,0,0,0-.5-.56,7.14,7.14,0,0,0-3.25-1.21,6.65,6.65,0,0,0-6.74,3.54L404.6,566a19.87,19.87,0,0,0-5.69.08c-5,.91-5.27,3.89-5.28,4.11h0a2.64,2.64,0,0,0-.08.74q0,3,0,6.12l0,3.16q-13.2-6.71-27-13.36c-24.19-11.65-47-21.8-68.23-30.64l0,.06-.08,0a16,16,0,0,1,1.63,4.66,14.13,14.13,0,0,1,.18,3.55q-12-4.12-24.1-8.23Q245,525.88,216.22,516.86c-.55.07-1.17.14-1.82.24l-1.42-.54a26.76,26.76,0,0,0-11.29-12.87c-12.28-6.91-25.24-.44-26.33.13C168.53,514.46,163,517.38,159.14,518c-4.72.74-9,3.14-13.67,4.33a2.61,2.61,0,0,0-1.26.77c-1.39,1.62-.45,5.48,1.37,6.3a17.9,17.9,0,0,0,2.47.67l.85.19c1,.2,1.93.35,2.82.46l.1,0h.11l.25,0,1.8.18.14,0c5.39.31,9-.7,17-1.09,3.9-.19,7.43-.16,10.46,0-.29.23-.56.45-.78.66l30.09,17.2-30-8L196.65,553l-49.49-6-2.58-.59c9.66,4.2,22,9.64,36.54,16.16,10.12,4.56,19.66,8.85,32.25,14.74,15.55,7.41,27.49,13.38,39.6,19.16q-4.58,8.19-9.36,16.79c89.11-.64,174.8-2.33,255.45-4.91-4.35-1.13-8.81-2.2-13.37-3.17C479.66,603.7,473.06,602.29,465.93,601Zm42.63-20Z"/><path class="cls-2" d="M284.65,238.33,288.49,224q.47-3.65.85-7.42c.58-5.49,1-10.81,1.26-16a3.65,3.65,0,0,1,1.73-2.73,3.3,3.3,0,0,1,2.33.05c3.41,1.25,3.33,13.8,3.32,15.44A168.61,168.61,0,0,1,308.53,197c2.77-3.77,5.53-7.23,8.24-10.38,2.06-3.14,5.59-3.66,7-2.51s1.48,4.12-.53,6.7q-5,8.17-9.95,16.37l12.13-17.9a7.85,7.85,0,0,1,3.29-3.42c.46-.25,3-1.59,4.27-.7s1.21,4.06-.7,7.65l-11.89,18.4,13.13-16.66a3.53,3.53,0,1,1,5,4.88l-11.4,15.71,10.16-10.36a3.35,3.35,0,0,1,3.51-.93c1.3.66,1.95,3.14.4,5.32l-10,12.28c-4,5.09-19.15,23.83-27.17,20.4a4.65,4.65,0,0,1-1-.55l-8.75,6.24Z"/><path class="cls-3" d="M306.88,239.47a5.31,5.31,0,0,0-.77-6.61,5.24,5.24,0,0,0-5.62-.88,5.12,5.12,0,0,0-1.76-5.29,5.22,5.22,0,0,0-6.61.44,5,5,0,0,0-.77-2.43,5.12,5.12,0,0,0-2.7-2.08q-1.18,6.84-2.39,13.68l10.28,9.85,7.71-5.49a4.18,4.18,0,0,0,1.42,1c2.31,1,4.68-.56,4.95-.74A5.09,5.09,0,0,0,306.88,239.47Z"/><path class="cls-4" d="M312.47,206.5l.83.7q5-8.19,9.94-16.37a6.08,6.08,0,0,0,1.24-5.65c-1.56,2.92-3.15,5.85-4.82,8.83C317.27,198.31,314.86,202.47,312.47,206.5Z"/><path class="cls-5" d="M319.11,211.43h0l0,.06,1.7-.86q5.76-8.9,11.5-17.8a10.45,10.45,0,0,0,1.5-6.21c-1.44,2.34-2.6,4.27-3.4,5.63C330.38,192.25,319.21,211.28,319.11,211.43Z"/><path class="cls-6" d="M325.83,215.46l.74.29.78-.85-.26.26,11.4-15.71a3.85,3.85,0,0,0,.7-5c-.9,1.6-1.82,3.2-2.78,4.82C332.93,205.14,329.37,210.52,325.83,215.46Z"/><path class="cls-7" d="M296.27,206.06c.3,2.3.65,5.44.88,9.25.3-.62.59-1.3.86-2l0,.05c0-1.64.09-14.19-3.32-15.44a3.34,3.34,0,0,0-.62-.16,24.8,24.8,0,0,1,1.21,3A27.88,27.88,0,0,1,296.27,206.06Z"/><path class="cls-8" d="M339.93,207.67a158.83,158.83,0,0,1-12.78,16.16c-5.35,6.11-8,9.17-10.86,11.45a54.74,54.74,0,0,1-8.13,5.42,4.22,4.22,0,0,1,1.22.89c8.13-3.13,18.54-16,21.75-20.12l10-12.28a4.27,4.27,0,0,0,.57-4.26C341.2,205.76,340.6,206.68,339.93,207.67Z"/><path class="cls-9" d="M283.61,235.61l.66-1.21c-3.47-4.06-3.73-8.66-1.76-10.57a4.86,4.86,0,0,1,4.84-.88,5.67,5.67,0,0,1,3.53,4.84,5.22,5.22,0,0,1,6.61-.44,5.16,5.16,0,0,1,1.76,5.29,5.24,5.24,0,0,1,5.62.88,5.31,5.31,0,0,1,.77,6.61,4.69,4.69,0,0,1,4.4,2.42,4,4,0,0,1-.22,3.64c-1.41,2.32-6,2.8-11.45,1l-1.77.88Z"/><path class="cls-10" d="M295.13,240.64c-2.42-1.37-4.17-2.58-7.23-4.69-2.14-1.49-3.88-2.77-5.1-3.68l1.46,2-.66,1.21,13,12.45,1.76-.88c5.42,1.81,10,1.33,11.46-1a4.93,4.93,0,0,0,.23-.46,30.38,30.38,0,0,1-3.76-.46A34.76,34.76,0,0,1,295.13,240.64Z"/><path class="cls-11" d="M161.34,432.23q-6.83,23.58-13.66,47.14-4-15-7.93-30L114.62,490a338.38,338.38,0,0,1,17.2-59,213,213,0,0,1,15-30.84,198.44,198.44,0,0,1,11.9-17.63Z"/><path class="cls-11" d="M206.72,486.86q-.43,5.07-.88,10.14c2.19,1.11,5.91,3,10.58,5.29,10.94,5.36,14.12,6.58,15.86,10.13.85,1.74,1.92,5.2,0,11a28,28,0,0,1-29.52-.44l-18.95-16.3.63-22.48Z"/><path class="cls-11" d="M166.19,490.39a47.57,47.57,0,0,1-11,11c-6.35,4.53-10.32,4.93-13.66,9.26-2,2.65-4.11,7.13-3.52,15a29.93,29.93,0,0,0,8.37,4,27,27,0,0,0,18.07-.44,26,26,0,0,0,11.45-9.25L186,506.25v-18.5Z"/><path class="cls-12" d="M228.19,360q-3.63,31-8.5,63.66-5.49,36.56-11.94,70.74a24.33,24.33,0,0,1-7.34,2.35,25,25,0,0,1-12-1.17A56.31,56.31,0,0,1,161,494.31q-6.41-68.37-12.8-136.74a203.07,203.07,0,0,0,80,2.38Z"/><path class="cls-13" d="M188.36,495.53l4.12-96a14.6,14.6,0,0,0,5.87-2.35,14.16,14.16,0,0,0,2.65-2.35q-5,50.78-9.91,101.54Z"/><path class="cls-13" d="M150.93,369.36c.06,1.58.16,4.42.29,8,.34,9.14.54,14.8.76,19.2.26,5.32.73,12.88,1.65,22.25a53.43,53.43,0,0,1,10.58-8.37,54.61,54.61,0,0,1,25.21-7.61q.22-8.47.35-17.15c.09-5.77.13-11.59.15-17.46Z"/><path class="cls-9" d="M171.92,365c8.9.1,18.39-.08,28.41-.66s19.56-1.51,28.42-2.64q-2.76-33.19-4.62-68.08-1.26-23.82-2-46.92l-54.85,2.64Z"/><path class="cls-14" d="M186,259.52c1.77,15,3.16,31,4,48,.9,19.06,1,37,.44,53.75l-19.83.89L165.31,256Z"/><path class="cls-11" d="M190.29,357.21a267.89,267.89,0,0,1-38.86-1.42l1,9.22a220.4,220.4,0,0,0,37.53,2.73c.11-1.74.21-3.52.27-5.34S190.29,358.9,190.29,357.21Z"/><path class="cls-15" d="M232.06,363.06l-.66-10.58a265.4,265.4,0,0,1-28.42,4c-4.34.36-8.56.61-12.69.76,0,1.69,0,3.41-.09,5.19s-.16,3.6-.27,5.34c4.84-.06,9.85-.29,15-.72A216.56,216.56,0,0,0,232.06,363.06Z"/><path class="cls-11" d="M61.74,102.86c-6.87,5.18-4.38,10.45-15.2,43.62-5.25,16.09-7.38,19.59-8.59,29.74A90.27,90.27,0,0,0,39.27,206,89.15,89.15,0,0,0,49.85,232.4c3.18,5.51,6.9,11.94,13.87,18.5,4.73,4.44,14.87,14,29.08,15.2,4.85.41,8.9-.25,21.81-4.63,25-8.47,37.54-12.71,41-17.84,6.73-10-.58-21.13-15.2-60.14-20.24-54-19.46-68-36.35-78C91.62,98.14,72.59,94.68,61.74,102.86Z"/><path class="cls-2" d="M259.57,74c-4.21-9.37-18-36.85-49.13-51.13-17.53-8-32.93-8.4-41.14-8.5-5.62-.07-58.88.11-94.34,40.89C35.58,100.56,37.15,174.05,55.13,182.17c3.44,1.55,7.32.64,10.4-.6l10.75,25.05a135.37,135.37,0,0,0,87.64,52.78,69.33,69.33,0,0,0,49-3.17A118.66,118.66,0,0,0,232.8,238.7c38.69-42.78,35-102.83,33.82-122A214.08,214.08,0,0,0,259.57,74Z"/><path class="cls-16" d="M258.5,70.77a98.49,98.49,0,0,0-19.32-24.35c-7.16-6.55-15-11.78-15.57-11.17-.74.88,15.38,10.83,26.73,31.14a113.88,113.88,0,0,1,10.87,31.13,75.91,75.91,0,0,1,1.18,11.75c.08,4.18.15,6.28-.46,7.4-4.08,7.38-23.06,3.8-23.34,5.82-.2,1.52,9.79,2.11,16.45,10a28.84,28.84,0,0,1,4.11,6.75,56.45,56.45,0,0,1,3.24,13.52,60.75,60.75,0,0,1-1,18.65c-2.58,14.14-5.87,27.16-8.58,36.91a161.68,161.68,0,0,0,11.74-38.66A185.35,185.35,0,0,0,266.94,142a243.09,243.09,0,0,0-2.21-42.15A225.16,225.16,0,0,0,258.5,70.77Z"/><path class="cls-17" d="M201.45,133.61a52.09,52.09,0,0,0,5.1,12.94c2.59,4.61,7.07,10.85,7.93,12,3.7,5.13,4.85,6.18,5,8.51.31,5.13-4.67,9.24-5.59,10-10.14,8.37-27.85.56-29.07,0"/><path class="cls-12" d="M224.79,244.54l29.08,23.79,30.4-33.93,14.1,12.78-35.53,49.45a11.66,11.66,0,0,1-7.21,3.86,11.78,11.78,0,0,1-8.37-2.2L224.35,282Z"/><path d="M223,269.36a121,121,0,0,1,15.56,12.48c.64.61,6.11,5.84,12.34,7.93a11,11,0,0,0,5,.59,11.32,11.32,0,0,0,5.58-2.5c9.37-7.37,17-20.56,17-20.56a126.43,126.43,0,0,1,17-22.7l2.85,2.58-35,49.35a10,10,0,0,1-4.26,3.82c-5.13,2.35-10.25-1-10.62-1.24L222.73,281Z"/><path class="cls-12" d="M140.19,243.44,103.84,259.3c-3,10-5.9,20.62-8.59,31.72-3.52,14.53-6.34,28.45-8.59,41.64a12.93,12.93,0,0,0,2.64,7.93,12.48,12.48,0,0,0,4,3.3l47.58,25.78c7.06-49.6,12.2-86.2,15.2-102.44.68-3.68,2.43-12.67-2.64-18.51C149.7,244.45,143.83,243.6,140.19,243.44Z"/><path class="cls-13" d="M124.48,279.34a3.25,3.25,0,0,1,2,2.28q-.33,27.79-.65,55.59a41.17,41.17,0,0,0-19.68-9.69,33.81,33.81,0,0,0,10.21-15.2C119.73,302.23,123.89,282.19,124.48,279.34Z"/><path class="cls-12" d="M181,252.5q1.68,21.72,2.72,44.44c1.59,35.32,1.78,69.13.92,101.25-6.23.09-17.51,1.21-27.49,8.74a43.78,43.78,0,0,0-11.86,14c-13.62,23.76-27.51,61.14-30.8,70.11,2.36-30.79,3.31-55.66,3.76-71.94,1.27-46.28-.39-67.24,3.21-105,2.24-23.6,5.45-42.5,7.61-53.92,1.4-3.62,4.71-10.47,11.88-14.7C152.3,238.81,168.57,241.41,181,252.5Z"/><path class="cls-18" d="M218.18,250.7l4.62,144.08A67.23,67.23,0,0,1,236,408.66c.7-27.05.42-56.22-1.32-87.24-1.55-27.66-4.1-53.71-7.27-78Z"/><path class="cls-19" d="M218.25,250.7q2.31,72,4.63,144.08a66.56,66.56,0,0,1,6.61,6,67.35,67.35,0,0,1,6.61,7.93c.7-27.05.42-56.22-1.33-87.24-1.55-27.66-4.1-53.71-7.27-78Z"/><path class="cls-20" d="M169.77,115.57c2.51,1.64,2.52,5.54,2,7.66-1.23,5.44-7.45,8.68-14.16,11.29-8.27,3.22-22.44,7.66-43.45,9.56a7.15,7.15,0,0,1-4.11-.88,6.77,6.77,0,0,1-2-1.72,182.25,182.25,0,0,0,18.94-7C151.77,123.72,164.1,111.83,169.77,115.57Z"/><path class="cls-20" d="M148.87,166.38c-7.09,0-14.86-3-21.26-8.74a3,3,0,0,1,4-4.5c8.28,7.39,19.06,9.4,25.62,4.77a15.41,15.41,0,0,0,5.59-8.61,3,3,0,1,1,5.82,1.61,21.36,21.36,0,0,1-7.93,11.94A20.34,20.34,0,0,1,148.87,166.38Z"/><path class="cls-20" d="M231.19,154.8c-6.11,0-12.78-2.59-18.28-7.49a3,3,0,0,1,4-4.51c6.84,6.1,15.7,7.79,21.06,4a12.61,12.61,0,0,0,4.54-7,3,3,0,0,1,5.82,1.6,18.47,18.47,0,0,1-6.88,10.35A17.67,17.67,0,0,1,231.19,154.8Z"/><path class="cls-21" d="M245.28,205.76a35.47,35.47,0,0,1-4.2,1.33,33,33,0,0,1-3.58.64A30.28,30.28,0,0,1,223,213.25c-6.49.59-10.54-1.46-18.95.44-6.63,1.51-6.67,3.37-12.78,5.29-11.82,3.72-23.07.36-32.11-2.34-1.93-.58-4.23-1.35-6.78-2.36A35.19,35.19,0,0,1,113.1,201.8a54.5,54.5,0,0,1-19.17-7.93c-4.1-2.73-10-7.49-17.18-18.51-10.16-15.59-15.27-32.05-17.85-45.6q-3.3,4.63-6.61,9.25c3,11.38,6.5,23.31,10.58,35.69,3.76,11.41,7.68,22.21,11.67,32.39A143.33,143.33,0,0,0,102.3,234a151.87,151.87,0,0,0,28.64,16.3,167.46,167.46,0,0,0,37,11c14.41,2.59,24.94,4.54,38.33,1.32A70.34,70.34,0,0,0,223.47,256a153.81,153.81,0,0,0,33.18-57.13C256.28,199.15,250.22,203.84,245.28,205.76Z"/><path class="cls-22" d="M152.53,214.28a35.21,35.21,0,0,1-39.32-12.48,54.54,54.54,0,0,1-19.16-7.93c-4.11-2.73-10-7.49-17.18-18.51C66.7,159.77,61.6,143.31,59,129.76q-3.3,4.63-6.61,9.25c3,11.38,6.5,23.31,10.58,35.69,3.75,11.41,7.68,22.21,11.67,32.39A143,143,0,0,0,102.42,234a151.75,151.75,0,0,0,28.64,16.3,157.5,157.5,0,0,0,37,11Z"/><path class="cls-2" d="M199,219a15.45,15.45,0,0,0-7.93,6.61,15,15,0,0,0-2,7.27A30.69,30.69,0,0,1,164.65,219a52.13,52.13,0,0,1,14-23.94c4-3.76,10.22-9.75,20-10.87a30.21,30.21,0,0,1,9.69.59c11.22,2.82,20.16,15.15,23.72,30.92l-13.22,11.23c-.49-.95-3.66-6.93-10.57-8.59A15.81,15.81,0,0,0,199,219Z"/><path class="cls-23" d="M212.59,186.25a32.38,32.38,0,0,0-12.92-.31,31.6,31.6,0,0,0-10.42,3.82c-7.15,4.17-10.57,10.1-13.22,14.68a55,55,0,0,0-6.8,20l-4.66-4.74L162.66,213a81.53,81.53,0,0,1,7.93-15.57c3.9-6,7-10.68,12.78-14.54,2.31-1.53,14.09-9.47,22.91-4.4A15.32,15.32,0,0,1,212.59,186.25Z"/><path class="cls-11" d="M190,207.76c-.73-6.49,5.7-12.54,14.35-13.51a19.45,19.45,0,0,1,9.22,1.13c-3.1-3.21-8.42-5-14.21-4.36-8.66,1-15.08,7-14.35,13.51.44,4,3.48,7.19,7.76,8.86A9.61,9.61,0,0,1,190,207.76Z"/><path class="cls-24" d="M201.94,214.51c8.65-1,15.08-7,14.35-13.5a9.61,9.61,0,0,0-2.77-5.63,19.45,19.45,0,0,0-9.22-1.13c-8.65,1-15.08,7-14.35,13.51a9.61,9.61,0,0,0,2.77,5.63A19.45,19.45,0,0,0,201.94,214.51Z"/><path class="cls-21" d="M198.8,184.17a30.2,30.2,0,0,1,9.69.59c10.16,2.55,18.45,12.9,22.57,26.54a35.52,35.52,0,0,0,6.59-3.57l-.15,0c-.19-1.21-4.39-26.22-24.6-33.56-10.18-3.7-19.53-1.14-22.62-.3-13.84,3.79-21.69,14.3-27.46,22a80.39,80.39,0,0,0-10.41,18.43,9.66,9.66,0,0,0,11.87,9c1-5.75,4.14-18.13,14.55-28.2C182.51,191.48,188.88,185.31,198.8,184.17Z"/><path class="cls-20" d="M203.81,111.33c-1.49,1.94-.69,5.22.34,7,2.5,4.27,8.59,5.31,14.91,5.7,7.79.47,21.13.39,39.95-3.87a4.33,4.33,0,0,0,2.2-1.61,4.38,4.38,0,0,0,.72-1.86,100.75,100.75,0,0,1-23.5-.29C219.73,113.93,207.27,106.84,203.81,111.33Z"/><path class="cls-2" d="M200.41,130.72a48.76,48.76,0,0,0,2.94,13.8,72.49,72.49,0,0,0,6.75,13.22c3.23,4.83,4.82,5.77,5,8.52.33,5.11-4.69,9.25-5.58,10-10.14,8.37-27.85.56-29.08,0"/><path class="cls-25" d="M210.71,28.91a20,20,0,0,1-.9,6.64,22.29,22.29,0,0,1-4.91,8c-2.09,2.15-6.24,5.41-15.65,7C173,53.17,155.36,48.34,149,46.42Z"/><path class="cls-26" d="M103.84,259.3A21.25,21.25,0,0,1,115.3,273a119.37,119.37,0,0,1-2.2,13.43c-1.19,5.3-2.25,8.32-4.19,14.54-3.48,11.19-5.22,16.78-6.39,22-2.73,12.3-2.65,20.15-6.17,20.93-1.91.43-4.5-1.31-4.84-1.54a10.2,10.2,0,0,1-3.46-4.22,13.53,13.53,0,0,1-1.39-5.47q2.72-16.23,6.72-33.93C96.58,284.72,100.13,271.56,103.84,259.3Z"/><path class="cls-27" d="M126,278.26c-1.52,9.91-3.41,24.05-4.74,41.18-1,13.06-1.33,22.84-1.76,36.79-.71,22.48-.23,25-.89,49.13-.42,15.47-1,27.12-1.54,39.65-.84,18.17-1.75,33.8-2.53,46.07,3-9.31,6.58-19.21,10.9-29.55a373.89,373.89,0,0,1,17.9-37,162.6,162.6,0,0,0,2.59-26c.21-11.13-.85-15.33-1.1-26.44-.31-13.66,1-17.92,2.2-34.59,1.85-26,4-56.53-7.49-62.34-1.55-.79-7.7-3.31-11.23-.66A6.29,6.29,0,0,0,126,278.26Z"/><path class="cls-28" d="M154.51,426.06,161,494.31a19.64,19.64,0,0,0,2.55.93,18.85,18.85,0,0,0,6,.66,103.36,103.36,0,0,0,4.41-14.32s7.27-31.72-7.05-57.28c-.87-1.55-2.26-3.64-4.41-4C158.7,419.77,155.22,425,154.51,426.06Z"/><path class="cls-29" d="M198.79,253.13a70.47,70.47,0,0,1-18.28.44l1.68,13.79c9.27,1.37,17.47,1.76,27.18-.57a71.24,71.24,0,0,0,17.18-6.61c2.3-2.53,4.71-5.33,7.14-8.4l-9.26-8A71,71,0,0,1,198.79,253.13Z"/><path class="cls-30" d="M139,515.36a18.61,18.61,0,0,1,1.62-3.45,19,19,0,0,1,1.17-1.69,11,11,0,0,1,2.43-.93c8.68-2.15,20,6.86,18.94,11.94-.39,1.91-2.64,3.89-3.31,4.48a11.35,11.35,0,0,1-3.3,2.13c-.91.25-5.48,1.44-12.41-1.1a31.13,31.13,0,0,1-6.27-3.16,21.43,21.43,0,0,1,.39-5.58A20.62,20.62,0,0,1,139,515.36Z"/><path class="cls-31" d="M205.25,512.57a20.14,20.14,0,0,1,8.52-1.55c2.84.12,6.82.29,8.89,2.43a22.44,22.44,0,0,0,2.72,2.64c1,.82,1.25.84,1.61,1.32a4.79,4.79,0,0,1,.37,4.7c-1.17,2.24-4.74,2.33-8.89,2.43a25.66,25.66,0,0,1-12.26-2.43c-2.1-1-4.27-2.13-4.55-4.11s1.34-3.79,1.44-3.91A6.11,6.11,0,0,1,205.25,512.57Z"/><path class="cls-32" d="M22.92,236.83c.09-2.52-2-3.38-5.29-9.26-2-3.68-3.5-6.28-4-9.91a25.89,25.89,0,0,1,2-12.56c1.6-3.89,3.13-5.07,2.53-6.37-.39-.84-1.62-1.61-5-1.61l.1,0c-1.19,1.13-9.76,9.53-8.6,21.81,1,10,7.72,15.92,9.92,17.85A29.42,29.42,0,0,0,20.73,241,6.14,6.14,0,0,0,22.92,236.83Z"/><path class="cls-33" d="M119.62,13.39a129.53,129.53,0,0,0-22,13.78c-26.27,20.54-39.29,49.31-43,57.49a160.63,160.63,0,0,0-6.09,15.89c.76,3.11,1.58,6.28,2.46,9.49.22.84,1.37,5,2.82,9.81,4,13.3,8.45,24.74,9.87,28.35,2.94,7.49,4.41,11.23,6.32,15.16,7.48,15.35,14.3,22.23,16.74,24.56a65.18,65.18,0,0,0,5.84,5,135.37,135.37,0,0,1-13.22-27c-2.78-7.84-4.17-14.22-1.71-20.44a19.74,19.74,0,0,1,2.26-4.12c6.14-9.16,3.5-19.55,5.78-33.53C88.92,88.08,99.78,74.12,104.27,69c1.71-1.94,3.1-3.34,3.92-4.17,5.27-5.34,16.6-15.17,35.68-20.49l1.25.38a86,86,0,0,0-25.5-31.34Z"/><path class="cls-21" d="M209.59,29.31a30.56,30.56,0,0,1-7.27,11.23c-10.09,9.7-24.73,9.13-38.33,8.59a112,112,0,0,1-29.74-5.28C115.16,49.17,103.83,59,98.56,64.33c-3.74,3.78-19.28,19.51-22.47,43-2,15,2,26.15-6.61,36.35-2.27,2.7-3.34,2.88-5.77,4.56a35,35,0,0,0-4.15,3.37C48.1,162,47.67,176.68,47.67,176.68c-.41,14.08,8.23,23.37,9.91,25.12-.74.73-7.34,7.38-5.95,15.86,1.42,8.65,10.58,15.77,21.81,15.2-.66,4.9-.83,12.28,3.31,18.51,8,12,25.6,10.25,25.55,13.15-.06,3.93-32.62,15.7-50-1.26-6.64-6.48-8.59-14.75-9.25-19.16-2.31.39-17,2.68-28.42-7.27-2.19-1.93-9-7.85-9.91-17.85-1.16-12.28,7.41-20.68,8.59-21.81A27.78,27.78,0,0,1,2.73,185.94c-5.21-10.49-1.41-21.15,0-25.12C7,149,14.74,143.64,21.23,137,36.31,121.67,33.66,109.53,45,84.16,48.69,76,61.71,47.21,88,26.66,115.64,5,160.45-9.62,193.73,7.5A64.17,64.17,0,0,1,206.33,16a134.55,134.55,0,0,1,17.14,10.65c21.28,15.6,29.75,31.63,33,39,1.88,4.23,2.77,7.19,2.2,7.52-1.71,1-12.39-23.63-36.57-37.92A76,76,0,0,0,209.59,29.31Z"/><path class="cls-34" d="M20.28,189.93c1.71-3.32-2-6.23-2-13.13,0-7.07,3.93-12.61,8.22-18.62,2.38-3.34,4.06-5,8.89-10,5.33-5.56,10.51-11.25,15.78-16.86,12.42-13.19,9.79-29,19-48.9,12.93-28.06,39.16-42.09,44.5-44.94,12.6-6.74,32.85-13.95,47.14-16.75a107.69,107.69,0,0,0,26.37-8.49c3.13-1.48,5.63-2.85,7.26-3.78-.57-.32-1.15-.63-1.75-.94C160.38-9.62,115.57,5,87.92,26.66,61.64,47.21,48.62,76,45,84.16,33.6,109.53,36.25,121.67,21.17,137,14.68,143.64,6.88,149,2.66,160.82c-1.41,4-5.21,14.63,0,25.12a26.13,26.13,0,0,0,5.25,7.13C16.36,193.54,19.3,191.83,20.28,189.93Z"/><path class="cls-35" d="M56.77,154.51q1.45,5.1,2.9,10.2a15.59,15.59,0,0,0-3.78,3,17.82,17.82,0,0,0-4.39,11.69,28.57,28.57,0,0,1-2-2.61A29.45,29.45,0,0,1,47.92,174a53.79,53.79,0,0,1,2.69-9.48A29.41,29.41,0,0,1,53.84,158,25.24,25.24,0,0,1,56.77,154.51Z"/></g></svg>