<svg xmlns="http://www.w3.org/2000/svg" xmlns:xlink="http://www.w3.org/1999/xlink" viewBox="0 0 245.01 153.36"><defs><style>.cls-1{fill:#f5f8fc;}.cls-2,.cls-3,.cls-4{opacity:0.7;}.cls-2{fill:url(#Gradient_bez_nazwy_228);}.cls-3{fill:url(#Gradient_bez_nazwy_228-2);}.cls-4{fill:url(#Gradient_bez_nazwy_228-3);}</style><linearGradient id="Gradient_bez_nazwy_228" x1="179.27" y1="134.32" x2="135.37" y2="58.28" gradientUnits="userSpaceOnUse"><stop offset="0" stop-color="#100e2a" stop-opacity="0.8"/><stop offset="0.6" stop-color="#98a2bd" stop-opacity="0.24"/><stop offset="1" stop-color="#d2e2fc" stop-opacity="0"/></linearGradient><linearGradient id="Gradient_bez_nazwy_228-2" x1="49.06" y1="144.24" x2="39.53" y2="127.75" xlink:href="#Gradient_bez_nazwy_228"/><linearGradient id="Gradient_bez_nazwy_228-3" x1="12.64" y1="152.8" x2="8.35" y2="145.36" xlink:href="#Gradient_bez_nazwy_228"/></defs><g id="snooze"><ellipse class="cls-1" cx="138.02" cy="66.93" rx="106.99" ry="66.93"/><ellipse class="cls-1" cx="41.26" cy="130.65" rx="17.95" ry="14.64"/><ellipse class="cls-1" cx="8.8" cy="146.18" rx="8.8" ry="7.18"/><path class="cls-2" d="M245,67.06c-.09,14.16-7.32,24.24-11.43,29.76C213.93,123.17,170,133.56,138,134c-28.06.38-47.89-6.9-53.8-9.21a134.78,134.78,0,0,1-32.45-18.24c78.68,21.89,147,5.73,168.53-34.23,4.4-8.16,9.19-21.67,7-42.26C230.87,33.3,245.14,47,245,67.06Z"/><path class="cls-3" d="M59.21,130.78a13.15,13.15,0,0,1-3.46,8.55c-5,5.91-12.76,6-14.49,6a19.26,19.26,0,0,1-11.49-3.42,18.58,18.58,0,0,1-5.11-5.55,28.25,28.25,0,0,0,12.26,2c3.22-.19,8.19-.48,12.7-4.14a19.36,19.36,0,0,0,6.6-11.54A12.88,12.88,0,0,1,59.21,130.78Z"/><path class="cls-4" d="M17.6,146.31a6.42,6.42,0,0,1-1.64,4c-2.53,3.08-6.66,3-7.32,3a9.6,9.6,0,0,1-6.08-2.15,8.61,8.61,0,0,1-1.49-1.63c6.62,1.61,12.48.18,14.57-3.43a6.67,6.67,0,0,0,.87-3.42A6.2,6.2,0,0,1,17.6,146.31Z"/></g></svg>