<svg xmlns="http://www.w3.org/2000/svg" xmlns:xlink="http://www.w3.org/1999/xlink" viewBox="0 0 126.96 88.85"><defs><style>.cls-1{fill:#fce7e6;}.cls-2{opacity:0.7;fill:url(#Gradient_bez_nazwy_2);}.cls-3{fill:#e52c61;}</style><linearGradient id="Gradient_bez_nazwy_2" x1="98.78" y1="99.92" x2="59.56" y2="31.99" gradientUnits="userSpaceOnUse"><stop offset="0" stop-color="#c72f5e" stop-opacity="0.8"/><stop offset="0.12" stop-color="#ca3864" stop-opacity="0.76"/><stop offset="0.3" stop-color="#d15076" stop-opacity="0.66"/><stop offset="0.52" stop-color="#dc7894" stop-opacity="0.48"/><stop offset="0.77" stop-color="#ecaebc" stop-opacity="0.25"/><stop offset="1" stop-color="#fce7e6" stop-opacity="0"/></linearGradient></defs><g id="snooze"><rect class="cls-1" width="126.96" height="88.85" rx="12"/><path class="cls-2" d="M115,88.85l-103.5-.17H11.4c0-.11,14.85-1.61,15.72-1.7C49.78,84.7,105.27,84.76,112.06,74c.8-1.27,1.5-2.73,1.5-2.73a31.12,31.12,0,0,0,2.92-12.93c.19-6.21-.07-28.29-1.52-58.38a12.16,12.16,0,0,1,8.84,3.75A12.08,12.08,0,0,1,127,12V76.85a12.49,12.49,0,0,1-2.65,7.41A12.9,12.9,0,0,1,115,88.85Z"/><path class="cls-3" d="M69.74,16.26a3.47,3.47,0,0,0-3.47,0l-24,13.56H32a5.48,5.48,0,0,0-5.47,5.47V52.09A5.48,5.48,0,0,0,32,57.56H42.43L66.27,71a3.48,3.48,0,0,0,5.2-3V19.27A3.45,3.45,0,0,0,69.74,16.26ZM28.92,52.09V35.26a3.06,3.06,0,0,1,3-3h9.24V55.14H32A3.06,3.06,0,0,1,28.92,52.09ZM69.05,68a1.06,1.06,0,0,1-1.58.93L44,55.69V31.59L67.47,18.34a1.06,1.06,0,0,1,1.58.93Z"/><path class="cls-3" d="M99.74,42.43H83a1.21,1.21,0,1,0,0,2.42H99.74a1.21,1.21,0,1,0,0-2.42Z"/><path class="cls-3" d="M81,35.25a1.15,1.15,0,0,0,.48-.1l15.61-6.74a1.21,1.21,0,1,0-1-2.22L80.5,32.93A1.21,1.21,0,0,0,81,35.25Z"/><path class="cls-3" d="M97.07,58.6,81.46,51.86a1.21,1.21,0,0,0-1,2.22l15.61,6.74a1.15,1.15,0,0,0,.48.1,1.21,1.21,0,0,0,.48-2.32Z"/></g></svg>