<svg id="Warstwa_1" data-name="Warstwa 1" xmlns="http://www.w3.org/2000/svg" xmlns:xlink="http://www.w3.org/1999/xlink" viewBox="0 0 33.93 14.87"><defs><style>.cls-1{fill:#d2e2fc;}.cls-2{opacity:0.7;fill:url(#Gradient_bez_nazwy_22);}</style><linearGradient id="Gradient_bez_nazwy_22" x1="15.77" y1="16.76" x2="20.6" y2="-16.83" gradientUnits="userSpaceOnUse"><stop offset="0" stop-color="#3d80ea" stop-opacity="0.8"/><stop offset="0.19" stop-color="#6097ee" stop-opacity="0.61"/><stop offset="0.47" stop-color="#91b7f4" stop-opacity="0.35"/><stop offset="0.71" stop-color="#b4cef8" stop-opacity="0.16"/><stop offset="0.89" stop-color="#caddfb" stop-opacity="0.04"/><stop offset="1" stop-color="#d2e2fc" stop-opacity="0"/></linearGradient></defs><path class="cls-1" d="M0,6.84A38.37,38.37,0,0,1,18,.28c4.49-.4,10-.9,13.32,2.68,2.37,2.54,3.6,7,1.77,9.6-1.2,1.7-3.53,2.27-6.93,2.31C16.56,15,6.94,10.76,0,6.84Z"/><path class="cls-2" d="M0,6.84A38.37,38.37,0,0,1,18,.28c4.49-.4,10-.9,13.32,2.68,2.37,2.54,3.6,7,1.77,9.6-1.2,1.7-3.53,2.27-6.93,2.31C16.56,15,6.94,10.76,0,6.84Z"/></svg>