<svg id="Warstwa_1" data-name="Warstwa 1" xmlns="http://www.w3.org/2000/svg" xmlns:xlink="http://www.w3.org/1999/xlink" viewBox="0 0 32.83 16.9"><defs><style>.cls-1{fill:#d2e2fc;}.cls-2{opacity:0.7;fill:url(#Gradient_bez_nazwy_22);}</style><linearGradient id="Gradient_bez_nazwy_22" x1="19.07" y1="19.47" x2="9.37" y2="-8.97" gradientUnits="userSpaceOnUse"><stop offset="0" stop-color="#3d80ea" stop-opacity="0.8"/><stop offset="0.19" stop-color="#6097ee" stop-opacity="0.61"/><stop offset="0.47" stop-color="#91b7f4" stop-opacity="0.35"/><stop offset="0.71" stop-color="#b4cef8" stop-opacity="0.16"/><stop offset="0.89" stop-color="#caddfb" stop-opacity="0.04"/><stop offset="1" stop-color="#d2e2fc" stop-opacity="0"/></linearGradient></defs><path class="cls-1" d="M0,16.3A38.24,38.24,0,0,1,14.08,3.37c4-2.1,8.87-4.66,13.34-2.63,3.15,1.44,6,5.12,5.31,8.19-.47,2-2.4,3.45-5.53,4.79C18.41,17.47,7.91,17.27,0,16.3Z"/><path class="cls-2" d="M0,16.3A38.24,38.24,0,0,1,14.08,3.37c4-2.1,8.87-4.66,13.34-2.63,3.15,1.44,6,5.12,5.31,8.19-.47,2-2.4,3.45-5.53,4.79C18.41,17.47,7.91,17.27,0,16.3Z"/></svg>