<svg id="Warstwa_1" data-name="Warstwa 1" xmlns="http://www.w3.org/2000/svg" xmlns:xlink="http://www.w3.org/1999/xlink" viewBox="0 0 29.62 14.17"><defs><style>.cls-1{fill:#d2e2fc;}.cls-2{opacity:0.7;fill:url(#Gradient_bez_nazwy_110);}</style><linearGradient id="Gradient_bez_nazwy_110" x1="12.16" y1="16.45" x2="18.34" y2="-9.9" gradientUnits="userSpaceOnUse"><stop offset="0" stop-color="#3d80ea" stop-opacity="0.8"/><stop offset="0.19" stop-color="#6097ee" stop-opacity="0.61"/><stop offset="0.47" stop-color="#91b7f4" stop-opacity="0.35"/><stop offset="0.71" stop-color="#b4cef8" stop-opacity="0.16"/><stop offset="0.89" stop-color="#caddfb" stop-opacity="0.04"/><stop offset="1" stop-color="#d2e2fc" stop-opacity="0"/></linearGradient></defs><path class="cls-1" d="M28.34,2.06A31.75,31.75,0,0,0,12.54.34C8.83.9,4.3,1.59,2.31,5.15c-1.4,2.52-1.51,6.39.48,8.1,1.31,1.13,3.31,1.13,6.06.48C16.59,11.92,23.52,6.6,28.34,2.06Z"/><path class="cls-2" d="M28.34,2.06A31.75,31.75,0,0,0,12.54.34C8.83.9,4.3,1.59,2.31,5.15c-1.4,2.52-1.51,6.39.48,8.1,1.31,1.13,3.31,1.13,6.06.48C16.59,11.92,23.52,6.6,28.34,2.06Z"/></svg>