<svg id="Warstwa_1" data-name="Warstwa 1" xmlns="http://www.w3.org/2000/svg" xmlns:xlink="http://www.w3.org/1999/xlink" viewBox="0 0 26.72 15.09"><defs><style>.cls-1{fill:#d2e2fc;}.cls-2{opacity:0.7;fill:url(#Gradient_bez_nazwy_110);}</style><linearGradient id="Gradient_bez_nazwy_110" x1="11.45" y1="16.36" x2="19.58" y2="-9.1" gradientUnits="userSpaceOnUse"><stop offset="0" stop-color="#3d80ea" stop-opacity="0.8"/><stop offset="0.19" stop-color="#6097ee" stop-opacity="0.61"/><stop offset="0.47" stop-color="#91b7f4" stop-opacity="0.35"/><stop offset="0.71" stop-color="#b4cef8" stop-opacity="0.16"/><stop offset="0.89" stop-color="#caddfb" stop-opacity="0.04"/><stop offset="1" stop-color="#d2e2fc" stop-opacity="0"/></linearGradient></defs><path class="cls-1" d="M26.72,15A31.76,31.76,0,0,0,15.84,3.42c-3.18-2-7.07-4.41-10.9-3-2.7,1-5.3,3.87-4.9,6.47.26,1.71,1.78,3,4.29,4.3C11.38,14.85,20.11,15.32,26.72,15Z"/><path class="cls-2" d="M26.72,15A31.76,31.76,0,0,0,15.84,3.42c-3.18-2-7.07-4.41-10.9-3-2.7,1-5.3,3.87-4.9,6.47.26,1.71,1.78,3,4.29,4.3C11.38,14.85,20.11,15.32,26.72,15Z"/></svg>