<svg id="Warstwa_1" data-name="Warstwa 1" xmlns="http://www.w3.org/2000/svg" xmlns:xlink="http://www.w3.org/1999/xlink" viewBox="0 0 31.85 18.12"><defs><style>.cls-1{fill:#d2e2fc;}.cls-2{opacity:0.7;fill:url(#Gradient_bez_nazwy_24);}</style><linearGradient id="Gradient_bez_nazwy_24" x1="12.69" y1="15.81" x2="24.34" y2="-13.83" gradientUnits="userSpaceOnUse"><stop offset="0" stop-color="#3d80ea" stop-opacity="0.8"/><stop offset="0.19" stop-color="#6097ee" stop-opacity="0.61"/><stop offset="0.47" stop-color="#91b7f4" stop-opacity="0.35"/><stop offset="0.71" stop-color="#b4cef8" stop-opacity="0.16"/><stop offset="0.89" stop-color="#caddfb" stop-opacity="0.04"/><stop offset="1" stop-color="#d2e2fc" stop-opacity="0"/></linearGradient></defs><path class="cls-1" d="M0,1.56A38.31,38.31,0,0,1,19.11.9c4.39,1,9.76,2.24,11.83,6.69,1.47,3.14,1.24,7.79-1.3,9.67-1.67,1.23-4.06,1.06-7.3,0C13.22,14.43,5.38,7.44,0,1.56Z"/><path class="cls-2" d="M0,1.56A38.31,38.31,0,0,1,19.11.9c4.39,1,9.76,2.24,11.83,6.69,1.47,3.14,1.24,7.79-1.3,9.67-1.67,1.23-4.06,1.06-7.3,0C13.22,14.43,5.38,7.44,0,1.56Z"/></svg>