<svg id="Warstwa_1" data-name="Warstwa 1" xmlns="http://www.w3.org/2000/svg" xmlns:xlink="http://www.w3.org/1999/xlink" viewBox="0 0 28.32 12.27"><defs><style>.cls-1{fill:#d2e2fc;}.cls-2{opacity:0.7;fill:url(#Gradient_bez_nazwy_110);}</style><linearGradient id="Gradient_bez_nazwy_110" x1="11.78" y1="14.38" x2="20.35" y2="-12.61" gradientUnits="userSpaceOnUse"><stop offset="0" stop-color="#3d80ea" stop-opacity="0.8"/><stop offset="0.19" stop-color="#6097ee" stop-opacity="0.61"/><stop offset="0.47" stop-color="#91b7f4" stop-opacity="0.35"/><stop offset="0.71" stop-color="#b4cef8" stop-opacity="0.16"/><stop offset="0.89" stop-color="#caddfb" stop-opacity="0.04"/><stop offset="1" stop-color="#d2e2fc" stop-opacity="0"/></linearGradient></defs><path class="cls-1" d="M28.32,7.12A31.94,31.94,0,0,0,13.83.58C10.13,0,5.61-.79,2.61,2,.5,3.94-.8,7.59.56,9.83c.89,1.48,2.79,2.1,5.61,2.34C14.08,12.84,22.32,10,28.32,7.12Z"/><path class="cls-2" d="M28.32,7.12A31.94,31.94,0,0,0,13.83.58C10.13,0,5.61-.79,2.61,2,.5,3.94-.8,7.59.56,9.83c.89,1.48,2.79,2.1,5.61,2.34C14.08,12.84,22.32,10,28.32,7.12Z"/></svg>