<svg xmlns="http://www.w3.org/2000/svg" xmlns:xlink="http://www.w3.org/1999/xlink" viewBox="0 0 245.01 153.36"><defs><style>.cls-1{fill:#d2e2fc;}.cls-2,.cls-3,.cls-4{opacity:0.7;}.cls-2{fill:url(#Gradient_bez_nazwy_110);}.cls-3{fill:url(#Gradient_bez_nazwy_110-2);}.cls-4{fill:url(#Gradient_bez_nazwy_110-3);}</style><linearGradient id="Gradient_bez_nazwy_110" x1="179.1" y1="134.81" x2="133.9" y2="56.51" gradientUnits="userSpaceOnUse"><stop offset="0" stop-color="#3d80ea" stop-opacity="0.8"/><stop offset="0.19" stop-color="#6097ee" stop-opacity="0.61"/><stop offset="0.47" stop-color="#91b7f4" stop-opacity="0.35"/><stop offset="0.71" stop-color="#b4cef8" stop-opacity="0.16"/><stop offset="0.89" stop-color="#caddfb" stop-opacity="0.04"/><stop offset="1" stop-color="#d2e2fc" stop-opacity="0"/></linearGradient><linearGradient id="Gradient_bez_nazwy_110-2" x1="49.05" y1="144.15" x2="40.63" y2="129.55" xlink:href="#Gradient_bez_nazwy_110"/><linearGradient id="Gradient_bez_nazwy_110-3" x1="12.69" y1="152.81" x2="8.55" y2="145.64" xlink:href="#Gradient_bez_nazwy_110"/></defs><g id="snooze"><ellipse class="cls-1" cx="138.02" cy="66.93" rx="106.99" ry="66.93"/><ellipse class="cls-1" cx="41.26" cy="130.65" rx="17.95" ry="14.64"/><ellipse class="cls-1" cx="8.8" cy="146.18" rx="8.8" ry="7.18"/><path class="cls-2" d="M245,66.59c0,17.23-10.14,29-15,34.68-5.18,6-12.06,11.8-24,17.79-37.81,18.94-76.38,15-86.79,13.77C107.55,131.49,87.63,129,66,116.44A120.65,120.65,0,0,1,49.74,105.1a184.29,184.29,0,0,0,53.62,7.66c21.92-.14,70.05-.46,101.36-35.23,6.78-7.53,18-22.45,23.36-47.08C230.87,33,245,46.25,245,66.59Z"/><path class="cls-3" d="M59.21,130.81a13.07,13.07,0,0,1-2.86,7.8c-5,6.61-16.18,8.67-24.26,4.69a19.14,19.14,0,0,1-6.36-5.15c8.52,3.21,17.73,2,24-3.39A21.94,21.94,0,0,0,56.57,123,12.92,12.92,0,0,1,59.21,130.81Z"/><path class="cls-4" d="M17.6,146.34a6.74,6.74,0,0,1-2.17,4.59,8.66,8.66,0,0,1-5.32,2.33,10.2,10.2,0,0,1-7.71-2.18,7.35,7.35,0,0,1-1.13-1.24c.55.22,5.95,2.22,10.78-1a11.55,11.55,0,0,0,4.53-6.09A6.31,6.31,0,0,1,17.6,146.34Z"/></g></svg>