<svg xmlns="http://www.w3.org/2000/svg" viewBox="0 0 88.36 94.67"><defs><style>.cls-1{fill:#3d80ea;}</style></defs><g id="snooze"><path class="cls-1" d="M88.35,52.9a4.54,4.54,0,0,0-1.65-3.32,4.79,4.79,0,0,0-5.41-.2L84,45.71a5.9,5.9,0,0,0,1.38-4.65,5.09,5.09,0,0,0-2.18-3.61,5.36,5.36,0,0,0-5.57,0l1.24-1.81a1.28,1.28,0,0,0,.11-.2,5.84,5.84,0,0,0-1.72-7.18,5.4,5.4,0,0,0-4.41-.72,6.17,6.17,0,0,0-4,3.09l-.62.91A5.11,5.11,0,0,0,66.83,28a5.29,5.29,0,0,0-4.3-1.39,7.12,7.12,0,0,0-5.17,3l-1.08,1.29,2.34-9a5.11,5.11,0,0,0-.28-4.09,4.51,4.51,0,0,0-2.9-2.33,4.77,4.77,0,0,0-5,2.08l.88-4.45a5.91,5.91,0,0,0-.68-4.8,5.1,5.1,0,0,0-3.5-2.37,5.38,5.38,0,0,0-5,2.35c.12-.7.24-1.42.37-2.16a1.94,1.94,0,0,0,0-.24A5.85,5.85,0,0,0,37.92.07a5.45,5.45,0,0,0-4.31,1.19,6.19,6.19,0,0,0-2.29,4.46l-.18,1.09a5.09,5.09,0,0,0-2.77-2.67,5.34,5.34,0,0,0-4.49.53,7.16,7.16,0,0,0-3.43,4.92c-1.36,4.78-2.55,9.67-3.54,14.53-1.14,5.6-2,11.3-2.67,17-2.71-5.25-6.47-10.92-9.9-10.64A5,5,0,0,0,1,32c-1.5,1.73-1,4.15-.76,4.85L.3,37c2.2,5.54,4.29,11.22,6.21,16.86.89,2.62,1.77,5.3,2.61,8A18.27,18.27,0,0,0,13,68.59a19.62,19.62,0,0,0,12.11,6,17.92,17.92,0,0,0,.83,5.56c2.85,9,12,12.45,14.07,13.14a12.86,12.86,0,0,0,3.5,1.21,12,12,0,0,0,2.31.21C55.13,94.67,64.1,84.6,69.1,79a77.25,77.25,0,0,0,6.58-8.52L86.9,56.75A5.13,5.13,0,0,0,88.35,52.9ZM27.62,46.07c-.32,6-.8,12-1.42,17.91-.27,2.61-.57,5.25-.9,7.88A16.82,16.82,0,0,1,15,66.77,15.5,15.5,0,0,1,11.69,61C10.85,58.3,10,55.6,9.06,53,7.14,47.3,5.05,41.6,2.84,36A2.7,2.7,0,0,1,3,33.78a2.45,2.45,0,0,1,1.52-.61c1.83-.15,5.83,5.63,9.32,13.44a1.36,1.36,0,0,0,1.46.78,1.37,1.37,0,0,0,1.12-1.22,188.17,188.17,0,0,1,3.09-21.51c1-4.82,2.16-9.66,3.52-14.39l0-.14A4.45,4.45,0,0,1,25.22,7a2.76,2.76,0,0,1,2.21-.34c1.1.41,2,2.19,1.61,4.2A.29.29,0,0,0,29,11c-3,22.69-3,22.69-1.33,22.94,1.36.2,1.61-1,2-2.71.23-1.11.55-2.81.95-5C31.4,21.72,32.54,15,34,6.08a.77.77,0,0,0,0-.15A3.5,3.5,0,0,1,35.3,3.37a2.76,2.76,0,0,1,2.16-.64,3.14,3.14,0,0,1,2.33,3.05c-4.87,28.53-4.73,28.56-3,28.89C38.33,35,38.56,34,40,27.9c.92-3.84,2.24-9.69,3.9-17.39a2.84,2.84,0,0,1,2.82-1.92,2.44,2.44,0,0,1,1.62,1.15,3.28,3.28,0,0,1,.36,2.65l0,.12L44.43,34a1.35,1.35,0,0,0,2.59.72l5.49-15.32a2.15,2.15,0,0,1,2.29-1.27,1.87,1.87,0,0,1,1.15,1,2.39,2.39,0,0,1,.12,2,.93.93,0,0,0,0,.13L52.19,35.91c-1.41,1.8-2.79,3.61-4.12,5.43C44.69,46,41.5,50.76,38.54,55.67c-.27-5.9-1.31-12.62-4.54-13.8a5,5,0,0,0-3.65,0c-2.09.95-2.61,3.37-2.72,4.09A.62.62,0,0,0,27.62,46.07Zm57.32,8.82-.09.1L73.55,68.82l-.08.1a76.06,76.06,0,0,1-6.38,8.27C62,82.87,52.62,93.43,44,91.81a10.22,10.22,0,0,1-2.84-1l-.22-.09C39.3,90.2,31,87.17,28.5,79.29a15.53,15.53,0,0,1-.58-6.64c.35-2.79.68-5.61,1-8.39.62-6,1.09-12,1.42-18a2.69,2.69,0,0,1,1.12-2,2.5,2.5,0,0,1,1.64.08C34.79,45,36,52,35.92,60.5a1.35,1.35,0,0,0,2.52.69,191.27,191.27,0,0,1,11.8-18.25c2.91-4,6-7.88,9.21-11.61l.09-.11a4.48,4.48,0,0,1,3.23-1.95,2.79,2.79,0,0,1,2.15.61c.83.84.91,2.84-.29,4.49l-.06.08c-12.2,19.36-12.2,19.36-10.79,20.28,1.15.75,1.89-.25,2.91-1.64.68-.91,1.68-2.32,3-4.17,2.58-3.7,6.44-9.36,11.47-16.82l.08-.14a3.47,3.47,0,0,1,2.24-1.79,2.75,2.75,0,0,1,2.22.33,3.13,3.13,0,0,1,.85,3.74c-16.35,23.89-16.23,24-14.79,25,1.27.91,1.87.15,5.76-4.8,2.45-3.1,6.09-7.87,10.82-14.17a2.85,2.85,0,0,1,3.36-.57,2.45,2.45,0,0,1,1,1.73A3.2,3.2,0,0,1,81.87,44l-.07.09L69,61.77A1.35,1.35,0,0,0,71,63.51L82.41,51.89a2.16,2.16,0,0,1,2.61-.2,1.89,1.89,0,0,1,.64,1.36A2.45,2.45,0,0,1,84.94,54.89Z"/></g></svg>