<svg xmlns="http://www.w3.org/2000/svg" xmlns:xlink="http://www.w3.org/1999/xlink" viewBox="0 0 245.01 153.36"><defs><style>.cls-1{fill:#d2e2fc;}.cls-2,.cls-3,.cls-4{opacity:0.7;}.cls-2{fill:url(#Gradient_bez_nazwy_110);}.cls-3{fill:url(#Gradient_bez_nazwy_110-2);}.cls-4{fill:url(#Gradient_bez_nazwy_110-3);}.cls-5{fill:#3d80ea;}</style><linearGradient id="Gradient_bez_nazwy_110" x1="179.1" y1="134.81" x2="133.9" y2="56.51" gradientUnits="userSpaceOnUse"><stop offset="0" stop-color="#3d80ea" stop-opacity="0.8"/><stop offset="0.19" stop-color="#6097ee" stop-opacity="0.61"/><stop offset="0.47" stop-color="#91b7f4" stop-opacity="0.35"/><stop offset="0.71" stop-color="#b4cef8" stop-opacity="0.16"/><stop offset="0.89" stop-color="#caddfb" stop-opacity="0.04"/><stop offset="1" stop-color="#d2e2fc" stop-opacity="0"/></linearGradient><linearGradient id="Gradient_bez_nazwy_110-2" x1="49.05" y1="144.15" x2="40.63" y2="129.55" xlink:href="#Gradient_bez_nazwy_110"/><linearGradient id="Gradient_bez_nazwy_110-3" x1="12.69" y1="152.81" x2="8.55" y2="145.64" xlink:href="#Gradient_bez_nazwy_110"/></defs><g id="snooze"><ellipse class="cls-1" cx="138.02" cy="66.93" rx="106.99" ry="66.93"/><ellipse class="cls-1" cx="41.26" cy="130.65" rx="17.95" ry="14.64"/><ellipse class="cls-1" cx="8.8" cy="146.18" rx="8.8" ry="7.18"/><path class="cls-2" d="M245,66.59c0,17.23-10.14,29-15,34.68-5.18,6-12.06,11.8-24,17.79-37.81,18.94-76.38,15-86.79,13.77C107.55,131.49,87.63,129,66,116.44A120.65,120.65,0,0,1,49.74,105.1a184.29,184.29,0,0,0,53.62,7.66c21.92-.14,70.05-.46,101.36-35.23,6.78-7.53,18-22.45,23.36-47.08C230.87,33,245,46.25,245,66.59Z"/><path class="cls-3" d="M59.21,130.81a13.07,13.07,0,0,1-2.86,7.8c-5,6.61-16.18,8.67-24.26,4.69a19.14,19.14,0,0,1-6.36-5.15c8.52,3.21,17.73,2,24-3.39A21.94,21.94,0,0,0,56.57,123,12.92,12.92,0,0,1,59.21,130.81Z"/><path class="cls-4" d="M17.6,146.34a6.74,6.74,0,0,1-2.17,4.59,8.66,8.66,0,0,1-5.32,2.33,10.2,10.2,0,0,1-7.71-2.18,7.35,7.35,0,0,1-1.13-1.24c.55.22,5.95,2.22,10.78-1a11.55,11.55,0,0,0,4.53-6.09A6.31,6.31,0,0,1,17.6,146.34Z"/><path class="cls-5" d="M183.91,71.47a4.55,4.55,0,0,0-1.66-3.32,4.79,4.79,0,0,0-5.41-.2l2.67-3.67a5.94,5.94,0,0,0,1.38-4.65A5.13,5.13,0,0,0,178.71,56a5.36,5.36,0,0,0-5.57,0l1.23-1.81a.82.82,0,0,0,.12-.2,5.85,5.85,0,0,0-1.73-7.18,5.4,5.4,0,0,0-4.41-.72,6.15,6.15,0,0,0-3.94,3.09l-.62.91a5.15,5.15,0,0,0-1.4-3.58,5.29,5.29,0,0,0-4.3-1.39,7.12,7.12,0,0,0-5.17,3c-.37.43-.72.86-1.08,1.29l2.34-9a5.07,5.07,0,0,0-.29-4.09A4.51,4.51,0,0,0,151,34a4.79,4.79,0,0,0-5,2.08l.89-4.45a6,6,0,0,0-.69-4.8,5.1,5.1,0,0,0-3.49-2.37,5.36,5.36,0,0,0-5.05,2.35q.18-1.05.36-2.16a1,1,0,0,0,0-.24,5.85,5.85,0,0,0-4.56-5.8,5.43,5.43,0,0,0-4.31,1.19,6.2,6.2,0,0,0-2.3,4.46c-.06.37-.12.73-.17,1.09a5.14,5.14,0,0,0-2.78-2.67,5.32,5.32,0,0,0-4.48.53A7.1,7.1,0,0,0,116,28.16c-1.37,4.78-2.56,9.67-3.55,14.53-1.14,5.6-2,11.3-2.66,17-2.72-5.25-6.47-10.92-9.9-10.64a5,5,0,0,0-3.32,1.51c-1.51,1.73-1,4.15-.76,4.85a.65.65,0,0,0,0,.13c2.2,5.54,4.29,11.22,6.2,16.86.9,2.62,1.77,5.3,2.61,8a18.29,18.29,0,0,0,3.88,6.79,19.6,19.6,0,0,0,12.1,6,17.92,17.92,0,0,0,.83,5.56c2.85,9,12,12.45,14.08,13.14a12.91,12.91,0,0,0,3.49,1.21,12.18,12.18,0,0,0,2.31.21c9.32,0,18.3-10.07,23.3-15.68A78.49,78.49,0,0,0,171.24,89l11.21-13.72A5.14,5.14,0,0,0,183.91,71.47Zm-60.74-6.83c-.32,6-.79,12-1.41,17.91-.27,2.61-.58,5.25-.91,7.88a16.87,16.87,0,0,1-10.31-5.09,15.5,15.5,0,0,1-3.3-5.79c-.84-2.68-1.72-5.38-2.62-8-1.92-5.66-4-11.36-6.23-16.92a2.7,2.7,0,0,1,.21-2.26,2.44,2.44,0,0,1,1.51-.61c1.83-.15,5.84,5.63,9.32,13.44a1.35,1.35,0,0,0,2.58-.44,190.45,190.45,0,0,1,3.1-21.51c1-4.82,2.16-9.66,3.51-14.39l0-.14a4.46,4.46,0,0,1,2.13-3.12,2.74,2.74,0,0,1,2.2-.34c1.11.41,2,2.19,1.61,4.2,0,0,0,.06,0,.09-3,22.69-3,22.69-1.32,22.94,1.36.2,1.61-1,2-2.71.24-1.11.56-2.81,1-5,.8-4.43,1.93-11.19,3.39-20.07a.76.76,0,0,0,0-.15,3.48,3.48,0,0,1,1.29-2.56A2.77,2.77,0,0,1,133,21.3a3.14,3.14,0,0,1,2.33,3.05c-4.86,28.53-4.72,28.56-3,28.89,1.54.29,1.76-.65,3.23-6.77.93-3.84,2.24-9.69,3.91-17.39a2.83,2.83,0,0,1,2.82-1.92,2.46,2.46,0,0,1,1.62,1.15,3.24,3.24,0,0,1,.35,2.65l0,.12L140,52.52a1.35,1.35,0,0,0,2.6.72l5.49-15.32a2.14,2.14,0,0,1,2.28-1.27,1.86,1.86,0,0,1,1.16,1,2.39,2.39,0,0,1,.11,2c0,.05,0,.09,0,.13l-3.83,14.77q-2.12,2.7-4.13,5.43c-3.37,4.62-6.57,9.42-9.53,14.33-.27-5.9-1.31-12.62-4.54-13.8a5,5,0,0,0-3.65,0c-2.09.95-2.61,3.37-2.72,4.09C123.18,64.56,123.17,64.6,123.17,64.64Zm57.33,8.82a.47.47,0,0,0-.1.1L169.11,87.39a.39.39,0,0,0-.08.1,74.91,74.91,0,0,1-6.39,8.27c-5,5.68-14.47,16.24-23.09,14.62a10.45,10.45,0,0,1-2.84-1,1.45,1.45,0,0,0-.22-.09c-1.63-.53-9.93-3.55-12.44-11.43a15.69,15.69,0,0,1-.58-6.64c.36-2.79.69-5.61,1-8.39.62-6,1.1-12,1.42-18a2.7,2.7,0,0,1,1.13-2,2.39,2.39,0,0,1,1.63.08c1.72.63,2.95,7.55,2.85,16.1a1.35,1.35,0,0,0,2.52.69A189.44,189.44,0,0,1,145.8,61.51c2.9-4,6-7.88,9.21-11.61a.44.44,0,0,0,.08-.11,4.48,4.48,0,0,1,3.23-1.95,2.82,2.82,0,0,1,2.16.61c.83.84.91,2.84-.3,4.49a.22.22,0,0,0-.05.08c-12.21,19.36-12.21,19.36-10.8,20.28,1.15.75,1.89-.25,2.92-1.64.68-.91,1.68-2.32,3-4.17,2.57-3.7,6.43-9.36,11.46-16.82a1,1,0,0,0,.08-.14A3.51,3.51,0,0,1,169,48.74a2.77,2.77,0,0,1,2.23.33,3.12,3.12,0,0,1,.84,3.74c-16.34,23.89-16.22,24-14.79,25,1.27.91,1.87.15,5.76-4.8,2.45-3.1,6.09-7.87,10.82-14.17a2.86,2.86,0,0,1,3.37-.57,2.52,2.52,0,0,1,1,1.73,3.28,3.28,0,0,1-.79,2.56l-.07.09L164.52,80.34a1.35,1.35,0,0,0,2,1.74L178,70.46a2.16,2.16,0,0,1,2.61-.2,1.82,1.82,0,0,1,.64,1.36A2.41,2.41,0,0,1,180.5,73.46Z"/></g></svg>